<svg width="159" height="159" viewBox="0 0 159 159" fill="none" xmlns="http://www.w3.org/2000/svg">
<g clip-path="url(#clip0_27_1063)">
<path d="M15.2904 133.944L13.89 128.437C11.4072 127.388 8.86696 126.48 6.28146 125.716L6.10471 128.275L5.38789 125.455C2.18141 124.541 0 124.139 0 124.139C0 124.139 2.94583 135.311 9.12654 143.851L16.3276 145.112L10.7333 145.917C11.5108 146.849 12.3463 147.732 13.2349 148.56C22.225 156.88 32.2385 160.698 35.6004 157.086C38.9623 153.475 34.3997 143.803 25.4095 135.484C22.6225 132.905 19.1215 130.835 15.6168 129.206L15.2904 133.944Z" fill="#F2F2F2"/>
<path d="M28.6078 127.963L30.2639 122.527C28.6825 120.35 26.9792 118.263 25.162 116.276L23.684 118.376L24.5319 115.593C22.2604 113.159 20.6015 111.691 20.6015 111.691C20.6015 111.691 17.3323 122.772 18.1947 133.268L23.7053 138.059L18.4985 135.864C18.6806 137.064 18.9383 138.25 19.2699 139.417C22.6525 151.173 29.2454 159.601 33.9955 158.242C38.7455 156.884 39.8543 146.253 36.4717 134.497C35.4231 130.853 33.499 127.277 31.3436 124.076L28.6078 127.963Z" fill="#F2F2F2"/>
<path d="M110.949 37.6672H110.076V13.809C110.076 11.9956 109.717 10.1999 109.021 8.52453C108.325 6.84915 107.305 5.32685 106.019 4.04457C104.733 2.76228 103.206 1.74512 101.526 1.05115C99.8453 0.35718 98.0442 0 96.2254 0H45.5256C41.8523 0 38.3294 1.45487 35.732 4.04457C33.1345 6.63426 31.6753 10.1466 31.6753 13.809V144.699C31.6753 146.513 32.0335 148.308 32.7296 149.984C33.4256 151.659 34.4458 153.181 35.732 154.464C37.0181 155.746 38.5449 156.763 40.2253 157.457C41.9057 158.151 43.7068 158.508 45.5256 158.508H96.2254C99.8987 158.508 103.422 157.053 106.019 154.464C108.616 151.874 110.076 148.361 110.076 144.699V54.6499H110.949L110.949 37.6672Z" fill="#E6E6E6"/>
<path d="M96.7843 3.59131H90.1669C90.4712 4.33527 90.5874 5.14245 90.5051 5.94172C90.4229 6.741 90.1447 7.50783 89.6952 8.17467C89.2456 8.84152 88.6385 9.38789 87.9273 9.76566C87.216 10.1434 86.4225 10.341 85.6166 10.341H56.5713C55.7655 10.3409 54.972 10.1433 54.2608 9.76551C53.5497 9.38771 52.9426 8.84133 52.4931 8.1745C52.0436 7.50767 51.7655 6.74086 51.6832 5.94162C51.601 5.14238 51.7172 4.33524 52.0215 3.59131H45.8404C43.0972 3.59131 40.4663 4.67779 38.5266 6.61175C36.5868 8.54571 35.4971 11.1687 35.4971 13.9037V144.604C35.4971 147.339 36.5868 149.962 38.5266 151.896C40.4663 153.83 43.0972 154.916 45.8404 154.916H96.7843C99.5275 154.916 102.158 153.83 104.098 151.896C106.038 149.962 107.128 147.339 107.128 144.604V13.9035C107.128 11.1685 106.038 8.54559 104.098 6.61168C102.158 4.67776 99.5275 3.59131 96.7843 3.59131Z" fill="white"/>
<path d="M64.8209 55.6555C64.8207 54.742 65.062 53.8444 65.5203 53.0533C65.9786 52.2622 66.6378 51.6054 67.4316 51.1491C66.6382 50.6922 65.7381 50.4516 64.8219 50.4515C63.9057 50.4514 63.0055 50.6918 62.212 51.1485C61.4185 51.6052 60.7595 52.2621 60.3014 53.0532C59.8432 53.8443 59.6021 54.7417 59.6021 55.6552C59.6021 56.5687 59.8432 57.4661 60.3014 58.2572C60.7595 59.0483 61.4185 59.7052 62.212 60.1619C63.0055 60.6186 63.9057 60.859 64.8219 60.8589C65.7381 60.8588 66.6382 60.6182 67.4316 60.1613C66.6378 59.7051 65.9786 59.0484 65.5203 58.2574C65.062 57.4664 64.8208 56.569 64.8209 55.6555Z" fill="#CCCCCC"/>
<path d="M71.382 55.6555C71.3818 54.7419 71.623 53.8444 72.0813 53.0533C72.5396 52.2622 73.1988 51.6054 73.9926 51.1491C73.1992 50.6922 72.2992 50.4516 71.3829 50.4515C70.4667 50.4514 69.5666 50.6918 68.7731 51.1485C67.9795 51.6052 67.3206 52.2621 66.8624 53.0532C66.4043 53.8443 66.1631 54.7417 66.1631 55.6552C66.1631 56.5687 66.4043 57.4661 66.8624 58.2572C67.3206 59.0483 67.9795 59.7052 68.7731 60.1619C69.5666 60.6186 70.4667 60.859 71.3829 60.8589C72.2992 60.8588 73.1992 60.6182 73.9926 60.1613C73.1989 59.7051 72.5397 59.0484 72.0814 58.2574C71.6231 57.4664 71.3818 56.569 71.382 55.6555Z" fill="#CCCCCC"/>
<path d="M77.7945 60.859C80.677 60.859 83.0137 58.5293 83.0137 55.6553C83.0137 52.7814 80.677 50.4517 77.7945 50.4517C74.9119 50.4517 72.5752 52.7814 72.5752 55.6553C72.5752 58.5293 74.9119 60.859 77.7945 60.859Z" fill="#0EA5E9"/>
<path d="M86.5171 71.9085H56.0982C55.8086 71.9081 55.5309 71.7933 55.3262 71.5891C55.1214 71.3849 55.0062 71.1081 55.0059 70.8194V40.4912C55.0062 40.2025 55.1214 39.9257 55.3262 39.7215C55.5309 39.5173 55.8086 39.4025 56.0982 39.4022H86.5171C86.8067 39.4025 87.0844 39.5173 87.2891 39.7215C87.4939 39.9257 87.6091 40.2025 87.6094 40.4912V70.8194C87.6091 71.1081 87.4939 71.3849 87.2891 71.5891C87.0844 71.7933 86.8067 71.9081 86.5171 71.9085ZM56.0982 39.838C55.9244 39.8382 55.7578 39.9071 55.635 40.0296C55.5121 40.1521 55.443 40.3182 55.4428 40.4914V70.8196C55.443 70.9929 55.5121 71.159 55.635 71.2814C55.7578 71.4039 55.9244 71.4728 56.0982 71.473H86.5171C86.6909 71.4728 86.8575 71.4039 86.9803 71.2814C87.1032 71.159 87.1723 70.9929 87.1725 70.8196V40.4914C87.1723 40.3182 87.1032 40.1521 86.9803 40.0296C86.8575 39.9071 86.6909 39.8382 86.5171 39.838H56.0982Z" fill="#CCCCCC"/>
<path d="M93.3093 95.1565H46.6558V95.5922H93.3093V95.1565Z" fill="#CCCCCC"/>
<path d="M48.1291 92.4365C48.9428 92.4365 49.6025 91.7788 49.6025 90.9675C49.6025 90.1563 48.9428 89.4986 48.1291 89.4986C47.3154 89.4986 46.6558 90.1563 46.6558 90.9675C46.6558 91.7788 47.3154 92.4365 48.1291 92.4365Z" fill="#0EA5E9"/>
<path d="M93.3093 109.845H46.6558V110.281H93.3093V109.845Z" fill="#CCCCCC"/>
<path d="M48.1291 107.125C48.9428 107.125 49.6025 106.468 49.6025 105.656C49.6025 104.845 48.9428 104.188 48.1291 104.188C47.3154 104.188 46.6558 104.845 46.6558 105.656C46.6558 106.468 47.3154 107.125 48.1291 107.125Z" fill="#0EA5E9"/>
<path d="M92.4553 126.572H77.7116C77.4569 126.572 77.2127 126.471 77.0326 126.291C76.8525 126.112 76.7513 125.868 76.751 125.614V120.462C76.7513 120.208 76.8525 119.965 77.0326 119.785C77.2127 119.606 77.4569 119.505 77.7116 119.504H92.4553C92.71 119.505 92.9542 119.606 93.1343 119.785C93.3144 119.965 93.4157 120.208 93.4159 120.462V125.614C93.4157 125.868 93.3144 126.112 93.1343 126.291C92.9542 126.471 92.71 126.572 92.4553 126.572Z" fill="#0EA5E9"/>
<path d="M52.9348 92.4365C53.7485 92.4365 54.4081 91.7788 54.4081 90.9675C54.4081 90.1563 53.7485 89.4986 52.9348 89.4986C52.1211 89.4986 51.4614 90.1563 51.4614 90.9675C51.4614 91.7788 52.1211 92.4365 52.9348 92.4365Z" fill="#0EA5E9"/>
<path d="M57.7409 92.4365C58.5546 92.4365 59.2143 91.7788 59.2143 90.9675C59.2143 90.1563 58.5546 89.4986 57.7409 89.4986C56.9272 89.4986 56.2676 90.1563 56.2676 90.9675C56.2676 91.7788 56.9272 92.4365 57.7409 92.4365Z" fill="#0EA5E9"/>
<path d="M52.9348 107.125C53.7485 107.125 54.4081 106.468 54.4081 105.656C54.4081 104.845 53.7485 104.188 52.9348 104.188C52.1211 104.188 51.4614 104.845 51.4614 105.656C51.4614 106.468 52.1211 107.125 52.9348 107.125Z" fill="#0EA5E9"/>
<path d="M57.7409 107.125C58.5546 107.125 59.2143 106.468 59.2143 105.656C59.2143 104.845 58.5546 104.188 57.7409 104.188C56.9272 104.188 56.2676 104.845 56.2676 105.656C56.2676 106.468 56.9272 107.125 57.7409 107.125Z" fill="#0EA5E9"/>
<path d="M158.406 159H5.14025C4.81216 159 4.54639 158.884 4.54639 158.741C4.54639 158.598 4.81216 158.481 5.14025 158.481H158.406C158.734 158.481 159 158.598 159 158.741C159 158.884 158.734 159 158.406 159Z" fill="#3F3D56"/>
<path d="M120.54 104.172C120.644 104.22 120.745 104.276 120.841 104.339L130.415 100.265L130.757 97.7505L134.583 97.7272L134.357 103.494L121.719 106.826C121.693 106.914 121.661 107 121.624 107.084C121.441 107.472 121.147 107.799 120.779 108.021C120.411 108.244 119.985 108.353 119.555 108.336C119.125 108.318 118.71 108.174 118.361 107.922C118.013 107.669 117.747 107.32 117.598 106.917C117.448 106.515 117.42 106.077 117.519 105.66C117.618 105.242 117.838 104.862 118.153 104.569C118.467 104.276 118.861 104.081 119.286 104.011C119.711 103.94 120.147 103.996 120.54 104.172Z" fill="#FFB8B8"/>
<path d="M135.974 156.434H133.357L132.112 146.37L135.974 146.37L135.974 156.434Z" fill="#FFB8B8"/>
<path d="M131.487 155.689H136.535V158.857H128.31C128.31 158.017 128.644 157.211 129.24 156.617C129.836 156.022 130.645 155.689 131.487 155.689Z" fill="#2F2E41"/>
<path d="M146.152 155.697L143.547 155.953L141.318 146.059L145.162 145.681L146.152 155.697Z" fill="#FFB8B8"/>
<path d="M141.614 155.393L146.637 154.9L146.948 158.053L138.763 158.857C138.722 158.443 138.763 158.025 138.884 157.627C139.005 157.229 139.204 156.858 139.469 156.537C139.733 156.215 140.059 155.948 140.427 155.752C140.795 155.556 141.198 155.434 141.614 155.393Z" fill="#2F2E41"/>
<path d="M136.702 87.076C139.598 87.076 141.945 84.7356 141.945 81.8486C141.945 78.9617 139.598 76.6213 136.702 76.6213C133.807 76.6213 131.459 78.9617 131.459 81.8486C131.459 84.7356 133.807 87.076 136.702 87.076Z" fill="#FFB8B8"/>
<path d="M132.772 154.399C132.547 154.399 132.329 154.321 132.157 154.177C131.984 154.033 131.869 153.833 131.83 153.612C130.475 146.115 126.047 121.601 125.941 120.922C125.939 120.907 125.938 120.891 125.938 120.875V119.047C125.938 118.981 125.959 118.916 125.998 118.862L126.583 118.045C126.61 118.006 126.647 117.973 126.689 117.95C126.731 117.927 126.778 117.914 126.827 117.912C130.161 117.756 141.083 117.299 141.61 117.956C142.14 118.617 141.953 120.618 141.91 121.013L141.912 121.054L146.819 152.339C146.857 152.588 146.796 152.843 146.647 153.047C146.499 153.252 146.276 153.39 146.026 153.432L142.961 153.935C142.733 153.971 142.499 153.925 142.302 153.804C142.106 153.684 141.959 153.496 141.889 153.277C140.941 150.257 137.762 140.099 136.661 136.168C136.654 136.143 136.638 136.122 136.617 136.107C136.595 136.093 136.569 136.087 136.543 136.091C136.518 136.095 136.494 136.107 136.477 136.127C136.46 136.147 136.451 136.172 136.452 136.198C136.507 139.945 136.64 149.504 136.686 152.806L136.691 153.162C136.693 153.403 136.604 153.635 136.442 153.814C136.28 153.993 136.057 154.105 135.817 154.127L132.862 154.395C132.832 154.398 132.802 154.399 132.772 154.399Z" fill="#2F2E41"/>
<path d="M133.375 89.1314C132.46 89.6737 131.912 90.6702 131.598 91.6843C131.017 93.5617 130.666 95.5028 130.556 97.4646L130.224 103.339L126.113 118.911C129.676 121.917 131.731 121.234 136.526 118.776C141.322 116.317 141.87 119.595 141.87 119.595L142.829 106.345L144.199 91.8654C143.891 91.4962 143.543 91.1625 143.161 90.8706C141.895 89.8888 140.421 89.2064 138.852 88.8747C137.283 88.5431 135.658 88.571 134.101 88.9562L133.375 89.1314Z" fill="#0EA5E9"/>
<path d="M132.04 107.317C132.15 107.358 132.258 107.408 132.36 107.467L141.827 102.742L141.984 100.183L145.889 99.9147L146.099 105.749L133.447 109.92C133.344 110.362 133.108 110.762 132.772 111.067C132.435 111.372 132.013 111.567 131.562 111.627C131.111 111.687 130.652 111.609 130.247 111.403C129.842 111.196 129.509 110.872 129.293 110.473C129.077 110.074 128.988 109.618 129.038 109.167C129.089 108.717 129.275 108.292 129.573 107.949C129.871 107.606 130.267 107.362 130.708 107.249C131.148 107.137 131.613 107.16 132.04 107.317Z" fill="#FFB8B8"/>
<path d="M144.13 91.9317C146.459 92.7514 146.87 101.631 146.87 101.631C144.13 100.128 140.841 102.587 140.841 102.587C140.841 102.587 140.156 100.265 139.334 97.2598C139.086 96.4145 139.056 95.5203 139.248 94.6605C139.439 93.8006 139.846 93.0031 140.43 92.3421C140.43 92.3421 141.801 91.1116 144.13 91.9317Z" fill="#0EA5E9"/>
<path d="M141.403 83.231C140.75 82.71 139.859 83.6571 139.859 83.6571L139.336 78.9677C139.336 78.9677 136.07 79.3578 133.98 78.8375C131.889 78.3173 131.563 80.7264 131.563 80.7264C131.455 79.7532 131.433 78.7725 131.497 77.7956C131.628 76.6232 133.327 75.4509 136.331 74.6692C139.336 73.8876 140.904 77.2745 140.904 77.2745C142.995 78.3164 142.057 83.7521 141.403 83.231Z" fill="#2F2E41"/>
</g>
<defs>
<clipPath id="clip0_27_1063">
<rect width="159" height="159" fill="white"/>
</clipPath>
</defs>
</svg>
