<svg width="169" height="129" viewBox="0 0 169 129" fill="none" xmlns="http://www.w3.org/2000/svg">
<g clip-path="url(#clip0_27_1140)">
<path d="M85.0316 0H9.64121C7.08508 0.00289346 4.63447 1.02498 2.82701 2.84204C1.01956 4.65909 0.00287181 7.1227 0 9.69239V98.6861C0.00287235 101.256 1.01956 103.719 2.82702 105.536C4.63447 107.354 7.08508 108.376 9.64121 108.379H85.0316C87.5877 108.376 90.0384 107.354 91.8458 105.536C93.6533 103.719 94.67 101.256 94.6728 98.6861V9.69239C94.67 7.1227 93.6533 4.65909 91.8458 2.84204C90.0384 1.02498 87.5877 0.00289346 85.0316 0Z" fill="#F2F2F2"/>
<path d="M85.0316 2.79022H9.64113C7.82085 2.79227 6.07571 3.52012 4.78858 4.81408C3.50144 6.10804 2.77743 7.86245 2.77539 9.69238V98.6861C2.77744 100.516 3.50145 102.27 4.78858 103.564C6.07571 104.858 7.82085 105.586 9.64113 105.588H85.0316C86.8519 105.586 88.597 104.858 89.8841 103.564C91.1712 102.27 91.8952 100.516 91.8973 98.6861V9.69238C91.8952 7.86246 91.1712 6.10807 89.8841 4.81411C88.597 3.52015 86.8519 2.79229 85.0316 2.79022Z" fill="white"/>
<path d="M73.6855 28.6672H35.5611C35.1353 28.6672 34.7269 28.4972 34.4258 28.1945C34.1247 27.8918 33.9556 27.4813 33.9556 27.0532C33.9556 26.6251 34.1247 26.2146 34.4258 25.9119C34.7269 25.6092 35.1353 25.4391 35.5611 25.4391H73.6855C73.8963 25.4391 74.1051 25.4809 74.2999 25.562C74.4947 25.6431 74.6717 25.762 74.8208 25.9119C74.9699 26.0618 75.0881 26.2397 75.1688 26.4355C75.2495 26.6314 75.291 26.8412 75.291 27.0532C75.291 27.2652 75.2495 27.475 75.1688 27.6709C75.0881 27.8667 74.9699 28.0446 74.8208 28.1945C74.6717 28.3444 74.4947 28.4633 74.2999 28.5444C74.1051 28.6255 73.8963 28.6672 73.6855 28.6672Z" fill="#F2F2F2"/>
<path d="M80.308 34.1146H35.5608C35.1353 34.1141 34.7274 33.9439 34.4266 33.6412C34.1259 33.3386 33.957 32.9283 33.957 32.5006C33.957 32.0728 34.1259 31.6626 34.4266 31.3599C34.7274 31.0573 35.1353 30.887 35.5608 30.8865H80.308C80.7335 30.887 81.1414 31.0573 81.4421 31.3599C81.7428 31.6626 81.9117 32.0728 81.9117 32.5006C81.9117 32.9283 81.7428 33.3386 81.4421 33.6412C81.1414 33.9439 80.7335 34.1141 80.308 34.1146Z" fill="#F2F2F2"/>
<path d="M73.6855 53.0796H35.5611C35.1353 53.0796 34.7269 52.9095 34.4258 52.6068C34.1247 52.3041 33.9556 51.8936 33.9556 51.4655C33.9556 51.0375 34.1247 50.6269 34.4258 50.3242C34.7269 50.0216 35.1353 49.8515 35.5611 49.8515H73.6855C73.8963 49.8515 74.1051 49.8933 74.2999 49.9744C74.4947 50.0555 74.6717 50.1744 74.8208 50.3242C74.9699 50.4741 75.0881 50.652 75.1688 50.8479C75.2495 51.0437 75.291 51.2536 75.291 51.4655C75.291 51.6775 75.2495 51.8874 75.1688 52.0832C75.0881 52.279 74.9699 52.457 74.8208 52.6068C74.6717 52.7567 74.4947 52.8756 74.2999 52.9567C74.1051 53.0378 73.8963 53.0796 73.6855 53.0796Z" fill="#F2F2F2"/>
<path d="M80.308 58.527H35.5608C35.1353 58.5265 34.7274 58.3562 34.4266 58.0536C34.1259 57.751 33.957 57.3407 33.957 56.9129C33.957 56.4852 34.1259 56.0749 34.4266 55.7723C34.7274 55.4696 35.1353 55.2994 35.5608 55.2989H80.308C80.7335 55.2994 81.1414 55.4696 81.4421 55.7723C81.7428 56.0749 81.9117 56.4852 81.9117 56.9129C81.9117 57.3407 81.7428 57.751 81.4421 58.0536C81.1414 58.3562 80.7335 58.5265 80.308 58.527Z" fill="#F2F2F2"/>
<path d="M73.6855 77.492H35.5611C35.1353 77.492 34.7269 77.3219 34.4258 77.0193C34.1247 76.7166 33.9556 76.306 33.9556 75.878C33.9556 75.4499 34.1247 75.0394 34.4258 74.7367C34.7269 74.434 35.1353 74.2639 35.5611 74.2639H73.6855C73.8965 74.2637 74.1055 74.3053 74.3005 74.3863C74.4955 74.4673 74.6727 74.5861 74.8219 74.736C74.9712 74.8859 75.0896 75.0639 75.1704 75.2599C75.2512 75.4558 75.2928 75.6658 75.2928 75.878C75.2928 76.0901 75.2512 76.3001 75.1704 76.496C75.0896 76.692 74.9712 76.87 74.8219 77.0199C74.6727 77.1698 74.4955 77.2886 74.3005 77.3697C74.1055 77.4507 73.8965 77.4922 73.6855 77.492Z" fill="#F2F2F2"/>
<path d="M80.308 82.9394H35.5608C35.1353 82.9389 34.7274 82.7686 34.4266 82.466C34.1259 82.1634 33.957 81.7531 33.957 81.3253C33.957 80.8976 34.1259 80.4873 34.4266 80.1847C34.7274 79.882 35.1353 79.7118 35.5608 79.7113H80.308C80.7335 79.7118 81.1414 79.882 81.4421 80.1847C81.7428 80.4873 81.9117 80.8976 81.9117 81.3253C81.9117 81.7531 81.7428 82.1634 81.4421 82.466C81.1414 82.7686 80.7335 82.9389 80.308 82.9394Z" fill="#F2F2F2"/>
<path d="M27.021 36.5875H13.5291C13.325 36.5873 13.1293 36.5056 12.985 36.3606C12.8407 36.2155 12.7595 36.0187 12.7593 35.8136V23.7402C12.7595 23.535 12.8407 23.3383 12.985 23.1932C13.1293 23.0481 13.325 22.9665 13.5291 22.9662H27.021C27.2251 22.9665 27.4208 23.0481 27.5651 23.1932C27.7094 23.3383 27.7906 23.535 27.7908 23.7402V35.8136C27.7906 36.0187 27.7094 36.2155 27.5651 36.3606C27.4208 36.5056 27.2251 36.5873 27.021 36.5875Z" fill="#E6E6E6"/>
<path d="M27.021 60.9999H13.5291C13.325 60.9997 13.1293 60.9181 12.985 60.773C12.8407 60.6279 12.7595 60.4312 12.7593 60.226V48.1526C12.7595 47.9474 12.8407 47.7507 12.985 47.6056C13.1293 47.4605 13.325 47.3789 13.5291 47.3787H27.021C27.2251 47.3789 27.4208 47.4605 27.5651 47.6056C27.7094 47.7507 27.7906 47.9474 27.7908 48.1526V60.226C27.7906 60.4312 27.7094 60.6279 27.5651 60.773C27.4208 60.9181 27.2251 60.9997 27.021 60.9999Z" fill="#E6E6E6"/>
<path d="M27.021 85.4123H13.5291C13.325 85.412 13.1293 85.3304 12.985 85.1853C12.8407 85.0402 12.7595 84.8435 12.7593 84.6383V72.5649C12.7595 72.3598 12.8407 72.163 12.985 72.0179C13.1293 71.8729 13.325 71.7912 13.5291 71.791H27.021C27.2251 71.7912 27.4208 71.8729 27.5651 72.0179C27.7094 72.163 27.7906 72.3598 27.7908 72.5649V84.6383C27.7906 84.8435 27.7094 85.0402 27.5651 85.1853C27.4208 85.3304 27.2251 85.412 27.021 85.4123Z" fill="#E6E6E6"/>
<path d="M151.445 84.1671L152.044 78.9088L155.042 52.5441L155.641 47.2858C155.928 44.7324 155.196 42.1686 153.606 40.1569C152.016 38.1452 149.696 36.8498 147.157 36.555L79.1102 28.7327C76.5702 28.4436 74.02 29.1792 72.0189 30.7781C70.0178 32.3769 68.7293 34.7085 68.436 37.2612L68.4345 37.2748L64.2425 74.129L64.241 74.1425C63.9534 76.6959 64.6851 79.2597 66.2756 81.2714C67.866 83.2831 70.1852 84.5785 72.7245 84.8733L140.771 92.6956C143.311 92.9847 145.861 92.2491 147.863 90.6503C149.864 89.0514 151.152 86.7198 151.445 84.1671Z" fill="#E6E6E6"/>
<path d="M148.688 83.8502L149.397 77.6221L152.175 53.1968L152.883 46.9688C153.088 45.1505 152.567 43.3247 151.434 41.8921C150.302 40.4595 148.65 39.5371 146.842 39.3272L78.7951 31.5048C76.9863 31.299 75.1702 31.8228 73.7452 32.9614C72.3202 34.1 71.4026 35.7603 71.1938 37.5782L71.1922 37.5918L67.0003 74.4459L66.9987 74.4596C66.794 76.2779 67.315 78.1036 68.4476 79.5362C69.5802 80.9688 71.2317 81.8912 73.04 82.1012L141.087 89.9235C142.896 90.1293 144.712 89.6055 146.137 88.467C147.562 87.3284 148.479 85.6681 148.688 83.8502Z" fill="white"/>
<path d="M137.55 50.4338L99.6723 46.0796C99.4627 46.0557 99.2598 45.9905 99.0752 45.8878C98.8906 45.785 98.728 45.6467 98.5967 45.4807C98.4653 45.3147 98.3678 45.1243 98.3097 44.9205C98.2516 44.7166 98.234 44.5032 98.258 44.2924C98.2819 44.0817 98.347 43.8778 98.4494 43.6924C98.5518 43.5069 98.6895 43.3436 98.8548 43.2117C99.02 43.0798 99.2095 42.982 99.4123 42.9238C99.6152 42.8655 99.8275 42.8481 100.037 42.8724L137.915 47.2266C138.337 47.2756 138.723 47.4914 138.988 47.8264C139.253 48.1614 139.374 48.5884 139.326 49.0134C139.277 49.4384 139.063 49.8267 138.73 50.0931C138.397 50.3594 137.973 50.482 137.55 50.4338Z" fill="#E6E6E6"/>
<path d="M143.514 56.6023L99.0565 51.4917C98.8468 51.4678 98.644 51.4026 98.4594 51.2999C98.2749 51.1971 98.1123 51.0588 97.9809 50.8928C97.8496 50.7268 97.7521 50.5365 97.694 50.3326C97.6358 50.1287 97.6183 49.9153 97.6422 49.7046C97.6662 49.4939 97.7312 49.29 97.8336 49.1046C97.936 48.9191 98.0738 48.7558 98.239 48.6239C98.4042 48.492 98.5937 48.3942 98.7965 48.336C98.9994 48.2777 99.2117 48.2603 99.4213 48.2845L143.879 53.3952C144.088 53.4192 144.291 53.4846 144.475 53.5874C144.66 53.6902 144.822 53.8286 144.953 53.9945C145.084 54.1604 145.182 54.3507 145.24 54.5545C145.298 54.7583 145.315 54.9715 145.291 55.1821C145.268 55.3927 145.203 55.5965 145.1 55.7818C144.998 55.9672 144.86 56.1304 144.695 56.2623C144.53 56.3942 144.341 56.4921 144.138 56.5505C143.936 56.6088 143.723 56.6264 143.514 56.6023Z" fill="#E6E6E6"/>
<path d="M142.275 67.3967L76.7306 59.862C76.3079 59.813 75.9218 59.5973 75.6572 59.2622C75.3926 58.9272 75.2711 58.5003 75.3195 58.0753C75.3678 57.6503 75.582 57.2619 75.915 56.9956C76.248 56.7292 76.6726 56.6067 77.0954 56.6549L142.64 64.1895C142.849 64.2134 143.052 64.2786 143.237 64.3813C143.421 64.4841 143.584 64.6224 143.715 64.7884C143.846 64.9544 143.944 65.1447 144.002 65.3486C144.06 65.5525 144.078 65.7659 144.054 65.9766C144.03 66.1873 143.965 66.3912 143.862 66.5767C143.76 66.7621 143.622 66.9254 143.457 67.0573C143.292 67.1892 143.102 67.287 142.899 67.3453C142.697 67.4035 142.484 67.421 142.275 67.3967H142.275Z" fill="#E6E6E6"/>
<path d="M141.87 72.833L76.1149 65.2742C75.6921 65.2251 75.3061 65.0094 75.0415 64.6744C74.7769 64.3393 74.6554 63.9124 74.7038 63.4874C74.7521 63.0624 74.9663 62.674 75.2993 62.4077C75.6323 62.1414 76.0568 62.0188 76.4797 62.067L142.234 69.6258C142.657 69.6748 143.043 69.8906 143.308 70.2256C143.572 70.5606 143.694 70.9876 143.646 71.4126C143.597 71.8376 143.383 72.2259 143.05 72.4923C142.717 72.7586 142.292 72.8812 141.87 72.833Z" fill="#E6E6E6"/>
<path d="M141.068 78.0017L75.5244 70.4671C75.3147 70.4432 75.1118 70.378 74.9273 70.2753C74.7427 70.1725 74.5801 70.0342 74.4487 69.8682C74.3174 69.7022 74.2199 69.5118 74.1617 69.308C74.1036 69.1041 74.086 68.8907 74.11 68.6799C74.134 68.4692 74.199 68.2653 74.3014 68.0799C74.4038 67.8944 74.5416 67.7311 74.7068 67.5992C74.8721 67.4673 75.0615 67.3695 75.2644 67.3113C75.4673 67.2531 75.6796 67.2356 75.8892 67.2599L141.433 74.7945C141.856 74.8436 142.242 75.0593 142.507 75.3943C142.771 75.7294 142.893 76.1563 142.844 76.5813C142.796 77.0063 142.582 77.3947 142.249 77.661C141.916 77.9273 141.491 78.0499 141.068 78.0017V78.0017Z" fill="#E6E6E6"/>
<path d="M140.664 83.438L74.9088 75.8792C74.4861 75.8302 74.1 75.6144 73.8354 75.2794C73.5708 74.9444 73.4494 74.5174 73.4977 74.0924C73.546 73.6674 73.7603 73.2791 74.0932 73.0127C74.4262 72.7464 74.8508 72.6238 75.2736 72.672L141.028 80.2308C141.238 80.2547 141.441 80.3199 141.625 80.4227C141.81 80.5254 141.973 80.6638 142.104 80.8297C142.235 80.9957 142.333 81.1861 142.391 81.39C142.449 81.5939 142.467 81.8073 142.443 82.018C142.419 82.2287 142.354 82.4326 142.251 82.6181C142.149 82.8035 142.011 82.9668 141.846 83.0987C141.681 83.2306 141.491 83.3284 141.288 83.3867C141.085 83.4449 140.873 83.4623 140.664 83.438Z" fill="#E6E6E6"/>
<path d="M90.2924 52.9732L76.8879 51.4323C76.6851 51.4088 76.4999 51.3054 76.3729 51.1447C76.2459 50.9841 76.1875 50.7794 76.2105 50.5755L77.5749 38.5803C77.5983 38.3764 77.7012 38.1903 77.8609 38.0626C78.0207 37.9349 78.2244 37.8762 78.4272 37.8993L91.8317 39.4402C92.0345 39.4637 92.2197 39.5672 92.3466 39.7278C92.4736 39.8884 92.5321 40.0931 92.5091 40.297L91.1447 52.2922C91.1213 52.4961 91.0184 52.6822 90.8586 52.8099C90.6988 52.9376 90.4952 52.9963 90.2924 52.9732Z" fill="#0EA5E9"/>
<path d="M168.8 128.968H124.926C124.873 128.968 124.822 128.947 124.784 128.909C124.747 128.871 124.726 128.82 124.726 128.767C124.726 128.713 124.747 128.662 124.784 128.624C124.822 128.587 124.873 128.565 124.926 128.565H168.8C168.853 128.565 168.904 128.587 168.941 128.624C168.979 128.662 169 128.713 169 128.767C169 128.82 168.979 128.871 168.941 128.909C168.904 128.947 168.853 128.968 168.8 128.968Z" fill="#3F3D56"/>
<path d="M152.325 52.0257C152.258 52.2934 152.249 52.5726 152.301 52.8438C152.352 53.115 152.463 53.3715 152.623 53.5953C152.784 53.8191 152.992 54.0048 153.232 54.1391C153.472 54.2735 153.738 54.3534 154.012 54.3732L155.369 58.4674L158.045 58.245L156.048 52.4903C156.05 52.0254 155.883 51.5758 155.578 51.2267C155.273 50.8775 154.85 50.653 154.392 50.5958C153.933 50.5385 153.469 50.6524 153.088 50.916C152.707 51.1795 152.436 51.5744 152.325 52.0257Z" fill="#FFB8B8"/>
<path d="M154.375 78.837C154.688 79.1266 155.072 79.3279 155.488 79.4205C155.904 79.5132 156.337 79.494 156.743 79.3648C157.149 79.2356 157.513 79.0011 157.8 78.6848C158.087 78.3686 158.286 77.9818 158.377 77.5635L160.497 67.8011C160.859 66.1317 160.774 64.3955 160.249 62.7701L157.769 55.0816C157.733 54.9712 157.674 54.8699 157.596 54.7846C157.518 54.6992 157.423 54.6318 157.316 54.587C157.21 54.5422 157.095 54.5211 156.98 54.525C156.864 54.5289 156.751 54.5578 156.648 54.6098L155.029 55.4246C154.861 55.509 154.728 55.6498 154.653 55.8225C154.578 55.9952 154.566 56.1889 154.618 56.3699L154.781 56.9342C156.139 61.6269 156.21 66.6011 154.988 71.3312L153.669 76.4326C153.559 76.86 153.566 77.3096 153.69 77.7332C153.815 78.1567 154.051 78.5383 154.375 78.837Z" fill="#0EA5E9"/>
<path d="M145.894 126.862L143.603 126.862L142.514 117.981L145.894 117.981L145.894 126.862Z" fill="#FFB8B8"/>
<path d="M141.968 126.204H146.385V129H139.187C139.187 128.633 139.258 128.269 139.398 127.93C139.538 127.591 139.743 127.282 140.001 127.023C140.259 126.763 140.566 126.557 140.903 126.417C141.241 126.276 141.602 126.204 141.968 126.204Z" fill="#2F2E41"/>
<path d="M158.239 126.862L155.949 126.862L154.859 117.981L158.24 117.981L158.239 126.862Z" fill="#FFB8B8"/>
<path d="M154.312 126.204H158.729V129H151.531C151.531 128.633 151.603 128.269 151.743 127.93C151.883 127.591 152.088 127.282 152.346 127.023C152.604 126.763 152.911 126.557 153.248 126.417C153.585 126.276 153.947 126.204 154.312 126.204Z" fill="#2F2E41"/>
<path d="M151.531 63.7281C154.249 63.7281 156.452 61.5134 156.452 58.7815C156.452 56.0496 154.249 53.8349 151.531 53.8349C148.814 53.8349 146.611 56.0496 146.611 58.7815C146.611 61.5134 148.814 63.7281 151.531 63.7281Z" fill="#FFB8B8"/>
<path d="M134.706 91.0414C134.741 90.7675 134.834 90.5044 134.981 90.2709C135.127 90.0373 135.323 89.8388 135.554 89.6894C135.785 89.5401 136.045 89.4434 136.318 89.4063C136.59 89.3692 136.867 89.3925 137.129 89.4746L139.879 86.1607L142.29 87.3495L138.341 91.9746C138.174 92.4082 137.856 92.7655 137.445 92.9786C137.034 93.1917 136.559 93.2459 136.111 93.1308C135.663 93.0158 135.273 92.7396 135.014 92.3545C134.755 91.9694 134.646 91.5022 134.706 91.0414Z" fill="#FFB8B8"/>
<path d="M152.729 63.7279C153.47 63.744 154.206 63.6023 154.888 63.3123C155.57 63.0222 156.183 62.5903 156.688 62.0449C157.192 61.4995 157.576 60.853 157.814 60.1479C158.052 59.4428 158.139 58.695 158.069 57.9536C157.999 57.2123 157.774 56.4942 157.409 55.8466C157.043 55.199 156.545 54.6364 155.948 54.196C155.351 53.7555 154.668 53.4471 153.943 53.291C153.219 53.1349 152.47 53.1347 151.746 53.2903C150.664 52.6298 149.406 52.1853 148.145 52.2984C146.884 52.4114 145.637 53.164 145.165 54.345C144.694 55.5261 145.2 57.0829 146.373 57.5629C147.124 57.8706 147.973 57.7213 148.775 57.5973C149.577 57.4732 150.453 57.3922 151.151 57.8083C151.849 58.2243 152.163 59.34 151.537 59.8602C151.206 60.1469 150.969 60.5283 150.859 60.9536C150.748 61.3789 150.77 61.8279 150.919 62.2408C151.234 63.0577 152.091 63.714 152.729 63.7279Z" fill="#2F2E41"/>
<path d="M158.834 90.8458L159.707 124.145C159.71 124.256 159.69 124.367 159.648 124.469C159.607 124.572 159.545 124.665 159.466 124.743C159.386 124.821 159.292 124.881 159.189 124.92C159.086 124.959 158.975 124.977 158.865 124.971L155.99 124.823C155.806 124.814 155.632 124.742 155.495 124.618C155.358 124.495 155.268 124.328 155.239 124.145L151.819 102.517C151.805 102.425 151.758 102.34 151.688 102.278C151.618 102.216 151.529 102.181 151.436 102.178C151.343 102.175 151.252 102.205 151.178 102.262C151.104 102.32 151.053 102.401 151.033 102.493L146.403 123.317C146.379 123.428 146.331 123.533 146.263 123.624C146.195 123.715 146.108 123.791 146.009 123.846C145.909 123.901 145.8 123.935 145.686 123.944C145.573 123.953 145.46 123.938 145.353 123.9L142.499 123.725C142.334 123.666 142.193 123.554 142.097 123.407C142.001 123.259 141.956 123.084 141.968 122.909L144.459 90.5306L158.834 90.8458Z" fill="#2F2E41"/>
<path d="M160.235 75.0297C160.716 69.9835 157.025 65.4193 151.996 65.0602C149.828 64.9055 146.464 64.8502 145.355 67.7059C142.014 76.3085 147.863 76.0994 145.847 83.5527C143.832 91.0059 142.052 91.433 144.817 91.9712C147.582 92.5094 160.016 95.6865 159.506 90.4406C159.192 87.2161 159.755 80.0632 160.235 75.0297Z" fill="#0EA5E9"/>
<path d="M146.347 66.831C146.745 66.6764 147.175 66.6299 147.596 66.6962C148.017 66.7624 148.413 66.9391 148.744 67.2083C149.075 67.4775 149.329 67.8297 149.482 68.2295C149.634 68.6292 149.679 69.0623 149.612 69.485L148.041 79.3518C147.773 81.039 147.063 82.6242 145.985 83.9451L140.884 90.1934C140.811 90.283 140.719 90.3557 140.616 90.4065C140.512 90.4573 140.399 90.485 140.283 90.4877C140.168 90.4904 140.053 90.4679 139.947 90.422C139.841 90.376 139.747 90.3076 139.669 90.2214L138.458 88.8688C138.332 88.7287 138.26 88.5489 138.253 88.3606C138.245 88.1722 138.304 87.9873 138.419 87.838L138.775 87.3725C141.743 83.5014 143.615 78.8964 144.193 74.0441L144.818 68.8107C144.87 68.3723 145.04 67.9564 145.31 67.6076C145.579 67.2589 145.938 66.9904 146.347 66.831Z" fill="#0EA5E9"/>
</g>
<defs>
<clipPath id="clip0_27_1140">
<rect width="169" height="129" fill="white"/>
</clipPath>
</defs>
</svg>
