<svg width="221" height="164" viewBox="0 0 221 164" fill="none" xmlns="http://www.w3.org/2000/svg">
<g clip-path="url(#clip0_27_923)">
<path d="M203.6 39.8661C178.517 4.99549 125.53 -9.14953 73.419 6.08499C45.8696 14.139 19.3069 30.2765 6.14302 61.5238C-17.3888 117.382 32.0192 135.221 64.3266 140.907C79.9487 143.656 94.6621 148.275 108.107 154.562C132.296 165.875 175.113 175.898 207.399 128.778C230.801 94.6249 220.307 63.0933 203.6 39.8661Z" fill="#F2F2F2"/>
<path d="M58.1764 46.7651C58.1062 46.2109 57.9643 45.6681 57.7542 45.1504C57.7274 45.0525 57.6805 44.9613 57.6165 44.8825C57.5524 44.8037 57.4727 44.7391 57.3823 44.6928C57.2614 44.6614 57.1348 44.66 57.0132 44.6887L55.1186 44.9783C54.96 44.9855 54.8081 45.0445 54.6863 45.1461C54.4395 45.4054 54.6825 45.8229 54.6749 46.1806C54.6665 46.5828 54.3087 46.9093 53.9208 47.0173C53.5248 47.0972 53.1164 47.0922 52.7225 47.0024L50.0732 46.5911C50.8535 46.3423 51.548 45.8793 52.0774 45.255C52.4261 44.8423 52.6116 44.072 52.1077 43.8766C51.958 43.8355 51.8019 43.823 51.6475 43.8397C50.4472 43.849 49.5027 42.8478 48.379 42.4261C47.6598 42.1736 46.8791 42.1549 46.1485 42.3724C45.418 42.59 44.775 43.0328 44.3116 43.6374L45.7229 43.7054C45.8557 43.6981 45.9874 43.7332 46.0989 43.8056C46.4082 44.0594 46.0236 44.5471 46.0672 44.9446C46.1238 45.4611 46.8103 45.5714 47.3277 45.6236C47.8452 45.6759 48.5016 46.0959 48.2527 46.5521C45.6519 47.4471 43.0053 44.8026 40.274 45.1282C39.5827 45.2105 38.9299 45.4819 38.2549 45.6525C34.132 46.6946 29.8696 43.914 25.6577 44.5029C24.7214 44.6624 23.8011 44.9048 22.9078 45.2274C22.3346 45.4155 21.7367 45.6187 21.3202 46.0548C20.9036 46.4909 20.7451 47.2367 21.1397 47.6927C20.0521 47.7821 18.9573 47.6782 17.9061 47.3856C18.1904 47.5435 18.4268 47.7749 18.5907 48.0555C18.7546 48.3362 18.8398 48.6557 18.8375 48.9807C17.1394 49.2573 15.4862 49.7609 13.9225 50.4779C14.2144 50.9627 14.5552 51.4164 14.9398 51.8317L12.79 53.2115C13.5163 53.3943 13.8918 54.3837 13.4695 55.0016C14.2226 54.6669 14.6893 53.8011 15.4946 53.6255C16.0222 53.5105 16.559 53.7261 17.0595 53.9287C17.5599 54.1312 18.11 54.3276 18.6281 54.1756C19.1462 54.0236 19.5284 53.3524 19.1992 52.9248C21.4137 52.2793 23.7024 51.9221 26.0085 51.862C26.1864 51.8397 26.3668 51.8739 26.5242 51.9598C26.8244 52.1678 26.7454 52.6173 26.7292 52.9819C26.713 53.3466 26.9975 53.8258 27.3238 53.6615C26.9399 53.994 27.268 54.6199 27.6363 54.9695C28.0045 55.3192 28.4483 55.8016 28.2229 56.2565C28.164 56.3752 28.0642 56.4701 28.0076 56.5899C27.8405 56.9435 28.1058 57.3557 28.4188 57.5905C28.7317 57.8252 29.1151 57.9893 29.3324 58.3145C29.5498 58.6396 29.4511 59.2087 29.0624 59.2541L27.9575 57.8526C27.58 58.2437 27.3212 58.7336 27.2111 59.2656C28.3828 60.2225 28.559 62.1701 27.5781 63.3213C27.0769 63.9097 26.3641 64.2672 25.7419 64.726C25.1198 65.1849 24.5441 65.8384 24.5457 66.611C24.5484 67.9457 24.4392 69.1858 24.9399 70.4233C25.8631 72.7051 26.9289 74.9267 28.1311 77.0749C28.4469 77.639 28.8549 78.2573 29.4944 78.3544C28.6862 76.3886 27.9585 74.3922 27.3116 72.3652C27.733 72.3668 28.2199 72.4002 28.4669 72.7413C28.6715 73.0237 28.6275 73.4077 28.6911 73.7504C28.7719 74.0825 28.9067 74.3991 29.0901 74.6876L32.9499 81.5564C33.2699 82.1258 33.6369 82.737 34.2484 82.9676C34.6394 83.1151 35.0918 83.0873 35.4516 83.2995C35.7337 83.4659 35.9237 83.7613 36.2112 83.918C37.0243 84.3611 38.155 83.5112 38.9148 84.0403C39.1321 84.1916 39.2703 84.4319 39.4705 84.6051C40.1723 85.2123 41.3235 84.8061 42.1336 85.259C42.6558 85.5509 42.9263 86.1347 43.2048 86.6638C43.9024 87.9889 45.0311 89.2872 46.5261 89.3927C46.9957 89.4259 47.4754 89.3369 47.9344 89.4413C48.3935 89.5456 48.8453 89.9459 48.7717 90.4104C48.6453 91.2068 49.0392 92.0788 48.9334 92.8781C48.7407 94.3342 46.6734 94.9741 46.4959 96.432C46.457 96.7512 46.5178 97.0807 46.4418 97.3932C46.3485 97.7762 46.0606 98.088 45.9583 98.4686C45.7645 99.19 46.2818 99.9079 46.8501 100.393C47.4184 100.878 48.0963 101.297 48.4069 101.976C48.7353 102.694 48.574 103.532 48.6808 104.314C48.914 106.022 50.3904 107.287 51.9098 108.104C52.3727 108.352 52.8697 108.593 53.1694 109.025C53.5604 109.588 53.5215 110.33 53.6521 111.003C53.9719 112.651 55.3604 114.009 55.3998 115.687C55.4279 116.879 54.7642 117.961 54.3678 119.087C53.9961 120.165 53.8617 121.311 53.9735 122.445C54.0854 123.58 54.4409 124.678 55.0159 125.663C55.3125 126.163 55.6672 126.635 55.877 127.177C56.2513 128.145 56.1299 129.245 56.475 130.224C56.9314 131.517 58.1853 132.586 58.0653 133.953C58.6346 135.134 59.8917 135.714 61.1558 136.065L63.4213 136.696C63.8551 136.816 64.3083 136.938 64.7501 136.85C65.1918 136.763 65.6133 136.397 65.6019 135.947C64.4909 135.697 63.3443 135.43 62.4285 134.754C61.5127 134.078 60.8854 132.873 61.2328 131.79C61.394 131.287 61.7367 130.707 61.4108 130.292C61.2243 130.054 60.883 129.992 60.6726 129.775C60.3443 129.437 60.4571 128.869 60.6931 128.461C60.9291 128.053 61.2702 127.688 61.3654 127.227C61.4135 126.969 61.3814 126.702 61.2734 126.463C61.1654 126.223 60.9868 126.023 60.7614 125.888C61.1814 125.729 61.5635 125.484 61.8827 125.169C62.1776 124.832 62.3138 124.314 62.0818 123.931C62.7707 124.019 63.584 124.061 64.0362 123.535C64.3973 123.114 64.3725 122.486 64.2298 121.951C64.0871 121.415 63.846 120.895 63.8384 120.341C65.4275 120.417 67.0201 120.363 68.6005 120.18C68.3719 119.411 67.8526 118.762 67.1526 118.369C67.8684 118.248 68.5204 117.392 68.7466 116.703C68.9727 116.013 68.915 115.263 68.7752 114.551C68.7216 114.368 68.7142 114.174 68.7538 113.987C68.8344 113.731 69.0868 113.574 69.3202 113.44L72.8729 111.402C73.0849 111.296 73.277 111.154 73.441 110.983C73.8132 110.546 73.758 109.887 73.5675 109.346C73.3769 108.805 73.0716 108.296 72.9982 107.727C72.7786 106.025 74.6018 104.805 75.2171 103.203C75.4585 102.574 75.5078 101.891 75.5545 101.219C75.6047 100.498 75.6084 99.6601 75.054 99.1953C74.5225 98.7497 73.6921 98.8491 73.136 98.4346C72.6262 98.0546 72.4503 97.3165 71.8933 97.0096C71.3874 96.7308 70.7532 96.9081 70.1906 96.777C69.2001 96.5462 68.5768 95.4056 67.5651 95.3C66.9944 95.2405 66.3484 95.5192 65.8806 95.1871C65.4684 94.8945 65.4518 94.3064 65.3734 93.8073C65.2359 93.0317 64.8637 92.3168 64.3071 91.7589C63.7505 91.201 63.0361 90.8269 62.2602 90.6871C61.6717 90.5928 61.0311 90.6286 60.5304 90.3055C60.0235 89.9783 59.7911 89.3658 59.3928 88.9127C58.7511 88.1825 57.7403 87.9231 56.7934 87.7007L52.9418 86.7961C52.2581 86.6355 51.3768 86.5504 51.0099 87.1487C50.9013 87.3765 50.8244 87.6181 50.7814 87.8668C50.6439 88.3166 50.3672 88.7112 49.9911 88.9941C49.615 89.2769 49.1588 89.4333 48.6882 89.4408C48.3654 88.8908 47.8424 88.4865 47.2285 88.3124C46.8379 88.2037 46.4199 88.1916 46.0474 88.0316C45.8445 87.9327 45.664 87.7935 45.5169 87.6224C45.3698 87.4514 45.2591 87.2522 45.1917 87.037C45.1243 86.8217 45.1016 86.595 45.125 86.3707C45.1483 86.1464 45.2172 85.9292 45.3275 85.7325C45.5496 85.3375 45.6353 84.8805 45.5716 84.4319C45.5078 83.9834 45.298 83.5684 44.9746 83.2508C44.3196 82.6633 43.3722 82.5214 42.4939 82.5802C42.2639 82.0788 42.6485 81.513 43.063 81.1486C43.4774 80.7842 43.9807 80.426 44.0709 79.8818C44.2129 79.0259 43.1197 78.3758 42.2897 78.631C41.4597 78.8862 40.9299 79.6917 40.5797 80.4856C40.3787 80.9412 40.2079 81.4209 39.891 81.805C39.574 82.1891 39.0636 82.4641 38.5809 82.3408C37.8974 82.1663 37.6334 81.3551 37.4822 80.6667C37.2792 79.7432 37.0751 78.8068 37.1176 77.8622C37.1601 76.9176 37.4789 75.9477 38.1761 75.3083C39.3122 74.2662 41.0551 74.3684 42.5884 74.5346C42.2262 74.1269 42.3157 73.4397 42.7033 73.0559C42.9079 72.8742 43.1538 72.7452 43.4196 72.68C43.6854 72.6148 43.9631 72.6153 44.2286 72.6815C44.6907 72.7776 45.1069 73.0262 45.4103 73.3873C45.846 73.9181 45.9699 74.6346 46.2993 75.237C46.6286 75.8394 47.3692 76.3533 47.9753 76.0301C48.4989 75.7509 48.582 75.0256 48.4517 74.4472C48.3214 73.8688 48.0446 73.3064 48.0918 72.7154C48.1819 71.5877 49.352 70.9089 50.3845 70.4445C51.4171 69.98 52.5994 69.3554 52.763 68.236C52.7686 68.0169 52.8099 67.8001 52.8855 67.5942C53 67.4124 53.1591 67.2629 53.3478 67.1599C56.3613 65.1703 59.4249 63.1564 62.8692 62.0692C63.0484 62.0127 63.0695 62.0755 63.2521 62.0312C63.5077 61.8836 63.3383 61.4754 63.0933 61.3109C62.8482 61.1465 62.5207 61.0204 62.4585 60.7321C62.4128 60.5201 62.5378 60.312 62.5703 60.0977C62.6501 59.571 62.0193 59.0846 61.5295 59.2952C61.2528 58.9292 61.8003 58.5038 62.243 58.3821C63.5722 58.0166 64.9367 57.7939 66.3133 57.7178C66.4721 57.6925 66.6349 57.7202 66.7764 57.7965C67.0076 57.9565 66.9781 58.3235 66.8142 58.5518C66.6504 58.7802 66.3955 58.9236 66.1913 59.1169C65.9682 59.334 65.8091 59.6081 65.7313 59.9094C65.6536 60.2107 65.6601 60.5276 65.7503 60.8254C66.4689 61.1906 67.2502 61.5665 68.0461 61.4379C68.842 61.3092 69.5485 60.4158 69.1743 59.7023C68.826 59.0378 67.7795 58.8879 67.5995 58.1597C67.3888 57.3071 68.597 56.5487 68.3248 55.7137C68.2056 55.3479 67.8407 55.1326 67.5607 54.8685C67.23 54.5447 67.0051 54.1286 66.9155 53.6747C66.8258 53.2209 66.8756 52.7506 67.0584 52.3256C66.6023 52.4057 66.1336 52.3755 65.6917 52.2373C65.2498 52.0991 64.8474 51.8571 64.5185 51.5315C63.9109 50.919 63.4262 49.9527 62.5635 49.9801C61.7719 50.0053 61.09 50.928 60.3497 50.6465C60.1676 50.5772 59.9756 50.4363 59.7992 50.5189C59.7413 50.5564 59.6928 50.6065 59.6572 50.6655C59.6216 50.7245 59.5999 50.7909 59.5938 50.8595C59.4057 51.758 59.7293 52.7817 59.2391 53.5582C58.7057 54.4031 57.4718 54.5202 56.8252 55.2821C56.4741 55.6957 56.3381 56.253 56.0155 56.6891C55.6928 57.1251 55.008 57.4024 54.6208 57.0224C54.8111 56.6315 54.863 56.1877 54.7682 55.7635C54.6733 55.3393 54.4372 54.9599 54.0985 54.6871C53.739 54.4527 53.3515 54.2644 52.945 54.1265C52.4908 53.9345 52.0588 53.6939 51.6564 53.409C51.4548 53.2876 51.291 53.1125 51.1833 52.9033C51.0981 52.6415 51.1096 52.3578 51.2157 52.1036C51.412 51.5412 51.7584 51.0431 52.2174 50.663C52.6765 50.2829 53.2307 50.0353 53.8203 49.9469C54.3359 49.8768 54.9359 49.9015 55.2771 49.509C55.4576 49.3014 55.5524 48.9874 55.8144 48.9031C55.982 48.8695 56.1561 48.8909 56.3105 48.9641L58.2349 49.6408C58.4496 49.7377 58.6859 49.7767 58.9204 49.7541C59.0366 49.7385 59.1427 49.6795 59.2172 49.589C59.2918 49.4984 59.3293 49.3831 59.3223 49.2661C59.2608 48.9469 58.769 48.7937 58.8138 48.4716C58.8389 48.3673 58.895 48.273 58.9748 48.2012C59.6693 47.4627 60.5186 46.8868 61.462 46.5146C62.4053 46.1424 63.4194 45.9832 64.4315 46.0484C64.6744 46.447 64.2903 46.9189 63.9706 47.2591C63.651 47.5993 63.3942 48.2072 63.7807 48.4691C63.9391 48.5498 64.1153 48.5895 64.2931 48.5843C64.7668 48.6484 65.2273 48.7879 65.6569 48.9976C66.3218 49.2867 66.974 49.603 67.6135 49.9466C67.557 49.5254 67.5031 49.0816 67.6629 48.6878C67.8227 48.2939 68.2769 47.985 68.6736 48.1384C69.056 48.2862 69.252 48.792 69.6594 48.8383C70.2027 48.9001 70.4171 48.0982 70.1901 47.6011C69.9632 47.104 69.5139 46.6878 69.4764 46.1428C69.451 45.7751 69.5911 45.319 69.2971 45.0964C69.1925 45.0295 69.0737 44.9879 68.9502 44.9748L61.6092 43.6253C61.1732 43.5451 60.5434 43.6065 60.5241 44.0489C60.5133 44.2959 60.7341 44.5402 60.6363 44.7672C60.5319 45.0096 60.189 44.9874 59.9393 45.0731C59.5518 45.2061 59.3573 45.6658 59.3946 46.0734C59.4627 46.4785 59.6197 46.8635 59.8544 47.2007C59.3769 47.0012 58.6539 46.9646 58.1764 46.7651Z" fill="#3F3D56"/>
<path d="M52.3188 40.5394C51.8558 40.3864 51.357 40.3792 50.8899 40.519C50.4228 40.6587 50.01 40.9386 49.7075 41.3207C49.5866 41.4797 49.4851 41.6989 49.5863 41.871C49.7314 42.1179 50.101 42.0204 50.3736 41.9321C50.7742 41.7891 51.2102 41.7787 51.6171 41.9024C51.8731 41.9902 52.102 42.1454 52.3591 42.2298C52.4842 42.2821 52.6212 42.2994 52.7554 42.2798C52.8896 42.2602 53.0159 42.2045 53.1208 42.1186C53.2972 41.9389 53.3083 41.6594 53.3086 41.4077C53.3209 41.3235 53.3141 41.2376 53.2889 41.1563C53.2636 41.075 53.2206 41.0004 53.1628 40.9378C53.0599 40.8783 52.9443 40.8441 52.8255 40.8382C52.5596 40.789 52.3191 40.6486 52.1457 40.4413" fill="#3F3D56"/>
<path d="M54.9662 39.8031C54.8626 39.7975 54.7593 39.8186 54.6662 39.8643C54.5732 39.9101 54.4934 39.9791 54.4347 40.0645C54.376 40.15 54.3403 40.2491 54.331 40.3523C54.3218 40.4556 54.3392 40.5594 54.3817 40.654C54.6999 40.7407 55.0323 40.7623 55.359 40.7176C55.522 40.6924 55.6738 40.6195 55.7954 40.5081C55.9169 40.3968 56.0028 40.252 56.0421 40.092C55.6574 40.1619 55.2605 40.0862 54.9287 39.8795" fill="#3F3D56"/>
<path d="M63.8473 38.5734C62.9814 38.7574 62.1402 39.0428 61.3413 39.4239C61.7179 39.5685 62.0381 39.8302 62.2546 40.1704C62.4711 40.5105 62.5725 40.9111 62.5439 41.3132C62.5101 41.4676 62.514 41.6278 62.5553 41.7804C62.6473 42.0033 62.914 42.0869 63.1485 42.1441C63.5697 42.2722 64.0096 42.3283 64.4496 42.31C64.6696 42.2985 64.8834 42.2324 65.0714 42.1176C65.2595 42.0028 65.4159 41.8429 65.5265 41.6525C65.5903 41.4718 65.6651 41.2952 65.7505 41.1236C66.3125 40.2685 67.9821 41.3025 68.5855 40.476C68.7981 40.1849 68.7787 39.7466 69.0558 39.5159C69.1991 39.4154 69.3652 39.3521 69.5391 39.3316C70.7526 39.0908 71.9784 38.9164 73.2109 38.8092C73.7949 38.7584 74.5561 38.5489 74.5609 37.9633C72.3613 37.5317 70.0805 37.8382 68.0731 38.8353C67.3499 39.1971 66.3934 39.9584 65.6967 39.4786C65.4359 39.299 65.4488 38.8153 65.0898 38.6133C64.7228 38.4067 64.2369 38.4907 63.8473 38.5734Z" fill="#3F3D56"/>
<path d="M71.0409 39.9174L72.0735 40.1156C71.8834 40.1072 71.6938 40.1394 71.5171 40.21C71.3405 40.2806 71.181 40.3881 71.0492 40.5252C70.9174 40.6623 70.8164 40.8259 70.7529 41.005C70.6895 41.1842 70.665 41.3749 70.6811 41.5643C71.648 41.887 72.7022 41.5729 73.7208 41.6158C74.7394 41.6587 75.9245 42.3856 75.7507 43.3892C75.6981 43.6927 75.5226 43.9959 75.6139 44.2901C75.6778 44.4962 75.8598 44.6425 75.9626 44.8324C76.1766 45.2281 76.0055 45.7286 75.7352 46.0883C75.4649 46.448 75.1016 46.735 74.8643 47.1173C74.2742 48.068 74.6095 49.2971 74.961 50.3592C75.0626 50.7605 75.2503 51.135 75.5111 51.4567C76.0319 52.01 76.8807 52.0581 77.6408 52.0692C78.194 52.0772 78.8278 52.0499 79.1776 51.6217C79.6344 51.0626 79.315 50.1903 79.6157 49.5342C79.8889 48.9383 80.5847 48.6826 81.2151 48.5013C82.3701 48.1691 83.5471 47.8867 84.6391 47.3849C85.9949 46.7619 87.2621 45.7909 88.7524 45.7107C89.1704 45.6882 89.5989 45.7375 90.0016 45.6231C90.4044 45.5086 90.7869 45.1608 90.7564 44.7436C90.7304 44.3872 90.4285 44.1254 90.1926 43.8567C89.9568 43.588 89.7715 43.1748 89.9883 42.8905L93.8945 42.1616C93.6176 41.4077 93.4019 40.4149 94.0382 39.9242C94.2677 39.7471 94.5751 39.6763 94.7705 39.4623C95.1037 39.0975 94.9362 38.4691 94.5516 38.1588C94.1671 37.8486 93.6471 37.7766 93.1545 37.7357C91.4417 37.5936 89.7191 37.6875 88.003 37.7815C84.6484 37.9652 81.2938 38.1489 77.9393 38.3326C77.264 38.3696 76.4843 38.3131 75.8649 38.5432C75.3406 38.7381 74.9678 39.0958 74.3681 39.2214C73.261 39.4534 72.0427 39.2964 71.0409 39.9174Z" fill="#3F3D56"/>
<path d="M89.5391 48.0713C89.4339 48.0547 89.3263 48.079 89.2385 48.1394C89.1805 48.2032 89.146 48.2849 89.1407 48.3709C89.074 48.7507 89.1534 49.1416 89.363 49.4654C89.4698 49.6242 89.6171 49.7516 89.7898 49.8343C89.9625 49.917 90.1542 49.952 90.345 49.9357C90.8099 49.8765 91.1526 49.4802 91.58 49.2868C92.2388 48.9891 95.0366 48.5249 93.1012 47.4803C92.4343 47.1203 92.0033 47.4381 91.4776 47.6752C90.8795 47.9808 90.2093 48.1178 89.5391 48.0713Z" fill="#3F3D56"/>
<path d="M106.491 39.3277C106.265 39.4199 106.075 39.5843 105.953 39.7952C105.896 39.9023 105.883 40.027 105.916 40.1435C105.949 40.26 106.026 40.3593 106.13 40.421C106.214 40.4516 106.304 40.4658 106.394 40.4628L107.312 40.4902C107.703 40.5019 108.19 40.5849 108.295 40.9608C108.373 41.2398 108.199 41.5984 108.409 41.7978C108.5 41.8677 108.608 41.91 108.722 41.9196C109.025 41.9973 109.341 42.0075 109.648 41.9495C110.316 41.7703 109.965 41.3627 110.176 40.9997C110.498 40.4443 110.442 40.7805 111.01 40.4622C111.429 40.2271 111.971 39.8006 111.621 39.2015C111.012 38.1596 107.388 38.8801 106.491 39.3277Z" fill="#3F3D56"/>
<path d="M124.627 38.8038L124.094 38.875C122.89 39.0354 121.68 39.1973 120.521 39.5582C121.023 39.7564 121.549 39.8854 122.086 39.9417C122.381 39.9562 122.675 39.9979 122.962 40.0662C123.474 40.2184 123.99 40.6115 124.484 40.4101C124.791 40.2853 124.891 39.9664 125.145 39.7973C125.32 39.6806 125.986 39.4917 126.06 39.3739C126.661 38.4215 125.089 38.7422 124.627 38.8038Z" fill="#3F3D56"/>
<path d="M126.97 41.2266C126.257 41.6247 125.596 42.1085 125.001 42.6672C124.75 42.9026 124.494 43.1954 124.517 43.5384C124.547 43.9943 125.033 44.2587 125.454 44.4369L127.16 45.1583C127.367 44.867 127.178 44.4647 126.964 44.1784C126.75 43.8921 126.496 43.5608 126.59 43.2162C126.698 42.823 127.178 42.689 127.58 42.6213C128.236 42.5109 130.005 42.5198 129.792 41.4641C129.542 40.2203 127.628 40.859 126.97 41.2266Z" fill="#3F3D56"/>
<path d="M126.627 111.618C126.465 112.088 126.449 112.641 126.73 113.051C127.045 113.511 127.676 113.683 128.222 113.566C128.765 113.422 129.25 113.111 129.607 112.677C129.933 112.313 130.202 111.901 130.403 111.456C130.684 110.762 130.883 110.038 130.994 109.298L131.524 106.52C131.642 105.899 131.637 103.996 130.495 104.616C130.183 104.785 129.461 106.123 129.134 106.502C128.544 107.186 128.466 107.849 128.156 108.677C127.767 109.715 126.986 110.579 126.627 111.618Z" fill="#3F3D56"/>
<path d="M186.954 125.834C186.58 125.688 186.217 125.516 185.869 125.318C185.519 126.279 185.333 127.291 185.318 128.314L187.876 126.868C188.261 126.65 188.697 126.348 188.688 125.907C188.692 125.852 188.68 125.798 188.656 125.749C188.631 125.7 188.593 125.659 188.547 125.63C188.49 125.607 188.428 125.6 188.368 125.609C187.988 125.641 187.643 125.827 187.285 125.957C186.927 126.086 186.509 126.155 186.181 125.962" fill="#3F3D56"/>
<path d="M200.445 126.692C200.164 126.769 199.89 126.867 199.625 126.986C199.038 127.285 198.639 127.851 198.111 128.244C197.605 128.62 196.997 128.827 196.4 129.027C196.224 129.183 196.305 129.495 196.495 129.631C196.7 129.748 196.935 129.801 197.171 129.783C197.791 129.797 198.445 129.803 198.988 129.503C199.295 129.305 199.581 129.078 199.844 128.825C200.48 128.295 201.243 127.946 201.998 127.608C202.273 127.504 202.527 127.352 202.749 127.159C203.223 126.692 203.257 125.971 202.572 125.812C202.019 125.684 200.971 126.522 200.445 126.692Z" fill="#3F3D56"/>
<path d="M206.406 122.802C206.437 122.481 206.394 122.157 206.281 121.854C206.168 121.552 205.988 121.279 205.754 121.056C205.747 121.699 205.727 122.384 205.365 122.916C205.107 123.295 204.702 123.551 204.42 123.912C204.137 124.273 204.012 124.845 204.343 125.162C204.555 125.323 204.813 125.412 205.079 125.415C205.739 125.493 206.503 125.536 206.966 125.06C207.219 124.8 207.342 124.415 207.65 124.224C207.765 124.176 207.867 124.102 207.95 124.009C208.077 123.807 207.875 123.541 207.647 123.468C207.42 123.395 207.169 123.429 206.94 123.36C206.712 123.291 206.502 123.034 206.619 122.826" fill="#3F3D56"/>
<path d="M195.812 99.2204C195.465 99.3046 195.107 99.3257 194.753 99.2828C194.165 99.1749 193.708 98.7325 193.234 98.3697C192.106 97.5119 190.735 97.0334 189.318 97.003C188.029 96.9787 186.728 97.3276 185.462 97.0842C185.545 97.5438 185.939 97.8885 186.359 98.0934C186.779 98.2983 187.242 98.4014 187.664 98.6021C188.34 98.9267 188.876 99.4839 189.174 100.171C189.31 100.488 189.396 100.833 189.602 101.11C190.023 101.676 190.82 101.8 191.524 101.754C192.442 101.694 193.401 101.43 194.255 101.771C194.908 102.033 195.376 102.604 195.921 103.048C196.466 103.492 197.235 103.822 197.861 103.501C197.21 103.291 196.644 102.878 196.245 102.324C195.846 101.769 195.635 101.102 195.642 100.418C196.256 100.475 198.025 100.453 197.93 99.4103C197.849 98.5266 196.339 99.125 195.812 99.2204Z" fill="#3F3D56"/>
<path d="M187.776 106.411C187.885 105.813 188.481 105.285 188.296 104.707C188.167 104.307 187.703 104.109 187.282 104.099C186.862 104.09 186.449 104.215 186.029 104.226C185.755 104.212 185.481 104.216 185.208 104.238C184.373 104.375 183.859 105.249 183.073 105.56C182.595 105.748 182.057 105.712 181.56 105.843C180.431 106.139 179.717 107.205 178.928 108.064C177.653 109.446 175.992 110.414 174.16 110.842C173.518 110.991 172.828 111.085 172.318 111.502C171.643 112.053 171.476 112.999 171.326 113.857C170.911 116.228 170.276 118.556 169.43 120.81L172.111 121.152C172.62 121.217 173.148 121.28 173.639 121.13C173.996 120.995 174.334 120.815 174.645 120.595C175.839 119.854 177.175 119.372 178.567 119.18C179.268 119.084 180.004 119.066 180.663 119.327C181.322 119.588 181.887 120.179 181.942 120.884C182.227 120.796 182.53 120.786 182.82 120.857C183.11 120.927 183.375 121.075 183.588 121.284C184.008 121.712 184.282 122.26 184.374 122.851C184.444 123.218 184.515 123.657 184.855 123.81C185.133 123.936 185.451 123.801 185.755 123.776C186.785 123.694 187.64 124.894 188.653 124.688C189.74 124.466 190.006 122.841 191.066 122.515C191.675 122.328 192.529 122.556 192.82 121.99C193.077 121.491 192.564 120.916 192.617 120.358C192.682 119.67 193.494 119.379 194.12 119.085C196.277 118.074 197.3 115.174 196.255 113.035C195.636 111.767 194.417 110.77 194.192 109.377C194.019 108.306 194.442 107.057 193.758 106.214C193.41 105.785 192.821 105.548 192.614 105.036C192.484 104.714 192.537 104.348 192.466 104.008C192.396 103.668 192.099 103.312 191.763 103.4C190.786 103.656 190.475 106.67 189.952 107.402C189.157 108.515 187.526 107.782 187.776 106.411Z" fill="#3F3D56"/>
<path d="M169.726 100.359C169.393 100.266 169.028 100.174 168.709 100.307C168.389 100.441 168.202 100.91 168.459 101.142C170.466 101.064 172.486 100.987 174.477 101.259C176.77 101.573 179.04 102.35 181.343 102.122C180.028 101.734 178.69 101.424 177.338 101.193L175.083 100.763C174.478 100.636 173.866 100.542 173.252 100.48C171.965 100.374 170.991 100.713 169.726 100.359Z" fill="#3F3D56"/>
<path d="M171.736 93.3737C171.57 93.3598 171.363 93.3479 171.277 93.491C171.195 93.6278 171.289 93.8085 171.245 93.9619C171.184 94.1714 170.909 94.225 170.693 94.1964C170.477 94.1679 170.243 94.0996 170.051 94.2039C169.954 94.2702 169.88 94.3663 169.843 94.4777C169.805 94.589 169.804 94.7097 169.84 94.8216C169.919 95.0436 170.046 95.2456 170.212 95.4127C170.495 95.7697 170.818 96.0935 171.175 96.3779C171.865 96.8867 172.799 97.1319 173.234 97.8705C173.295 98.0137 173.39 98.1404 173.509 98.2404C173.718 98.3724 173.99 98.2719 174.214 98.1694L175.002 97.81C175.144 97.7589 175.27 97.6729 175.37 97.5599C175.55 97.316 175.439 96.9693 175.288 96.7067C175.137 96.444 174.944 96.1721 174.976 95.8709C175.034 95.3339 175.725 95.1285 176.009 94.6691C176.296 94.206 176.109 93.6093 176.142 93.0658C176.181 92.4303 176.581 91.6037 175.938 91.1288C175.391 90.7253 174.869 91.0982 174.476 91.5437C173.649 92.4832 173.258 93.5007 171.736 93.3737Z" fill="#3F3D56"/>
<path d="M176.515 83.8782C176.784 84.3924 177.345 84.6993 177.638 85.2C177.956 85.7428 177.919 86.4441 178.264 86.9702C178.618 87.51 179.329 87.7966 179.528 88.4105C179.744 89.0808 179.253 89.8954 179.645 90.4811C179.718 90.5768 179.81 90.6563 179.915 90.7146C180.021 90.7729 180.137 90.8087 180.257 90.8197C180.377 90.8307 180.498 90.8167 180.612 90.7786C180.726 90.7405 180.831 90.679 180.921 90.5982C181.086 90.4186 181.174 90.1817 181.167 89.938C181.16 89.6942 181.058 89.4629 180.882 89.2934C180.65 89.0822 180.317 88.9909 180.124 88.7442C180.023 88.6019 179.956 88.4385 179.927 88.2664C179.822 87.7701 179.839 87.2556 179.977 86.7673C180.028 86.6433 180.041 86.5067 180.014 86.3752C179.927 86.1221 179.584 86.1041 179.343 85.9867C178.797 85.72 178.81 84.9491 178.905 84.3487C178.842 84.7484 177.417 84.0686 177.267 83.8422C176.971 83.3925 177.132 82.5249 177.074 82.0279C176.434 82.336 176.187 83.2495 176.515 83.8782Z" fill="#3F3D56"/>
<path d="M162.159 91.7898C161.896 91.4956 161.5 91.1879 161.147 91.3653C160.878 91.5006 160.804 91.8725 160.909 92.1544C161.038 92.4283 161.236 92.6638 161.483 92.8378C162.218 93.4433 163.009 93.9898 163.651 94.6937C164.798 95.9533 165.406 97.653 166.653 98.8134C166.904 99.0824 167.236 99.262 167.599 99.3246C167.962 99.3584 168.371 99.1259 168.412 98.7636C168.447 98.4651 168.239 98.1979 168.035 97.9768C167.55 97.45 167.02 96.9652 166.562 96.4149C166.351 96.2035 166.218 95.9264 166.186 95.6293C166.183 95.333 166.454 95.0228 166.741 95.0962C166.392 95.007 166.132 94.4252 165.619 94.3159C165.191 94.2245 165.087 94.4896 164.577 94.271C163.604 93.8541 162.84 92.5519 162.159 91.7898Z" fill="#3F3D56"/>
<path d="M185.023 63.146C184.744 63.0631 184.47 62.9652 184.201 62.8526C183.479 62.636 182.523 63.1665 182.619 63.914C182.683 64.4106 183.146 64.7454 183.401 65.1762C183.78 65.815 183.679 66.6253 183.48 67.3407C183.431 67.5622 183.338 67.7716 183.207 67.9565C183.023 68.1518 182.803 68.3097 182.559 68.4218C181.583 68.9684 180.723 69.6987 180.025 70.5723C179.949 70.653 179.897 70.7525 179.872 70.8605C179.838 71.1129 180.092 71.2967 180.235 71.5072C180.554 71.9748 180.324 72.6039 180.355 73.1688C180.35 73.2487 180.366 73.3285 180.401 73.4006C180.435 73.4728 180.488 73.5349 180.553 73.581C180.746 73.6786 180.973 73.5129 181.078 73.3243C181.423 72.6986 181.163 71.6941 181.811 71.3924C181.934 71.3354 182.083 71.3113 182.165 71.2036C182.294 71.0328 182.169 70.7799 182.235 70.5758C182.334 70.2693 182.753 70.2555 183.075 70.2691C183.63 70.2923 184.185 70.2185 184.714 70.0512C184.922 70.0018 185.11 69.8927 185.257 69.7373C185.45 69.4956 185.433 69.1519 185.395 68.8446C185.2 67.3124 184.715 65.8315 183.963 64.4818C184.533 64.5546 185.153 64.6175 185.645 64.3209C185.92 64.1548 186.25 63.6581 186.113 63.32C185.897 62.7854 185.507 63.2354 185.023 63.146Z" fill="#3F3D56"/>
<path d="M111.986 71.5726C112.055 71.9379 112.122 72.3226 112.002 72.6744C111.882 73.0262 111.505 73.3201 111.149 73.2123C110.873 73.1287 110.713 72.8512 110.517 72.6396C109.426 71.463 106.965 72.1442 106.291 70.6885C106.016 70.0945 106.203 69.3827 106.015 68.7556C105.897 68.3931 105.661 68.0802 105.345 67.8659C105.03 67.6517 104.652 67.5483 104.271 67.5719C103.924 67.622 103.585 67.7229 103.267 67.8712C101.137 68.7237 98.8996 69.2827 96.618 69.5327C96.1844 69.5591 95.7555 69.6371 95.3404 69.7649C94.4035 70.1043 93.7634 70.972 93.3079 71.8574C92.8523 72.7429 92.516 73.7015 91.9052 74.4881C91.2634 75.3149 90.3639 75.8938 89.5249 76.52C89.2017 76.7281 88.9325 77.0099 88.7396 77.3422C88.5577 77.7153 88.568 78.1492 88.5821 78.564L88.7536 83.6011C88.7757 84.249 88.8034 84.9201 89.0936 85.4999C89.4561 86.2239 90.1721 86.6981 90.6688 87.3377C91.1757 87.995 91.4398 88.8071 91.4163 89.6365C91.4057 89.97 91.3726 90.3644 91.6325 90.5738C91.7907 90.6762 91.9757 90.7294 92.1642 90.7266L98.9845 91.2842C100.184 91.3823 101.514 91.5436 102.297 92.4568C102.667 92.8878 102.964 93.5075 103.53 93.5538C103.773 93.5736 104.009 93.474 104.252 93.4548C104.865 93.4063 105.403 93.871 105.743 94.3829C106.258 95.1631 106.491 96.0948 106.405 97.0251C106.35 97.609 106.168 98.1767 106.129 98.7619C105.981 100.989 107.87 102.924 107.907 105.155C107.928 106.468 107.305 107.694 106.697 108.858C107.678 110.344 106.874 112.322 107.265 114.058C107.636 115.706 109.011 116.995 109.353 118.649C109.51 119.406 109.519 120.337 110.188 120.727C110.481 120.87 110.806 120.935 111.131 120.916C113.095 120.939 115.037 120.498 116.797 119.627C117.623 119.218 118.48 118.606 118.624 117.696C118.74 116.962 118.368 116.141 118.747 115.502C119.194 114.749 120.338 114.808 120.996 114.229C122.062 113.289 121.231 111.497 121.663 110.143C122.051 108.927 123.389 108.28 124.051 107.188C124.312 106.719 124.499 106.212 124.606 105.685C124.91 104.427 125.099 103.145 125.171 101.852C125.189 101.067 125.247 100.284 125.345 99.5047C126.059 95.0692 130.449 92.099 131.874 87.8379C132.01 87.431 132.074 86.889 131.711 86.6587C131.496 86.5563 131.253 86.5308 131.021 86.5865L127.877 86.9825C127.487 87.0317 127.073 87.0777 126.714 86.9157C126.355 86.7536 126.098 86.3004 126.289 85.9561C126.823 84.9898 125.724 83.7687 125.236 82.7783C123.922 80.1118 122.357 77.5761 120.562 75.2055C120.447 75.0836 120.375 74.9275 120.357 74.761L121.25 74.7907C120.948 73.7109 120.451 72.5293 119.401 72.1343C118.809 71.9117 118.154 71.9887 117.523 72.0231C115.715 72.1218 113.776 71.8491 111.986 71.5726Z" fill="#3F3D56"/>
<path d="M117.525 47.2393C117.998 47.7413 118.528 48.2735 119.213 48.361C120.422 48.5156 121.291 47.2663 121.845 46.1812C121.866 46.4578 121.993 46.7156 122.201 46.8996C122.409 47.0836 122.68 47.1794 122.958 47.1666C123.256 47.1164 123.541 47.0051 123.794 46.8397C126.19 45.5317 128.874 44.8386 131.604 44.8228C131.578 44.6162 131.629 44.4072 131.748 44.2361C131.867 44.0651 132.045 43.9441 132.248 43.8965C132.803 43.7866 133.303 44.266 133.571 44.7641C133.839 45.2622 134.006 45.8395 134.431 46.2123C134.857 46.5851 135.68 46.5689 135.848 46.029C136.01 45.5107 135.469 45.0687 135.02 44.7631C134.571 44.4576 134.098 43.892 134.4 43.441C136.694 42.9337 139.003 42.4245 141.35 42.3237C141.75 42.3376 142.148 42.269 142.52 42.1223C142.878 41.9468 143.162 41.5485 143.066 41.1619C142.554 41.2822 142.017 41.2473 141.525 41.0618C141.033 40.8763 140.607 40.5484 140.301 40.1201C143.559 39.8516 147.023 39.6227 149.91 41.1539C150.256 41.8968 148.49 42.5148 148.963 43.1849C149.113 43.3986 149.415 43.4237 149.677 43.4285C151.683 43.4657 153.7 43.5022 155.684 43.1997C156.408 43.0891 157.14 42.933 157.868 43.0227C159.08 43.172 160.117 43.9799 161.309 44.2433C161.794 44.3505 162.339 44.3542 162.748 44.0722C163.157 43.7902 163.333 43.148 162.997 42.7814C164.12 41.6822 165.983 41.9546 167.464 42.4809C168.946 43.0072 170.349 43.8559 171.916 43.9732C173.04 44.0573 174.18 43.7552 175.291 43.9472C175.989 44.0679 176.638 44.3781 177.321 44.5687C178.611 44.9292 179.976 44.8531 181.315 44.8704C184.733 44.9164 188.114 45.5876 191.29 46.8506C191.703 46.985 192.082 47.2084 192.399 47.5051C192.695 47.8212 192.845 48.3125 192.647 48.6969L189.365 48.2179C189.674 48.826 190.474 48.9296 191.124 49.1394C191.773 49.3492 192.447 50.0659 192.056 50.6255C191.353 50.4016 190.715 51.1047 190.359 51.7516C190.003 52.3985 189.57 53.1732 188.833 53.2126C188.172 53.2479 187.373 52.686 186.943 53.1877C187.537 53.9374 188.047 54.7509 188.461 55.6133C188.887 56.4987 189.19 57.6142 188.615 58.4108C188.524 58.553 188.387 58.6593 188.227 58.7114C187.757 58.8302 187.452 58.2563 187.115 57.9085C186.691 57.4701 186.049 57.346 185.475 57.1404C184.9 56.9349 184.295 56.5305 184.25 55.9224C184.222 55.544 184.422 55.1923 184.569 54.8426C184.816 54.2532 184.925 53.6147 184.885 52.9767C184.853 52.4635 184.709 51.9296 184.34 51.5709C183.971 51.2123 183.334 51.0986 182.938 51.427C182.753 51.5803 182.605 51.8254 182.365 51.8346C181.941 51.8508 181.615 51.1121 181.274 51.3643C181.314 51.633 181.258 51.9071 181.117 52.1389C180.098 53.0235 178.534 52.6493 177.222 52.9618C176.598 53.1402 176 53.4009 175.445 53.7371C175.237 53.8258 175.06 53.974 174.937 54.163C174.773 54.4811 174.954 54.8885 175.242 55.1C175.549 55.2876 175.893 55.405 176.25 55.4436C177.85 55.7463 179.474 56.215 180.737 57.2419C182 58.2687 182.829 59.9661 182.429 61.5434L179.274 58.531C179.393 59.7959 179.461 61.0642 179.478 62.336C179.498 62.5843 179.464 62.8341 179.378 63.0679C179.153 63.5643 178.543 63.7313 178.009 63.8409C177.86 63.8691 177.719 63.9284 177.595 64.0149C177.471 64.1014 177.367 64.2132 177.289 64.3428C177.211 64.4724 177.162 64.617 177.144 64.7671C177.126 64.9172 177.14 65.0693 177.185 65.2135C177.375 65.8317 177.848 66.3137 178.282 66.7939C178.715 67.2741 179.142 67.8199 179.199 68.464C179.255 69.1082 178.769 69.8342 178.123 69.7894C177.634 69.7554 177.271 69.3177 177.062 68.8741C176.853 68.4305 176.729 67.9364 176.415 67.5595C175.466 66.4186 173.333 66.9074 172.482 65.6912C172.266 65.9369 172.115 66.2339 172.046 66.554C171.976 66.8741 171.989 67.2066 172.085 67.52C172.48 67.2726 173.022 67.5025 173.319 67.8621C173.617 68.2217 173.757 68.6827 173.99 69.0866C174.305 69.6316 174.807 70.1147 174.851 70.7425C174.839 70.9799 174.843 71.2178 174.863 71.4547C174.941 71.8351 175.263 72.1082 175.486 72.4262C176.005 73.166 175.979 74.1824 175.645 75.0218C175.31 75.8613 174.709 76.5627 174.113 77.2428C173.073 78.4306 172.012 79.6114 170.779 80.5978C170.427 80.8793 170.051 81.1561 169.832 81.5496C169.613 81.9431 169.602 82.4954 169.939 82.7948C169.698 82.8068 169.266 82.9252 169.025 82.9373C168.94 81.9716 168.921 81.0012 168.969 80.033C168.019 79.5769 166.995 80.7985 167.117 81.8451C167.24 82.8918 167.998 83.7318 168.537 84.6373C168.932 85.2995 169.225 86.0717 169.093 86.831C168.962 87.5903 168.283 88.2908 167.515 88.2238C166.292 88.1173 165.781 86.3642 164.571 86.1636C164.464 86.1385 164.352 86.1497 164.252 86.1952C164.073 86.2937 164.041 86.5339 164.031 86.7384C163.982 87.7422 163.939 88.7858 164.331 89.7113C164.905 91.0651 166.387 92.2022 166.076 93.6392C164.401 92.8614 163.53 90.9847 163.135 89.1821C162.739 87.3796 162.673 85.4872 161.965 83.7831C161.426 84.4723 160.295 83.9025 159.803 83.1795C159.337 82.4941 159.05 81.7012 158.598 81.0065C158.145 80.3118 157.453 79.6898 156.624 79.6516C155.755 79.6115 155.002 80.2071 154.339 80.7699C153.794 81.2327 153.235 81.7137 152.916 82.3534C152.453 83.2843 152.574 84.3817 152.552 85.4212C152.528 86.5449 152.289 87.7306 151.522 88.5532C150.756 89.3759 149.341 89.6624 148.495 88.921C148.054 88.5339 147.84 87.9556 147.65 87.4005C146.732 84.7246 145.968 81.9986 145.36 79.2358C145.218 79.8663 144.664 80.6791 144.135 80.3077C144.016 80.2078 143.919 80.0839 143.852 79.9441C142.864 78.2718 141.035 77.2687 139.187 76.6672C137.339 76.0658 135.395 75.7852 133.567 75.1242C132.543 74.7537 131.565 74.2669 130.652 73.6735C130.419 74.0151 130.284 74.4132 130.259 74.8257C130.234 75.2382 130.322 75.6497 130.512 76.0166C130.917 76.7337 131.835 77.1486 132.62 76.8979C133.026 76.7684 133.369 76.487 133.771 76.348C134.174 76.209 134.714 76.2772 134.89 76.6648C135.059 77.0357 134.804 77.4845 134.93 77.8718C135.123 78.4617 136.014 78.5071 136.325 79.044C136.557 79.4434 136.366 79.9737 136.035 80.296C135.704 80.6183 135.263 80.7951 134.859 81.0194C133.549 81.7474 132.617 82.99 131.472 83.9568C130.327 84.9236 128.711 85.6295 127.346 85.0093C127.672 83.3636 125.709 82.1554 125.348 80.5171C125.229 79.9779 125.291 79.4051 125.121 78.8797C124.876 78.1189 124.2 77.5957 123.646 77.0192C122.974 76.3123 122.45 75.478 122.106 74.5656C121.761 73.6532 121.603 72.6812 121.641 71.7069C121.671 71.0298 121.796 70.3417 121.641 69.6817C121.487 69.0218 120.94 68.3831 120.262 68.413C118.714 68.4813 116.764 68.5963 115.952 67.278C115.662 66.8075 115.536 66.1185 115.955 65.758C116.251 65.5037 116.687 65.5277 117.076 65.5658L120.563 65.9086C121.379 65.9887 122.261 66.0549 122.961 65.6289C123.661 65.2028 123.964 64.072 123.316 63.5707C122.842 63.2045 121.994 63.2244 121.856 62.6421C121.741 62.1571 122.279 61.6069 121.989 61.2016C121.78 60.911 121.313 60.9916 121.029 61.2094C120.746 61.4273 120.54 61.7459 120.223 61.9108C119.666 62.2002 119.001 61.9248 118.403 61.7376C117.804 61.5505 117.001 61.5346 116.711 62.0902C116.386 62.7115 116.999 63.5257 116.676 64.1483C116.25 64.9714 114.807 64.5028 114.209 65.2109C113.522 66.0234 114.676 67.2349 114.444 68.2728C114.149 68.4191 113.82 68.4863 113.491 68.4678C113.161 68.4493 112.842 68.3458 112.565 68.1673C112.292 67.9819 112.074 67.7261 111.935 67.427C111.796 67.128 111.741 66.7969 111.776 66.469C111.833 66.0021 112.077 65.5255 111.913 65.0842C111.781 64.7275 111.423 64.5151 111.09 64.3311L107.7 62.4601C107.386 63.0432 107.784 63.7662 108.281 64.2042C108.779 64.6422 109.402 64.9721 109.729 65.5486C109.935 65.9479 109.982 66.4111 109.858 66.8435C109.735 67.2758 109.451 67.6448 109.064 67.875C109.016 67.9084 108.96 67.9309 108.902 67.941C108.844 67.9511 108.785 67.9486 108.728 67.9335C108.674 67.9018 108.627 67.8595 108.589 67.8092C108.552 67.7589 108.525 67.7017 108.51 67.6408C107.912 66.112 107.014 64.6046 105.579 63.806C104.143 63.0073 102.081 63.1715 101.14 64.5169C100.916 64.8364 100.766 65.2007 100.571 65.5385C99.5365 67.3334 97.3182 68.1834 95.2457 68.1278C95.0429 68.139 94.8412 68.0917 94.6647 67.9915C94.3297 67.7603 94.3448 67.2699 94.3961 66.8665L94.6136 65.1543C94.6573 64.8105 94.7206 64.4305 94.993 64.2159C95.377 63.9133 95.9308 64.1042 96.4198 64.0972C96.7902 64.0799 97.1464 63.9492 97.44 63.7228C97.7336 63.4965 97.9504 63.1854 98.061 62.8318C98.1598 62.4747 98.1592 62.0974 98.0592 61.7407C97.9592 61.3839 97.7637 61.0612 97.4937 60.8072C97.2696 60.5969 96.9688 60.3328 97.0872 60.0493C97.1344 59.9709 97.1983 59.9037 97.2742 59.8526C97.3502 59.8015 97.4365 59.7676 97.527 59.7534C98.4053 59.4986 99.3333 59.4318 100.197 59.1311C101.061 58.8305 101.898 58.2154 102.103 57.3248C102.165 57.0519 102.194 56.7213 102.439 56.586C102.562 56.534 102.695 56.507 102.828 56.5066C103.297 56.44 103.723 56.2008 104.023 55.8359C104.324 55.471 104.477 55.007 104.452 54.5352C104.866 54.2462 105.446 54.4588 105.846 54.7661C106.247 55.0734 106.6 55.4794 107.087 55.6119C107.995 55.8588 108.873 55.0557 109.814 55.0519C110.21 55.0504 110.619 55.1901 110.991 55.0561C111.369 54.9202 111.594 54.5449 111.884 54.2676C112.174 53.9903 112.682 53.8212 112.949 54.1199L112.722 52.4345C113.18 52.5502 113.658 52.5666 114.124 52.4825C114.59 52.3984 115.032 52.2158 115.421 51.9469L112.477 50.9533C112.375 50.9277 112.28 50.8772 112.202 50.8062C111.988 50.576 112.2 50.2173 112.374 49.9555C112.791 49.3295 112.861 48.2982 112.176 47.9865C111.709 47.7737 111.172 48.0291 110.724 48.279L108.575 49.4758C108.507 49.8838 109.006 50.115 109.316 50.3898C109.503 50.5561 109.636 50.7751 109.696 51.018C109.756 51.2608 109.742 51.5163 109.654 51.7508C109.567 51.9853 109.41 52.1878 109.205 52.3318C109 52.4757 108.757 52.5544 108.506 52.5575C108.648 52.7412 108.746 52.9544 108.794 53.1813C108.842 53.4081 108.838 53.6428 108.782 53.868L107.337 53.9719C107.175 54.0045 107.006 53.9716 106.868 53.8805C106.713 53.7433 106.734 53.5029 106.699 53.2994C106.612 52.8084 106.131 52.4642 105.64 52.3759C105.148 52.2877 104.646 52.4008 104.159 52.5125C103.953 52.5868 103.726 52.5815 103.523 52.4978C103.407 52.4223 103.319 52.3109 103.272 52.1804C103.058 51.6639 103.258 51.0567 103.6 50.615C103.943 50.1733 104.411 49.8503 104.833 49.4826C105.839 48.5999 106.579 47.4535 106.968 46.1729C107.764 45.8398 108.588 45.3873 109.384 45.0541C110.611 44.4336 111.987 44.1673 113.357 44.2852L116.052 44.3366C116.849 44.3518 117.669 44.3713 118.407 44.6752C119.145 44.9791 119.793 45.6364 119.844 46.432C119.859 46.5221 119.851 46.6146 119.821 46.7008C119.791 46.7871 119.739 46.8642 119.671 46.9251C119.567 46.9819 119.449 47.0084 119.33 47.0018C118.586 47.0279 118.269 47.2131 117.525 47.2393Z" fill="#3F3D56"/>
<path d="M96.0439 55.6773C96.1491 55.5777 96.2249 55.4511 96.2629 55.3113C96.3008 55.1715 96.2994 55.024 96.2589 54.885C96.0027 54.7862 95.724 54.7608 95.4541 54.8117C95.1843 54.8626 94.934 54.9878 94.7315 55.1731C94.5718 55.3344 94.4343 55.5162 94.3223 55.7135C93.9682 56.2907 93.6549 56.9802 93.8602 57.6254C93.8769 57.6958 93.9075 57.7621 93.9503 57.8205C93.993 57.8788 94.0469 57.9281 94.109 57.9654C94.201 58.0023 94.3001 58.0178 94.399 58.0108C94.7891 58.0103 95.1789 57.9863 95.5661 57.939C95.8039 57.91 96.0801 57.8429 96.172 57.6218C96.2928 57.3313 96.0004 57.0024 96.0857 56.6996C96.1417 56.5641 96.2267 56.4425 96.3347 56.3433C96.3882 56.2933 96.4294 56.2316 96.4549 56.1629C96.4804 56.0943 96.4895 56.0206 96.4815 55.9479C96.4471 55.8057 96.2293 55.7251 96.1509 55.8486" fill="#3F3D56"/>
<path d="M98.0667 53.0571C97.7201 52.9776 97.3629 52.9552 97.0091 52.9908C96.9308 52.9885 96.8533 53.0061 96.7837 53.0419C96.7163 53.0916 96.6674 53.1623 96.6448 53.2429C96.5701 53.4825 96.5885 53.7414 96.6963 53.9681C96.8041 54.1948 96.9934 54.3726 97.2265 54.4661C97.3536 54.4952 97.4753 54.5441 97.5872 54.6109C97.8864 54.8427 97.6957 55.3166 97.7523 55.6906C97.8159 56.1106 98.2227 56.4631 98.1481 56.8812C98.0894 57.2106 97.7372 57.4714 97.7939 57.8012C97.8533 58.1466 98.292 58.2504 98.6417 58.2781C98.8444 58.3135 99.053 58.2896 99.2424 58.2093C99.4322 58.0796 99.5672 57.8843 99.6213 57.661C99.7645 57.2353 99.8247 56.7861 99.7985 56.3377C99.797 56.1338 99.7457 55.9333 99.6492 55.7536C99.5439 55.6113 99.4272 55.4778 99.3002 55.3544C98.6302 54.5758 99.3356 53.4144 98.0667 53.0571Z" fill="#3F3D56"/>
<path opacity="0.8" d="M186.17 114.049C186.17 114.049 134.855 84.6219 112.763 90.1976C112.763 90.1976 65.944 95.2312 60.5179 106.305C60.5179 106.305 45.635 59.8409 40.209 58.2921" stroke="#6C63FF" stroke-width="2" stroke-miterlimit="10"/>
<path opacity="0.8" d="M60.5179 106.305C69.1221 83.3828 146.637 57.9824 146.637 57.9824C135.63 60.7702 112.763 90.1976 112.763 90.1976C112.763 90.1976 64.3937 55.0396 40.209 58.2921C40.209 58.2921 146.715 61.7769 186.17 114.049" stroke="#6C63FF" stroke-width="2" stroke-miterlimit="10"/>
<path d="M40.2089 60.5379C41.4504 60.5379 42.4568 59.5324 42.4568 58.2921C42.4568 57.0518 41.4504 56.0463 40.2089 56.0463C38.9674 56.0463 37.9609 57.0518 37.9609 58.2921C37.9609 59.5324 38.9674 60.5379 40.2089 60.5379Z" fill="#0EA5E9"/>
<path d="M60.518 108.551C61.7595 108.551 62.7659 107.546 62.7659 106.305C62.7659 105.065 61.7595 104.059 60.518 104.059C59.2765 104.059 58.27 105.065 58.27 106.305C58.27 107.546 59.2765 108.551 60.518 108.551Z" fill="#0EA5E9"/>
<path d="M146.637 60.2281C147.879 60.2281 148.885 59.2227 148.885 57.9823C148.885 56.742 147.879 55.7366 146.637 55.7366C145.396 55.7366 144.389 56.742 144.389 57.9823C144.389 59.2227 145.396 60.2281 146.637 60.2281Z" fill="#0EA5E9"/>
<path d="M186.17 116.295C187.411 116.295 188.418 115.29 188.418 114.049C188.418 112.809 187.411 111.803 186.17 111.803C184.928 111.803 183.922 112.809 183.922 114.049C183.922 115.29 184.928 116.295 186.17 116.295Z" fill="#0EA5E9"/>
<path d="M112.763 92.4434C114.005 92.4434 115.011 91.4379 115.011 90.1976C115.011 88.9573 114.005 87.9518 112.763 87.9518C111.522 87.9518 110.515 88.9573 110.515 90.1976C110.515 91.4379 111.522 92.4434 112.763 92.4434Z" fill="#0EA5E9"/>
</g>
<defs>
<clipPath id="clip0_27_923">
<rect width="221" height="164" fill="white"/>
</clipPath>
</defs>
</svg>
