<svg width="256" height="193" viewBox="0 0 256 193" fill="none" xmlns="http://www.w3.org/2000/svg">
<g clip-path="url(#clip0_27_956)">
<path d="M118.055 41.1731H54.9034C54.5933 41.1727 54.2961 41.0496 54.0768 40.8307C53.8576 40.6118 53.7343 40.3149 53.7339 40.0053V24.3631C53.7343 24.0535 53.8576 23.7566 54.0768 23.5377C54.2961 23.3188 54.5933 23.1957 54.9034 23.1953H118.055C118.365 23.1957 118.663 23.3188 118.882 23.5377C119.101 23.7566 119.225 24.0535 119.225 24.3631V40.0053C119.225 40.3149 119.101 40.6118 118.882 40.8307C118.663 41.0496 118.365 41.1727 118.055 41.1731ZM54.9034 23.6624C54.7173 23.6626 54.539 23.7365 54.4074 23.8678C54.2759 23.9992 54.2019 24.1773 54.2017 24.3631V40.0053C54.2019 40.1911 54.2759 40.3692 54.4074 40.5006C54.539 40.6319 54.7173 40.7058 54.9034 40.706H118.055C118.241 40.7058 118.42 40.6319 118.551 40.5006C118.683 40.3692 118.757 40.1911 118.757 40.0053V24.3631C118.757 24.1773 118.683 23.9992 118.551 23.8678C118.42 23.7365 118.241 23.6626 118.055 23.6624L54.9034 23.6624Z" fill="#3F3D56"/>
<path d="M64.716 36.3408C67.347 36.3408 69.4798 34.2111 69.4798 31.584C69.4798 28.9569 67.347 26.8272 64.716 26.8272C62.085 26.8272 59.9521 28.9569 59.9521 31.584C59.9521 34.2111 62.085 36.3408 64.716 36.3408Z" fill="#0EA5E9"/>
<path d="M75.7178 28.4128C75.5072 28.4128 75.3053 28.4963 75.1564 28.645C75.0075 28.7937 74.9238 28.9953 74.9238 29.2056C74.9238 29.4159 75.0075 29.6175 75.1564 29.7662C75.3053 29.9149 75.5072 29.9984 75.7178 29.9984H113.148C113.359 29.9984 113.561 29.9149 113.709 29.7662C113.858 29.6175 113.942 29.4159 113.942 29.2056C113.942 28.9953 113.858 28.7937 113.709 28.645C113.561 28.4963 113.359 28.4128 113.148 28.4128H75.7178Z" fill="#E6E6E6"/>
<path d="M75.7178 33.1696C75.5072 33.1696 75.3053 33.2531 75.1564 33.4018C75.0075 33.5505 74.9238 33.7522 74.9238 33.9624C74.9238 34.1727 75.0075 34.3743 75.1564 34.523C75.3053 34.6717 75.5072 34.7552 75.7178 34.7552H91.8241C91.9285 34.7554 92.0319 34.7351 92.1284 34.6953C92.2249 34.6555 92.3126 34.5972 92.3865 34.5235C92.4604 34.4499 92.519 34.3624 92.559 34.2662C92.599 34.1699 92.6195 34.0667 92.6195 33.9624C92.6195 33.8582 92.599 33.755 92.559 33.6587C92.519 33.5624 92.4604 33.4749 92.3865 33.4013C92.3126 33.3277 92.2249 33.2693 92.1284 33.2295C92.0319 33.1898 91.9285 33.1694 91.8241 33.1696H75.7178Z" fill="#E6E6E6"/>
<path d="M90.6385 96.9307H62.5708C62.2608 96.9303 61.9635 96.8072 61.7443 96.5883C61.5251 96.3693 61.4017 96.0725 61.4014 95.7629V66.5746C61.4017 66.265 61.5251 65.9682 61.7443 65.7493C61.9635 65.5304 62.2608 65.4072 62.5708 65.4069H90.6385C90.9485 65.4072 91.2458 65.5304 91.465 65.7493C91.6843 65.9682 91.8076 66.265 91.8079 66.5746V95.7629C91.8076 96.0725 91.6843 96.3693 91.465 96.5883C91.2458 96.8072 90.9485 96.9303 90.6385 96.9307ZM62.5708 65.874C62.3848 65.8742 62.2064 65.948 62.0749 66.0794C61.9434 66.2108 61.8694 66.3889 61.8692 66.5746V95.7629C61.8694 95.9487 61.9434 96.1268 62.0749 96.2581C62.2064 96.3895 62.3848 96.4634 62.5708 96.4636H90.6385C90.8245 96.4634 91.0029 96.3895 91.1344 96.2581C91.266 96.1268 91.34 95.9487 91.3402 95.7629V66.5746C91.34 66.3889 91.266 66.2108 91.1344 66.0794C91.0029 65.948 90.8245 65.8742 90.6385 65.874H62.5708Z" fill="#3F3D56"/>
<path d="M68.5513 71.426C68.3407 71.426 68.1388 71.5096 67.9899 71.6582C67.841 71.8069 67.7573 72.0086 67.7573 72.2188C67.7573 72.4291 67.841 72.6308 67.9899 72.7794C68.1388 72.9281 68.3407 73.0116 68.5513 73.0116H84.6576C84.8682 73.0116 85.0701 72.9281 85.219 72.7794C85.3679 72.6308 85.4516 72.4291 85.4516 72.2188C85.4516 72.0086 85.3679 71.8069 85.219 71.6582C85.0701 71.5096 84.8682 71.426 84.6576 71.426H68.5513Z" fill="#E6E6E6"/>
<path d="M68.5513 76.0971C68.4469 76.0969 68.3435 76.1173 68.247 76.157C68.1505 76.1968 68.0628 76.2551 67.9889 76.3288C67.915 76.4024 67.8564 76.4899 67.8164 76.5862C67.7764 76.6824 67.7559 76.7856 67.7559 76.8899C67.7559 76.9941 67.7764 77.0973 67.8164 77.1936C67.8564 77.2899 67.915 77.3774 67.9889 77.451C68.0628 77.5246 68.1505 77.583 68.247 77.6228C68.3435 77.6625 68.4469 77.6829 68.5513 77.6827H84.6576C84.8682 77.6827 85.0701 77.5992 85.219 77.4505C85.3679 77.3018 85.4516 77.1001 85.4516 76.8899C85.4516 76.6796 85.3679 76.478 85.219 76.3293C85.0701 76.1806 84.8682 76.0971 84.6576 76.0971H68.5513Z" fill="#E6E6E6"/>
<path d="M76.6046 90.9115C75.6162 90.9115 74.6499 90.6189 73.8281 90.0705C73.0062 89.5222 72.3656 88.7428 71.9874 87.8309C71.6091 86.9191 71.5101 85.9157 71.703 84.9476C71.8958 83.9796 72.3718 83.0904 73.0707 82.3925C73.7697 81.6946 74.6602 81.2193 75.6296 81.0267C76.5991 80.8342 77.604 80.933 78.5172 81.3107C79.4304 81.6884 80.2109 82.3281 80.7601 83.1487C81.3092 83.9694 81.6023 84.9342 81.6023 85.9212C81.6008 87.2443 81.0738 88.5127 80.1369 89.4483C79.2 90.3838 77.9296 90.9101 76.6046 90.9115Z" fill="#0EA5E9"/>
<path d="M136.618 0H164.685C164.995 0.000363537 165.293 0.123512 165.512 0.34243C165.731 0.561349 165.854 0.858164 165.855 1.16776V30.3561C165.854 30.6657 165.731 30.9625 165.512 31.1814C165.293 31.4003 164.995 31.5235 164.685 31.5238H136.618C136.308 31.5235 136.01 31.4003 135.791 31.1814C135.572 30.9625 135.449 30.6657 135.448 30.3561V1.16776C135.449 0.858164 135.572 0.561349 135.791 0.34243C136.01 0.123512 136.308 0.000363537 136.618 0ZM164.685 31.0567C164.871 31.0565 165.05 30.9826 165.181 30.8513C165.313 30.7199 165.387 30.5418 165.387 30.3561V1.16776C165.387 0.981998 165.313 0.8039 165.181 0.672545C165.05 0.541191 164.871 0.467307 164.685 0.467104H136.618C136.432 0.467307 136.253 0.541191 136.122 0.672545C135.99 0.8039 135.916 0.981998 135.916 1.16776V30.3561C135.916 30.5418 135.99 30.7199 136.122 30.8513C136.253 30.9826 136.432 31.0565 136.618 31.0567H164.685Z" fill="#3F3D56"/>
<path d="M158.705 25.5047C158.916 25.5047 159.118 25.4212 159.266 25.2725C159.415 25.1238 159.499 24.9221 159.499 24.7119C159.499 24.5016 159.415 24.3 159.266 24.1513C159.118 24.0026 158.916 23.9191 158.705 23.9191H142.599C142.388 23.9191 142.186 24.0026 142.037 24.1513C141.888 24.3 141.805 24.5016 141.805 24.7119C141.805 24.9221 141.888 25.1238 142.037 25.2725C142.186 25.4212 142.388 25.5047 142.599 25.5047H158.705Z" fill="#E6E6E6"/>
<path d="M158.705 20.8336C158.916 20.8336 159.118 20.7501 159.266 20.6014C159.415 20.4527 159.499 20.2511 159.499 20.0408C159.499 19.8306 159.415 19.6289 159.266 19.4802C159.118 19.3315 158.916 19.248 158.705 19.248H142.599C142.388 19.248 142.186 19.3315 142.037 19.4802C141.888 19.6289 141.805 19.8306 141.805 20.0408C141.805 20.2511 141.888 20.4527 142.037 20.6014C142.186 20.7501 142.388 20.8336 142.599 20.8336H158.705Z" fill="#E6E6E6"/>
<path d="M150.652 6.01917C151.64 6.01916 152.606 6.31184 153.428 6.86019C154.25 7.40854 154.891 8.18792 155.269 9.09979C155.647 10.0117 155.746 11.0151 155.553 11.9831C155.36 12.9511 154.884 13.8403 154.185 14.5382C153.486 15.2361 152.596 15.7114 151.627 15.904C150.657 16.0965 149.652 15.9977 148.739 15.62C147.826 15.2423 147.045 14.6027 146.496 13.782C145.947 12.9613 145.654 11.9965 145.654 11.0095C145.655 9.68645 146.182 8.41801 147.119 7.48246C148.056 6.54691 149.326 6.02066 150.652 6.01917Z" fill="#0EA5E9"/>
<path d="M54.0944 60.3861C59.0612 56.545 64.8639 53.9257 71.033 52.7402C77.251 51.557 83.663 51.886 89.7269 53.6993C92.7751 54.6056 95.7038 55.8728 98.4506 57.4738C101.249 59.1074 103.778 61.1185 106.211 63.2479C108.676 65.4049 111.06 67.658 113.633 69.6887C120.98 75.5522 130.099 78.7557 139.504 78.7762C140.281 78.7775 141.057 78.7561 141.833 78.7121C142.254 78.689 142.257 78.0326 141.833 78.0559C132.247 78.583 122.78 75.7265 115.09 69.9865C112.423 67.9952 109.988 65.7184 107.502 63.512C105.092 61.373 102.617 59.2922 99.8826 57.5736C93.1942 53.3661 85.413 51.2183 77.51 51.3982C69.607 51.5781 61.932 54.0777 55.4425 58.5851C54.8254 59.0135 54.2227 59.4612 53.6297 59.9221C53.2963 60.1812 53.7644 60.6426 54.0944 60.3861V60.3861Z" fill="#3F3D56"/>
<path d="M53.7456 63.5582C55.6319 63.5582 57.161 62.0313 57.161 60.1477C57.161 58.2642 55.6319 56.7373 53.7456 56.7373C51.8592 56.7373 50.3301 58.2642 50.3301 60.1477C50.3301 62.0313 51.8592 63.5582 53.7456 63.5582Z" fill="#3F3D56"/>
<path d="M180.809 108.84C182.695 108.84 184.224 107.313 184.224 105.429C184.224 103.546 182.695 102.019 180.809 102.019C178.922 102.019 177.393 103.546 177.393 105.429C177.393 107.313 178.922 108.84 180.809 108.84Z" fill="#3F3D56"/>
<path d="M198.702 86.0018H142.971C142.661 86.0014 142.364 85.8783 142.145 85.6593C141.925 85.4404 141.802 85.1436 141.802 84.834V55.8793C141.802 55.5696 141.925 55.2728 142.145 55.0539C142.364 54.835 142.661 54.7118 142.971 54.7115H198.702C199.012 54.7118 199.309 54.835 199.528 55.0539C199.747 55.2728 199.871 55.5696 199.871 55.8792V84.834C199.871 85.1436 199.747 85.4404 199.528 85.6593C199.309 85.8783 199.012 86.0014 198.702 86.0018ZM142.971 55.1786C142.785 55.1788 142.607 55.2527 142.475 55.384C142.344 55.5154 142.27 55.6935 142.27 55.8792V84.834C142.27 85.0198 142.344 85.1979 142.475 85.3292C142.607 85.4606 142.785 85.5344 142.971 85.5347H198.702C198.888 85.5344 199.066 85.4606 199.198 85.3292C199.329 85.1979 199.403 85.0198 199.403 84.834V55.8792C199.403 55.6935 199.329 55.5154 199.198 55.384C199.066 55.2527 198.888 55.1788 198.702 55.1786H142.971Z" fill="#3F3D56"/>
<path d="M152.316 69.7254C154.947 69.7254 157.079 67.5957 157.079 64.9686C157.079 62.3415 154.947 60.2118 152.316 60.2118C149.685 60.2118 147.552 62.3415 147.552 64.9686C147.552 67.5957 149.685 69.7254 152.316 69.7254Z" fill="#0EA5E9"/>
<path d="M163.318 61.7974C163.213 61.7972 163.11 61.8176 163.014 61.8573C162.917 61.8971 162.829 61.9554 162.756 62.0291C162.682 62.1027 162.623 62.1902 162.583 62.2865C162.543 62.3827 162.522 62.4859 162.522 62.5902C162.522 62.6944 162.543 62.7976 162.583 62.8939C162.623 62.9902 162.682 63.0777 162.756 63.1513C162.829 63.2249 162.917 63.2833 163.014 63.3231C163.11 63.3628 163.213 63.3832 163.318 63.383H193.326C193.537 63.383 193.739 63.2995 193.888 63.1508C194.037 63.0021 194.12 62.8004 194.12 62.5902C194.12 62.3799 194.037 62.1783 193.888 62.0296C193.739 61.8809 193.537 61.7974 193.326 61.7974H163.318Z" fill="#E6E6E6"/>
<path d="M163.318 66.5542C163.213 66.554 163.11 66.5744 163.014 66.6141C162.917 66.6539 162.829 66.7123 162.756 66.7859C162.682 66.8596 162.623 66.947 162.583 67.0433C162.543 67.1396 162.522 67.2428 162.522 67.347C162.522 67.4513 162.543 67.5545 162.583 67.6507C162.623 67.747 162.682 67.8345 162.756 67.9081C162.829 67.9818 162.917 68.0401 163.014 68.0799C163.11 68.1197 163.213 68.14 163.318 68.1398H179.424C179.635 68.1398 179.837 68.0563 179.986 67.9076C180.135 67.7589 180.218 67.5573 180.218 67.347C180.218 67.1368 180.135 66.9351 179.986 66.7864C179.837 66.6377 179.635 66.5542 179.424 66.5542H163.318Z" fill="#E6E6E6"/>
<path d="M148.662 74.159C148.058 74.159 147.566 74.5147 147.566 74.9518C147.566 75.3889 148.058 75.7446 148.662 75.7446H192.882C193.486 75.7446 193.978 75.3889 193.978 74.9518C193.978 74.5147 193.486 74.159 192.882 74.159H148.662Z" fill="#E6E6E6"/>
<path d="M148.662 78.9159C148.058 78.9159 147.566 79.2716 147.566 79.7087C147.566 80.1458 148.058 80.5015 148.662 80.5015H192.882C193.486 80.5015 193.978 80.1458 193.978 79.7087C193.978 79.2716 193.486 78.9159 192.882 78.9159H148.662Z" fill="#E6E6E6"/>
<path d="M138.491 108.604C141.635 107.243 145.145 108.43 148.109 109.685C149.635 110.332 151.145 111.022 152.725 111.532C154.053 111.96 155.414 112.282 156.794 112.495C159.563 112.919 162.38 112.936 165.154 112.546C167.942 112.158 170.659 111.369 173.222 110.204C175.769 109.051 178.124 107.513 180.204 105.645C180.468 105.407 180.728 105.163 180.982 104.913C181.285 104.617 180.82 104.153 180.517 104.449C178.515 106.398 176.216 108.019 173.706 109.25C171.206 110.478 168.54 111.333 165.792 111.789C163.035 112.253 160.224 112.302 157.453 111.933C156.07 111.746 154.705 111.45 153.37 111.046C151.836 110.548 150.332 109.965 148.863 109.299C145.872 108.016 142.549 106.76 139.262 107.645C138.885 107.749 138.517 107.88 138.159 108.038C137.772 108.205 138.107 108.771 138.491 108.604V108.604Z" fill="#3F3D56"/>
<path d="M137.277 116.653H110.947L117.143 105.937C117.254 105.745 117.414 105.585 117.606 105.474C117.799 105.363 118.017 105.305 118.239 105.305C118.461 105.305 118.679 105.363 118.872 105.474C119.064 105.585 119.224 105.745 119.335 105.937L121.982 110.515L126.482 102.731C126.622 102.49 126.821 102.29 127.062 102.152C127.303 102.013 127.576 101.94 127.854 101.94C128.133 101.94 128.406 102.013 128.647 102.152C128.887 102.29 129.087 102.49 129.226 102.731L137.277 116.653Z" fill="#0EA5E9"/>
<path d="M137.301 116.651H109.233C108.923 116.65 108.626 116.527 108.407 116.308C108.188 116.089 108.064 115.792 108.064 115.483V99.8405C108.064 99.5309 108.188 99.2341 108.407 99.0151C108.626 98.7962 108.923 98.6731 109.233 98.6727H137.301C137.611 98.6731 137.908 98.7962 138.128 99.0151C138.347 99.2341 138.47 99.5309 138.471 99.8405V115.483C138.47 115.792 138.347 116.089 138.128 116.308C137.908 116.527 137.611 116.65 137.301 116.651ZM109.233 99.1398C109.047 99.14 108.869 99.2139 108.737 99.3453C108.606 99.4766 108.532 99.6547 108.532 99.8405V115.483C108.532 115.669 108.606 115.847 108.737 115.978C108.869 116.109 109.047 116.183 109.233 116.183H137.301C137.487 116.183 137.665 116.109 137.797 115.978C137.929 115.847 138.003 115.669 138.003 115.483V99.8405C138.003 99.6547 137.929 99.4766 137.797 99.3453C137.665 99.2139 137.487 99.14 137.301 99.1398H109.233Z" fill="#3F3D56"/>
<path d="M192.352 102.884L187.349 105.42C185.564 106.326 183.84 106.171 183.18 104.283C183.023 103.834 182.965 103.356 183.01 102.882C183.055 102.408 183.203 101.95 183.441 101.538C183.68 101.127 184.006 100.771 184.395 100.497C184.784 100.222 185.228 100.035 185.697 99.9473L190.452 99.061L210.816 92.3145L223.152 83.5803L227.674 90.7742L213.42 98.4542L192.352 102.884Z" fill="#FFB8B8"/>
<path d="M215.706 187.087L211.878 186.45L212.304 179.23H216.344L215.706 187.087Z" fill="#FFB8B8"/>
<path d="M252.857 180.035L249.153 181.189L246.274 174.553L249.881 172.735L252.857 180.035Z" fill="#FFB8B8"/>
<path d="M250.794 173.709L246.116 175.62L223.787 146.317L216.77 180.717L212.091 179.867C209.09 150.211 206.643 119.961 209.646 105.654L226.977 104.911L234.845 129.967L238.673 146.954L250.794 173.709Z" fill="#2F2E41"/>
<path d="M215.496 192.926C214.796 193.075 214.067 192.998 213.414 192.705L211.14 191.683C209.233 191.585 207.935 191.964 206.874 190.581C206.574 190.186 206.386 189.717 206.329 189.225C206.272 188.732 206.348 188.234 206.549 187.78C206.748 187.326 207.065 186.932 207.467 186.64C207.869 186.348 208.342 186.168 208.837 186.118L211.96 184.153L212.124 185.626C213.551 186.434 215.246 186.085 217.042 185.299L218.022 188.725C218.148 189.166 218.182 189.629 218.122 190.085C218.062 190.54 217.909 190.979 217.672 191.372C217.435 191.766 217.12 192.107 216.746 192.375C216.371 192.642 215.946 192.829 215.496 192.926Z" fill="#2F2E41"/>
<path d="M254.373 185.898C253.76 186.267 253.045 186.43 252.332 186.364L249.849 186.135C248.014 186.661 246.909 187.441 245.455 186.477C245.044 186.2 244.713 185.818 244.499 185.371C244.285 184.923 244.195 184.427 244.237 183.933C244.278 183.438 244.45 182.963 244.735 182.556C245.02 182.15 245.409 181.826 245.861 181.619L248.175 178.748L248.81 180.088C250.422 180.389 251.912 179.51 253.355 178.184L255.396 181.106C255.659 181.483 255.842 181.91 255.933 182.36C256.024 182.81 256.022 183.275 255.926 183.724C255.83 184.173 255.643 184.598 255.376 184.972C255.108 185.346 254.767 185.661 254.373 185.898Z" fill="#2F2E41"/>
<path d="M220.597 74.7586C224.825 74.7586 228.253 71.3362 228.253 67.1144C228.253 62.8926 224.825 59.4701 220.597 59.4701C216.369 59.4701 212.942 62.8926 212.942 67.1144C212.942 71.3362 216.369 74.7586 220.597 74.7586Z" fill="#FFB8B8"/>
<path d="M229.954 83.2523L219.959 81.1289L218.684 72.8477L225.701 71.3613L229.954 83.2523Z" fill="#FFB8B8"/>
<path d="M227.19 105.973H209.327L213.353 95.8788C213.06 92.4056 214.535 89.8511 216.645 87.6271L219.321 80.9165C223.646 78.0741 226.907 78.2865 230.379 81.9782C234.496 87.7984 231.647 96.5476 227.19 105.973Z" fill="#0EA5E9"/>
<path d="M219.109 127.419L218.601 132.999C218.419 134.99 217.372 136.366 215.42 135.92C214.955 135.814 214.519 135.609 214.141 135.319C213.763 135.029 213.452 134.661 213.23 134.24C213.008 133.819 212.88 133.355 212.854 132.88C212.828 132.405 212.905 131.93 213.08 131.487L214.856 126.994L219.959 106.185L219.109 91.1089H227.615L226.552 107.247L219.109 127.419Z" fill="#FFB8B8"/>
<path d="M228.253 91.5335H218.471L219.156 85.1617C219.202 84.0596 219.658 83.0142 220.435 82.2307C221.212 81.4473 222.255 80.9823 223.358 80.9273C223.943 80.8981 224.528 80.985 225.078 81.1829C225.629 81.3808 226.135 81.6858 226.567 82.0802C226.999 82.4747 227.348 82.9508 227.595 83.4809C227.841 84.011 227.98 84.5847 228.003 85.1687L228.253 91.5335Z" fill="#0EA5E9"/>
<path d="M230.072 59.2544C231.662 59.2544 232.95 57.968 232.95 56.3811C232.95 54.7942 231.662 53.5078 230.072 53.5078C228.483 53.5078 227.195 54.7942 227.195 56.3811C227.195 57.968 228.483 59.2544 230.072 59.2544Z" fill="#2F2E41"/>
<path d="M227.107 55.6777C227.155 54.9487 227.478 54.2651 228.013 53.7662C228.547 53.2672 229.252 52.9905 229.983 52.9922C229.924 52.9847 229.865 52.9755 229.805 52.9716C229.043 52.9232 228.294 53.1786 227.721 53.6818C227.148 54.1849 226.799 54.8946 226.75 55.6547C226.701 56.4149 226.957 57.1634 227.46 57.7356C227.964 58.3079 228.674 58.657 229.435 58.7063C229.496 58.7102 229.555 58.7087 229.615 58.7088C228.89 58.617 228.226 58.2524 227.76 57.6892C227.294 57.1261 227.061 56.4067 227.107 55.6777Z" fill="#2F2E41"/>
<path d="M227.091 56.9046C224.525 54.7789 217.164 57.4806 216.689 58.9098C213.219 59.382 210.591 61.4038 210.591 64.9986V64.9986C212.655 65.8426 215.001 65.7386 217.538 64.9986C221.581 68.289 221.858 72.4253 219.399 77.1762L222.425 77.2367L226.175 71.764L226.354 77.3151L233.289 77.1762V69.2211C233.311 66.5761 232.701 63.9639 231.51 61.6013C230.429 59.5049 228.752 58.2808 227.091 56.9046Z" fill="#2F2E41"/>
<path d="M220.633 70.9596C221.393 70.9596 222.009 70.0984 222.009 69.036C222.009 67.9737 221.393 67.1124 220.633 67.1124C219.873 67.1124 219.257 67.9737 219.257 69.036C219.257 70.0984 219.873 70.9596 220.633 70.9596Z" fill="#FFB8B8"/>
<path d="M47.4971 71.477C47.4971 71.477 48.3254 57.1611 52.6255 60.414C56.9257 63.667 50.7476 72.8047 50.7476 72.8047L47.4971 71.477Z" fill="#FFB9B9"/>
<path d="M31.4984 113.942C31.4984 113.942 41.0505 124.649 35.7063 125.385C30.362 126.121 28.2598 115.298 28.2598 115.298L31.4984 113.942Z" fill="#FFB9B9"/>
<path d="M19.0337 63.2563C20.2325 63.5714 21.3115 64.2331 22.135 65.1584C22.9585 66.0837 23.4899 67.2313 23.6623 68.4572L26.7008 90.0518L30.9603 107.277C30.9603 107.277 33.09 109.191 32.2381 110.255C31.3862 111.318 33.303 115.784 33.303 115.784L27.9786 117.485C27.9786 117.485 27.3397 113.019 26.2748 112.807C25.339 112.62 14.8629 84.6753 12.3377 77.9057C11.9895 76.9723 11.7925 76.4414 11.7925 76.4414C11.7925 76.4414 12.2184 62.193 19.0337 63.2563Z" fill="#575A89"/>
<path d="M20.0062 175.87L23.2766 181.657C25.8092 187.056 23.5587 188.037 17.3491 185.361L15.9336 178.527L20.0062 175.87Z" fill="#FFB9B9"/>
<path d="M21.6566 183.561C21.6566 183.561 23.2091 181.037 23.7706 181.46C24.3321 181.882 26.6482 183.713 26.6482 183.713L29.665 186.598C29.665 186.598 39.8573 187.674 33.3809 191.24C26.9044 194.806 23.3253 191.849 23.3253 191.849C23.3253 191.849 14.2544 192.32 14.4007 189.793C14.547 187.266 17.4724 183.268 17.4724 183.268C17.4724 183.268 21.1595 185.737 21.6566 183.561Z" fill="#2F2E41"/>
<path d="M5.49414 110.456L8.56014 147.5C8.56014 147.5 8.66234 169.645 11.9327 173.931C15.2031 178.217 15.3053 180.36 15.3053 180.36L22.0505 176.891C22.0505 176.891 18.5757 171.109 19.2911 170.224C19.7321 169.663 20.0459 169.013 20.2109 168.318L18.3713 145.459L21.8461 105.66L5.49414 110.456Z" fill="#2F2E41"/>
<path d="M13.8742 175.87L11.0126 183.422L4.52295 180.713L7.94671 175.054L13.8742 175.87Z" fill="#FFB9B9"/>
<path d="M9.10034 180.878C9.10034 180.878 11.5343 179.359 11.8386 179.967C12.1428 180.574 13.3598 183.157 13.3598 183.157L14.7289 186.954C14.7289 186.954 23.0957 192.271 15.9459 192.574C8.7961 192.878 6.97063 188.777 6.97063 188.777C6.97063 188.777 -1.09188 185.283 0.125109 183.157C1.3421 181.03 5.60153 178.825 5.60153 178.825C5.60153 178.825 7.73125 182.549 9.10034 180.878Z" fill="#2F2E41"/>
<path d="M31.4528 110.559L33.088 144.643C33.088 144.643 18.1669 175.462 16.5317 176.278C16.0444 176.53 15.6125 176.876 15.2615 177.296C14.9104 177.717 14.6473 178.204 14.4877 178.727L5.49414 176.482L9.58214 169.951L18.5757 148.113C18.5757 148.113 20.0065 147.5 20.4153 145.459C20.8241 143.418 21.6417 143.418 19.5977 143.01C17.5537 142.602 17.5537 140.561 17.5537 140.561L10.8085 109.538L31.4528 110.559Z" fill="#2F2E41"/>
<path d="M32.1648 50.2284C32.8881 45.7778 29.8612 41.5844 25.404 40.8622C20.9469 40.14 16.7473 43.1624 16.024 47.613C15.3007 52.0636 18.3276 56.257 22.7847 56.9792C27.2419 57.7015 31.4415 54.679 32.1648 50.2284Z" fill="#FFB9B9"/>
<path d="M16.8381 49.431C16.8381 49.431 16.2249 59.84 15.4073 60.8605C14.5897 61.881 23.9921 61.6769 23.9921 61.6769C23.9921 61.6769 23.3789 52.9006 23.9921 52.0842C24.6053 51.2678 16.8381 49.431 16.8381 49.431Z" fill="#FFB9B9"/>
<path d="M32.0652 112.804C32.0652 112.804 8.96805 110.763 4.67676 112.804C4.67676 112.804 6.2565 106.952 5.84831 106.341C5.55145 105.893 6.37048 89.2245 6.11337 79.6091C5.96759 74.1834 4.71387 68.8847 8.35842 64.8565C9.59889 63.4882 10.9825 62.3395 12.443 61.7784C12.443 61.7784 12.0348 57.901 14.0784 57.6972C14.0784 57.6972 21.8472 56.8794 24.7072 59.3302C25.6217 60.1083 26.1968 62.4798 26.2578 64.523C24.8424 71.4732 25.3433 79.1856 26.6421 87.1866C26.7217 87.6947 26.8091 88.2056 26.8966 88.7164C28.2749 96.6511 30.3582 104.832 32.0652 112.804Z" fill="#575A89"/>
<path d="M19.823 51.3263C20.5145 51.2851 21.1896 51.5185 21.8763 51.6095C24.3329 51.9352 26.8885 50.1551 27.431 47.7406C27.4744 47.4191 27.5704 47.1068 27.7151 46.8163C28.0932 46.1999 28.9542 46.0824 29.664 46.2241C30.3739 46.3658 31.0467 46.6976 31.7696 46.7355C32.8858 46.7939 33.9573 46.1078 34.5521 45.1629C35.1143 44.1882 35.3533 43.0609 35.2351 41.9423L34.7 42.503C34.4826 42.0437 34.3987 41.5327 34.4577 41.0281C34.1742 40.9527 33.876 40.9513 33.5917 41.0239C33.3075 41.0965 33.0466 41.2408 32.8342 41.4429C32.3624 41.4931 32.7185 40.5691 32.368 40.2498C32.1975 40.1452 31.9943 40.1072 31.7975 40.1432C30.7938 40.1529 29.9818 39.3863 29.1909 38.7692C27.8204 37.7023 26.2178 36.9724 24.5126 36.6384C23.3793 36.4177 22.174 36.3822 21.0992 36.8036C20.2315 37.1926 19.4484 37.7472 18.794 38.4364C17.1112 40.0522 15.621 41.9506 14.921 44.1745C14.3518 45.996 14.3357 47.945 14.8746 49.7757C15.1567 50.7264 16.0069 53.9823 17.2515 54.0581C18.8154 54.1534 17.8764 51.4423 19.823 51.3263Z" fill="#2F2E41"/>
<path d="M23.2074 64.2584L26.1366 64.5717C26.1366 64.5717 29.012 70.142 28.8031 71.3039C28.5943 72.4658 28.1396 71.7604 29.4338 73.6193C30.728 75.4783 34.4003 80.2832 34.8551 80.9886C35.3098 81.6939 47.7074 72.2488 46.9366 69.4189C46.9366 69.4189 50.8521 72.2237 52.5296 72.597C52.5296 72.597 39.753 89.3288 37.9725 91.4701C36.192 93.6114 34.7591 93.1716 32.3122 91.902C29.8654 90.6324 17.4868 77.9688 17.4868 77.9688L23.2074 64.2584Z" fill="#575A89"/>
<path opacity="0.1" d="M26.8967 88.7164L16.7158 78.5504L19.2922 77.7114L26.6423 87.1866C26.7218 87.6947 26.8092 88.2056 26.8967 88.7164Z" fill="black"/>
</g>
<defs>
<clipPath id="clip0_27_956">
<rect width="256" height="193" fill="white"/>
</clipPath>
</defs>
</svg>
