<svg width="158" height="257" viewBox="0 0 158 257" fill="none" xmlns="http://www.w3.org/2000/svg">
<g clip-path="url(#clip0_32_3819)">
<path d="M77.062 135.441C89.5776 135.441 99.7234 125.268 99.7234 112.719C99.7234 100.171 89.5776 89.9979 77.062 89.9979C64.5465 89.9979 54.4006 100.171 54.4006 112.719C54.4006 125.268 64.5465 135.441 77.062 135.441Z" fill="#0EA5E9"/>
<path d="M21.9472 168.007C21.4671 167.776 21.0578 167.42 20.7621 166.976C20.4665 166.532 20.2955 166.017 20.267 165.484L19.9373 159.227C19.8967 158.44 20.169 157.669 20.6946 157.083C21.2202 156.497 21.9561 156.144 22.7408 156.102L74.7554 153.347C75.5402 153.306 76.309 153.579 76.8932 154.106C77.4775 154.633 77.8293 155.371 77.8716 156.158L78.2014 162.415C78.2419 163.202 77.9696 163.973 77.444 164.559C76.9184 165.144 76.1826 165.497 75.3979 165.54L23.3833 168.295C22.8881 168.322 22.3941 168.223 21.9472 168.007V168.007Z" fill="#0EA5E9"/>
<path d="M57.8038 168.13C57.2977 167.884 56.8714 167.5 56.5743 167.022C56.2771 166.543 56.1214 165.99 56.1251 165.427L56.0635 153.645C56.0663 153.255 56.1459 152.869 56.2976 152.509C56.4494 152.15 56.6704 151.823 56.9479 151.549C57.2255 151.276 57.5542 151.059 57.9152 150.913C58.2762 150.766 58.6625 150.692 59.052 150.696L82.7811 152.793C83.4092 152.797 84.2021 153.773 84.8396 154.556C85.0395 154.802 85.2122 155.014 85.3385 155.143C85.3938 155.199 85.4465 155.257 85.4965 155.317C85.9498 155.859 86.1954 156.545 86.189 157.252L86.1371 163.517C86.1296 164.305 85.8108 165.058 85.2505 165.61C84.6902 166.163 83.9343 166.47 83.1484 166.464L59.0828 168.422C58.6401 168.421 58.2033 168.321 57.8038 168.13Z" fill="#2F2E41"/>
<path d="M72.6446 257H66.3951C65.6093 256.999 64.8559 256.686 64.3002 256.129C63.7446 255.572 63.432 254.816 63.4312 254.028V200.954C63.432 200.166 63.7446 199.411 64.3003 198.854C64.8559 198.296 65.6093 197.983 66.3951 197.982H72.6446C73.4304 197.983 74.1838 198.296 74.7395 198.854C75.2951 199.411 75.6077 200.166 75.6086 200.954V254.028C75.6077 254.816 75.2951 255.572 74.7395 256.129C74.1838 256.686 73.4304 256.999 72.6446 257V257Z" fill="#0EA5E9"/>
<path d="M89.129 257H82.8795C82.0937 256.999 81.3403 256.686 80.7846 256.129C80.2289 255.572 79.9164 254.816 79.9155 254.028V200.954C79.9164 200.166 80.229 199.411 80.7846 198.854C81.3403 198.296 82.0937 197.983 82.8795 197.982H89.129C89.9148 197.983 90.6682 198.296 91.2238 198.854C91.7795 199.411 92.092 200.166 92.0929 200.954V254.028C92.092 254.816 91.7795 255.572 91.2238 256.129C90.6682 256.686 89.9148 256.999 89.129 257V257Z" fill="#0EA5E9"/>
<path d="M80.0787 121.141L80.1023 120.292C78.5269 120.248 77.1379 120.149 76.0942 119.384C75.7983 119.155 75.5551 118.865 75.3811 118.533C75.2071 118.201 75.1065 117.836 75.0859 117.462C75.0676 117.233 75.1021 117.003 75.1868 116.79C75.2714 116.577 75.4039 116.386 75.5741 116.233C76.2669 115.646 77.3817 115.836 78.1942 116.209L78.8949 116.532L77.5512 106.686L76.7123 106.801L77.8552 115.176C77.3873 115.002 76.8835 114.948 76.3895 115.02C75.8956 115.091 75.4274 115.285 75.0274 115.584C74.7584 115.82 74.5473 116.114 74.4106 116.445C74.274 116.776 74.2155 117.134 74.2397 117.491C74.2644 117.994 74.3985 118.486 74.6326 118.931C74.8667 119.376 75.195 119.765 75.5947 120.07C76.9357 121.052 78.6784 121.101 80.0787 121.141Z" fill="#2F2E41"/>
<path d="M72.5629 107.524H68.002V108.373H72.5629V107.524Z" fill="#2F2E41"/>
<path d="M86.9594 107.524H82.3984V108.373H86.9594V107.524Z" fill="#2F2E41"/>
<path d="M102.88 188.388L81.9633 146.567H82.2583C82.988 146.567 83.6875 146.276 84.2035 145.758C84.7195 145.241 85.0097 144.54 85.0105 143.808V142.959C85.0097 142.227 84.7195 141.526 84.2035 141.008C83.6875 140.491 82.988 140.2 82.2583 140.199H72.9429C72.2132 140.2 71.5137 140.491 70.9977 141.008C70.4817 141.526 70.1915 142.227 70.1907 142.959V143.808C70.1928 144.483 70.4421 145.134 70.8911 145.636C71.3402 146.139 71.9578 146.459 72.6267 146.535L51.6501 188.411C50.6525 190.402 50.1796 192.617 50.2765 194.843C50.3735 197.07 51.0369 199.234 52.2037 201.131C53.3705 203.028 55.002 204.594 56.9428 205.68C58.8837 206.766 61.0694 207.336 63.2921 207.336H91.2156C93.4411 207.336 95.6297 206.765 97.5732 205.678C99.5167 204.591 101.151 203.023 102.319 201.124C103.488 199.226 104.154 197.059 104.252 194.829C104.35 192.6 103.877 190.383 102.88 188.388Z" fill="#2F2E41"/>
<path d="M78.0408 156.032L125.222 133.905C125.934 133.572 126.749 133.536 127.488 133.805C128.226 134.073 128.829 134.625 129.162 135.338L131.81 141.014C132.142 141.728 132.178 142.545 131.91 143.286C131.643 144.026 131.093 144.63 130.381 144.965L83.2001 167.092C82.488 167.425 81.6731 167.461 80.9344 167.193C80.1956 166.924 79.5933 166.372 79.2597 165.659L76.6119 159.983C76.4462 159.63 76.3519 159.248 76.3347 158.858C76.3174 158.468 76.3775 158.078 76.5115 157.712C76.6161 157.421 76.7651 157.148 76.9532 156.904C77.2411 156.53 77.614 156.231 78.0408 156.032Z" fill="#0EA5E9"/>
<path d="M76.423 155.896L97.195 143.482C97.9031 143.141 98.7171 143.096 99.4584 143.356C100.2 143.616 100.808 144.16 101.15 144.869L106.388 155.421C106.557 155.774 106.655 156.157 106.677 156.548C106.698 156.94 106.642 157.331 106.511 157.7C106.381 158.069 106.179 158.409 105.917 158.7C105.656 158.991 105.339 159.227 104.986 159.394L82.7966 167.989C82.2155 168.269 81.0748 167.744 80.1582 167.323C79.8708 167.191 79.6225 167.077 79.4528 167.017C79.3782 166.991 79.3051 166.962 79.234 166.93C78.5891 166.645 78.067 166.137 77.762 165.5L75.0532 159.853C74.8149 159.356 74.7192 158.801 74.7768 158.252C74.8344 157.703 75.0431 157.18 75.3795 156.743C75.6566 156.383 76.014 156.093 76.423 155.896V155.896Z" fill="#2F2E41"/>
<path d="M59.1636 100.902C58.8605 100.9 58.57 100.779 58.3557 100.564C58.1414 100.349 58.0207 100.058 58.0199 99.7539C58.0185 99.6636 58.0287 99.5735 58.05 99.4858L63.9731 73.3269C64.018 73.1299 64.1136 72.9481 64.2505 72.7998C64.3874 72.6515 64.5608 72.5419 64.7532 72.4819C64.9457 72.4219 65.1504 72.4136 65.3471 72.4578C65.5437 72.5021 65.7253 72.5973 65.8737 72.7341L85.5105 90.9664C85.6582 91.1037 85.7673 91.2776 85.827 91.4705C85.8867 91.6634 85.8949 91.8686 85.8507 92.0657C85.8064 92.2628 85.7115 92.4447 85.5751 92.5934C85.4388 92.7422 85.2659 92.8524 85.0738 92.9131L59.5079 100.85C59.3963 100.884 59.2803 100.901 59.1636 100.902Z" fill="#3F3D56"/>
<path d="M75.225 81.7785L62.8904 79.3174L63.0845 78.4585L73.9892 80.6322L75.225 81.7785Z" fill="white"/>
<path d="M84.9374 90.7996L61.354 86.0944L61.5481 85.2312L83.7011 89.6485L84.9374 90.7996Z" fill="white"/>
<path d="M76.5006 95.2969L74.7304 95.8455L59.822 92.871L60.0161 92.0078L76.5006 95.2969Z" fill="white"/>
<path d="M134.003 101.301C136.058 101.301 137.725 99.6304 137.725 97.5692C137.725 95.508 136.058 93.837 134.003 93.837C131.947 93.837 130.28 95.508 130.28 97.5692C130.28 99.6304 131.947 101.301 134.003 101.301Z" fill="#0EA5E9"/>
<path d="M86.1446 5.33165C87.613 5.33165 88.8034 4.13812 88.8034 2.66583C88.8034 1.19353 87.613 0 86.1446 0C84.6762 0 83.4858 1.19353 83.4858 2.66583C83.4858 4.13812 84.6762 5.33165 86.1446 5.33165Z" fill="#FF6584"/>
<path d="M28.1832 87.9723C29.6516 87.9723 30.842 86.7787 30.842 85.3065C30.842 83.8342 29.6516 82.6406 28.1832 82.6406C26.7148 82.6406 25.5244 83.8342 25.5244 85.3065C25.5244 86.7787 26.7148 87.9723 28.1832 87.9723Z" fill="#FF6584"/>
<path d="M121.241 78.9084C122.709 78.9084 123.899 77.7149 123.899 76.2426C123.899 74.7703 122.709 73.5768 121.241 73.5768C119.772 73.5768 118.582 74.7703 118.582 76.2426C118.582 77.7149 119.772 78.9084 121.241 78.9084Z" fill="#0EA5E9"/>
<path d="M40.4134 115.164C41.8818 115.164 43.0722 113.97 43.0722 112.498C43.0722 111.026 41.8818 109.832 40.4134 109.832C38.945 109.832 37.7546 111.026 37.7546 112.498C37.7546 113.97 38.945 115.164 40.4134 115.164Z" fill="#0EA5E9"/>
<path d="M124.431 122.628C125.899 122.628 127.09 121.435 127.09 119.962C127.09 118.49 125.899 117.296 124.431 117.296C122.963 117.296 121.772 118.49 121.772 119.962C121.772 121.435 122.963 122.628 124.431 122.628Z" fill="#E6E6E6"/>
<path d="M101.034 27.7246C102.502 27.7246 103.693 26.5311 103.693 25.0588C103.693 23.5865 102.502 22.3929 101.034 22.3929C99.5654 22.3929 98.375 23.5865 98.375 25.0588C98.375 26.5311 99.5654 27.7246 101.034 27.7246Z" fill="#CCCCCC"/>
<path d="M0.540662 57.0362C3.32468 57.2121 6.0275 58.0469 8.42758 59.4724C10.8277 60.8978 12.8567 62.8732 14.3483 65.2367C14.7663 65.9068 15.312 66.6431 15.0226 67.4678C14.9218 67.784 14.717 68.0566 14.4416 68.241C14.1663 68.4253 13.8367 68.5106 13.5067 68.4829C13.0954 68.3941 12.7245 68.172 12.4515 67.851C12.1784 67.53 12.0183 67.1278 11.9958 66.7065C11.9733 66.2852 12.0896 65.8682 12.3269 65.5197C12.5642 65.1713 12.9092 64.9108 13.3088 64.7784C15.2397 63.9526 17.1878 65.2289 18.7606 66.2474C22.3444 68.5683 26.2863 70.6672 30.6289 70.9317C34.6468 71.1764 38.9554 69.5968 41.1902 66.1033C41.5812 65.4921 40.6104 64.9273 40.2213 65.5355C38.0049 69.0002 33.5243 70.2446 29.6285 69.7091C27.3069 69.3417 25.0651 68.5786 23.0003 67.4528C21.9295 66.8956 20.891 66.2779 19.8734 65.6287C18.9052 64.9512 17.8789 64.3613 16.8066 63.8659C15.0183 63.1293 12.6509 63.1869 11.4017 64.8827C10.2363 66.4648 11.137 69.0987 13.0861 69.5434C13.5137 69.6279 13.9555 69.6048 14.372 69.4759C14.7884 69.3471 15.1665 69.1167 15.4722 68.8053C15.778 68.494 16.002 68.1114 16.124 67.6919C16.246 67.2724 16.2623 66.8292 16.1714 66.4018C15.9769 65.4701 15.2773 64.5584 14.7357 63.7969C13.1084 61.5017 10.9884 59.6018 8.5317 58.237C6.07501 56.8723 3.34426 56.0775 0.540597 55.9112C-0.18114 55.8754 -0.179258 57.0005 0.540597 57.0362L0.540662 57.0362Z" fill="#CCCCCC"/>
<path d="M157.787 91.09C155.922 89.8859 154.368 88.2556 153.252 86.3329C152.136 84.4101 151.491 82.2496 151.368 80.0284C151.337 79.4006 151.243 78.6772 151.763 78.2169C151.955 78.0365 152.202 77.9268 152.465 77.9057C152.727 77.8847 152.989 77.9536 153.208 78.1011C153.459 78.3226 153.631 78.6209 153.696 78.95C153.762 79.2791 153.718 79.6206 153.57 79.922C153.423 80.2233 153.181 80.4677 152.882 80.6175C152.582 80.7673 152.242 80.8141 151.913 80.7507C150.253 80.5738 149.393 78.9303 148.695 77.6117C147.103 74.607 145.177 71.6172 142.263 69.7458C139.567 68.0143 135.964 67.4367 133.062 68.9944C132.554 69.2669 133.01 70.0364 133.515 69.7653C136.394 68.2205 139.987 69.0977 142.485 70.9837C143.956 72.1411 145.217 73.5424 146.216 75.1267C146.744 75.9299 147.227 76.7624 147.683 77.6088C148.093 78.4556 148.578 79.2642 149.131 80.025C150.088 81.2316 151.755 82.1118 153.278 81.4195C153.617 81.2434 153.911 80.9901 154.135 80.6799C154.359 80.3697 154.508 80.0112 154.57 79.6331C154.631 79.2549 154.603 78.8676 154.489 78.502C154.374 78.1365 154.176 77.8029 153.91 77.528C153.646 77.3031 153.33 77.1475 152.991 77.0751C152.652 77.0027 152.3 77.0158 151.967 77.1132C151.635 77.2106 151.331 77.3892 151.084 77.6332C150.837 77.8771 150.655 78.1786 150.553 78.5107C150.396 79.2916 150.392 80.0956 150.543 80.8778C150.785 83.1042 151.523 85.2477 152.702 87.1503C153.88 89.0529 155.47 90.6662 157.352 91.8714C157.84 92.1767 158.274 91.3946 157.787 91.0901L157.787 91.09Z" fill="#CCCCCC"/>
<path d="M66.0394 17.2776C63.8252 17.1377 61.6755 16.4737 59.7666 15.34C57.8577 14.2063 56.244 12.6351 55.0576 10.7553C54.7251 10.2224 54.2911 9.63682 54.5213 8.98089C54.6015 8.72938 54.7644 8.51258 54.9834 8.36593C55.2023 8.21929 55.4645 8.15146 55.7269 8.17355C56.0541 8.24417 56.349 8.42076 56.5662 8.67608C56.7834 8.93141 56.9107 9.25129 56.9286 9.58637C56.9465 9.92146 56.854 10.2532 56.6652 10.5303C56.4765 10.8074 56.2021 11.0146 55.8843 11.1199C54.3486 11.7767 52.7992 10.7616 51.5482 9.95149C48.6978 8.10559 45.5627 6.43622 42.1088 6.22585C38.9132 6.03125 35.4864 7.28754 33.7089 10.0661C33.3979 10.5522 34.17 11.0014 34.4795 10.5177C36.2423 7.76205 39.8059 6.77235 42.9044 7.19827C44.7509 7.49043 46.5339 8.09736 48.1762 8.9928C49.0278 9.43595 49.8538 9.9272 50.6631 10.4436C51.4332 10.9824 52.2495 11.4516 53.1023 11.8456C54.5247 12.4315 56.4076 12.3857 57.4011 11.0369C57.6118 10.7173 57.7451 10.3527 57.7901 9.97223C57.8352 9.59176 57.7909 9.206 57.6607 8.84577C57.5305 8.48555 57.3181 8.16086 57.0404 7.89767C56.7627 7.63447 56.4274 7.44007 56.0614 7.33001C55.7213 7.26279 55.3699 7.28123 55.0387 7.38368C54.7075 7.48614 54.4068 7.6694 54.1636 7.91704C53.9204 8.16468 53.7423 8.46895 53.6452 8.80259C53.5482 9.13623 53.5352 9.4888 53.6075 9.8287C53.8502 10.5872 54.2381 11.2909 54.7494 11.9005C56.0437 13.726 57.7298 15.2371 59.6838 16.3225C61.6377 17.408 63.8096 18.0401 66.0395 18.1723C66.6135 18.2008 66.612 17.306 66.0395 17.2776L66.0394 17.2776Z" fill="#CCCCCC"/>
<path d="M68.0648 45.6237H65.406V54.3828H68.0648V45.6237Z" fill="#CCCCCC"/>
<path d="M25.076 39.5111L26.9238 37.6584L20.8525 31.5711L19.0047 33.4237L25.076 39.5111Z" fill="#B3B3B3"/>
<path d="M99.8317 57.9187L101.679 59.7714L107.751 53.684L105.903 51.8313L99.8317 57.9187Z" fill="#B3B3B3"/>
<path d="M24.3221 133.628L26.1699 135.481L32.2412 129.393L30.3934 127.541L24.3221 133.628Z" fill="#FF6584"/>
</g>
<defs>
<clipPath id="clip0_32_3819">
<rect width="158" height="257" fill="white"/>
</clipPath>
</defs>
</svg>
