<svg width="403" height="275" viewBox="0 0 403 275" fill="none" xmlns="http://www.w3.org/2000/svg">
<g clip-path="url(#clip0_76_1244)">
<path d="M91.5335 7.14631C93.5044 7.14631 95.1022 5.54655 95.1022 3.57315C95.1022 1.59976 93.5044 0 91.5335 0C89.5626 0 87.9648 1.59976 87.9648 3.57315C87.9648 5.54655 89.5626 7.14631 91.5335 7.14631Z" fill="#E6E6E6"/>
<path d="M109.598 7.14631C111.569 7.14631 113.167 5.54655 113.167 3.57315C113.167 1.59976 111.569 0 109.598 0C107.628 0 106.03 1.59976 106.03 3.57315C106.03 5.54655 107.628 7.14631 109.598 7.14631Z" fill="#E6E6E6"/>
<path d="M127.663 7.14631C129.634 7.14631 131.232 5.54655 131.232 3.57315C131.232 1.59976 129.634 0 127.663 0C125.692 0 124.094 1.59976 124.094 3.57315C124.094 5.54655 125.692 7.14631 127.663 7.14631Z" fill="#E6E6E6"/>
<path d="M145.727 7.14631C147.698 7.14631 149.296 5.54655 149.296 3.57315C149.296 1.59976 147.698 0 145.727 0C143.756 0 142.159 1.59976 142.159 3.57315C142.159 5.54655 143.756 7.14631 145.727 7.14631Z" fill="#E6E6E6"/>
<path d="M163.792 7.14631C165.763 7.14631 167.361 5.54655 167.361 3.57315C167.361 1.59976 165.763 0 163.792 0C161.821 0 160.223 1.59976 160.223 3.57315C160.223 5.54655 161.821 7.14631 163.792 7.14631Z" fill="#E6E6E6"/>
<path d="M91.5335 25.4605C93.5044 25.4605 95.1022 23.8608 95.1022 21.8874C95.1022 19.914 93.5044 18.3142 91.5335 18.3142C89.5626 18.3142 87.9648 19.914 87.9648 21.8874C87.9648 23.8608 89.5626 25.4605 91.5335 25.4605Z" fill="#E6E6E6"/>
<path d="M109.598 25.4605C111.569 25.4605 113.167 23.8608 113.167 21.8874C113.167 19.914 111.569 18.3142 109.598 18.3142C107.628 18.3142 106.03 19.914 106.03 21.8874C106.03 23.8608 107.628 25.4605 109.598 25.4605Z" fill="#E6E6E6"/>
<path d="M127.663 25.4605C129.634 25.4605 131.232 23.8608 131.232 21.8874C131.232 19.914 129.634 18.3142 127.663 18.3142C125.692 18.3142 124.094 19.914 124.094 21.8874C124.094 23.8608 125.692 25.4605 127.663 25.4605Z" fill="#E6E6E6"/>
<path d="M145.727 25.4605C147.698 25.4605 149.296 23.8608 149.296 21.8874C149.296 19.914 147.698 18.3142 145.727 18.3142C143.756 18.3142 142.159 19.914 142.159 21.8874C142.159 23.8608 143.756 25.4605 145.727 25.4605Z" fill="#0EA5E9"/>
<path d="M163.792 25.4605C165.763 25.4605 167.361 23.8608 167.361 21.8874C167.361 19.914 165.763 18.3142 163.792 18.3142C161.821 18.3142 160.223 19.914 160.223 21.8874C160.223 23.8608 161.821 25.4605 163.792 25.4605Z" fill="#E6E6E6"/>
<path d="M199.921 25.4605C201.892 25.4605 203.49 23.8608 203.49 21.8874C203.49 19.914 201.892 18.3142 199.921 18.3142C197.95 18.3142 196.353 19.914 196.353 21.8874C196.353 23.8608 197.95 25.4605 199.921 25.4605Z" fill="#E6E6E6"/>
<path d="M91.5335 43.7748C93.5044 43.7748 95.1022 42.1751 95.1022 40.2017C95.1022 38.2283 93.5044 36.6285 91.5335 36.6285C89.5626 36.6285 87.9648 38.2283 87.9648 40.2017C87.9648 42.1751 89.5626 43.7748 91.5335 43.7748Z" fill="#E6E6E6"/>
<path d="M109.598 43.7748C111.569 43.7748 113.167 42.1751 113.167 40.2017C113.167 38.2283 111.569 36.6285 109.598 36.6285C107.628 36.6285 106.03 38.2283 106.03 40.2017C106.03 42.1751 107.628 43.7748 109.598 43.7748Z" fill="#E6E6E6"/>
<path d="M127.663 43.7748C129.634 43.7748 131.232 42.1751 131.232 40.2017C131.232 38.2283 129.634 36.6285 127.663 36.6285C125.692 36.6285 124.094 38.2283 124.094 40.2017C124.094 42.1751 125.692 43.7748 127.663 43.7748Z" fill="#E6E6E6"/>
<path d="M145.727 43.7748C147.698 43.7748 149.296 42.1751 149.296 40.2017C149.296 38.2283 147.698 36.6285 145.727 36.6285C143.756 36.6285 142.159 38.2283 142.159 40.2017C142.159 42.1751 143.756 43.7748 145.727 43.7748Z" fill="#E6E6E6"/>
<path d="M163.792 43.7748C165.763 43.7748 167.361 42.1751 167.361 40.2017C167.361 38.2283 165.763 36.6285 163.792 36.6285C161.821 36.6285 160.223 38.2283 160.223 40.2017C160.223 42.1751 161.821 43.7748 163.792 43.7748Z" fill="#E6E6E6"/>
<path d="M91.5335 62.0891C93.5044 62.0891 95.1022 60.4893 95.1022 58.5159C95.1022 56.5425 93.5044 54.9427 91.5335 54.9427C89.5626 54.9427 87.9648 56.5425 87.9648 58.5159C87.9648 60.4893 89.5626 62.0891 91.5335 62.0891Z" fill="#E6E6E6"/>
<path d="M109.598 62.0891C111.569 62.0891 113.167 60.4893 113.167 58.5159C113.167 56.5425 111.569 54.9427 109.598 54.9427C107.628 54.9427 106.03 56.5425 106.03 58.5159C106.03 60.4893 107.628 62.0891 109.598 62.0891Z" fill="#E6E6E6"/>
<path d="M127.663 62.0891C129.634 62.0891 131.232 60.4893 131.232 58.5159C131.232 56.5425 129.634 54.9427 127.663 54.9427C125.692 54.9427 124.094 56.5425 124.094 58.5159C124.094 60.4893 125.692 62.0891 127.663 62.0891Z" fill="#E6E6E6"/>
<path d="M145.727 62.0891C147.698 62.0891 149.296 60.4893 149.296 58.5159C149.296 56.5425 147.698 54.9427 145.727 54.9427C143.756 54.9427 142.159 56.5425 142.159 58.5159C142.159 60.4893 143.756 62.0891 145.727 62.0891Z" fill="#E6E6E6"/>
<path d="M163.792 62.0891C165.763 62.0891 167.361 60.4893 167.361 58.5159C167.361 56.5425 165.763 54.9427 163.792 54.9427C161.821 54.9427 160.223 56.5425 160.223 58.5159C160.223 60.4893 161.821 62.0891 163.792 62.0891Z" fill="#E6E6E6"/>
<path d="M181.857 62.0891C183.828 62.0891 185.425 60.4893 185.425 58.5159C185.425 56.5425 183.828 54.9427 181.857 54.9427C179.886 54.9427 178.288 56.5425 178.288 58.5159C178.288 60.4893 179.886 62.0891 181.857 62.0891Z" fill="#E6E6E6"/>
<path d="M199.921 62.0891C201.892 62.0891 203.49 60.4893 203.49 58.5159C203.49 56.5425 201.892 54.9427 199.921 54.9427C197.95 54.9427 196.353 56.5425 196.353 58.5159C196.353 60.4893 197.95 62.0891 199.921 62.0891Z" fill="#E6E6E6"/>
<path d="M217.986 62.0891C219.957 62.0891 221.554 60.4893 221.554 58.5159C221.554 56.5425 219.957 54.9427 217.986 54.9427C216.015 54.9427 214.417 56.5425 214.417 58.5159C214.417 60.4893 216.015 62.0891 217.986 62.0891Z" fill="#E6E6E6"/>
<path d="M236.05 62.0891C238.021 62.0891 239.619 60.4893 239.619 58.5159C239.619 56.5425 238.021 54.9427 236.05 54.9427C234.079 54.9427 232.481 56.5425 232.481 58.5159C232.481 60.4893 234.079 62.0891 236.05 62.0891Z" fill="#E6E6E6"/>
<path d="M254.115 62.0891C256.086 62.0891 257.683 60.4893 257.683 58.5159C257.683 56.5425 256.086 54.9427 254.115 54.9427C252.144 54.9427 250.546 56.5425 250.546 58.5159C250.546 60.4893 252.144 62.0891 254.115 62.0891Z" fill="#E6E6E6"/>
<path d="M163.792 80.4034C165.763 80.4034 167.361 78.8036 167.361 76.8302C167.361 74.8568 165.763 73.2571 163.792 73.2571C161.821 73.2571 160.223 74.8568 160.223 76.8302C160.223 78.8036 161.821 80.4034 163.792 80.4034Z" fill="#E6E6E6"/>
<path d="M181.857 80.4034C183.828 80.4034 185.425 78.8036 185.425 76.8302C185.425 74.8568 183.828 73.2571 181.857 73.2571C179.886 73.2571 178.288 74.8568 178.288 76.8302C178.288 78.8036 179.886 80.4034 181.857 80.4034Z" fill="#0EA5E9"/>
<path d="M199.921 80.4034C201.892 80.4034 203.49 78.8036 203.49 76.8302C203.49 74.8568 201.892 73.2571 199.921 73.2571C197.95 73.2571 196.353 74.8568 196.353 76.8302C196.353 78.8036 197.95 80.4034 199.921 80.4034Z" fill="#E6E6E6"/>
<path d="M217.986 80.4034C219.957 80.4034 221.554 78.8036 221.554 76.8302C221.554 74.8568 219.957 73.2571 217.986 73.2571C216.015 73.2571 214.417 74.8568 214.417 76.8302C214.417 78.8036 216.015 80.4034 217.986 80.4034Z" fill="#E6E6E6"/>
<path d="M236.05 80.4034C238.021 80.4034 239.619 78.8036 239.619 76.8302C239.619 74.8568 238.021 73.2571 236.05 73.2571C234.079 73.2571 232.481 74.8568 232.481 76.8302C232.481 78.8036 234.079 80.4034 236.05 80.4034Z" fill="#E6E6E6"/>
<path d="M254.115 80.4034C256.086 80.4034 257.683 78.8036 257.683 76.8302C257.683 74.8568 256.086 73.2571 254.115 73.2571C252.144 73.2571 250.546 74.8568 250.546 76.8302C250.546 78.8036 252.144 80.4034 254.115 80.4034Z" fill="#E6E6E6"/>
<path d="M163.792 98.7176C165.763 98.7176 167.361 97.1178 167.361 95.1444C167.361 93.171 165.763 91.5713 163.792 91.5713C161.821 91.5713 160.223 93.171 160.223 95.1444C160.223 97.1178 161.821 98.7176 163.792 98.7176Z" fill="#E6E6E6"/>
<path d="M181.857 98.7176C183.828 98.7176 185.425 97.1178 185.425 95.1444C185.425 93.171 183.828 91.5713 181.857 91.5713C179.886 91.5713 178.288 93.171 178.288 95.1444C178.288 97.1178 179.886 98.7176 181.857 98.7176Z" fill="#E6E6E6"/>
<path d="M199.921 98.7176C201.892 98.7176 203.49 97.1178 203.49 95.1444C203.49 93.171 201.892 91.5713 199.921 91.5713C197.95 91.5713 196.353 93.171 196.353 95.1444C196.353 97.1178 197.95 98.7176 199.921 98.7176Z" fill="#E6E6E6"/>
<path d="M217.986 98.7176C219.957 98.7176 221.554 97.1178 221.554 95.1444C221.554 93.171 219.957 91.5713 217.986 91.5713C216.015 91.5713 214.417 93.171 214.417 95.1444C214.417 97.1178 216.015 98.7176 217.986 98.7176Z" fill="#E6E6E6"/>
<path d="M236.05 98.7176C238.021 98.7176 239.619 97.1178 239.619 95.1444C239.619 93.171 238.021 91.5713 236.05 91.5713C234.079 91.5713 232.481 93.171 232.481 95.1444C232.481 97.1178 234.079 98.7176 236.05 98.7176Z" fill="#0EA5E9"/>
<path d="M254.115 98.7176C256.086 98.7176 257.683 97.1178 257.683 95.1444C257.683 93.171 256.086 91.5713 254.115 91.5713C252.144 91.5713 250.546 93.171 250.546 95.1444C250.546 97.1178 252.144 98.7176 254.115 98.7176Z" fill="#E6E6E6"/>
<path d="M163.792 117.032C165.763 117.032 167.361 115.432 167.361 113.459C167.361 111.485 165.763 109.885 163.792 109.885C161.821 109.885 160.223 111.485 160.223 113.459C160.223 115.432 161.821 117.032 163.792 117.032Z" fill="#E6E6E6"/>
<path d="M181.857 117.032C183.828 117.032 185.425 115.432 185.425 113.459C185.425 111.485 183.828 109.885 181.857 109.885C179.886 109.885 178.288 111.485 178.288 113.459C178.288 115.432 179.886 117.032 181.857 117.032Z" fill="#E6E6E6"/>
<path d="M199.921 117.032C201.892 117.032 203.49 115.432 203.49 113.459C203.49 111.485 201.892 109.885 199.921 109.885C197.95 109.885 196.353 111.485 196.353 113.459C196.353 115.432 197.95 117.032 199.921 117.032Z" fill="#E6E6E6"/>
<path d="M217.986 117.032C219.957 117.032 221.554 115.432 221.554 113.459C221.554 111.485 219.957 109.885 217.986 109.885C216.015 109.885 214.417 111.485 214.417 113.459C214.417 115.432 216.015 117.032 217.986 117.032Z" fill="#E6E6E6"/>
<path d="M236.05 117.032C238.021 117.032 239.619 115.432 239.619 113.459C239.619 111.485 238.021 109.885 236.05 109.885C234.079 109.885 232.481 111.485 232.481 113.459C232.481 115.432 234.079 117.032 236.05 117.032Z" fill="#E6E6E6"/>
<path d="M254.115 117.032C256.086 117.032 257.683 115.432 257.683 113.459C257.683 111.485 256.086 109.885 254.115 109.885C252.144 109.885 250.546 111.485 250.546 113.459C250.546 115.432 252.144 117.032 254.115 117.032Z" fill="#E6E6E6"/>
<path d="M91.5335 135.346C93.5044 135.346 95.1022 133.746 95.1022 131.773C95.1022 129.8 93.5044 128.2 91.5335 128.2C89.5626 128.2 87.9648 129.8 87.9648 131.773C87.9648 133.746 89.5626 135.346 91.5335 135.346Z" fill="#E6E6E6"/>
<path d="M109.598 135.346C111.569 135.346 113.167 133.746 113.167 131.773C113.167 129.8 111.569 128.2 109.598 128.2C107.628 128.2 106.03 129.8 106.03 131.773C106.03 133.746 107.628 135.346 109.598 135.346Z" fill="#E6E6E6"/>
<path d="M127.663 135.346C129.634 135.346 131.232 133.746 131.232 131.773C131.232 129.8 129.634 128.2 127.663 128.2C125.692 128.2 124.094 129.8 124.094 131.773C124.094 133.746 125.692 135.346 127.663 135.346Z" fill="#E6E6E6"/>
<path d="M145.727 135.346C147.698 135.346 149.296 133.746 149.296 131.773C149.296 129.8 147.698 128.2 145.727 128.2C143.756 128.2 142.159 129.8 142.159 131.773C142.159 133.746 143.756 135.346 145.727 135.346Z" fill="#E6E6E6"/>
<path d="M163.792 135.346C165.763 135.346 167.361 133.746 167.361 131.773C167.361 129.8 165.763 128.2 163.792 128.2C161.821 128.2 160.223 129.8 160.223 131.773C160.223 133.746 161.821 135.346 163.792 135.346Z" fill="#E6E6E6"/>
<path d="M181.857 135.346C183.828 135.346 185.425 133.746 185.425 131.773C185.425 129.8 183.828 128.2 181.857 128.2C179.886 128.2 178.288 129.8 178.288 131.773C178.288 133.746 179.886 135.346 181.857 135.346Z" fill="#E6E6E6"/>
<path d="M199.921 135.346C201.892 135.346 203.49 133.746 203.49 131.773C203.49 129.8 201.892 128.2 199.921 128.2C197.95 128.2 196.353 129.8 196.353 131.773C196.353 133.746 197.95 135.346 199.921 135.346Z" fill="#E6E6E6"/>
<path d="M217.986 135.346C219.957 135.346 221.554 133.746 221.554 131.773C221.554 129.8 219.957 128.2 217.986 128.2C216.015 128.2 214.417 129.8 214.417 131.773C214.417 133.746 216.015 135.346 217.986 135.346Z" fill="#E6E6E6"/>
<path d="M236.05 135.346C238.021 135.346 239.619 133.746 239.619 131.773C239.619 129.8 238.021 128.2 236.05 128.2C234.079 128.2 232.481 129.8 232.481 131.773C232.481 133.746 234.079 135.346 236.05 135.346Z" fill="#E6E6E6"/>
<path d="M254.115 135.346C256.086 135.346 257.683 133.746 257.683 131.773C257.683 129.8 256.086 128.2 254.115 128.2C252.144 128.2 250.546 129.8 250.546 131.773C250.546 133.746 252.144 135.346 254.115 135.346Z" fill="#E6E6E6"/>
<path d="M91.5316 153.66C93.5025 153.66 95.1002 152.06 95.1002 150.087C95.1002 148.113 93.5025 146.514 91.5316 146.514C89.5606 146.514 87.9629 148.113 87.9629 150.087C87.9629 152.06 89.5606 153.66 91.5316 153.66Z" fill="#E6E6E6"/>
<path d="M109.598 153.66C111.569 153.66 113.167 152.061 113.167 150.087C113.167 148.114 111.569 146.514 109.598 146.514C107.628 146.514 106.03 148.114 106.03 150.087C106.03 152.061 107.628 153.66 109.598 153.66Z" fill="#E6E6E6"/>
<path d="M91.5316 171.974C93.5025 171.974 95.1002 170.374 95.1002 168.401C95.1002 166.427 93.5025 164.828 91.5316 164.828C89.5606 164.828 87.9629 166.427 87.9629 168.401C87.9629 170.374 89.5606 171.974 91.5316 171.974Z" fill="#E6E6E6"/>
<path d="M109.598 171.975C111.569 171.975 113.167 170.375 113.167 168.402C113.167 166.428 111.569 164.828 109.598 164.828C107.628 164.828 106.03 166.428 106.03 168.402C106.03 170.375 107.628 171.975 109.598 171.975Z" fill="#E6E6E6"/>
<path d="M145.727 171.975C147.698 171.975 149.296 170.375 149.296 168.402C149.296 166.428 147.698 164.828 145.727 164.828C143.756 164.828 142.159 166.428 142.159 168.402C142.159 170.375 143.756 171.975 145.727 171.975Z" fill="#E6E6E6"/>
<path d="M325.789 42.1561H184.369C183.675 42.1553 183.009 41.8787 182.518 41.3872C182.027 40.8956 181.751 40.2291 181.75 39.5339V4.40965C181.751 3.71445 182.027 3.04797 182.518 2.55639C183.009 2.06482 183.675 1.78829 184.369 1.78748H325.789C326.484 1.78829 327.149 2.06482 327.64 2.55639C328.131 3.04797 328.408 3.71445 328.408 4.40965V39.5339C328.408 40.2291 328.131 40.8956 327.64 41.3872C327.149 41.8787 326.484 42.1553 325.789 42.1561ZM184.369 2.83634C183.953 2.8368 183.553 3.0027 183.259 3.29766C182.964 3.59261 182.798 3.99252 182.798 4.40965V39.5339C182.798 39.951 182.964 40.351 183.259 40.6459C183.553 40.9409 183.953 41.1068 184.369 41.1072H325.789C326.206 41.1068 326.605 40.9409 326.9 40.6459C327.195 40.351 327.36 39.951 327.361 39.5339V4.40965C327.36 3.99252 327.195 3.59261 326.9 3.29766C326.605 3.0027 326.206 2.8368 325.789 2.83634H184.369Z" fill="#E6E6E6"/>
<path d="M202.701 32.9847C208.776 32.9847 213.701 28.054 213.701 21.9716C213.701 15.8892 208.776 10.9585 202.701 10.9585C196.627 10.9585 191.702 15.8892 191.702 21.9716C191.702 28.054 196.627 32.9847 202.701 32.9847Z" fill="#0EA5E9"/>
<path d="M228.105 14.6295C227.619 14.6295 227.152 14.8229 226.808 15.1671C226.465 15.5113 226.271 15.9782 226.271 16.465C226.271 16.9518 226.465 17.4187 226.808 17.7629C227.152 18.1072 227.619 18.3006 228.105 18.3006H276.816C277.302 18.3006 277.768 18.1072 278.112 17.7629C278.456 17.4187 278.649 16.9518 278.649 16.465C278.649 15.9782 278.456 15.5113 278.112 15.1671C277.768 14.8229 277.302 14.6295 276.816 14.6295H228.105Z" fill="#E6E6E6"/>
<path d="M228.105 25.6427C227.619 25.6427 227.152 25.8361 226.808 26.1803C226.465 26.5245 226.271 26.9914 226.271 27.4782C226.271 27.965 226.465 28.4319 226.808 28.7761C227.152 29.1204 227.619 29.3137 228.105 29.3137H314.528C315.014 29.3137 315.48 29.1204 315.824 28.7761C316.168 28.4319 316.361 27.965 316.361 27.4782C316.361 26.9914 316.168 26.5245 315.824 26.1803C315.48 25.8361 315.014 25.6427 314.528 25.6427H228.105Z" fill="#E6E6E6"/>
<path d="M144.039 113.479H2.61888C1.92456 113.478 1.25891 113.202 0.767955 112.71C0.276995 112.219 0.000813702 111.552 0 110.857V75.7326C0.000813702 75.0375 0.276995 74.371 0.767955 73.8794C1.25891 73.3878 1.92456 73.1113 2.61888 73.1105H144.039C144.733 73.1113 145.399 73.3878 145.89 73.8794C146.381 74.371 146.657 75.0375 146.658 75.7326V110.857C146.657 111.552 146.381 112.219 145.89 112.71C145.399 113.202 144.733 113.478 144.039 113.479ZM2.61888 74.1593C2.20228 74.1598 1.80287 74.3257 1.50829 74.6207C1.21371 74.9156 1.04801 75.3155 1.04755 75.7326V110.857C1.04801 111.274 1.21371 111.674 1.50829 111.969C1.80287 112.264 2.20228 112.43 2.61888 112.43H144.039C144.456 112.43 144.855 112.264 145.15 111.969C145.444 111.674 145.61 111.274 145.61 110.857V75.7326C145.61 75.3155 145.444 74.9156 145.15 74.6207C144.855 74.3257 144.456 74.1598 144.039 74.1593H2.61888Z" fill="#E6E6E6"/>
<path d="M20.951 104.308C27.0257 104.308 31.9503 99.377 31.9503 93.2946C31.9503 87.2122 27.0257 82.2815 20.951 82.2815C14.8762 82.2815 9.95166 87.2122 9.95166 93.2946C9.95166 99.377 14.8762 104.308 20.951 104.308Z" fill="#0EA5E9"/>
<path d="M46.3542 85.9526C45.868 85.9526 45.4017 86.146 45.0579 86.4903C44.7141 86.8345 44.521 87.3013 44.521 87.7882C44.521 88.275 44.7141 88.7418 45.0579 89.0861C45.4017 89.4303 45.868 89.6237 46.3542 89.6237H97.1606C97.6468 89.6237 98.1131 89.4303 98.4569 89.0861C98.8007 88.7418 98.9938 88.275 98.9938 87.7882C98.9938 87.3013 98.8007 86.8345 98.4569 86.4903C98.1131 86.146 97.6468 85.9526 97.1606 85.9526H46.3542Z" fill="#E6E6E6"/>
<path d="M46.3542 96.9657C45.868 96.9657 45.4017 97.1591 45.0579 97.5033C44.7141 97.8475 44.521 98.3144 44.521 98.8012C44.521 99.288 44.7141 99.7549 45.0579 100.099C45.4017 100.443 45.868 100.637 46.3542 100.637H132.777C133.264 100.637 133.73 100.443 134.074 100.099C134.417 99.7549 134.611 99.288 134.611 98.8012C134.611 98.3144 134.417 97.8475 134.074 97.5033C133.73 97.1591 133.264 96.9657 132.777 96.9657H46.3542Z" fill="#E6E6E6"/>
<path d="M271.841 190.571H130.421C129.726 190.57 129.061 190.294 128.57 189.802C128.079 189.31 127.803 188.644 127.802 187.949V152.824C127.803 152.129 128.079 151.463 128.57 150.971C129.061 150.48 129.726 150.203 130.421 150.202H271.841C272.535 150.203 273.201 150.48 273.692 150.971C274.183 151.463 274.459 152.129 274.46 152.824V187.949C274.459 188.644 274.183 189.31 273.692 189.802C273.201 190.294 272.535 190.57 271.841 190.571ZM130.421 151.251C130.004 151.252 129.605 151.417 129.31 151.712C129.015 152.007 128.85 152.407 128.849 152.824V187.949C128.85 188.366 129.015 188.766 129.31 189.061C129.605 189.356 130.004 189.522 130.421 189.522H271.841C272.257 189.522 272.657 189.356 272.951 189.061C273.246 188.766 273.412 188.366 273.412 187.949V152.824C273.412 152.407 273.246 152.007 272.951 151.712C272.657 151.417 272.257 151.252 271.841 151.251H130.421Z" fill="#3F3D56"/>
<path d="M148.753 181.4C154.827 181.4 159.752 176.469 159.752 170.386C159.752 164.304 154.827 159.373 148.753 159.373C142.678 159.373 137.753 164.304 137.753 170.386C137.753 176.469 142.678 181.4 148.753 181.4Z" fill="#0EA5E9"/>
<path d="M174.156 163.044C173.67 163.044 173.203 163.238 172.86 163.582C172.516 163.926 172.323 164.393 172.323 164.88C172.323 165.367 172.516 165.834 172.86 166.178C173.203 166.522 173.67 166.715 174.156 166.715H220.772C221.258 166.715 221.725 166.522 222.068 166.178C222.412 165.834 222.605 165.367 222.605 164.88C222.605 164.393 222.412 163.926 222.068 163.582C221.725 163.238 221.258 163.044 220.772 163.044H174.156Z" fill="#E6E6E6"/>
<path d="M174.156 174.057C173.67 174.057 173.203 174.251 172.86 174.595C172.516 174.939 172.323 175.406 172.323 175.893C172.323 176.38 172.516 176.847 172.86 177.191C173.203 177.535 173.67 177.729 174.156 177.729H260.579C261.065 177.729 261.532 177.535 261.875 177.191C262.219 176.847 262.412 176.38 262.412 175.893C262.412 175.406 262.219 174.939 261.875 174.595C261.532 174.251 261.065 174.057 260.579 174.057H174.156Z" fill="#E6E6E6"/>
<path d="M347.919 181.663C341.777 200.111 316.652 180.545 316.652 180.545L323.352 110.665C333.402 102.839 344.01 109.547 344.01 109.547L347.919 181.663Z" fill="#E6E6E6"/>
<path d="M346.6 243.578L355.161 243.668L353.022 268.377L346.601 268.377L346.6 243.578Z" fill="#FFB8B8"/>
<path d="M344.962 266.277H357.608C359.745 266.28 361.794 267.131 363.304 268.643C364.815 270.156 365.665 272.207 365.668 274.347V274.609H344.962V266.277Z" fill="#2F2E41"/>
<path d="M323.391 243.578L313.914 243.577L316.968 268.377L323.39 268.377L323.391 243.578Z" fill="#FFB8B8"/>
<path d="M304.322 274.609V274.346C304.322 272.206 305.171 270.154 306.683 268.641C308.194 267.127 310.244 266.277 312.382 266.277L325.028 266.278L325.027 274.61L304.322 274.609Z" fill="#2F2E41"/>
<path d="M346.021 264.096L334.806 198.635L324.414 263.253L313.886 263.838L311.079 177.262L311.29 177.214C313.031 176.824 353.997 167.815 360.713 180.703L360.747 180.768L355.142 264.391L346.021 264.096Z" fill="#2F2E41"/>
<path d="M334.135 102.476C341.24 102.476 347 96.7094 347 89.5956C347 82.4818 341.24 76.715 334.135 76.715C327.03 76.715 321.271 82.4818 321.271 89.5956C321.271 96.7094 327.03 102.476 334.135 102.476Z" fill="#FFB8B8"/>
<path d="M344.942 187.183C343.435 186.765 342.348 185.031 341.523 181.726C341.38 181.157 328.024 124.19 339.319 113.869L341.923 106.628L345.486 109.006C346.747 109.018 359.639 109.345 360.741 117.619C361.819 125.718 364.756 179.981 361.804 183.356C361.746 183.43 361.673 183.491 361.589 183.534C361.505 183.576 361.413 183.6 361.318 183.602C358.327 183.602 357.419 180.279 357.206 179.22C356.495 179.515 354.377 180.599 350.895 184.084C348.739 186.244 347.048 187.278 345.651 187.278C345.412 187.279 345.173 187.247 344.942 187.183Z" fill="#2F2E41"/>
<path d="M317.025 184.084C313.543 180.598 311.424 179.514 310.714 179.22C310.501 180.279 309.593 183.602 306.602 183.602C306.508 183.6 306.415 183.576 306.331 183.534C306.247 183.491 306.174 183.43 306.116 183.356C303.165 179.981 306.101 125.718 307.18 117.619C308.281 109.345 321.174 109.018 322.434 109.006L325.997 106.628L328.601 113.869C339.895 124.189 326.54 181.157 326.398 181.727C325.572 185.031 324.486 186.765 322.978 187.183C322.747 187.247 322.509 187.279 322.269 187.278C320.872 187.278 319.181 186.243 317.025 184.084Z" fill="#2F2E41"/>
<path d="M344.756 96.9532C346.932 95.3858 348.58 93.1921 349.481 90.664C350.382 88.1359 350.492 85.3931 349.798 82.8004C349.104 80.2078 347.638 77.8881 345.595 76.1501C343.552 74.412 341.029 73.3379 338.362 73.0705C337.178 72.9518 335.902 72.9695 334.92 72.2961C334.048 71.6978 333.578 70.6602 332.777 69.9699C332.267 69.5755 331.682 69.2906 331.058 69.133C330.434 68.9755 329.784 68.9486 329.149 69.0542C327.881 69.2731 326.652 69.6773 325.502 70.2539C322.649 71.5273 319.617 73.0945 318.319 75.9387C317.195 78.4024 317.691 81.4404 319.283 83.6307C320.956 85.7984 323.396 87.241 326.1 87.6614C328.788 88.0634 331.533 87.8159 334.106 86.9395C335.804 86.4046 337.48 85.6757 339.259 85.6161C340.648 85.5697 342.018 85.9378 343.197 86.6736C344.376 87.4094 345.31 88.4798 345.88 89.7484C346.449 91.0171 346.629 92.4267 346.397 93.798C346.164 95.1694 345.529 96.4404 344.573 97.4495" fill="#2F2E41"/>
<path d="M274.638 173.578C275.381 173.561 276.113 173.397 276.792 173.097C277.472 172.796 278.086 172.364 278.599 171.826C279.112 171.288 279.514 170.654 279.782 169.961C280.051 169.267 280.18 168.527 280.163 167.784L287.665 155.11L281.868 149.789L273.966 162.276C272.508 162.417 271.161 163.118 270.208 164.232C269.256 165.347 268.773 166.788 268.86 168.252C268.947 169.716 269.598 171.089 270.675 172.082C271.753 173.076 273.174 173.612 274.638 173.578V173.578Z" fill="#FFB8B8"/>
<path d="M361.675 187.462C362.298 187.056 362.834 186.531 363.254 185.917C363.673 185.303 363.968 184.613 364.121 183.885C364.275 183.157 364.283 182.406 364.146 181.675C364.01 180.944 363.731 180.247 363.325 179.624L363.038 164.894L355.312 163.427L355.16 178.209C353.994 179.097 353.218 180.403 352.995 181.852C352.771 183.302 353.118 184.782 353.962 185.981C354.806 187.179 356.081 188.004 357.52 188.28C358.958 188.556 360.448 188.263 361.675 187.462V187.462Z" fill="#FFB8B8"/>
<path d="M276.92 153.2L276.833 153.06L276.92 152.921C288.172 134.829 311.792 112.228 312.03 112.002L312.104 111.931L315.022 111.901L318.175 119.768C317.193 121.659 290.732 158.633 287.237 161.086C286.959 161.278 286.644 161.411 286.311 161.473C285.979 161.536 285.637 161.528 285.307 161.45C284.725 161.315 284.171 161.079 283.671 160.752C280.446 158.752 277.086 153.461 276.92 153.2Z" fill="#2F2E41"/>
<path d="M353.841 173.845C353.528 173.738 353.24 173.567 352.996 173.342C352.752 173.118 352.557 172.846 352.424 172.542C350.739 168.606 357.96 118.891 358.268 116.777L358.326 116.377L360.767 117.926L360.791 118.031C360.863 118.349 367.973 150.02 366.046 171.065L366.032 171.216L365.895 171.279C365.602 171.415 359.679 174.139 355.732 174.139C355.089 174.155 354.449 174.056 353.841 173.845V173.845Z" fill="#2F2E41"/>
<path d="M402.476 275H263.152C263.013 275 262.88 274.945 262.781 274.846C262.683 274.748 262.628 274.615 262.628 274.476C262.628 274.337 262.683 274.203 262.781 274.105C262.88 274.006 263.013 273.951 263.152 273.951H402.476C402.615 273.951 402.749 274.006 402.847 274.105C402.945 274.203 403 274.337 403 274.476C403 274.615 402.945 274.748 402.847 274.846C402.749 274.945 402.615 275 402.476 275Z" fill="#3F3D56"/>
<ellipse cx="220" cy="177.5" rx="144" ry="126.5" fill="url(#paint0_radial_76_1244)" fill-opacity="0.3"/>
</g>
<defs>
<radialGradient id="paint0_radial_76_1244" cx="0" cy="0" r="1" gradientUnits="userSpaceOnUse" gradientTransform="translate(220 177.5) rotate(90) scale(126.5 144)">
<stop stop-color="#0EA5E9"/>
<stop offset="1" stop-color="#0EA5E9" stop-opacity="0"/>
</radialGradient>
<clipPath id="clip0_76_1244">
<rect width="403" height="275" fill="white"/>
</clipPath>
</defs>
</svg>
