<svg width="226" height="146" viewBox="0 0 226 146" fill="none" xmlns="http://www.w3.org/2000/svg">
<g clip-path="url(#clip0_32_3949)">
<path d="M17.424 117.484L15.8283 111.169C12.999 109.966 10.1043 108.924 7.15803 108.048L6.95655 110.983L6.1396 107.75C2.48573 106.703 0 106.242 0 106.242C0 106.242 3.35764 119.053 10.4001 128.848L18.606 130.294L12.231 131.217C13.1173 132.286 14.0697 133.299 15.0827 134.249C25.3274 143.791 36.7381 148.169 40.5692 144.027C44.4003 139.886 39.201 128.793 28.9562 119.251C25.7803 116.293 21.7906 113.92 17.7969 112.051L17.424 117.484Z" fill="#E6E6E6"/>
<path d="M32.5997 110.626L34.4869 104.393C32.6846 101.895 30.7435 99.502 28.6726 97.224L26.9883 99.6318L27.9545 96.4403C25.366 93.6489 23.4756 91.9648 23.4756 91.9648C23.4756 91.9648 19.7501 104.674 20.733 116.711L27.0126 122.205L21.0802 119.689C21.2878 121.064 21.5814 122.425 21.9593 123.763C25.8139 137.245 33.3267 146.911 38.7398 145.353C44.1528 143.795 45.4162 131.602 41.5616 118.12C40.3666 113.941 38.1741 109.84 35.7178 106.169L32.5997 110.626Z" fill="#E6E6E6"/>
<path d="M208.344 124.058L211.921 121.802C212.097 119.803 212.16 117.795 212.11 115.789L210.259 116.252L212.091 115.097C212.005 112.617 211.791 110.98 211.791 110.98C211.791 110.98 204.558 115.633 199.924 121.97L200.676 127.358L198.829 123.582C198.347 124.347 197.913 125.142 197.529 125.961C193.693 134.238 193.278 142.205 196.601 143.755C199.924 145.306 205.727 139.854 209.563 131.577C210.753 129.011 211.418 126.057 211.771 123.201L208.344 124.058Z" fill="#E6E6E6"/>
<path d="M215.616 132.113L219.84 132.037C221.021 130.417 222.109 128.732 223.1 126.989L221.276 126.425L223.44 126.386C224.644 124.218 225.304 122.706 225.304 122.706C225.304 122.706 216.715 122.937 209.484 125.959L207.351 130.961L207.716 126.771C206.909 127.176 206.128 127.631 205.378 128.134C197.83 133.229 193.37 139.833 195.416 142.884C197.462 145.936 205.239 144.278 212.786 139.183C215.126 137.603 217.218 135.419 218.991 133.158L215.616 132.113Z" fill="#E6E6E6"/>
<path d="M225.658 145.335H0.514648V145.905H225.658V145.335Z" fill="#3F3D56"/>
<path d="M64.431 15.7291L63.8479 15.4355L62.2682 18.5949L62.8512 18.8885L64.431 15.7291Z" fill="white"/>
<path d="M61.0711 94.7897L60.8779 94.8123L60.9995 95.8589L61.1927 95.8363L61.0711 94.7897Z" fill="#3F3D56"/>
<path d="M62.2243 104.026L62.1631 103.841L61.1664 104.173L61.2277 104.358L62.2243 104.026Z" fill="white"/>
<path d="M61.3208 98.6006L61.1267 98.6123L61.1897 99.6641L61.3838 99.6524L61.3208 98.6006Z" fill="white"/>
<path d="M60.4134 92.8331L60.2192 92.8448L60.2823 93.8966L60.4764 93.8849L60.4134 92.8331Z" fill="white"/>
<path d="M74.2845 97.1351L74.2117 96.9542L73.238 97.3489L73.3108 97.5298L74.2845 97.1351Z" fill="#FF6584"/>
<path d="M62.8053 96.8275L62.6174 96.777L62.3456 97.7948L62.5335 97.8453L62.8053 96.8275Z" fill="#FF6584"/>
<path d="M73.2466 17.963H72.6335V21.2849H73.2466V17.963Z" fill="#3F3D56"/>
<path d="M72.8789 25.9602H72.2659V29.2821H72.8789V25.9602Z" fill="white"/>
<path d="M72.4144 95.3882L72.2852 95.2585L71.5873 95.9588L71.7165 96.0884L72.4144 95.3882Z" fill="white"/>
<path d="M74.2496 105.995L74.1204 105.865L73.4225 106.566L73.5518 106.695L74.2496 105.995Z" fill="white"/>
<path d="M72.7854 101.599L72.6089 101.551L72.3535 102.508L72.53 102.555L72.7854 101.599Z" fill="#FF6584"/>
<path d="M73.2415 97.9816L73.1123 97.8519L72.4145 98.5522L72.5437 98.6818L73.2415 97.9816Z" fill="#FF6584"/>
<path d="M70.4348 97.8623C70.5921 97.7045 70.6804 97.4905 70.6804 97.2674C70.6804 97.0443 70.5921 96.8303 70.4348 96.6725C70.2776 96.5148 70.0643 96.4261 69.842 96.4261C69.6196 96.4261 69.4064 96.5148 69.2491 96.6725L42.4965 123.517C42.3393 123.674 42.251 123.888 42.251 124.111C42.251 124.335 42.3393 124.549 42.4965 124.706C42.6538 124.864 42.867 124.953 43.0894 124.953C43.3117 124.953 43.525 124.864 43.6822 124.706L70.2626 98.0351" fill="#3F3D56"/>
<path d="M73.1692 94.4744C71.2205 92.5214 68.688 91.2626 65.9589 90.8906C63.2297 90.5186 60.4543 91.0539 58.0571 92.4145C55.6598 93.7751 53.7727 95.8862 52.6844 98.4249C51.5961 100.964 51.3665 103.79 52.0307 106.472C52.6949 109.154 54.2163 111.544 56.3623 113.276C58.5082 115.008 61.1606 115.988 63.9138 116.064C66.6669 116.141 69.3692 115.31 71.6073 113.699C73.8455 112.089 75.4963 109.787 76.3072 107.146C76.9818 104.947 77.046 102.605 76.4931 100.373C75.9402 98.1399 74.791 96.1006 73.1692 94.4744V94.4744ZM62.8495 108.236C61.9819 107.995 61.1914 107.532 60.5549 106.893C60.4263 106.764 60.3071 106.627 60.1928 106.489C59.4067 105.517 58.9928 104.295 59.0258 103.044C59.0587 101.793 59.5364 100.595 60.3725 99.6659C61.2086 98.7372 62.3481 98.1389 63.5852 97.9793C64.8224 97.8196 66.0756 98.109 67.1187 98.7952C68.1619 99.4815 68.9261 100.519 69.2735 101.721C69.6209 102.923 69.5286 104.21 69.0132 105.35C68.4979 106.49 67.5934 107.407 66.4631 107.936C65.3327 108.466 64.0511 108.572 62.8495 108.236Z" fill="#E90E12"/>
<path d="M44.6043 24.1546C44.6043 23.4062 44.308 22.6883 43.7805 22.1591C43.2531 21.6298 42.5377 21.3325 41.7918 21.3325C41.0458 21.3325 40.3305 21.6298 39.803 22.1591C39.2756 22.6883 38.9792 23.4062 38.9792 24.1546V143.099C38.9792 143.47 39.052 143.837 39.1933 144.179C39.3347 144.522 39.5418 144.833 39.803 145.095C40.0642 145.357 40.3742 145.565 40.7155 145.707C41.0567 145.848 41.4224 145.921 41.7918 145.921C42.1611 145.921 42.5268 145.848 42.8681 145.707C43.2093 145.565 43.5193 145.357 43.7805 145.095C44.0417 144.833 44.2488 144.522 44.3902 144.179C44.5315 143.837 44.6043 143.47 44.6043 143.099V24.9743" fill="#3F3D56"/>
<path d="M80.4806 23.1002C75.6512 13.9343 67.6461 6.85826 57.9753 3.20687C48.3044 -0.444516 37.6362 -0.418902 27.9829 3.27888C18.3296 6.97667 10.3583 14.091 5.57267 23.2801C0.787001 32.4692 -0.482298 43.0978 2.00418 53.1613C4.49065 63.2247 10.561 72.0275 19.0704 77.9091C27.5797 83.7908 37.9398 86.3449 48.1966 85.0896C58.4534 83.8343 67.898 78.8565 74.749 71.0949C81.5999 63.3334 85.3837 53.3247 85.3867 42.9565C85.3895 36.0354 83.7052 29.2185 80.4806 23.1002V23.1002ZM51.7019 58.2821C48.3465 60.1826 44.4608 60.9213 40.6452 60.3841C36.8295 59.847 33.2964 58.0638 30.5918 55.3103C27.8872 52.5567 26.1616 48.986 25.6817 45.1499C25.2019 41.3138 25.9944 37.426 27.9369 34.0871C29.8794 30.7482 32.8638 28.1442 36.4287 26.6775C39.9937 25.2108 43.9408 24.963 47.6602 25.9724C51.3795 26.9818 54.6641 29.1922 57.0062 32.2621C59.3483 35.3319 60.6177 39.0904 60.6181 42.9565C60.6274 46.0765 59.8057 49.1422 58.2382 51.8367C56.6706 54.5311 54.414 56.7563 51.7019 58.2821H51.7019Z" fill="#E90E12"/>
<path opacity="0.2" d="M42.9609 82.6956C31.9704 82.6954 21.4114 78.403 13.5198 70.7274C5.62824 63.0518 1.02368 52.5955 0.681158 41.5728C0.666512 42.032 0.659024 42.4929 0.658693 42.9556C0.657332 48.5306 1.75051 54.0514 3.87578 59.2024C6.00106 64.3535 9.1168 69.034 13.0451 72.9767C16.9733 76.9193 21.6371 80.0469 26.7702 82.1807C31.9032 84.3145 37.4048 85.4127 42.9609 85.4127C48.517 85.4127 54.0186 84.3145 59.1516 82.1807C64.2847 80.0469 68.9485 76.9193 72.8767 72.9767C76.805 69.034 79.9207 64.3535 82.046 59.2024C84.1713 54.0514 85.2645 48.5306 85.2631 42.9556C85.2631 42.4923 85.2556 42.0308 85.2407 41.5712C84.8986 52.5942 80.2942 63.0508 72.4026 70.7268C64.5109 78.4028 53.9517 82.6954 42.9609 82.6956V82.6956Z" fill="black"/>
<path opacity="0.2" d="M43.0834 21.7758C38.9088 21.776 34.828 23.0183 31.3571 25.3457C27.8862 27.673 25.181 30.9808 23.5835 34.8509C21.9861 38.7209 21.5682 42.9793 22.3827 47.0876C23.1972 51.196 25.2074 54.9697 28.1593 57.9317C31.1112 60.8936 34.8721 62.9108 38.9664 63.728C43.0608 64.5453 47.3047 64.126 51.1615 62.5231C55.0184 60.9202 58.3149 58.2057 60.6343 54.7229C62.9537 51.2401 64.1918 47.1454 64.1921 42.9566C64.1859 37.341 61.9599 31.9572 58.0026 27.9864C54.0453 24.0155 48.6798 21.782 43.0834 21.7758V21.7758ZM51.7017 58.2822C48.3464 60.1826 44.4607 60.9214 40.645 60.3842C36.8294 59.847 33.2963 58.0639 30.5916 55.3103C27.887 52.5567 26.1614 48.986 25.6816 45.15C25.2017 41.3139 25.9943 37.426 27.9368 34.0872C29.8793 30.7483 32.8636 28.1443 36.4286 26.6775C39.9935 25.2108 43.9407 24.963 47.66 25.9724C51.3794 26.9818 54.6639 29.1923 57.0061 32.2621C59.3482 35.332 60.6175 39.0904 60.618 42.9566C60.6273 46.0765 59.8056 49.1423 58.238 51.8367C56.6704 54.5311 54.4139 56.7564 51.7017 58.2822V58.2822Z" fill="black"/>
<path d="M80.4809 22.5903V29.6512C80.4813 30.1668 80.3279 30.6706 80.0403 31.0979C79.7528 31.5252 79.3444 31.8563 78.8677 32.0486C78.391 32.2409 77.8678 32.2856 77.3656 32.177C76.8633 32.0683 76.405 31.8113 76.0496 31.4389V32.2436C76.0496 33.0571 75.7276 33.8372 75.1543 34.4124C74.5811 34.9877 73.8035 35.3108 72.9928 35.3108C72.1821 35.3108 71.4046 34.9877 70.8313 34.4124C70.2581 33.8372 69.936 33.0571 69.936 32.2436V31.573C69.5663 31.9068 69.108 32.1258 68.6167 32.2035C68.1255 32.2812 67.6223 32.2143 67.1681 32.0109C66.714 31.8076 66.3283 31.4764 66.0579 31.0576C65.7875 30.6388 65.6439 30.1503 65.6445 29.6513L65.5219 22.1462V20.4151C65.5215 20.138 65.4115 19.8724 65.2161 19.6767C65.0206 19.4809 64.7558 19.3709 64.4797 19.3709C64.2035 19.3709 63.9387 19.4809 63.7433 19.6767C63.5479 19.8724 63.4379 20.138 63.4374 20.4151V22.1462L63.3148 28.4209C63.3148 29.1062 63.0435 29.7633 62.5606 30.2479C62.0778 30.7324 61.4228 31.0046 60.7399 31.0046C60.057 31.0046 59.402 30.7324 58.9192 30.2479C58.4363 29.7633 58.165 29.1062 58.165 28.4209L57.8499 22.1462V18.9387C57.8499 18.4841 57.6699 18.0482 57.3496 17.7268C57.0293 17.4054 56.5948 17.2248 56.1418 17.2248C55.6888 17.2248 55.2544 17.4054 54.9341 17.7268C54.6138 18.0482 54.4338 18.4841 54.4338 18.9387V22.1462L54.2413 28.4209C54.2417 28.9583 54.075 29.4823 53.7644 29.9201C53.4539 30.3579 53.0149 30.6875 52.5088 30.863C52.0026 31.0385 51.4545 31.0512 50.9409 30.8993C50.4272 30.7473 49.9736 30.4384 49.6432 30.0154C49.236 30.5378 48.6437 30.8825 47.9897 30.9779C47.3356 31.0732 46.67 30.9118 46.1315 30.5272V32.2436C46.1315 33.0571 45.8095 33.8372 45.2362 34.4124C44.663 34.9877 43.8855 35.3108 43.0747 35.3108C42.264 35.3108 41.4865 34.9877 40.9133 34.4124C40.34 33.8372 40.0179 33.0571 40.0179 32.2436V26.9445C40.0182 27.5356 39.8164 28.1088 39.4462 28.5686C39.076 29.0284 38.5598 29.3468 37.9839 29.4708C37.4079 29.5947 36.807 29.5167 36.2815 29.2497C35.7559 28.9828 35.3375 28.543 35.0962 28.0038V32.2436C35.0962 33.0571 34.7741 33.8372 34.2009 34.4124C33.6276 34.9877 32.8501 35.3108 32.0394 35.3108C31.2287 35.3108 30.4512 34.9877 29.8779 34.4124C29.3046 33.8372 28.9826 33.0571 28.9826 32.2436V22.1462H28.9654V32.2436C28.9654 33.0571 28.6434 33.8372 28.0701 34.4124C27.4968 34.9877 26.7193 35.3108 25.9086 35.3108C25.0979 35.3108 24.3204 34.9877 23.7471 34.4124C23.1739 33.8372 22.8518 33.0571 22.8518 32.2436V28.0395C22.6038 28.5719 22.1823 29.0034 21.6568 29.2629C21.1313 29.5224 20.5333 29.5942 19.9617 29.4666C19.39 29.3389 18.8788 29.0195 18.5125 28.5609C18.1463 28.1024 17.9469 27.5322 17.9472 26.9445V22.1462H17.6848V30.7672C17.6848 31.5807 17.3628 32.3608 16.7895 32.936C16.2162 33.5113 15.4387 33.8344 14.628 33.8344C13.8173 33.8344 13.0398 33.5113 12.4665 32.936C11.8933 32.3608 11.5712 31.5807 11.5712 30.7672V26.9445C11.5716 27.284 11.5052 27.6203 11.376 27.934C11.2467 28.2478 11.0571 28.5329 10.8179 28.7731C10.5788 29.0133 10.2948 29.2039 9.98227 29.3339C9.6697 29.4639 9.33466 29.5308 8.9963 29.5308C8.65795 29.5308 8.3229 29.4639 8.01033 29.3339C7.69776 29.2039 7.4138 29.0133 7.17466 28.7731C6.93552 28.5329 6.74591 28.2478 6.61666 27.934C6.48741 27.6203 6.42105 27.284 6.42139 26.9445V21.2566C10.1978 14.6827 15.6608 9.24424 22.2421 5.5071C28.8233 1.76997 36.2824 -0.12932 43.8432 0.00683848C51.404 0.142996 58.7903 2.30963 65.2337 6.28131C71.677 10.253 76.942 15.8846 80.4809 22.5903V22.5903Z" fill="#E6E6E6"/>
<path opacity="0.2" d="M25.9088 33.8343C25.5074 33.8344 25.1099 33.755 24.739 33.6009C24.3681 33.4468 24.0311 33.2208 23.7473 32.936C23.4634 32.6512 23.2383 32.3131 23.0847 31.9409C22.9311 31.5688 22.852 31.1699 22.8521 30.7671V32.3665C22.8521 33.18 23.1741 33.9602 23.7474 34.5354C24.3206 35.1106 25.0981 35.4338 25.9088 35.4338C26.7196 35.4338 27.4971 35.1106 28.0703 34.5354C28.6436 33.9602 28.9656 33.18 28.9656 32.3665V30.7671C28.9657 31.1699 28.8866 31.5688 28.733 31.9409C28.5794 32.3131 28.3543 32.6512 28.0704 32.936C27.7865 33.2209 27.4495 33.4468 27.0787 33.6009C26.7078 33.755 26.3103 33.8344 25.9088 33.8343Z" fill="black"/>
<path opacity="0.2" d="M32.0397 33.8343C31.6383 33.8344 31.2408 33.755 30.8699 33.6009C30.499 33.4468 30.162 33.2208 29.8782 32.936C29.5943 32.6512 29.3691 32.3131 29.2155 31.9409C29.0619 31.5688 28.9829 31.1699 28.9829 30.7671V32.3665C28.9829 33.18 29.305 33.9602 29.8782 34.5354C30.4515 35.1106 31.229 35.4338 32.0397 35.4338C32.8504 35.4338 33.6279 35.1106 34.2012 34.5354C34.7744 33.9602 35.0965 33.18 35.0965 32.3665V30.7671C35.0965 31.1699 35.0175 31.5688 34.8639 31.9409C34.7103 32.3131 34.4851 32.6512 34.2013 32.936C33.9174 33.2209 33.5804 33.4468 33.2095 33.6009C32.8386 33.755 32.4411 33.8344 32.0397 33.8343V33.8343Z" fill="black"/>
<path opacity="0.2" d="M22.8519 26.563C22.6039 27.0954 22.1823 27.5269 21.6568 27.7864C21.1314 28.0459 20.5334 28.1177 19.9617 27.9901C19.39 27.8625 18.8789 27.543 18.5126 27.0844C18.1463 26.6259 17.9469 26.0557 17.9473 25.468V27.0675C17.9469 27.6551 18.1463 28.2253 18.5126 28.6839C18.8789 29.1424 19.39 29.4619 19.9617 29.5896C20.5334 29.7172 21.1314 29.6453 21.6568 29.3859C22.1823 29.1264 22.6039 28.6948 22.8519 28.1625V26.563Z" fill="black"/>
<path opacity="0.2" d="M28.9825 20.6697H28.9653V22.2691H28.9825V20.6697Z" fill="black"/>
<path opacity="0.2" d="M11.5712 25.468C11.5705 26.1528 11.299 26.8093 10.8161 27.2933C10.3333 27.7773 9.67877 28.0492 8.9963 28.0492C8.31383 28.0492 7.65928 27.7773 7.17646 27.2933C6.69365 26.8093 6.42206 26.1528 6.42139 25.468V27.0675C6.42206 27.7523 6.69365 28.4088 7.17646 28.8928C7.65928 29.3768 8.31383 29.6486 8.9963 29.6486C9.67877 29.6486 10.3333 29.3768 10.8161 28.8928C11.299 28.4088 11.5705 27.7523 11.5712 27.0675V25.468Z" fill="black"/>
<path opacity="0.2" d="M17.9475 20.6697H17.6851V22.2691H17.9475V20.6697Z" fill="black"/>
<path opacity="0.2" d="M14.6281 32.358C14.2266 32.358 13.8291 32.2787 13.4583 32.1246C13.0874 31.9705 12.7504 31.7445 12.4665 31.4597C12.1827 31.1749 11.9575 30.8367 11.8039 30.4646C11.6503 30.0924 11.5713 29.6936 11.5713 29.2908V30.8902C11.5713 31.7037 11.8933 32.4839 12.4666 33.0591C13.0399 33.6343 13.8174 33.9575 14.6281 33.9575C15.4388 33.9575 16.2163 33.6343 16.7896 33.0591C17.3628 32.4839 17.6849 31.7037 17.6849 30.8902V29.2908C17.6849 29.6936 17.6059 30.0924 17.4523 30.4646C17.2987 30.8367 17.0735 31.1749 16.7896 31.4597C16.5058 31.7445 16.1688 31.9705 15.7979 32.1246C15.427 32.2787 15.0295 32.358 14.6281 32.358V32.358Z" fill="black"/>
<path opacity="0.2" d="M43.0749 33.8343C42.6734 33.8344 42.2759 33.755 41.905 33.6009C41.5342 33.4468 41.1972 33.2208 40.9133 32.936C40.6295 32.6512 40.4043 32.3131 40.2507 31.9409C40.0971 31.5688 40.018 31.1699 40.0181 30.7671V32.3665C40.0181 33.18 40.3401 33.9602 40.9134 34.5354C41.4866 35.1106 42.2641 35.4338 43.0749 35.4338C43.8856 35.4338 44.6631 35.1106 45.2363 34.5354C45.8096 33.9602 46.1317 33.18 46.1317 32.3665V30.7671C46.1317 31.1699 46.0526 31.5688 45.899 31.9409C45.7454 32.3131 45.5203 32.6512 45.2364 32.936C44.9525 33.2209 44.6156 33.4468 44.2447 33.6009C43.8738 33.755 43.4763 33.8344 43.0749 33.8343Z" fill="black"/>
<path opacity="0.2" d="M65.522 18.9386C65.522 18.6612 65.4121 18.3952 65.2167 18.1991C65.0212 18.003 64.7561 17.8928 64.4797 17.8928C64.2033 17.8928 63.9382 18.003 63.7428 18.1991C63.5473 18.3952 63.4375 18.6612 63.4375 18.9386V20.5381C63.4373 20.4006 63.4641 20.2644 63.5164 20.1374C63.5686 20.0103 63.6454 19.8948 63.7422 19.7975C63.839 19.7002 63.954 19.6231 64.0805 19.5704C64.2071 19.5177 64.3427 19.4906 64.4797 19.4906C64.6167 19.4906 64.7524 19.5177 64.8789 19.5704C65.0055 19.6231 65.1205 19.7002 65.2173 19.7975C65.3141 19.8948 65.3908 20.0103 65.4431 20.1374C65.4954 20.2644 65.5222 20.4006 65.522 20.5381V18.9386Z" fill="black"/>
<path opacity="0.2" d="M40.018 25.468C40.0182 26.0591 39.8164 26.6324 39.4462 27.0921C39.076 27.5519 38.5598 27.8703 37.9839 27.9943C37.4079 28.1183 36.807 28.0402 36.2815 27.7733C35.7559 27.5063 35.3376 27.0665 35.0962 26.5273V28.1268C35.3376 28.666 35.7559 29.1057 36.2815 29.3727C36.807 29.6397 37.4079 29.7177 37.9839 29.5937C38.5598 29.4698 39.076 29.1513 39.4462 28.6916C39.8164 28.2318 40.0182 27.6585 40.018 27.0675V25.468Z" fill="black"/>
<path opacity="0.2" d="M60.7399 29.5281C60.4018 29.5282 60.0669 29.4614 59.7545 29.3315C59.4421 29.2017 59.1582 29.0114 58.9191 28.7715C58.68 28.5315 58.4903 28.2467 58.3609 27.9332C58.2315 27.6197 58.1649 27.2837 58.165 26.9444L57.8499 20.6697V22.2691L58.165 28.5439C58.165 29.2291 58.4363 29.8863 58.9192 30.3708C59.4021 30.8554 60.057 31.1276 60.7399 31.1276C61.4228 31.1276 62.0778 30.8554 62.5606 30.3708C63.0435 29.8863 63.3148 29.2291 63.3148 28.5439L63.4374 22.2691V20.6697L63.3148 26.9444C63.3149 27.2837 63.2483 27.6197 63.1189 27.9332C62.9895 28.2467 62.7998 28.5315 62.5607 28.7715C62.3216 29.0114 62.0377 29.2017 61.7253 29.3315C61.4129 29.4614 61.0781 29.5282 60.7399 29.5281V29.5281Z" fill="black"/>
<path opacity="0.2" d="M77.9061 30.7585C77.5591 30.7586 77.2157 30.6881 76.8966 30.5513C76.5776 30.4145 76.2894 30.2141 76.0497 29.9624V30.7671C76.0497 31.5806 75.7277 32.3607 75.1544 32.9359C74.5811 33.5112 73.8036 33.8343 72.9929 33.8343C72.1822 33.8343 71.4047 33.5112 70.8314 32.9359C70.2582 32.3607 69.9361 31.5806 69.9361 30.7671V30.0965C69.5663 30.4303 69.1081 30.6493 68.6168 30.727C68.1256 30.8047 67.6224 30.7378 67.1682 30.5344C66.7141 30.3311 66.3284 29.9999 66.058 29.5811C65.7876 29.1623 65.644 28.6738 65.6446 28.1748L65.522 20.6697V22.2691L65.6446 29.7742C65.644 30.2732 65.7876 30.7617 66.058 31.1806C66.3284 31.5994 66.7141 31.9305 67.1682 32.1339C67.6224 32.3373 68.1256 32.4042 68.6168 32.3264C69.1081 32.2487 69.5664 32.0297 69.9361 31.696V32.3665C69.9361 33.18 70.2582 33.9602 70.8314 34.5354C71.4047 35.1106 72.1822 35.4338 72.9929 35.4338C73.8036 35.4338 74.5811 35.1106 75.1544 34.5354C75.7277 33.9602 76.0497 33.18 76.0497 32.3665V31.5619C76.4051 31.9342 76.8634 32.1913 77.3657 32.2999C77.8679 32.4086 78.3911 32.3639 78.8678 32.1716C79.3445 31.9793 79.7529 31.6481 80.0404 31.2209C80.3279 30.7936 80.4814 30.2898 80.481 29.7742V28.1748C80.4811 28.5141 80.4145 28.8501 80.2851 29.1636C80.1557 29.477 79.966 29.7619 79.7269 30.0018C79.4878 30.2417 79.204 30.4321 78.8915 30.5619C78.5791 30.6917 78.2443 30.7585 77.9061 30.7585V30.7585Z" fill="black"/>
<path opacity="0.2" d="M51.6664 29.5281C51.2765 29.5282 50.8917 29.4391 50.5411 29.2677C50.1906 29.0963 49.8836 28.8471 49.6433 28.5389C49.2361 29.0613 48.6438 29.406 47.9897 29.5014C47.3356 29.5967 46.6701 29.4353 46.1316 29.0508V30.6502C46.6701 31.0348 47.3356 31.1962 47.9897 31.1008C48.6438 31.0055 49.2361 30.6608 49.6433 30.1384C49.9736 30.5613 50.4272 30.8703 50.9409 31.0222C51.4546 31.1742 52.0027 31.1615 52.5088 30.986C53.015 30.8104 53.4539 30.4808 53.7645 30.0431C54.0751 29.6053 54.2418 29.0812 54.2414 28.5439L54.4339 22.2691V20.6697L54.2414 26.9444C54.2414 27.2837 54.1748 27.6197 54.0454 27.9332C53.916 28.2467 53.7264 28.5315 53.4873 28.7715C53.2482 29.0114 52.9643 29.2017 52.6519 29.3315C52.3394 29.4614 52.0046 29.5282 51.6664 29.5281Z" fill="black"/>
<path opacity="0.2" d="M57.8499 17.4623C57.8499 17.0077 57.6699 16.5718 57.3496 16.2504C57.0293 15.929 56.5948 15.7484 56.1419 15.7484C55.6889 15.7484 55.2544 15.929 54.9341 16.2504C54.6138 16.5718 54.4338 17.0077 54.4338 17.4623V19.0617C54.4338 18.6072 54.6138 18.1712 54.9341 17.8498C55.2544 17.5284 55.6889 17.3479 56.1419 17.3479C56.5948 17.3479 57.0293 17.5284 57.3496 17.8498C57.6699 18.1712 57.8499 18.6072 57.8499 19.0617V17.4623Z" fill="black"/>
<path d="M29.2893 17.7784H28.6763V21.1004H29.2893V17.7784Z" fill="#3F3D56"/>
<path d="M40.8763 15.9944H40.2632V19.3163H40.8763V15.9944Z" fill="#3F3D56"/>
<path d="M26.1624 29.036H25.5493V32.3579H26.1624V29.036Z" fill="#3F3D56"/>
<path d="M51.2046 23.2315L50.7004 22.8815L48.8168 25.6133L49.3209 25.9633L51.2046 23.2315Z" fill="#3F3D56"/>
<path d="M18.7398 17.983L18.3594 18.4655L20.9556 20.5267L21.336 20.0442L18.7398 17.983Z" fill="#3F3D56"/>
<path d="M54.7889 5.55651L54.4084 6.03894L57.0047 8.10016L57.3851 7.61773L54.7889 5.55651Z" fill="#3F3D56"/>
<path d="M11.9961 21.428L11.6157 21.9104L14.2119 23.9716L14.5924 23.4892L11.9961 21.428Z" fill="#3F3D56"/>
<path d="M31.5574 9.96582H30.9443V13.2877H31.5574V9.96582Z" fill="white"/>
<path d="M14.7596 27.0675H14.1465V30.3894H14.7596V27.0675Z" fill="white"/>
<path d="M43.4512 5.16748H42.8381V8.4894H43.4512V5.16748Z" fill="white"/>
<path d="M46.8585 16.8009L46.3105 16.525L44.8259 19.4942L45.3739 19.7701L46.8585 16.8009Z" fill="white"/>
<path d="M44.0384 29.1042L43.4905 28.8284L42.0059 31.7975L42.5538 32.0734L44.0384 29.1042Z" fill="white"/>
<path d="M35.6108 22.3521L35.2041 22.8124L37.6813 25.0161L38.088 24.5558L35.6108 22.3521Z" fill="white"/>
<path d="M23.4721 7.95705L23.0654 8.41736L25.5427 10.6211L25.9494 10.1608L23.4721 7.95705Z" fill="white"/>
<path d="M63.8122 13.4935L63.4055 13.9539L65.8827 16.1576L66.2895 15.6973L63.8122 13.4935Z" fill="white"/>
<path d="M48.9758 2.66652L48.5691 3.12683L51.0463 5.33057L51.453 4.87026L48.9758 2.66652Z" fill="white"/>
<path d="M36.2171 15.9944H35.604V19.3163H36.2171V15.9944Z" fill="#FF6584"/>
<path d="M70.8038 18.0922L70.2395 17.8518L68.9457 20.9096L69.5101 21.15L70.8038 18.0922Z" fill="#FF6584"/>
<path d="M23.945 21.3537L23.4141 21.6613L25.0694 24.5381L25.6003 24.2305L23.945 21.3537Z" fill="#FF6584"/>
<path d="M59.0129 19.016L58.4819 19.3236L60.1372 22.2005L60.6682 21.8929L59.0129 19.016Z" fill="#FF6584"/>
<path d="M37.1877 6.83585L36.6567 7.14343L38.312 10.0203L38.843 9.71273L37.1877 6.83585Z" fill="#FF6584"/>
<path d="M63.1818 6.22049L62.6509 6.52808L64.3062 9.40495L64.8371 9.09736L63.1818 6.22049Z" fill="#FF6584"/>
<path d="M29.4626 3.5137L28.9316 3.82129L30.5869 6.69816L31.1179 6.39057L29.4626 3.5137Z" fill="#FF6584"/>
<path d="M51.544 9.35059H50.9309V12.6725H51.544V9.35059Z" fill="#FF6584"/>
<path d="M16.2308 14.8871H15.6177V18.209H16.2308V14.8871Z" fill="#FF6584"/>
<path opacity="0.2" d="M55.8781 111.774C53.5615 109.449 52.2374 106.311 52.1864 103.024C52.1354 99.7367 53.3613 96.5587 55.6047 94.1628C55.5051 94.2565 55.4067 94.3521 55.3095 94.4495C54.1377 95.6243 53.2081 97.0193 52.5737 98.5547C51.9393 100.09 51.6127 101.736 51.6123 103.398C51.612 105.06 51.938 106.706 52.5717 108.242C53.2054 109.777 54.1345 111.173 55.3058 112.348C56.477 113.523 57.8676 114.455 59.398 115.091C60.9285 115.727 62.5687 116.054 64.2252 116.054C65.8816 116.054 67.5218 115.726 69.0519 115.089C70.5821 114.453 71.9723 113.52 73.1431 112.344C73.2404 112.246 73.3358 112.148 73.4292 112.048C71.0414 114.299 67.8743 115.529 64.5983 115.478C61.3224 115.427 58.1949 114.098 55.8781 111.774V111.774Z" fill="black"/>
<path opacity="0.2" d="M69.2116 98.4456C68.2305 97.4605 66.9803 96.7895 65.6191 96.5175C64.258 96.2454 62.847 96.3846 61.5646 96.9173C60.2822 97.45 59.1862 98.3524 58.415 99.5103C57.6438 100.668 57.2322 102.03 57.2322 103.422C57.2322 104.815 57.6438 106.176 58.415 107.334C59.1862 108.492 60.2822 109.394 61.5646 109.927C62.847 110.46 64.258 110.599 65.6191 110.327C66.9803 110.055 68.2305 109.384 69.2116 108.399C70.5242 107.078 71.2613 105.288 71.2613 103.422C71.2613 101.557 70.5242 99.7669 69.2116 98.4456V98.4456ZM67.9487 106.893C66.968 107.876 65.6383 108.428 64.2519 108.428C62.8654 108.428 61.5357 107.876 60.5551 106.893C60.4264 106.763 60.3073 106.627 60.1929 106.489C59.5562 105.701 59.1607 104.745 59.0543 103.737C58.9478 102.728 59.1351 101.71 59.5933 100.806C60.0516 99.9024 60.7611 99.1512 61.6361 98.6436C62.5111 98.1361 63.5139 97.8939 64.5232 97.9465C65.5326 97.9991 66.505 98.3441 67.3229 98.9399C68.1408 99.5357 68.769 100.357 69.1315 101.303C69.494 102.25 69.5752 103.282 69.3652 104.274C69.1553 105.266 68.6633 106.175 67.9487 106.893V106.893Z" fill="black"/>
<path d="M76.5599 106.893L75.0766 108.381C74.9684 108.49 74.8302 108.564 74.6799 108.593C74.5295 108.622 74.3739 108.606 74.233 108.545C74.0921 108.485 73.9724 108.384 73.8894 108.255C73.8063 108.125 73.7637 107.974 73.767 107.821L73.598 107.99C73.4271 108.162 73.1953 108.258 72.9537 108.258C72.712 108.258 72.4802 108.162 72.3093 107.99C72.1385 107.819 72.0424 107.586 72.0424 107.344C72.0424 107.101 72.1385 106.869 72.3093 106.697L72.4502 106.556C72.3022 106.548 72.1596 106.497 72.0397 106.41C71.9198 106.322 71.8278 106.202 71.7748 106.063C71.7218 105.924 71.71 105.772 71.741 105.627C71.772 105.481 71.8443 105.348 71.9493 105.243L73.5001 103.635L73.8637 103.27C73.922 103.212 73.9547 103.132 73.9547 103.05C73.9547 102.967 73.922 102.888 73.8637 102.829C73.8054 102.771 73.7264 102.738 73.644 102.738C73.5616 102.738 73.4826 102.771 73.4243 102.829L73.0607 103.194L71.7167 104.491C71.5727 104.635 71.3775 104.717 71.1739 104.717C70.9704 104.717 70.7751 104.635 70.6312 104.491C70.4872 104.347 70.4063 104.151 70.4063 103.946C70.4063 103.742 70.4872 103.546 70.6312 103.402L71.8829 102.012L72.5567 101.336C72.6515 101.24 72.7045 101.111 72.7043 100.976C72.704 100.84 72.6503 100.711 72.5551 100.615C72.4599 100.52 72.3309 100.466 72.1962 100.466C72.0616 100.465 71.9323 100.519 71.8366 100.614L71.1628 101.29L69.8041 102.572C69.1947 102.209 68.5438 101.922 67.8657 101.716C67.7532 101.603 67.6786 101.458 67.6522 101.301L67.2917 101.662C67.1208 101.834 66.889 101.93 66.6473 101.93C66.4056 101.93 66.1739 101.834 66.003 101.662C65.8321 101.491 65.7361 101.258 65.7361 101.016C65.7361 100.773 65.8321 100.541 66.003 100.369L67.1162 99.2523C66.992 99.3769 66.8291 99.4551 66.6545 99.4737C66.4799 99.4923 66.3041 99.4503 66.1567 99.3546C66.0093 99.2589 65.899 99.1153 65.8443 98.9479C65.7896 98.7805 65.7938 98.5993 65.8562 98.4346L64.9655 99.3283C64.7946 99.4997 64.5628 99.5961 64.3212 99.5961C64.0795 99.5961 63.8477 99.4997 63.6768 99.3283C63.5059 99.1568 63.4099 98.9242 63.4099 98.6817C63.4099 98.4392 63.5059 98.2067 63.6768 98.0352L65.798 95.9068L65.7944 95.9032L63.6732 98.0316C63.5023 98.203 63.2706 98.2994 63.0289 98.2994C62.7872 98.2994 62.5554 98.203 62.3845 98.0316C62.2137 97.8601 62.1177 97.6275 62.1177 97.385C62.1177 97.1425 62.2137 96.91 62.3845 96.7385L63.2677 95.8523C63.1036 95.9121 62.9241 95.9139 62.7588 95.8574C62.5935 95.801 62.4524 95.6897 62.3587 95.5418C62.265 95.394 62.2244 95.2186 62.2435 95.0444C62.2626 94.8703 62.3404 94.7079 62.4639 94.5841L63.4719 93.5727L63.4166 93.5172L61.6056 95.3344C61.4347 95.5059 61.2029 95.6022 60.9612 95.6022C60.7195 95.6022 60.4878 95.5059 60.3169 95.3344C60.146 95.163 60.05 94.9304 60.05 94.6879C60.05 94.4454 60.146 94.2128 60.3169 94.0413L61.1199 93.2356C60.976 93.38 60.7807 93.4612 60.5771 93.4612C60.3736 93.4612 60.1783 93.38 60.0344 93.2356C59.8904 93.0911 59.8096 92.8952 59.8096 92.691C59.8096 92.4867 59.8904 92.2908 60.0344 92.1463L61.2292 90.9474C63.4062 90.3604 65.7002 90.3695 67.8725 90.9738C70.0448 91.578 72.0161 92.7554 73.5812 94.3832C75.1464 96.0111 76.2482 98.0301 76.772 100.23C77.2959 102.43 77.2226 104.731 76.5599 106.893V106.893Z" fill="#E6E6E6"/>
<path opacity="0.2" d="M62.6947 97.7204C62.6101 97.6355 62.5429 97.5347 62.4971 97.4238C62.4513 97.3129 62.4278 97.194 62.4278 97.0739C62.4278 96.9538 62.4513 96.8349 62.4971 96.724C62.5429 96.6131 62.6101 96.5123 62.6947 96.4274L62.3587 96.7645C62.1878 96.936 62.0918 97.1685 62.0918 97.411C62.0918 97.6535 62.1878 97.8861 62.3587 98.0576C62.5296 98.2291 62.7614 98.3254 63.003 98.3254C63.2447 98.3254 63.4765 98.2291 63.6474 98.0576L63.9834 97.7204C63.8987 97.8054 63.7983 97.8727 63.6877 97.9187C63.5772 97.9646 63.4587 97.9883 63.339 97.9883C63.2194 97.9883 63.1009 97.9646 62.9903 97.9187C62.8797 97.8727 62.7793 97.8054 62.6947 97.7204V97.7204Z" fill="black"/>
<path opacity="0.2" d="M63.9869 99.0171C63.9023 98.9322 63.8352 98.8314 63.7894 98.7204C63.7436 98.6095 63.72 98.4906 63.72 98.3705C63.72 98.2505 63.7436 98.1316 63.7894 98.0206C63.8352 97.9097 63.9023 97.8089 63.9869 97.724L63.6509 98.0612C63.5663 98.1461 63.4992 98.2468 63.4534 98.3578C63.4076 98.4687 63.384 98.5876 63.384 98.7077C63.384 98.8278 63.4076 98.9467 63.4534 99.0576C63.4992 99.1685 63.5663 99.2693 63.6509 99.3542C63.7355 99.4391 63.836 99.5065 63.9466 99.5524C64.0571 99.5984 64.1756 99.622 64.2953 99.622C64.4149 99.622 64.5334 99.5984 64.644 99.5524C64.7545 99.5065 64.855 99.4391 64.9396 99.3542L65.2756 99.0171C65.191 99.102 65.0905 99.1694 64.98 99.2153C64.8694 99.2613 64.7509 99.2849 64.6313 99.2849C64.5116 99.2849 64.3931 99.2613 64.2825 99.2153C64.172 99.1694 64.0715 99.102 63.9869 99.0171V99.0171Z" fill="black"/>
<path opacity="0.2" d="M63.5777 95.5411C63.4136 95.6009 63.2341 95.6027 63.0688 95.5463C62.9035 95.4898 62.7624 95.3785 62.6687 95.2307C62.575 95.0828 62.5344 94.9074 62.5535 94.7332C62.5726 94.5591 62.6504 94.3967 62.7739 94.2729L62.4379 94.6101C62.3144 94.7339 62.2366 94.8963 62.2175 95.0704C62.1984 95.2445 62.239 95.42 62.3327 95.5678C62.4264 95.7156 62.5675 95.8269 62.7328 95.8834C62.8981 95.9398 63.0776 95.938 63.2417 95.8783L63.5777 95.5411Z" fill="black"/>
<path opacity="0.2" d="M66.1045 95.5921L65.7686 95.9292L65.7722 95.9328L66.1082 95.5957L66.1045 95.5921Z" fill="black"/>
<path opacity="0.2" d="M61.43 92.9244C61.3587 92.9959 61.2741 93.0527 61.181 93.0914C61.0879 93.1301 60.9881 93.15 60.8873 93.15C60.7865 93.15 60.6867 93.1301 60.5935 93.0914C60.5004 93.0527 60.4158 92.9959 60.3445 92.9244C60.2732 92.8529 60.2167 92.768 60.1781 92.6746C60.1395 92.5811 60.1197 92.481 60.1197 92.3798C60.1197 92.2787 60.1395 92.1785 60.1781 92.0851C60.2167 91.9916 60.2732 91.9067 60.3445 91.8352L60.0085 92.1723C59.8646 92.3168 59.7837 92.5127 59.7837 92.717C59.7837 92.9212 59.8646 93.1171 60.0085 93.2616C60.1525 93.406 60.3477 93.4872 60.5513 93.4872C60.7548 93.4872 60.9501 93.406 61.094 93.2616L61.43 92.9244Z" fill="black"/>
<path opacity="0.2" d="M63.7266 93.2061L63.3906 93.5432L63.4459 93.5987L63.7819 93.2616L63.7266 93.2061Z" fill="black"/>
<path opacity="0.2" d="M60.6271 95.0233C60.5424 94.9384 60.4753 94.8376 60.4295 94.7267C60.3837 94.6157 60.3601 94.4968 60.3601 94.3768C60.3601 94.2567 60.3837 94.1378 60.4295 94.0269C60.4753 93.9159 60.5424 93.8151 60.6271 93.7302L60.2911 94.0674C60.2064 94.1523 60.1393 94.2531 60.0935 94.364C60.0477 94.4749 60.0242 94.5938 60.0242 94.7139C60.0242 94.834 60.0477 94.9529 60.0935 95.0638C60.1393 95.1747 60.2064 95.2755 60.2911 95.3604C60.3757 95.4454 60.4761 95.5127 60.5867 95.5586C60.6972 95.6046 60.8157 95.6283 60.9354 95.6283C61.0551 95.6283 61.1736 95.6046 61.2841 95.5586C61.3947 95.5127 61.4951 95.4454 61.5797 95.3604L61.9157 95.0233C61.8311 95.1082 61.7307 95.1756 61.6201 95.2215C61.5095 95.2675 61.3911 95.2911 61.2714 95.2911C61.1517 95.2911 61.0332 95.2675 60.9227 95.2215C60.8121 95.1756 60.7117 95.1082 60.6271 95.0233V95.0233Z" fill="black"/>
<path opacity="0.2" d="M66.3131 101.351C66.2285 101.266 66.1613 101.165 66.1155 101.055C66.0697 100.944 66.0462 100.825 66.0462 100.705C66.0462 100.585 66.0697 100.466 66.1155 100.355C66.1613 100.244 66.2285 100.143 66.3131 100.058L65.9771 100.395C65.8925 100.48 65.8254 100.581 65.7796 100.692C65.7338 100.803 65.7102 100.922 65.7102 101.042C65.7102 101.162 65.7338 101.281 65.7796 101.392C65.8254 101.503 65.8925 101.603 65.9771 101.688C66.0617 101.773 66.1622 101.841 66.2727 101.887C66.3833 101.932 66.5018 101.956 66.6214 101.956C66.7411 101.956 66.8596 101.932 66.9701 101.887C67.0807 101.841 67.1811 101.773 67.2658 101.688L67.6018 101.351C67.5172 101.436 67.4167 101.503 67.3061 101.549C67.1956 101.595 67.0771 101.619 66.9574 101.619C66.8378 101.619 66.7193 101.595 66.6087 101.549C66.4981 101.503 66.3977 101.436 66.3131 101.351Z" fill="black"/>
<path opacity="0.2" d="M74.1738 102.959C74.2321 102.901 74.2648 102.821 74.2648 102.739C74.2648 102.656 74.2321 102.577 74.1738 102.518C74.1156 102.46 74.0365 102.427 73.9541 102.427C73.8717 102.427 73.7927 102.46 73.7344 102.518L73.3984 102.855C73.4567 102.797 73.5357 102.764 73.6181 102.764C73.7005 102.764 73.7796 102.797 73.8378 102.855C73.8961 102.914 73.9288 102.993 73.9288 103.076C73.9288 103.158 73.8961 103.238 73.8378 103.296L74.1738 102.959Z" fill="black"/>
<path opacity="0.2" d="M67.4263 98.9411C67.3022 99.0658 67.1392 99.1439 66.9646 99.1625C66.79 99.1811 66.6143 99.1391 66.4669 99.0434C66.3194 98.9477 66.2091 98.8042 66.1544 98.6367C66.0997 98.4693 66.1039 98.2881 66.1663 98.1234L65.8303 98.4606C65.7679 98.6253 65.7637 98.8064 65.8184 98.9739C65.8731 99.1413 65.9834 99.2849 66.1309 99.3806C66.2783 99.4762 66.454 99.5183 66.6286 99.4997C66.8032 99.4811 66.9662 99.4029 67.0903 99.2783L67.4263 98.9411Z" fill="black"/>
<path opacity="0.2" d="M70.9412 104.18C70.8699 104.108 70.8134 104.023 70.7748 103.93C70.7362 103.837 70.7163 103.736 70.7163 103.635C70.7163 103.534 70.7362 103.434 70.7748 103.34C70.8134 103.247 70.8699 103.162 70.9412 103.091L72.1929 101.701L71.8569 102.038L70.6052 103.428C70.5339 103.499 70.4774 103.584 70.4388 103.678C70.4002 103.771 70.3804 103.871 70.3804 103.972C70.3804 104.073 70.4002 104.174 70.4388 104.267C70.4774 104.361 70.5339 104.445 70.6052 104.517C70.6765 104.588 70.7611 104.645 70.8542 104.684C70.9473 104.723 71.0472 104.743 71.148 104.743C71.2488 104.743 71.3486 104.723 71.4417 104.684C71.5348 104.645 71.6194 104.588 71.6907 104.517L73.0347 103.22L73.3707 102.883L72.0267 104.18C71.9554 104.251 71.8708 104.308 71.7777 104.347C71.6846 104.386 71.5848 104.405 71.4839 104.405C71.3831 104.405 71.2833 104.386 71.1902 104.347C71.0971 104.308 71.0125 104.251 70.9412 104.18V104.18Z" fill="black"/>
<path opacity="0.2" d="M74.3013 108.07C74.2281 107.997 74.1705 107.909 74.132 107.813C74.0935 107.716 74.0748 107.613 74.0772 107.509L73.9081 107.679C73.8235 107.764 73.7231 107.831 73.6125 107.877C73.502 107.923 73.3835 107.947 73.2638 107.947C73.1442 107.947 73.0257 107.923 72.9151 107.877C72.8046 107.831 72.7041 107.764 72.6195 107.679C72.5349 107.594 72.4677 107.493 72.422 107.382C72.3762 107.272 72.3526 107.153 72.3526 107.033C72.3526 106.912 72.3762 106.794 72.422 106.683C72.4677 106.572 72.5349 106.471 72.6195 106.386L72.7603 106.245C72.6123 106.237 72.4697 106.186 72.3498 106.099C72.2299 106.011 72.1379 105.89 72.0849 105.752C72.0319 105.613 72.0202 105.461 72.0512 105.316C72.0821 105.17 72.1545 105.037 72.2595 104.932L73.8102 103.324L73.4742 103.661L71.9235 105.269C71.8185 105.374 71.7461 105.507 71.7152 105.653C71.6842 105.798 71.6959 105.95 71.7489 106.089C71.8019 106.228 71.8939 106.348 72.0138 106.436C72.1337 106.523 72.2763 106.574 72.4243 106.582L72.2835 106.723C72.1126 106.895 72.0166 107.127 72.0166 107.37C72.0166 107.612 72.1126 107.845 72.2835 108.016C72.4544 108.188 72.6861 108.284 72.9278 108.284C73.1695 108.284 73.4013 108.188 73.5722 108.016L73.7412 107.847C73.7379 108 73.7805 108.151 73.8635 108.281C73.9466 108.41 74.0662 108.511 74.2071 108.571C74.348 108.631 74.5037 108.648 74.654 108.619C74.8044 108.59 74.9426 108.516 75.0508 108.407L75.3868 108.07C75.3155 108.141 75.2309 108.198 75.1378 108.237C75.0446 108.276 74.9448 108.296 74.844 108.296C74.7432 108.296 74.6434 108.276 74.5503 108.237C74.4572 108.198 74.3725 108.141 74.3013 108.07V108.07Z" fill="black"/>
<path opacity="0.2" d="M69.0286 102.261C69.0427 102.145 69.0303 102.027 68.9924 101.917C68.9545 101.807 68.8921 101.707 68.81 101.624C68.7278 101.542 68.6279 101.479 68.518 101.441C68.4082 101.403 68.2911 101.391 68.1757 101.405C68.0632 101.292 67.9886 101.147 67.9622 100.989L67.6262 101.327C67.9106 101.407 68.1644 101.571 68.3546 101.797C68.5448 102.024 68.6625 102.303 68.6926 102.598C68.7639 102.669 68.8485 102.726 68.9416 102.765C69.0348 102.804 69.1346 102.823 69.2354 102.823C69.3362 102.823 69.436 102.804 69.5291 102.765C69.6223 102.726 69.7069 102.669 69.7781 102.598L71.1369 101.316L71.4729 100.979L70.1141 102.261C70.0429 102.332 69.9583 102.389 69.8651 102.428C69.772 102.466 69.6722 102.486 69.5714 102.486C69.4706 102.486 69.3708 102.466 69.2776 102.428C69.1845 102.389 69.0999 102.332 69.0286 102.261V102.261Z" fill="black"/>
<path opacity="0.2" d="M72.8668 101.025C72.9144 100.978 72.9522 100.922 72.9781 100.859C73.0039 100.797 73.0173 100.731 73.0174 100.664C73.0176 100.596 73.0045 100.53 72.9789 100.467C72.9533 100.405 72.9157 100.349 72.8683 100.301C72.8209 100.254 72.7646 100.216 72.7027 100.19C72.6407 100.165 72.5743 100.151 72.5072 100.152C72.4402 100.152 72.3739 100.165 72.312 100.191C72.2501 100.217 72.194 100.255 72.1468 100.303L71.8108 100.64C71.858 100.592 71.9141 100.554 71.976 100.528C72.0379 100.502 72.1042 100.489 72.1712 100.489C72.2383 100.489 72.3047 100.502 72.3667 100.527C72.4286 100.553 72.4849 100.591 72.5323 100.638C72.5797 100.686 72.6173 100.742 72.6429 100.805C72.6685 100.867 72.6816 100.933 72.6814 101.001C72.6813 101.068 72.6679 101.135 72.6421 101.197C72.6162 101.259 72.5784 101.315 72.5308 101.362L72.8668 101.025Z" fill="black"/>
<path d="M66.7801 95.0511L66.6509 94.9214L65.9531 95.6216L66.0823 95.7513L66.7801 95.0511Z" fill="#3F3D56"/>
<path d="M69.5972 97.1258L69.468 96.9961L68.7702 97.6963L68.8994 97.826L69.5972 97.1258Z" fill="#3F3D56"/>
<path d="M72.3863 95.5993L72.2571 95.4696L71.5592 96.1698L71.6885 96.2995L72.3863 95.5993Z" fill="#3F3D56"/>
<path d="M63.7562 96.7627L63.627 96.6331L62.9291 97.3333L63.0583 97.4629L63.7562 96.7627Z" fill="#3F3D56"/>
<path d="M70.2542 100.836L70.2214 100.655L69.2505 100.833L69.2833 101.013L70.2542 100.836Z" fill="#3F3D56"/>
<path d="M74.3108 99.0549L74.2781 98.8745L73.3072 99.0519L73.3399 99.2323L74.3108 99.0549Z" fill="#3F3D56"/>
<path d="M64.5136 92.8629L64.332 92.8842L64.4463 93.8677L64.6278 93.8465L64.5136 92.8629Z" fill="#3F3D56"/>
<path d="M62.3683 92.1626L62.1868 92.1838L62.301 93.1674L62.4825 93.1462L62.3683 92.1626Z" fill="#3F3D56"/>
<path d="M68.8995 93.8839L68.7703 93.7543L68.0724 94.4545L68.2017 94.5842L68.8995 93.8839Z" fill="white"/>
<path d="M74.2237 97.4457L74.0945 97.316L73.3966 98.0163L73.5259 98.1459L74.2237 97.4457Z" fill="white"/>
<path d="M76.252 102.534L76.1228 102.404L75.425 103.104L75.5542 103.234L76.252 102.534Z" fill="white"/>
<path d="M61.7659 93.9358L61.6367 93.8062L60.9389 94.5064L61.0681 94.636L61.7659 93.9358Z" fill="white"/>
<path d="M70.6889 98.561L70.6313 98.387L69.6947 98.6988L69.7522 98.8729L70.6889 98.561Z" fill="white"/>
<path d="M67.5097 100.558L67.4521 100.384L66.5155 100.696L66.573 100.87L67.5097 100.558Z" fill="white"/>
<path d="M67.1519 97.3522L66.9695 97.3632L67.0287 98.3516L67.2111 98.3406L67.1519 97.3522Z" fill="white"/>
<path d="M67.617 91.7503L67.4346 91.7614L67.4938 92.7498L67.6762 92.7388L67.617 91.7503Z" fill="white"/>
<path d="M68.6151 96.1403L68.4858 96.0106L67.788 96.7108L67.9172 96.8405L68.6151 96.1403Z" fill="#FF6584"/>
<path d="M74.7 104.79L74.5708 104.66L73.873 105.361L74.0022 105.49L74.7 104.79Z" fill="#FF6584"/>
<path d="M75.7142 100.465L75.585 100.335L74.8871 101.036L75.0163 101.165L75.7142 100.465Z" fill="#FF6584"/>
<path d="M64.9026 94.6743L64.7261 94.6268L64.4706 95.5834L64.6472 95.6308L64.9026 94.6743Z" fill="#FF6584"/>
<path d="M70.7437 94.4149L70.5671 94.3674L70.3117 95.324L70.4882 95.3714L70.7437 94.4149Z" fill="#FF6584"/>
<path d="M69.8132 92.0809L69.6367 92.0334L69.3813 92.99L69.5578 93.0374L69.8132 92.0809Z" fill="#FF6584"/>
<path d="M64.6348 91.6796L64.5056 91.5499L63.8078 92.2501L63.937 92.3798L64.6348 91.6796Z" fill="#FF6584"/>
<path d="M196.589 52.6441C196.589 52.1044 196.376 51.5867 195.995 51.205C195.615 50.8233 195.099 50.6089 194.561 50.6089C194.023 50.6089 193.507 50.8233 193.127 51.205C192.746 51.5867 192.533 52.1044 192.533 52.6441V143.886C192.533 144.426 192.746 144.943 193.127 145.325C193.507 145.707 194.023 145.921 194.561 145.921C195.099 145.921 195.615 145.707 195.995 145.325C196.376 144.943 196.589 144.426 196.589 143.886V53.2353" fill="#3F3D56"/>
<path d="M222.463 57.4864C218.9 50.7432 212.955 45.5785 205.794 43.0044C198.634 40.4302 190.773 40.6323 183.753 43.571C176.733 46.5097 171.059 51.9731 167.845 58.8905C164.63 65.8079 164.106 73.6805 166.375 80.9655H170.161C170.921 80.9655 171.545 81.8152 171.545 82.8557H172.24C173.003 82.8557 173.626 83.7054 173.626 84.746C173.626 85.7839 173.003 86.6362 172.24 86.6362H171.545C171.543 86.7942 171.527 86.9518 171.497 87.1068H174.666C175.429 87.1068 176.053 87.9591 176.053 88.9971C176.053 90.0376 175.429 90.8873 174.666 90.8873H171.639C176.378 96.8473 183.162 100.819 190.665 102.024C198.168 103.23 205.849 101.582 212.206 97.4051C218.562 93.2277 223.137 86.8207 225.034 79.4377C226.931 72.0547 226.014 64.227 222.463 57.4864H222.463ZM201.708 82.8608C199.812 83.9355 197.67 84.4982 195.492 84.4941C195.056 84.494 194.62 84.4719 194.186 84.428C191.187 84.1135 188.399 82.7337 186.325 80.5376C184.252 78.3416 183.028 75.4739 182.877 72.4523C182.725 69.4307 183.655 66.4543 185.499 64.0604C187.342 61.6664 189.978 60.0127 192.93 59.3977C195.882 58.7827 198.956 59.2469 201.597 60.7066C204.238 62.1663 206.272 64.5253 207.332 67.3577C208.392 70.1901 208.407 73.3093 207.376 76.1522C206.345 78.9952 204.335 81.3745 201.708 82.8608V82.8608Z" fill="#E90E12"/>
<path opacity="0.2" d="M175.97 88.3615C176.025 88.154 176.053 87.9402 176.053 87.7255C176.053 86.686 175.429 85.8356 174.666 85.8356H173.369C173.272 86.06 173.115 86.2534 172.916 86.3944C172.717 86.5354 172.483 86.6187 172.239 86.6351H171.546C171.544 86.7939 171.528 86.9521 171.496 87.1076H174.666C175.265 87.1076 175.777 87.6329 175.97 88.3615Z" fill="black"/>
<path opacity="0.2" d="M172.239 82.8554C172.838 82.8554 173.35 83.3807 173.543 84.1093C173.598 83.9018 173.626 83.688 173.626 83.4732C173.626 82.4338 173.002 81.5834 172.239 81.5834H171.546C171.546 80.5439 170.922 79.6935 170.159 79.6935H166.375C165.512 76.9183 165.048 74.0339 164.997 71.1272C164.992 71.3535 164.985 71.5794 164.985 71.8069C164.983 74.9129 165.451 78.0011 166.375 80.9655H170.159C170.922 80.9655 171.546 81.816 171.546 82.8554H172.239Z" fill="black"/>
<path opacity="0.2" d="M195.493 101.146C191.188 101.151 186.931 100.239 183.003 98.4705C179.075 96.7021 175.566 94.1174 172.707 90.8873H171.638C175.581 95.8512 180.964 99.4622 187.043 101.221C193.121 102.979 199.595 102.798 205.566 100.702C211.537 98.6059 216.712 94.6991 220.373 89.5223C224.034 84.3455 226 78.1547 226 71.8069C226 71.6155 225.995 71.4254 225.991 71.2349C225.809 79.2301 222.516 86.8364 216.816 92.4265C211.117 98.0165 203.463 101.146 195.493 101.146Z" fill="black"/>
<path opacity="0.2" d="M195.492 56.5756C192.489 56.5761 189.555 57.4698 187.059 59.1437C184.563 60.8177 182.618 63.1967 181.469 65.9799C180.321 68.7631 180.021 71.8255 180.607 74.7799C181.193 77.7343 182.639 80.448 184.762 82.5779C186.885 84.7078 189.589 86.1581 192.534 86.7456C195.478 87.3331 198.53 87.0313 201.304 85.8785C204.077 84.7256 206.448 82.7733 208.115 80.2686C209.783 77.7639 210.674 74.8192 210.674 71.8068C210.669 67.7683 209.068 63.8965 206.221 61.0411C203.375 58.1856 199.516 56.5797 195.492 56.5756V56.5756ZM201.708 82.8608C199.812 83.9354 197.67 84.4982 195.492 84.4941C195.055 84.4939 194.62 84.4718 194.186 84.4279C191.187 84.1135 188.399 82.7337 186.325 80.5376C184.251 78.3415 183.028 75.4738 182.877 72.4523C182.725 69.4307 183.655 66.4543 185.499 64.0603C187.342 61.6664 189.978 60.0127 192.93 59.3976C195.882 58.7826 198.956 59.2469 201.597 60.7066C204.238 62.1663 206.272 64.5252 207.332 67.3576C208.391 70.19 208.407 73.3092 207.376 76.1522C206.345 78.9951 204.335 81.3745 201.708 82.8608Z" fill="black"/>
<path d="M222.463 56.9781V62.0702C222.463 62.442 222.352 62.8054 222.145 63.1135C221.938 63.4217 221.643 63.6605 221.299 63.7991C220.956 63.9378 220.578 63.9701 220.216 63.8917C219.854 63.8134 219.523 63.628 219.267 63.3595V63.9398C219.267 64.5264 219.035 65.0891 218.621 65.5039C218.208 65.9187 217.647 66.1518 217.063 66.1518C216.478 66.1518 215.917 65.9187 215.504 65.5039C215.09 65.0891 214.858 64.5264 214.858 63.9398V63.4562C214.591 63.6969 214.261 63.8548 213.907 63.9109C213.552 63.9669 213.189 63.9187 212.862 63.772C212.534 63.6253 212.256 63.3865 212.061 63.0845C211.866 62.7824 211.763 62.4301 211.763 62.0702L211.675 56.6578V55.4093C211.675 55.2093 211.596 55.0175 211.455 54.876C211.314 54.7346 211.122 54.6551 210.923 54.6551C210.724 54.6551 210.533 54.7346 210.392 54.876C210.251 55.0175 210.171 55.2093 210.171 55.4093V56.6577L210.083 61.1829C210.083 61.6771 209.887 62.1511 209.539 62.5005C209.191 62.8499 208.719 63.0462 208.226 63.0462C207.734 63.0462 207.261 62.8499 206.913 62.5005C206.565 62.1511 206.369 61.6771 206.369 61.1829L206.142 56.6577V54.3446C206.142 54.0168 206.012 53.7024 205.781 53.4706C205.55 53.2388 205.237 53.1086 204.91 53.1086C204.583 53.1086 204.27 53.2388 204.039 53.4706C203.808 53.7024 203.678 54.0168 203.678 54.3446V56.6578L203.539 61.1829C203.54 61.5705 203.42 61.9484 203.196 62.2641C202.972 62.5798 202.655 62.8175 202.29 62.9441C201.925 63.0707 201.53 63.0798 201.159 62.9703C200.789 62.8607 200.462 62.6379 200.223 62.3329C199.93 62.7096 199.503 62.9582 199.031 63.0269C198.559 63.0957 198.079 62.9793 197.691 62.702V63.9397C197.691 64.5264 197.459 65.089 197.045 65.5039C196.632 65.9187 196.071 66.1518 195.486 66.1518C194.902 66.1518 194.341 65.9187 193.928 65.5039C193.514 65.089 193.282 64.5264 193.282 63.9397V60.1182C193.282 60.5445 193.137 60.9579 192.87 61.2895C192.603 61.621 192.23 61.8507 191.815 61.9401C191.4 62.0295 190.966 61.9732 190.587 61.7807C190.208 61.5881 189.907 61.271 189.732 60.8822V63.9398C189.732 64.526 189.499 65.088 189.086 65.5024C188.673 65.9167 188.112 66.1494 187.528 66.1494C186.944 66.1494 186.383 65.9167 185.97 65.5024C185.557 65.088 185.324 64.526 185.324 63.9398V56.6578H185.311V63.9398C185.311 64.5264 185.079 65.0891 184.665 65.5039C184.252 65.9187 183.691 66.1518 183.107 66.1518C182.522 66.1518 181.961 65.9187 181.548 65.5039C181.134 65.0891 180.902 64.5264 180.902 63.9398V60.9079C180.723 61.2918 180.419 61.603 180.04 61.7902C179.661 61.9773 179.23 62.0291 178.818 61.937C178.406 61.845 178.037 61.6146 177.773 61.2839C177.509 60.9532 177.365 60.542 177.365 60.1182V56.6578H177.176V62.875C177.176 63.4617 176.944 64.0243 176.53 64.4392C176.117 64.854 175.556 65.087 174.971 65.087C174.387 65.087 173.826 64.854 173.413 64.4392C172.999 64.0243 172.767 63.4617 172.767 62.875V60.1182C172.767 60.6124 172.571 61.0863 172.223 61.4358C171.875 61.7852 171.402 61.9815 170.91 61.9815C170.417 61.9815 169.945 61.7852 169.597 61.4358C169.249 61.0863 169.053 60.6124 169.053 60.1182V56.0162C171.776 51.2753 175.716 47.3532 180.462 44.6581C185.209 41.963 190.588 40.5933 196.041 40.6915C201.493 40.7896 206.82 42.3522 211.467 45.2164C216.114 48.0807 219.911 52.1421 222.463 56.9781V56.9781Z" fill="#E6E6E6"/>
<path opacity="0.2" d="M183.107 65.087C182.817 65.087 182.531 65.0298 182.263 64.9187C181.996 64.8075 181.753 64.6446 181.548 64.4392C181.343 64.2338 181.181 63.9899 181.07 63.7215C180.959 63.4531 180.902 63.1655 180.902 62.875V64.0285C180.902 64.6151 181.135 65.1778 181.548 65.5926C181.961 66.0074 182.522 66.2405 183.107 66.2405C183.691 66.2405 184.252 66.0074 184.666 65.5926C185.079 65.1778 185.311 64.6151 185.311 64.0285V62.875C185.311 63.1655 185.254 63.4531 185.144 63.7215C185.033 63.9899 184.87 64.2338 184.666 64.4392C184.461 64.6446 184.218 64.8075 183.95 64.9187C183.683 65.0298 183.396 65.087 183.107 65.087V65.087Z" fill="black"/>
<path opacity="0.2" d="M187.528 65.087C187.239 65.087 186.952 65.0298 186.685 64.9187C186.417 64.8075 186.174 64.6446 185.969 64.4392C185.765 64.2338 185.602 63.9899 185.491 63.7215C185.381 63.4531 185.324 63.1655 185.324 62.875V64.0285C185.324 64.6151 185.556 65.1778 185.969 65.5926C186.383 66.0074 186.944 66.2405 187.528 66.2405C188.113 66.2405 188.674 66.0074 189.087 65.5926C189.5 65.1778 189.733 64.6151 189.733 64.0285V62.875C189.733 63.1655 189.676 63.4531 189.565 63.7215C189.454 63.9899 189.292 64.2338 189.087 64.4392C188.882 64.6446 188.639 64.8075 188.372 64.9187C188.104 65.0298 187.818 65.087 187.528 65.087Z" fill="black"/>
<path opacity="0.2" d="M180.902 59.8431C180.723 60.2271 180.419 60.5383 180.04 60.7254C179.662 60.9125 179.23 60.9644 178.818 60.8723C178.406 60.7803 178.037 60.5499 177.773 60.2192C177.509 59.8885 177.365 59.4773 177.365 59.0535V60.2069C177.365 60.6307 177.509 61.042 177.773 61.3727C178.037 61.7033 178.406 61.9338 178.818 62.0258C179.23 62.1178 179.662 62.066 180.04 61.8789C180.419 61.6918 180.723 61.3805 180.902 60.9966V59.8431Z" fill="black"/>
<path opacity="0.2" d="M185.324 55.593H185.311V56.7465H185.324V55.593Z" fill="black"/>
<path opacity="0.2" d="M172.767 59.0535C172.767 59.5476 172.572 60.0216 172.223 60.371C171.875 60.7205 171.403 60.9168 170.91 60.9168C170.418 60.9168 169.945 60.7205 169.597 60.371C169.249 60.0216 169.053 59.5476 169.053 59.0535V60.2069C169.053 60.7011 169.249 61.1751 169.597 61.5245C169.945 61.8739 170.418 62.0702 170.91 62.0702C171.403 62.0702 171.875 61.8739 172.223 61.5245C172.572 61.1751 172.767 60.7011 172.767 60.2069V59.0535Z" fill="black"/>
<path opacity="0.2" d="M177.365 55.593H177.176V56.7465H177.365V55.593Z" fill="black"/>
<path opacity="0.2" d="M174.972 64.0223C174.682 64.0223 174.395 63.9651 174.128 63.854C173.86 63.7428 173.617 63.5799 173.413 63.3745C173.208 63.1691 173.046 62.9252 172.935 62.6568C172.824 62.3884 172.767 62.1008 172.767 61.8103V62.9638C172.767 63.5504 172.999 64.1131 173.413 64.5279C173.826 64.9427 174.387 65.1758 174.972 65.1758C175.556 65.1758 176.117 64.9427 176.53 64.5279C176.944 64.1131 177.176 63.5504 177.176 62.9638V61.8103C177.176 62.1008 177.119 62.3884 177.008 62.6568C176.898 62.9252 176.735 63.1691 176.53 63.3745C176.326 63.5799 176.083 63.7428 175.815 63.854C175.548 63.9651 175.261 64.0223 174.972 64.0223V64.0223Z" fill="black"/>
<path opacity="0.2" d="M195.486 65.087C195.197 65.087 194.91 65.0298 194.643 64.9187C194.375 64.8075 194.132 64.6446 193.928 64.4392C193.723 64.2338 193.561 63.9899 193.45 63.7215C193.339 63.4531 193.282 63.1655 193.282 62.875V64.0285C193.282 64.6151 193.514 65.1778 193.928 65.5926C194.341 66.0074 194.902 66.2405 195.486 66.2405C196.071 66.2405 196.632 66.0074 197.045 65.5926C197.459 65.1778 197.691 64.6151 197.691 64.0285V62.875C197.691 63.1655 197.634 63.4531 197.523 63.7215C197.412 63.9899 197.25 64.2338 197.045 64.4392C196.841 64.6446 196.598 64.8075 196.33 64.9187C196.063 65.0298 195.776 65.087 195.486 65.087Z" fill="black"/>
<path opacity="0.2" d="M211.675 54.3446C211.675 54.1446 211.596 53.9528 211.455 53.8114C211.314 53.6699 211.123 53.5905 210.923 53.5905C210.724 53.5905 210.533 53.6699 210.392 53.8114C210.251 53.9528 210.172 54.1446 210.172 54.3446V55.4981C210.172 55.2981 210.251 55.1063 210.392 54.9648C210.533 54.8234 210.724 54.7439 210.923 54.7439C211.123 54.7439 211.314 54.8234 211.455 54.9648C211.596 55.1063 211.675 55.2981 211.675 55.4981V54.3446Z" fill="black"/>
<path opacity="0.2" d="M193.282 59.0535C193.282 59.4797 193.137 59.8932 192.87 60.2247C192.603 60.5563 192.231 60.7859 191.815 60.8753C191.4 60.9647 190.966 60.9085 190.587 60.7159C190.208 60.5234 189.907 60.2063 189.733 59.8174V60.9709C189.907 61.3597 190.208 61.6769 190.587 61.8694C190.966 62.062 191.4 62.1182 191.815 62.0288C192.231 61.9394 192.603 61.7098 192.87 61.3782C193.137 61.0466 193.282 60.6332 193.282 60.2069V59.0535Z" fill="black"/>
<path opacity="0.2" d="M208.226 61.9815C207.982 61.9815 207.741 61.9334 207.516 61.8397C207.29 61.7461 207.086 61.6089 206.913 61.4358C206.741 61.2628 206.604 61.0574 206.511 60.8313C206.417 60.6052 206.369 60.3629 206.369 60.1182L206.142 55.593V56.7465L206.369 61.2717C206.369 61.7659 206.565 62.2398 206.913 62.5892C207.261 62.9387 207.734 63.135 208.226 63.135C208.719 63.135 209.191 62.9387 209.539 62.5892C209.888 62.2398 210.083 61.7659 210.083 61.2717L210.172 56.7465V55.593L210.083 60.1182C210.083 60.3629 210.035 60.6052 209.942 60.8313C209.849 61.0574 209.712 61.2628 209.539 61.4358C209.367 61.6089 209.162 61.7461 208.937 61.8397C208.712 61.9334 208.47 61.9815 208.226 61.9815V61.9815Z" fill="black"/>
<path opacity="0.2" d="M220.606 62.8688C220.356 62.8689 220.108 62.8181 219.878 62.7194C219.648 62.6207 219.44 62.4763 219.267 62.2947V62.875C219.267 63.4617 219.035 64.0243 218.621 64.4392C218.208 64.854 217.647 65.087 217.063 65.087C216.478 65.087 215.917 64.854 215.504 64.4392C215.09 64.0243 214.858 63.4617 214.858 62.875V62.3914C214.592 62.6321 214.261 62.7901 213.907 62.8461C213.552 62.9022 213.19 62.854 212.862 62.7073C212.534 62.5606 212.256 62.3218 212.061 62.0197C211.866 61.7177 211.763 61.3654 211.763 61.0055L211.675 55.593V56.7465L211.763 62.159C211.763 62.5189 211.866 62.8712 212.061 63.1732C212.256 63.4753 212.534 63.7141 212.862 63.8608C213.19 64.0074 213.552 64.0557 213.907 63.9996C214.261 63.9435 214.592 63.7856 214.858 63.5449V64.0285C214.858 64.6152 215.09 65.1778 215.504 65.5926C215.917 66.0075 216.478 66.2405 217.063 66.2405C217.647 66.2405 218.208 66.0075 218.621 65.5926C219.035 65.1778 219.267 64.6152 219.267 64.0285V63.4482C219.523 63.7167 219.854 63.9021 220.216 63.9805C220.578 64.0588 220.956 64.0266 221.299 63.8879C221.643 63.7492 221.938 63.5104 222.145 63.2023C222.353 62.8941 222.463 62.5308 222.463 62.159V61.0055C222.463 61.2502 222.415 61.4925 222.322 61.7186C222.228 61.9447 222.092 62.1501 221.919 62.3231C221.747 62.4961 221.542 62.6334 221.317 62.727C221.091 62.8207 220.85 62.8688 220.606 62.8688V62.8688Z" fill="black"/>
<path opacity="0.2" d="M201.683 61.9815C201.401 61.9815 201.124 61.9173 200.871 61.7937C200.618 61.6701 200.397 61.4903 200.223 61.2681C199.93 61.6448 199.503 61.8934 199.031 61.9622C198.559 62.031 198.079 61.9146 197.691 61.6372V62.7907C198.079 63.068 198.559 63.1844 199.031 63.1157C199.503 63.0469 199.93 62.7983 200.223 62.4216C200.462 62.7266 200.789 62.9494 201.159 63.059C201.53 63.1686 201.925 63.1594 202.29 63.0328C202.655 62.9063 202.972 62.6686 203.196 62.3529C203.42 62.0372 203.54 61.6592 203.539 61.2717L203.678 56.7465V55.593L203.539 60.1182C203.539 60.3629 203.491 60.6052 203.398 60.8313C203.305 61.0574 203.168 61.2628 202.996 61.4358C202.823 61.6088 202.618 61.7461 202.393 61.8397C202.168 61.9334 201.926 61.9815 201.683 61.9815V61.9815Z" fill="black"/>
<path opacity="0.2" d="M206.142 53.2798C206.142 52.952 206.012 52.6376 205.781 52.4058C205.55 52.174 205.237 52.0438 204.91 52.0438C204.584 52.0438 204.27 52.174 204.039 52.4058C203.808 52.6376 203.678 52.952 203.678 53.2798V54.4333C203.678 54.1055 203.808 53.7911 204.039 53.5593C204.27 53.3275 204.584 53.1973 204.91 53.1973C205.237 53.1973 205.55 53.3275 205.781 53.5593C206.012 53.7911 206.142 54.1055 206.142 54.4333V53.2798Z" fill="black"/>
<path d="M185.545 53.5079H185.103V55.9036H185.545V53.5079Z" fill="#3F3D56"/>
<path d="M193.901 52.2213H193.459V54.617H193.901V52.2213Z" fill="#3F3D56"/>
<path d="M217.246 53.641H216.804V56.0367H217.246V53.641Z" fill="#3F3D56"/>
<path d="M183.29 61.6266H182.848V64.0223H183.29V61.6266Z" fill="#3F3D56"/>
<path d="M201.35 57.4404L200.986 57.188L199.628 59.1581L199.991 59.4105L201.35 57.4404Z" fill="#3F3D56"/>
<path d="M177.937 53.6555L177.663 54.0034L179.535 55.4899L179.809 55.142L177.937 53.6555Z" fill="#3F3D56"/>
<path d="M203.934 44.6938L203.66 45.0417L205.532 46.5283L205.807 46.1803L203.934 44.6938Z" fill="#3F3D56"/>
<path d="M173.073 56.1407L172.799 56.4886L174.671 57.9751L174.945 57.6272L173.073 56.1407Z" fill="#3F3D56"/>
<path d="M187.181 47.8737H186.739V50.2693H187.181V47.8737Z" fill="white"/>
<path d="M175.066 60.2069H174.624V62.6026H175.066V60.2069Z" fill="white"/>
<path d="M195.758 44.4132H195.316V46.8089H195.758V44.4132Z" fill="white"/>
<path d="M216.98 59.4084H216.538V61.8041H216.98V59.4084Z" fill="white"/>
<path d="M198.215 52.803L197.82 52.604L196.749 54.7453L197.145 54.9442L198.215 52.803Z" fill="white"/>
<path d="M196.181 61.6759L195.786 61.4769L194.715 63.6182L195.111 63.8172L196.181 61.6759Z" fill="white"/>
<path d="M220.587 57.6831L220.192 57.4841L219.121 59.6254L219.517 59.8244L220.587 57.6831Z" fill="white"/>
<path d="M190.104 56.8062L189.81 57.1382L191.597 58.7275L191.89 58.3955L190.104 56.8062Z" fill="white"/>
<path d="M181.349 46.425L181.056 46.757L182.843 48.3462L183.136 48.0143L181.349 46.425Z" fill="white"/>
<path d="M210.442 50.4178L210.149 50.7498L211.935 52.339L212.229 52.0071L210.442 50.4178Z" fill="white"/>
<path d="M199.742 42.6096L199.449 42.9415L201.235 44.5308L201.529 44.1988L199.742 42.6096Z" fill="white"/>
<path d="M190.541 52.2213H190.099V54.617H190.541V52.2213Z" fill="#FF6584"/>
<path d="M215.484 53.7342L215.077 53.5608L214.144 55.766L214.551 55.9393L215.484 53.7342Z" fill="#FF6584"/>
<path d="M181.691 56.0863L181.308 56.3081L182.501 58.3828L182.884 58.161L181.691 56.0863Z" fill="#FF6584"/>
<path d="M206.981 54.4004L206.598 54.6222L207.792 56.6969L208.175 56.4751L206.981 54.4004Z" fill="#FF6584"/>
<path d="M191.241 45.6162L190.858 45.838L192.052 47.9127L192.435 47.6909L191.241 45.6162Z" fill="#FF6584"/>
<path d="M209.987 45.1726L209.604 45.3944L210.798 47.4691L211.181 47.2473L209.987 45.1726Z" fill="#FF6584"/>
<path d="M185.67 43.2206L185.287 43.4424L186.481 45.5171L186.864 45.2953L185.67 43.2206Z" fill="#FF6584"/>
<path d="M201.594 47.4299H201.152V49.8256H201.594V47.4299Z" fill="#FF6584"/>
<path d="M176.127 51.4227H175.685V53.8184H176.127V51.4227Z" fill="#FF6584"/>
<path d="M89.8183 138.954C95.7011 138.954 100.47 134.169 100.47 128.266C100.47 122.363 95.7011 117.578 89.8183 117.578C83.9355 117.578 79.1665 122.363 79.1665 128.266C79.1665 134.169 83.9355 138.954 89.8183 138.954Z" fill="#2F2E41"/>
<path d="M93.9322 141.955L97.1165 141.377L96.0837 135.652L92.8994 136.231L93.9322 141.955Z" fill="#2F2E41"/>
<path d="M87.5638 143.112L90.748 142.533L89.7153 136.809L86.531 137.387L87.5638 143.112Z" fill="#2F2E41"/>
<path d="M89.2541 144.317C90.3906 143.351 91.0193 142.221 90.6584 141.794C90.2974 141.366 89.0835 141.802 87.947 142.768C86.8105 143.734 86.1818 144.863 86.5427 145.291C86.9036 145.719 88.1176 145.282 89.2541 144.317Z" fill="#2F2E41"/>
<path d="M95.4899 143.184C96.6264 142.218 97.2551 141.088 96.8942 140.661C96.5333 140.233 95.3194 140.669 94.1828 141.635C93.0463 142.601 92.4176 143.731 92.7785 144.158C93.1395 144.586 94.3534 144.15 95.4899 143.184Z" fill="#2F2E41"/>
<path d="M89.0726 129.304C91.0832 129.304 92.7131 127.669 92.7131 125.651C92.7131 123.634 91.0832 121.998 89.0726 121.998C87.062 121.998 85.4321 123.634 85.4321 125.651C85.4321 127.669 87.062 129.304 89.0726 129.304Z" fill="white"/>
<path d="M87.5763 125.56C88.2465 125.56 88.7898 125.014 88.7898 124.342C88.7898 123.669 88.2465 123.124 87.5763 123.124C86.9061 123.124 86.3628 123.669 86.3628 124.342C86.3628 125.014 86.9061 125.56 87.5763 125.56Z" fill="#3F3D56"/>
<path d="M98.2211 116.638C98.3813 112.681 94.9826 109.33 90.6299 109.152C86.2773 108.975 82.6189 112.039 82.4587 115.996C82.2985 119.953 85.3242 120.852 89.6769 121.029C94.0295 121.206 98.0609 120.595 98.2211 116.638Z" fill="#CFCCE0"/>
<path d="M85.174 127.512C85.3803 126.609 83.2234 125.343 80.3563 124.683C77.4893 124.024 74.9978 124.221 74.7915 125.124C74.5852 126.028 76.7422 127.294 79.6092 127.954C82.4763 128.613 84.9677 128.416 85.174 127.512Z" fill="#2F2E41"/>
<path d="M106.083 131.002C106.29 130.098 104.133 128.832 101.266 128.172C98.3985 127.513 95.907 127.71 95.7007 128.614C95.4944 129.517 97.6514 130.783 100.518 131.443C103.385 132.102 105.877 131.905 106.083 131.002Z" fill="#2F2E41"/>
<path d="M92.7438 132.478C92.8008 132.793 92.7954 133.115 92.728 133.428C92.6605 133.741 92.5323 134.037 92.3507 134.3C92.1691 134.563 91.9376 134.788 91.6695 134.961C91.4014 135.134 91.102 135.252 90.7882 135.309C90.4745 135.366 90.1526 135.361 89.841 135.293C89.5295 135.225 89.2343 135.096 88.9723 134.914C88.7103 134.731 88.4868 134.499 88.3144 134.23C88.1419 133.961 88.0241 133.66 87.9675 133.345C87.7287 132.022 88.7485 131.554 90.0674 131.314C91.3864 131.074 92.505 131.154 92.7438 132.478Z" fill="white"/>
<path d="M150.362 91.1853C151.438 88.3591 151.594 85.7931 150.71 85.454C149.826 85.1149 148.236 87.1311 147.16 89.9572C146.083 92.7834 145.927 95.3494 146.812 95.6885C147.696 96.0276 149.285 94.0114 150.362 91.1853Z" fill="#2F2E41"/>
<path d="M142.4 141.285C148.431 141.285 153.319 136.379 153.319 130.328C153.319 124.277 148.431 119.371 142.4 119.371C136.37 119.371 131.481 124.277 131.481 130.328C131.481 136.379 136.37 141.285 142.4 141.285Z" fill="#2F2E41"/>
<path d="M140.742 138.927H137.424V144.89H140.742V138.927Z" fill="#2F2E41"/>
<path d="M147.376 138.927H144.059V144.89H147.376V138.927Z" fill="#2F2E41"/>
<path d="M140.189 146C141.715 146 142.953 145.534 142.953 144.96C142.953 144.385 141.715 143.92 140.189 143.92C138.662 143.92 137.424 144.385 137.424 144.96C137.424 145.534 138.662 146 140.189 146Z" fill="#2F2E41"/>
<path d="M146.823 145.861C148.35 145.861 149.588 145.396 149.588 144.821C149.588 144.247 148.35 143.781 146.823 143.781C145.296 143.781 144.059 144.247 144.059 144.821C144.059 145.396 145.296 145.861 146.823 145.861Z" fill="#2F2E41"/>
<path d="M142.676 131.299C144.738 131.299 146.408 129.622 146.408 127.554C146.408 125.486 144.738 123.809 142.676 123.809C140.615 123.809 138.945 125.486 138.945 127.554C138.945 129.622 140.615 131.299 142.676 131.299Z" fill="white"/>
<path d="M142.677 128.802C143.364 128.802 143.921 128.243 143.921 127.554C143.921 126.865 143.364 126.306 142.677 126.306C141.99 126.306 141.433 126.865 141.433 127.554C141.433 128.243 141.99 128.802 142.677 128.802Z" fill="#3F3D56"/>
<path d="M131.808 120.139C130.926 116.177 133.745 112.173 138.103 111.197C142.461 110.22 146.709 112.64 147.591 116.602C148.472 120.564 145.584 122.026 141.226 123.002C136.867 123.979 132.69 124.101 131.808 120.139Z" fill="#CFCCE0"/>
<path d="M138.668 109.802C144.699 109.802 149.588 104.896 149.588 98.8451C149.588 92.794 144.699 87.8885 138.668 87.8885C132.638 87.8885 127.749 92.794 127.749 98.8451C127.749 104.896 132.638 109.802 138.668 109.802Z" fill="#2F2E41"/>
<path d="M137.01 107.444H133.692V113.408H137.01V107.444Z" fill="#2F2E41"/>
<path d="M143.644 107.444H140.327V113.408H143.644V107.444Z" fill="#2F2E41"/>
<path d="M136.457 114.517C137.983 114.517 139.221 114.051 139.221 113.477C139.221 112.902 137.983 112.437 136.457 112.437C134.93 112.437 133.692 112.902 133.692 113.477C133.692 114.051 134.93 114.517 136.457 114.517Z" fill="#2F2E41"/>
<path d="M143.091 114.378C144.618 114.378 145.856 113.913 145.856 113.338C145.856 112.764 144.618 112.298 143.091 112.298C141.565 112.298 140.327 112.764 140.327 113.338C140.327 113.913 141.565 114.378 143.091 114.378Z" fill="#2F2E41"/>
<path d="M138.945 99.816C141.006 99.816 142.676 98.1394 142.676 96.0713C142.676 94.0032 141.006 92.3267 138.945 92.3267C136.883 92.3267 135.213 94.0032 135.213 96.0713C135.213 98.1394 136.883 99.816 138.945 99.816Z" fill="white"/>
<path d="M138.945 97.3196C139.632 97.3196 140.189 96.7607 140.189 96.0713C140.189 95.382 139.632 94.8231 138.945 94.8231C138.258 94.8231 137.701 95.382 137.701 96.0713C137.701 96.7607 138.258 97.3196 138.945 97.3196Z" fill="#3F3D56"/>
<path d="M128.076 88.6558C127.195 84.6937 130.013 80.6902 134.371 79.7137C138.73 78.7372 142.977 81.1575 143.859 85.1196C144.741 89.0816 141.852 90.5429 137.494 91.5194C133.136 92.4959 128.958 92.6178 128.076 88.6558Z" fill="#CFCCE0"/>
<path d="M131.302 96.1089C131.708 95.2507 129.828 93.5039 127.104 92.2073C124.38 90.9108 121.842 90.5555 121.437 91.4136C121.031 92.2718 122.911 94.0186 125.635 95.3151C128.359 96.6117 130.897 96.967 131.302 96.1089Z" fill="#2F2E41"/>
<path d="M133.305 102.798C133.305 103.87 136.056 105.988 139.11 105.988C142.163 105.988 145.026 102.969 145.026 101.896C145.026 100.824 142.163 102.104 139.11 102.104C136.056 102.104 133.305 101.725 133.305 102.798Z" fill="white"/>
<path d="M170.555 113.895C171.395 113.895 172.076 113.212 172.076 112.368C172.076 111.525 171.395 110.842 170.555 110.842C169.715 110.842 169.034 111.525 169.034 112.368C169.034 113.212 169.715 113.895 170.555 113.895Z" fill="#E90E12"/>
<path d="M174.698 101.572C175.539 101.572 176.22 100.889 176.22 100.046C176.22 99.2029 175.539 98.5195 174.698 98.5195C173.858 98.5195 173.177 99.2029 173.177 100.046C173.177 100.889 173.858 101.572 174.698 101.572Z" fill="#E90E12"/>
<path d="M170.91 95.2736C171.75 95.2736 172.431 94.5902 172.431 93.7471C172.431 92.9041 171.75 92.2207 170.91 92.2207C170.07 92.2207 169.389 92.9041 169.389 93.7471C169.389 94.5902 170.07 95.2736 170.91 95.2736Z" fill="#E90E12"/>
<path d="M157.778 136.477L158.597 139.448L163.9 137.977L163.082 135.006L157.778 136.477Z" fill="#2F2E41"/>
<path d="M158.145 139.972C158.656 139.83 158.765 138.607 158.389 137.24C158.012 135.873 157.293 134.88 156.782 135.021C156.271 135.163 156.162 136.386 156.539 137.753C156.915 139.12 157.635 140.113 158.145 139.972Z" fill="#2F2E41"/>
<path d="M174.519 126.262C174.894 123.487 174.494 121.141 173.626 121.023C172.757 120.905 171.749 123.059 171.374 125.835C170.999 128.61 171.4 130.956 172.268 131.074C173.136 131.192 174.144 129.038 174.519 126.262Z" fill="#2F2E41"/>
<path d="M171.957 145.687C177.54 145.687 182.066 141.145 182.066 135.543C182.066 129.941 177.54 125.4 171.957 125.4C166.374 125.4 161.848 129.941 161.848 135.543C161.848 141.145 166.374 145.687 171.957 145.687Z" fill="#2F2E41"/>
<path d="M157.778 134.68L158.597 137.65L163.9 136.179L163.082 133.209L157.778 134.68Z" fill="#2F2E41"/>
<path d="M158.145 138.176C158.656 138.034 158.765 136.811 158.388 135.444C158.012 134.077 157.292 133.084 156.781 133.225C156.271 133.367 156.162 134.59 156.538 135.957C156.915 137.324 157.634 138.317 158.145 138.176Z" fill="#2F2E41"/>
<path d="M174.612 133.199C176.52 133.199 178.067 131.647 178.067 129.733C178.067 127.818 176.52 126.266 174.612 126.266C172.704 126.266 171.157 127.818 171.157 129.733C171.157 131.647 172.704 133.199 174.612 133.199Z" fill="white"/>
<path d="M175.716 129.357C176.352 129.357 176.868 128.839 176.868 128.201C176.868 127.563 176.352 127.046 175.716 127.046C175.08 127.046 174.565 127.563 174.565 128.201C174.565 128.839 175.08 129.357 175.716 129.357Z" fill="#3F3D56"/>
<path d="M183.631 142.514C187.372 142.326 190.237 138.815 190.03 134.672C189.823 130.529 186.623 127.322 182.883 127.51C179.142 127.698 178.555 130.645 178.761 134.788C178.968 138.931 179.89 142.702 183.631 142.514Z" fill="#CFCCE0"/>
<path d="M167.826 131.252C167.217 131.301 166.613 131.106 166.148 130.709C165.683 130.312 165.393 129.745 165.344 129.135C165.295 128.524 165.49 127.918 165.885 127.451C166.281 126.984 166.845 126.694 167.454 126.644C168.722 126.541 169.068 127.552 169.17 128.824C169.273 130.096 169.094 131.149 167.826 131.252Z" fill="white"/>
<path d="M170.725 128.673C171.1 125.897 170.7 123.551 169.831 123.433C168.963 123.315 167.955 125.469 167.58 128.245C167.205 131.021 167.605 133.366 168.474 133.484C169.342 133.603 170.35 131.448 170.725 128.673Z" fill="#2F2E41"/>
<path d="M169.795 123.817C170.635 123.817 171.316 123.133 171.316 122.29C171.316 121.447 170.635 120.764 169.795 120.764C168.955 120.764 168.273 121.447 168.273 122.29C168.273 123.133 168.955 123.817 169.795 123.817Z" fill="#E90E12"/>
<path d="M160.93 87.1774C160.965 86.9089 160.942 86.6361 160.863 86.3772C160.784 86.1184 160.651 85.8795 160.472 85.6766C160.293 85.4737 160.074 85.3116 159.827 85.2011C159.581 85.0906 159.314 85.0343 159.044 85.036H158.442C158.588 84.762 158.664 84.4562 158.664 84.1456C158.662 83.64 158.462 83.1555 158.105 82.798C157.749 82.4405 157.266 82.239 156.762 82.2375H150.424C149.919 82.2375 149.436 82.4386 149.079 82.7964C148.723 83.1542 148.522 83.6395 148.522 84.1456C148.522 84.6516 148.723 85.137 149.079 85.4948C149.436 85.8526 149.919 86.0536 150.424 86.0536H151.026C150.88 86.3276 150.804 86.6334 150.804 86.9441C150.805 87.3409 150.93 87.7274 151.16 88.0502C151.39 88.373 151.714 88.6162 152.088 88.7459C152.053 89.0144 152.075 89.2872 152.154 89.5461C152.233 89.805 152.367 90.0439 152.545 90.2468C152.724 90.4497 152.944 90.6118 153.19 90.7223C153.436 90.8328 153.704 90.8891 153.973 90.8873H160.312C160.762 90.8877 161.197 90.7279 161.541 90.4363C161.884 90.1447 162.113 89.7404 162.187 89.2951C162.262 88.8499 162.176 88.3927 161.946 88.0049C161.715 87.6171 161.355 87.3239 160.93 87.1774V87.1774Z" fill="#E90E12"/>
<path d="M75.8755 100.963L75.738 100.825L74.9955 101.57L75.133 101.708L75.8755 100.963Z" fill="#3F3D56"/>
</g>
<defs>
<clipPath id="clip0_32_3949">
<rect width="226" height="146" fill="white"/>
</clipPath>
</defs>
</svg>
