<svg width="176" height="176" viewBox="0 0 176 176" fill="none" xmlns="http://www.w3.org/2000/svg">
<g clip-path="url(#clip0_27_1011)">
<path d="M176 87.9165C176.011 97.928 174.308 107.868 170.962 117.305C170.948 117.349 170.933 117.388 170.916 117.432V117.434C168.411 124.455 165.018 131.128 160.82 137.29C160.093 138.363 159.34 139.419 158.561 140.458C157.704 141.606 156.82 142.732 155.908 143.834C155.068 144.851 154.205 145.849 153.321 146.827C152.269 147.992 151.186 149.127 150.072 150.233C147.45 152.842 144.666 155.283 141.736 157.542C141.222 157.941 140.702 158.333 140.177 158.717C138.954 159.62 137.707 160.49 136.435 161.328C133.638 163.175 130.737 164.859 127.746 166.373C127.23 166.636 126.709 166.895 126.187 167.146C124.166 168.121 122.103 169.018 120 169.838C119.4 170.073 118.798 170.301 118.189 170.52C118.087 170.56 117.985 170.598 117.88 170.633C110.667 173.234 103.143 174.875 95.5018 175.516C94.9709 175.564 94.4393 175.604 93.9069 175.637C93.3426 175.676 92.7775 175.708 92.2117 175.733C91.7644 175.756 91.3192 175.772 90.8698 175.785C90.7778 175.789 90.6838 175.793 90.5918 175.793C89.9877 175.812 89.3815 175.824 88.7733 175.829C88.5162 175.831 88.259 175.833 87.9999 175.833C87.8786 175.833 87.7574 175.833 87.6361 175.831C85.8824 175.825 84.1419 175.768 82.4147 175.66C82.3791 175.658 82.3436 175.653 82.3081 175.653C81.6894 175.612 81.0727 175.568 80.4582 175.513C78.2697 175.33 76.1049 175.065 73.9637 174.72C73.4704 174.643 72.9785 174.559 72.488 174.469C70.358 174.093 68.2559 173.64 66.1817 173.11C65.5651 172.953 64.9519 172.79 64.3423 172.619C55.8662 170.26 47.7949 166.637 40.4004 161.873C39.1295 161.056 37.8824 160.207 36.6589 159.325C36.5084 159.221 36.3599 159.112 36.2115 159.004C33.2395 156.839 30.4058 154.49 27.7272 151.972C26.4584 150.782 25.2265 149.554 24.0316 148.289C8.56938 131.987 -0.03378 110.374 -0.000145892 87.9165C-0.000145892 39.3619 39.3992 0 87.9999 0C136.601 0 176 39.3619 176 87.9165Z" fill="#F2F2F2"/>
<path d="M98.7356 22.413C100.498 19.5016 102.585 16.3932 105.855 15.4425C109.642 14.3416 113.532 16.5286 116.831 18.6867C126.698 25.1409 136.2 32.1354 145.294 39.6382L145.284 39.7512C138.204 39.2635 131.124 38.7757 124.045 38.2879C118.929 37.9355 113.638 37.5345 109.118 35.1169C107.403 34.1996 105.73 32.9741 103.787 32.8888C101.372 32.7827 99.2659 34.4677 97.6112 36.2281C87.8225 46.6418 84.9899 62.5668 74.0081 71.716C80.9329 54.6544 89.2013 38.1683 98.7356 22.413Z" fill="white"/>
<path d="M38.5665 110.74C39.649 109.374 40.0913 109.054 41.1591 107.676C49.8531 96.4424 58.0248 84.8291 65.6742 72.8364C70.8699 64.6914 75.808 56.39 80.4885 47.9322C82.7168 43.9113 84.8839 39.8588 86.99 35.7747C88.6243 32.608 90.2221 29.4224 91.7835 26.2179C92.23 25.3026 92.6639 24.3831 93.0956 23.4615C94.1129 21.2943 95.1112 19.1165 96.1832 16.9788C97.4047 14.5422 98.8916 11.9878 101.135 10.3508C102.155 9.57527 103.376 9.106 104.654 8.99789C106.48 8.88006 108.165 9.63333 109.749 10.456C121.336 16.4927 132.185 24.0612 141.997 32.6733C151.835 41.3047 160.628 51.0562 168.197 61.7288C168.429 62.0592 168.976 61.7436 168.743 61.4111C167.822 60.1108 166.884 58.8245 165.927 57.5522C157.986 46.994 148.828 37.4069 138.642 28.989C133.599 24.8205 128.319 20.9473 122.828 17.3891C120.033 15.5795 117.185 13.8549 114.285 12.2151C112.824 11.3881 111.356 10.5718 109.862 9.80587C108.399 9.05471 106.844 8.37928 105.172 8.35403C99.4813 8.26567 96.5349 14.7042 94.5109 19.0366C93.8749 20.4 93.2311 21.7593 92.5796 23.1143C90.1176 28.2588 87.5608 33.3564 84.9092 38.407C83.2728 41.5252 81.6005 44.6253 79.8924 47.7071C74.5767 57.3039 68.9267 66.7065 62.9425 75.9147C55.0151 88.1122 47.151 98.8873 38.12 110.294C37.8715 110.609 38.3158 111.06 38.5665 110.74Z" fill="white"/>
<path d="M70.0626 59.54L61.5841 56.442L57.3745 54.9037C56.0035 54.4027 54.6358 53.8324 53.2185 53.4737C51.9654 53.1566 50.6922 53.1047 49.4568 53.5216C48.3668 53.9247 47.369 54.5426 46.5228 55.3387C45.6583 56.134 44.854 56.9922 44.1163 57.9062C43.1998 59.0066 42.2969 60.1185 41.3898 61.2267C37.6464 65.8005 33.9274 70.3941 30.2329 75.0075C26.5385 79.6209 22.8688 84.2539 19.2238 88.9065C15.5699 93.5704 11.9411 98.2539 8.33746 102.957C7.896 103.533 7.45493 104.109 7.01423 104.686C6.77075 105.005 6.22174 104.691 6.46867 104.368C10.0989 99.6173 13.7545 94.8864 17.4353 90.1751C21.1252 85.4525 24.8406 80.7499 28.5815 76.0673C32.3223 71.3848 36.0884 66.7227 39.8798 62.0808C40.8243 60.9244 41.7705 59.7692 42.7181 58.6153C43.5175 57.642 44.3079 56.6582 45.1847 55.7522C46.7941 54.0893 48.8049 52.6197 51.2118 52.5798C52.6269 52.5564 53.9965 53.005 55.3113 53.4802C56.7287 53.9925 58.1427 54.5144 59.5583 55.0316L68.0961 58.1514L70.2305 58.9314C70.6093 59.0698 70.4457 59.68 70.0626 59.54V59.54Z" fill="white"/>
<path d="M46.8419 59.571C47.6765 58.556 48.5789 57.4933 49.8272 57.0811L50.9927 57.127C42.1206 72.7893 30.1382 86.475 15.781 97.344C26.1346 84.753 36.4883 72.162 46.8419 59.571Z" fill="white"/>
<path d="M103.519 43.3552C103.519 44.9556 103.127 46.5317 102.375 47.9451C101.624 49.3585 100.536 50.566 99.2088 51.4617C97.8812 52.3573 96.3538 52.9136 94.7608 53.0819C93.1677 53.2501 91.5577 53.0251 90.072 52.4265C88.5863 51.828 87.2704 50.8742 86.2398 49.649C85.2092 48.4237 84.4954 46.9645 84.1611 45.3993C83.8267 43.8341 83.8821 42.2109 84.3223 40.6721C84.7625 39.1333 85.5741 37.726 86.6858 36.5737C86.7015 36.558 86.7171 36.5424 86.7328 36.5268C86.811 36.4446 86.8894 36.3625 86.9716 36.2843C86.9721 36.2843 86.9726 36.2842 86.9731 36.284C86.9736 36.2838 86.974 36.2835 86.9743 36.2831C86.9747 36.2828 86.975 36.2823 86.9752 36.2818C86.9754 36.2814 86.9755 36.2809 86.9755 36.2803C87.0772 36.1865 87.179 36.0926 87.2847 36.0027C88.6989 34.7641 90.4404 33.9589 92.3008 33.6835C94.1611 33.4081 96.0615 33.6743 97.7744 34.4501C99.4873 35.2258 100.94 36.4784 101.959 38.0577C102.978 39.6371 103.519 41.4763 103.519 43.3552V43.3552Z" fill="#2F2E41"/>
<path d="M97.1238 51.4147C100.329 48.2129 100.329 43.0218 97.1238 39.8201C93.919 36.6183 88.723 36.6183 85.5181 39.8201C82.3133 43.0218 82.3133 48.2129 85.5181 51.4147C88.723 54.6164 93.919 54.6164 97.1238 51.4147Z" fill="#9E616A"/>
<path d="M97.1847 37.7331C95.9133 36.5445 94.3321 35.7385 92.6227 35.4075C90.9134 35.0765 89.1452 35.234 87.5214 35.862C87.4733 35.8808 87.4253 35.9016 87.3772 35.9246C87.3751 35.9246 87.3751 35.9267 87.373 35.9267C87.2162 35.9914 87.0574 36.0583 86.9048 36.1314L86.8107 36.1773V36.1898C86.794 36.2024 86.7752 36.217 86.7564 36.2295C86.7179 36.2653 86.6713 36.2911 86.6205 36.3047C85.0424 36.3256 83.7569 36.8602 82.8037 37.8939C81.5307 39.2721 80.9329 41.5003 81.1169 44.1691L81.121 44.2506L81.1921 44.2965C81.8652 44.7163 82.5027 45.0859 83.1172 45.4096C83.481 45.6038 83.8342 45.7813 84.1854 45.9442C84.2272 45.963 84.269 45.9839 84.3108 46.0026C87.8642 47.6419 91.1146 47.9385 94.2374 46.9006L94.296 46.8818L95.6233 44.6599C95.76 45.419 96.1256 46.1183 96.6709 46.6643C97.2163 47.2102 97.9155 47.5768 98.6751 47.715L99.2269 47.8132L100.036 47.9552L100.069 47.8027C100.872 44.19 99.7118 40.145 97.1847 37.7331Z" fill="#2F2E41"/>
<path d="M117.344 54.9408C114.552 53.5007 118.143 48.2742 117.422 45.2185C116.7 42.1627 111.503 41.1799 111.172 38.0576C110.841 34.9354 110.062 31.7152 108 29.346C106.682 27.8321 104.74 26.7145 102.741 26.9042C102.064 26.9683 101.41 27.1774 100.822 27.5171C100.233 27.8568 99.7252 28.3191 99.332 28.8727C98.9387 29.4262 98.6695 30.058 98.5426 30.7248C98.4158 31.3917 98.4342 32.0781 98.5968 32.7372C98.0276 31.9314 96.5546 32.106 96.19 33.0226C95.8658 33.8373 96.5819 34.8243 97.4247 34.8964C98.5274 36.2569 99.7902 37.7008 101.518 37.9753C102.074 38.0637 102.7 37.9989 103.106 37.609C103.513 37.219 103.544 36.4394 103.062 36.148C105.233 37.0097 106.506 39.3548 106.828 41.6665C107.151 43.9781 106.705 46.317 106.411 48.6324C106.117 50.9478 105.991 53.3836 106.9 55.5337C107.973 58.0741 110.445 59.8949 113.143 60.4788C115.841 61.0627 118.713 60.492 121.155 59.2063C123.597 57.9204 125.633 55.9575 127.297 53.7569C124.431 55.7896 120.467 56.5511 117.344 54.9408Z" fill="#2F2E41"/>
<path d="M85.6156 89.3789L79.9473 128.049L110.889 125.719L101.628 87.6769L85.6156 89.3789Z" fill="#FFB8B8"/>
<path d="M117.985 170.238C117.957 170.372 117.922 170.504 117.88 170.633C114.309 171.923 110.657 172.977 106.948 173.789C106.166 171.22 104.668 166.356 103.355 162.378C102.283 159.131 101.336 156.475 101.005 156.143C100.088 155.23 101.005 154.013 101.005 154.013L97.0862 141.84L95.3054 136.31L94.695 147.927L93.8087 164.755L93.7836 165.227C93.7836 165.227 92.5629 168.879 93.1733 169.489C93.7836 170.099 92.5629 172.536 92.5629 172.536L92.2118 175.733C91.7645 175.756 91.3192 175.772 90.8698 175.785L90.7172 175.833L90.5918 175.793C89.9877 175.812 89.3816 175.824 88.7733 175.829C88.5162 175.831 88.2591 175.833 87.9999 175.833C87.8787 175.833 87.7574 175.833 87.6362 175.831C85.8825 175.825 84.142 175.768 82.4147 175.66L81.3424 166.941L80.2346 157.932C80.2346 157.932 81.4532 155.499 80.2346 154.282C79.5009 153.549 79.8688 152.484 80.2806 151.753C80.0255 150.623 79.6765 148.886 79.2062 146.313C79.1894 146.227 79.1748 146.14 79.1581 146.052C79.0097 145.235 78.8766 144.435 78.7588 143.65C78.5498 142.27 78.3868 140.944 78.2614 139.674C77.836 135.562 77.7773 131.42 78.0858 127.297C78.2028 125.831 78.3491 124.758 78.4453 124.138C78.4537 124.079 78.5435 123.751 78.6899 123.233C78.9198 122.404 79.2981 121.089 79.7225 119.617C79.9482 118.836 80.1865 118.011 80.4227 117.19C80.8345 115.768 81.2442 114.358 81.5744 113.218V113.212C81.865 112.211 82.097 111.422 82.2182 111.009C82.2768 110.806 82.3081 110.695 82.3081 110.695C82.3081 110.695 82.3729 110.681 82.4962 110.654C82.8787 110.566 83.8235 110.355 85.1321 110.073C86.497 109.785 88.2549 109.419 90.1863 109.048C91.8397 108.73 93.6206 108.407 95.3911 108.116C96.0265 108.014 96.6619 107.914 97.289 107.82C101.162 107.243 104.718 106.916 106.403 107.289C106.519 107.314 106.634 107.346 106.747 107.383C106.862 107.421 106.972 107.471 107.076 107.532C107.128 107.563 107.634 109.534 108.28 112.103C108.286 112.128 108.292 112.155 108.298 112.18C108.493 112.957 108.7 113.784 108.911 114.63C109.126 115.492 109.344 116.371 109.557 117.228C110.19 119.771 110.775 122.125 111.076 123.277C111.191 123.724 111.267 123.989 111.283 124.019C111.99 125.194 112.567 128.076 113.035 131.691C113.453 134.917 113.785 138.728 114.042 142.431C114.17 144.262 114.279 146.069 114.371 147.764C114.682 153.47 114.807 157.924 114.807 157.924C114.807 157.924 115.274 161.637 116.2 163.389C116.314 163.615 116.459 163.824 116.632 164.009C117.249 164.625 117.32 165.16 117.238 165.54C117.203 165.719 117.129 165.889 117.021 166.037C116.997 166.073 116.969 166.107 116.94 166.139C116.86 166.517 116.874 166.909 116.98 167.28C117.087 167.651 117.282 167.991 117.55 168.269C118.141 168.864 118.093 169.716 117.985 170.238Z" fill="#2F2E41"/>
<path d="M107.849 76.976C107.814 76.7129 107.776 76.4476 107.736 76.1803C107.713 76.0091 107.686 75.8379 107.661 75.6687C107.396 73.9605 108.501 72.4987 107.069 71.3167C106.735 71.0446 106.462 70.7043 106.269 70.3186L105.941 69.6587L105.337 68.4349L104.016 65.7745L103.788 65.3171C103.723 65.1872 103.649 65.0623 103.566 64.9433C103.319 64.5851 102.998 64.2845 102.624 64.0621L99.3418 62.1074C98.8346 61.8068 98.4263 61.3648 98.1671 60.8357L98.0855 60.6686C97.7239 59.9273 97.0759 58.1543 96.3088 57.3838L96.3067 57.3817C96.1396 57.1907 95.9127 57.0619 95.6629 57.0162L92.3959 56.6925C91.8734 56.6395 91.3461 56.7231 90.8656 56.935C90.3852 57.147 89.9682 57.4801 89.6555 57.9017L89.5657 58.3089L89.041 60.6958L89.0117 60.702C88.8571 60.7375 88.7024 60.773 88.5498 60.8169C85.1615 61.742 83.7485 73.5763 83.7485 73.5763C83.7485 73.5763 81.376 77.4876 82.3083 79.9079L83.9721 83.8109C83.985 83.8405 83.9948 83.8713 84.0014 83.9028C84.1518 84.3276 84.2047 84.7808 84.1561 85.2289L84.1582 85.3813L84.1623 85.7175L84.1749 86.58L84.2146 89.4409L84.2648 93.0223L84.3087 96.0733L84.3233 96.8856L81.5829 108.799C81.5381 109.191 81.5709 109.587 81.6796 109.966C81.7883 110.345 81.9707 110.698 82.2163 111.007L82.2184 111.009C82.2786 111.086 82.3428 111.16 82.4107 111.23L82.4128 111.232C82.4776 111.299 82.5445 111.36 82.6134 111.42C82.9434 111.708 83.3326 111.921 83.7536 112.044C84.1746 112.166 84.6173 112.195 85.0507 112.128L85.4165 112.072H85.4186L90.7278 111.276H90.732L91.3466 111.184H91.3507L97.2934 110.292H97.2975L98.3155 110.138C98.397 110.127 98.4764 110.117 98.558 110.111L103.999 109.737C104.124 109.728 104.248 109.712 104.371 109.689H104.373C104.851 109.594 105.3 109.386 105.681 109.082C106.062 108.778 106.364 108.386 106.562 107.941C106.644 107.762 106.706 107.575 106.748 107.383C106.795 107.176 106.821 106.964 106.825 106.751L106.886 101.63L107.093 85.0827C107.097 84.5306 107.255 83.9905 107.548 83.5227C108.303 82.3199 108.217 79.7429 107.849 76.976Z" fill="#0EA5E9"/>
<path d="M98.7265 121.171C98.6499 120.749 98.667 120.315 98.7764 119.9C98.8857 119.486 99.0848 119.1 99.3595 118.77C99.6343 118.441 99.978 118.176 100.366 117.993C100.755 117.811 101.179 117.715 101.608 117.714L105.003 107.856L108.312 112.147L104.581 120.851C104.536 121.572 104.227 122.251 103.713 122.759C103.2 123.267 102.518 123.57 101.796 123.609C101.074 123.649 100.363 123.422 99.7976 122.973C99.2318 122.523 98.8507 121.882 98.7265 121.171H98.7265Z" fill="#9E616A"/>
<path d="M111.679 100.429L110.916 102.351L109.85 114.235C109.518 114.318 109.202 114.451 108.911 114.63C108.279 115.02 107.798 115.613 107.545 116.311C107.293 117.009 107.284 117.773 107.521 118.476L107.835 119.416L105.504 118.7L101.673 117.524L97.1555 116.137L97.9205 113.659C98.0976 113.089 98.1334 112.485 98.0249 111.899C97.9163 111.312 97.6667 110.761 97.2976 110.292C97.2062 110.176 97.1078 110.065 97.0029 109.96L97.2892 107.82L97.4585 106.548L95.3913 108.116L91.3487 111.184H91.3466L90.8115 111.591C90.8115 111.591 90.7822 111.483 90.7279 111.276C90.6255 110.877 90.4332 110.113 90.1865 109.048C88.965 103.741 88.0653 98.3647 87.4922 92.9492C87.3668 91.7297 87.2581 90.4809 87.1703 89.2133C87.0804 87.9081 87.0135 86.5842 86.978 85.2518C86.677 74.4074 88.345 63.0388 95.316 57.2251C95.6531 57.2274 95.9879 57.2809 96.3089 57.3838C99.1308 58.2504 102.226 62.4854 104.367 65.5155C104.873 66.2318 105.324 66.8792 105.707 67.3992L106.633 68.6584C107.897 70.3789 108.772 72.3533 109.197 74.445C109.287 74.8877 109.358 75.336 109.409 75.7899L110.42 85.0869V87.4821L111.679 100.429Z" fill="#0EA5E9"/>
<path d="M5.09814 117.095C6.91401 119.245 8.87807 121.265 10.976 123.141L165.149 123.35C167.247 121.474 169.211 119.454 171.027 117.304L5.09814 117.095Z" fill="#CCCCCC"/>
<path d="M88.7734 175.829C88.5163 175.831 88.2592 175.833 88 175.833C87.8787 175.833 87.7575 175.833 87.6363 175.831C85.8825 175.825 84.1421 175.767 82.4148 175.66L82.4566 176L82.3082 175.653L78.9951 167.948L81.3425 166.941L85.6484 165.093L86.9548 169.581L88.2048 173.878L88.5769 175.152L88.7734 175.829Z" fill="#FFB6B6"/>
<path d="M73.4246 166.883L72.4882 174.469C70.3582 174.093 68.2561 173.64 66.1819 173.11V166.885L73.4246 166.883Z" fill="#FFB6B6"/>
<path d="M40.4005 152.899V161.873C39.1296 161.056 37.8824 160.207 36.6589 159.325V152.899H40.4005Z" fill="#CACACA"/>
<path d="M54.8965 151.404V155.888C54.8963 156.714 54.5679 157.506 53.9836 158.09C53.3992 158.674 52.6066 159.003 51.78 159.004H36.2117C33.2396 156.839 30.406 154.49 27.7273 151.972C26.4585 150.782 25.2267 149.554 24.0317 148.289H51.78C52.6065 148.29 53.3989 148.618 53.9832 149.202C54.5675 149.787 54.896 150.578 54.8965 151.404Z" fill="#3F3D56"/>
<path d="M91.3821 175.622L90.87 175.785L90.7174 175.833L90.592 175.793C89.9879 175.812 89.3817 175.824 88.7734 175.829C88.5163 175.831 88.2592 175.833 88 175.833C87.8788 175.833 87.7576 175.833 87.6363 175.831C85.8826 175.825 84.1421 175.767 82.4149 175.66L82.4567 176L82.3082 175.653C81.6895 175.612 81.0729 175.568 80.4584 175.513L75.5943 167.375L65.5841 150.63L64.424 148.689C64.424 148.689 60.4671 149.859 54.8673 150.98C50.6471 151.828 45.4946 152.645 40.4006 152.912C39.1444 152.979 37.8923 153.012 36.659 153.002C33.4714 152.981 30.4092 152.682 27.7273 151.972C26.4586 150.782 25.2267 149.554 24.0318 148.289C21.9948 146.137 20.0679 143.883 18.2585 141.537C18.2341 140.676 18.2781 139.814 18.3902 138.96C18.409 138.818 18.4278 138.674 18.4508 138.528L19.0214 128.847L23.2605 128.287L29.711 127.435L36.6988 126.512L37.468 132.53C37.468 132.53 42.9089 132.255 49.8026 132.347C60.8747 132.497 75.6905 133.6 77.6971 138.332C77.8853 138.776 78.0734 139.225 78.2615 139.674C82.1577 148.999 85.7363 158.932 88.1673 165.991C88.6313 167.336 89.0514 168.574 89.4256 169.685C90.6609 173.354 91.3821 175.622 91.3821 175.622Z" fill="#2F2E41"/>
<path d="M79.5304 143.667C79.4279 144.553 79.3199 145.435 79.2064 146.313C78.203 154.084 76.8214 161.505 75.5944 167.375C74.9945 170.241 74.4301 172.734 73.964 174.72C73.4707 174.643 72.9788 174.559 72.4883 174.469C70.3583 174.093 68.2562 173.64 66.182 173.11C65.5653 172.953 64.9522 172.79 64.3425 172.619L65.5841 150.63L65.9938 143.356L78.7591 143.65L79.5304 143.667Z" fill="#2F2E41"/>
<path d="M100.055 109.655C100.588 109.358 101.179 109.181 101.787 109.137C102.395 109.093 103.005 109.183 103.575 109.4C104.145 109.617 104.66 109.956 105.084 110.393C105.508 110.831 105.832 111.356 106.031 111.932L120.851 111.949L116.604 118.367L103.181 117.367C102.191 117.637 101.136 117.535 100.216 117.08C99.296 116.625 98.5751 115.849 98.1899 114.898C97.8046 113.947 97.7817 112.889 98.1255 111.922C98.4694 110.956 99.1561 110.15 100.056 109.655L100.055 109.655Z" fill="#FFB6B6"/>
<path d="M108.136 118.335L134.828 120.984L134.898 120.894C135.033 120.722 148.394 103.636 150.639 99.568C152.02 97.1243 152.523 94.2821 152.064 91.5133L152.049 91.4456L151.996 91.4007C150.907 90.4893 149.54 89.9757 148.121 89.9446C146.701 89.9135 145.312 90.3667 144.185 91.2296C138.763 95.4244 134.392 100.821 131.416 106.993L129.727 110.505L110.139 111.345L108.136 118.335Z" fill="#0EA5E9"/>
<path d="M97.8409 166.486L93.907 175.637C93.3426 175.676 92.7776 175.708 92.2118 175.733C91.7645 175.756 91.3193 175.772 90.8699 175.785L90.7173 175.833L90.5919 175.793C89.9878 175.812 89.3816 175.824 88.7733 175.829C88.5162 175.831 88.2591 175.833 87.9999 175.833C87.8787 175.833 87.7575 175.833 87.6362 175.831L87.8975 174.937L88.2048 173.878L89.4255 169.685L91.1876 163.631L93.8088 164.755L97.8409 166.486Z" fill="#FFB6B6"/>
<path d="M126.187 167.146C124.166 168.121 122.103 169.018 120 169.837L117.943 166.381L124.573 163.472L126.187 167.146Z" fill="#FFB6B6"/>
<path d="M140.177 151.438V158.717C138.954 159.62 137.707 160.49 136.436 161.328V151.438H140.177Z" fill="#CACACA"/>
<path d="M153.321 146.827C152.269 147.992 151.186 149.127 150.072 150.233C147.45 152.842 144.666 155.283 141.736 157.542H125.056C124.613 157.542 124.175 157.447 123.772 157.265C123.369 157.082 123.009 156.816 122.717 156.483L122.715 156.477C122.367 156.085 122.125 155.61 122.013 155.098L122.011 155.094C121.963 154.875 121.94 154.651 121.939 154.426V149.942C121.94 149.117 122.268 148.325 122.853 147.741C123.437 147.157 124.229 146.828 125.056 146.827H153.321Z" fill="#3F3D56"/>
<path d="M160.193 129.327L158.385 137.066C158.562 138.187 158.621 139.324 158.561 140.457C157.704 141.606 156.82 142.732 155.908 143.834C155.068 144.851 154.206 145.849 153.321 146.827C152.269 147.992 151.187 149.127 150.072 150.233C147.171 151.143 143.751 151.515 140.177 151.54C138.944 151.55 137.692 151.517 136.436 151.45C131.342 151.183 126.189 150.366 121.969 149.519C120.853 149.297 119.803 149.072 118.838 148.852C117.009 148.441 115.479 148.057 114.371 147.764C113.123 147.439 112.412 147.228 112.412 147.228L107.665 155.169L103.355 162.378L95.502 175.516C94.9711 175.564 94.4394 175.604 93.9071 175.637C93.3427 175.676 92.7777 175.708 92.2119 175.733C91.7646 175.756 91.3194 175.772 90.87 175.785L90.7174 175.833L90.592 175.793L88.577 175.152L87.8976 174.937L85.4541 174.16C85.4541 174.16 85.9997 172.444 86.9549 169.581C87.3061 168.53 87.7116 167.323 88.1673 165.991C89.8123 161.175 92.0928 154.708 94.6952 147.927C95.4664 145.914 96.2649 143.872 97.0864 141.84C97.7594 140.171 98.4451 138.509 99.139 136.87C100.345 134.028 106.173 132.495 113.035 131.691C113.384 131.651 113.735 131.612 114.089 131.574C117.586 131.206 121.296 131.016 124.766 130.929C126.503 130.885 128.179 130.868 129.738 130.866C130.242 130.866 130.732 130.867 131.208 130.87H131.21C132.495 130.876 133.679 130.895 134.719 130.916C134.922 130.92 135.119 130.927 135.311 130.931H135.313C135.443 130.933 135.57 130.937 135.696 130.939C137.972 130.998 139.368 131.069 139.368 131.069L139.91 126.825L140.02 125.969L140.125 125.155V125.153L140.137 125.05L140.223 125.048L141.728 125.019L154.378 124.772L161.289 124.637L160.193 129.327Z" fill="#2F2E41"/>
<path d="M127.746 166.373C127.23 166.636 126.71 166.895 126.187 167.146C124.166 168.121 122.103 169.018 120 169.837C119.4 170.073 118.798 170.301 118.19 170.52C118.123 170.426 118.054 170.332 117.985 170.238C115.084 166.26 111.396 161.01 107.665 155.169C106.104 152.726 104.534 150.178 103.01 147.576L114.043 142.431L115.28 141.855L118.838 148.852L122.011 155.094L122.717 156.483L127.746 166.373Z" fill="#2F2E41"/>
<path d="M143.76 79.3653C149.374 79.3653 153.924 74.819 153.924 69.2109C153.924 63.6028 149.374 59.0566 143.76 59.0566C138.147 59.0566 133.596 63.6028 133.596 69.2109C133.596 74.819 138.147 79.3653 143.76 79.3653Z" fill="#FFB6B6"/>
<path d="M143.424 78.9244C145.8 80.0635 148.725 79.6777 150.994 78.3375C153.263 76.9972 154.932 74.8115 156.099 72.4504C156.954 70.7211 157.575 68.7408 157.08 66.8768C156.585 65.0127 154.611 63.4508 152.761 64.003C154.028 62.9836 153.881 60.8815 152.857 59.6185C151.833 58.3555 150.217 57.7482 148.656 57.2905C146.391 56.6262 144.01 56.1573 141.674 56.4971C139.338 56.8369 137.037 58.1006 135.938 60.188C135.175 60.3844 134.368 60.3225 133.644 60.0118C132.92 59.7011 132.319 59.1593 131.937 58.4711C131.682 59.1326 131.653 59.8596 131.853 60.5394C132.054 61.2192 132.473 61.8141 133.046 62.232L129.882 60.5169C129.075 61.6339 129.808 63.3376 131.033 63.9704C132.257 64.6032 133.737 64.4344 135.074 64.0963C136.41 63.7582 134.834 66.5781 136.212 66.6052C137.59 66.6324 139.082 67.3531 139.476 68.6728C139.683 69.3641 139.562 70.1064 139.623 70.8252C139.684 71.5441 140.029 72.3416 140.727 72.5289C141.167 72.6472 141.649 72.4904 142.086 72.6218C142.628 72.7847 142.958 73.3635 143.005 73.9265C143.053 74.4896 142.876 75.0448 142.702 75.5823C142.012 77.7064 144.226 76.5158 143.536 78.64L143.424 78.9244Z" fill="#2F2E41"/>
<path d="M163.366 108.918C163.283 100.532 162.902 94.8161 162.238 91.928C160.453 84.1638 152.207 82.748 150.915 82.5726C150.777 82.2066 150.566 81.8728 150.293 81.5921C150.021 81.3113 149.694 81.0894 149.332 80.9404C148.971 80.7913 148.582 80.7182 148.191 80.7256C147.8 80.733 147.414 80.8208 147.058 80.9834L141.199 83.6647C140.011 84.2104 138.947 84.9943 138.074 85.9679C137.202 86.9414 136.538 88.0837 136.126 89.324L135.257 91.9761L134.82 109.774L136.262 117.261L136.264 117.265L137.236 122.308L136.567 123.311L132.748 129.033L132.683 129.133L132.681 129.135L132.514 129.383C132.746 129.511 132.976 129.636 133.202 129.761C133.787 130.083 134.358 130.398 134.914 130.707C135.048 130.783 135.179 130.856 135.311 130.931H135.313C135.397 130.977 135.48 131.023 135.562 131.069C137.648 132.234 139.546 133.314 141.258 134.308C141.496 134.445 141.732 134.583 141.964 134.719C149.865 139.336 153.87 142.164 155.908 143.834C156.82 142.732 157.704 141.606 158.561 140.458C159.338 139.42 160.092 138.364 160.82 137.29C160.948 136.45 161.034 135.611 161.117 134.788C161.218 133.798 161.322 132.773 161.498 131.764C161.575 131.317 161.278 130.893 160.992 130.484C160.726 130.102 160.476 129.743 160.528 129.404C160.582 129.056 160.967 128.675 161.341 128.306C161.749 127.901 162.171 127.483 162.231 127.042C162.399 125.815 162.547 124.582 162.677 123.346C162.89 121.335 163.054 119.318 163.168 117.294C163.329 114.5 163.395 111.708 163.366 108.918Z" fill="#0EA5E9"/>
<path d="M124.676 138.522C124.848 137.937 125.147 137.398 125.55 136.941C125.954 136.485 126.453 136.122 127.012 135.879C127.571 135.636 128.176 135.518 128.786 135.534C129.395 135.55 129.994 135.699 130.539 135.971L141.14 125.624L142.601 133.178L132.31 141.846C131.792 142.731 130.967 143.396 129.991 143.714C129.015 144.032 127.956 143.981 127.015 143.571C126.074 143.162 125.316 142.421 124.885 141.491C124.454 140.56 124.38 139.503 124.676 138.522L124.676 138.522Z" fill="#FFB6B6"/>
<path d="M136.528 139.075L157.453 122.309L157.441 122.195C157.416 121.978 154.995 100.431 153.75 95.9556C153.026 93.2442 151.395 90.862 149.128 89.2045L149.069 89.1669L149 89.1719C147.584 89.2817 146.248 89.8703 145.211 90.8407C144.175 91.811 143.501 93.1052 143.3 94.5098C142.364 101.297 143.02 108.208 145.217 114.698L146.47 118.388L133.064 132.68L136.528 139.075Z" fill="#0EA5E9"/>
<path d="M29.3711 79.183C34.3799 79.183 38.4404 75.1264 38.4404 70.1223C38.4404 65.1183 34.3799 61.0616 29.3711 61.0616C24.3622 61.0616 20.3018 65.1183 20.3018 70.1223C20.3018 75.1264 24.3622 79.183 29.3711 79.183Z" fill="#A0616A"/>
<path d="M17.1863 139.134L17.1368 139.065C14.4949 135.37 18.4683 126.49 19.0676 125.203C18.356 124.972 17.7464 124.502 17.3427 123.873C16.939 123.244 16.7661 122.494 16.8535 121.752L17.1119 119.558L17.3812 117.406L15.452 115.479L15.4466 115.43L14.3363 105.725L12.7221 99.2793C12.1139 96.8424 12.1658 94.2878 12.8723 91.8776C13.5789 89.4674 14.9147 87.2884 16.7427 85.5644L20.474 84.9725L25.0086 80.6075H32.3212L34.8285 83.0008C39.758 87.0377 40.9283 85.284 46.4869 92.8833L42.5069 103.359L44.7315 118.81L44.7329 121.606L45.8916 122.892C46.3089 123.356 46.6122 123.91 46.7772 124.511C46.9423 125.113 46.9645 125.744 46.8421 126.355L46.6897 127.116C47.2786 127.369 47.7984 127.758 48.2055 128.252C48.6126 128.747 48.8951 129.331 49.0294 129.957L49.4364 131.854C49.7845 132.313 52.0826 135.375 52.0826 136.211C52.0826 136.337 51.9898 136.459 51.7905 136.593C50.2244 137.653 41.5682 139.813 37.7371 138.281C33.6562 136.651 17.434 139.097 17.2706 139.121L17.1863 139.134Z" fill="#3F3D56"/>
<path d="M12.5789 102.38L20.1198 100.905C22.9086 105.066 24.4058 116.443 24.4058 116.443L32.7431 133.717C33.2555 134.028 33.6763 134.469 33.9626 134.996C34.2489 135.522 34.3904 136.115 34.3728 136.714C34.3552 137.312 34.179 137.896 33.8622 138.404C33.5455 138.913 33.0995 139.329 32.5696 139.609C32.0397 139.89 31.4449 140.025 30.8458 140.001C30.2467 139.977 29.6646 139.794 29.1589 139.473C28.6532 139.151 28.2419 138.701 27.9669 138.168C27.6919 137.636 27.563 137.041 27.5934 136.442L16.7194 115.976L12.5789 102.38Z" fill="#A0616A"/>
<path d="M12.5367 104.167L12.3223 92.9698L15.871 88.2268C16.5711 87.2982 17.5171 86.5837 18.6023 86.1641C19.6875 85.7444 20.8686 85.6364 22.012 85.8522C23.56 86.1551 24.9351 87.034 25.8593 88.3111C26.7835 89.5882 27.1878 91.1683 26.9905 92.7318C26.3881 97.4732 25.0206 103.407 21.9268 104.749L21.8954 104.763L25.1019 115.966L13.2108 117.626L12.5367 104.167Z" fill="#3F3D56"/>
<path d="M57.323 103.178C57.323 103.178 48.2734 96.1108 43.3652 95.0956L39.021 101.428L50.7697 108.621L73.6436 115.229C74.0442 115.673 74.5553 116.004 75.1252 116.187C75.695 116.37 76.3032 116.4 76.8881 116.272C77.4729 116.145 78.0136 115.865 78.4552 115.461C78.8969 115.057 79.2237 114.544 79.4025 113.973C79.5814 113.403 79.6059 112.795 79.4736 112.211C79.3413 111.628 79.0569 111.09 78.6492 110.652C78.2415 110.214 77.7252 109.892 77.1525 109.718C76.5798 109.544 75.9712 109.524 75.3884 109.661L57.323 103.178Z" fill="#A0616A"/>
<path d="M41.4016 104.598L31.9705 98.544L30.0012 92.9587C29.6186 91.8608 29.5509 90.6779 29.8059 89.5436C30.0609 88.4093 30.6284 87.3689 31.4442 86.5399C32.5577 85.4236 34.0539 84.7714 35.6303 84.7151C37.2067 84.6587 38.7457 85.2025 39.9361 86.2365C43.5439 89.3753 48.1932 90.4272 47.5877 93.7423L49.3247 93.9957L58.2069 100.735L52.969 111.529L41.4016 104.598Z" fill="#3F3D56"/>
<path d="M19.0841 64.1688C20.1024 62.5948 22.0135 61.5458 23.8661 61.8406C24.0386 60.6594 24.5321 59.5481 25.2929 58.6277C26.0538 57.7073 27.0528 57.0131 28.1812 56.6207C29.3096 56.2282 30.5242 56.1526 31.6926 56.402C32.8611 56.6514 33.9387 57.2163 34.808 58.0352C35.3535 57.6016 36.1464 57.5788 36.7938 57.8367C37.4315 58.1263 37.9862 58.5712 38.4072 59.1305C39.4703 60.4549 40.154 62.0426 40.3855 63.7244C40.6171 65.4063 40.3878 67.1194 39.7221 68.6814C39.9486 67.8591 39.1237 67.0855 38.2902 66.9009C37.4568 66.7164 36.5826 66.891 35.7374 66.7708C34.6542 66.6168 33.6804 65.989 32.5955 65.8477C31.6836 65.729 30.7667 65.9626 29.8775 66.1967C28.9883 66.4308 28.0737 66.6695 27.1606 66.5612C26.2475 66.4529 25.0712 69.9101 25.087 72.3452C25.09 72.8067 24.9949 73.3992 24.5435 73.4971C23.9876 73.6177 23.6654 72.8511 23.1363 72.6423C22.6649 72.4562 22.0998 72.8011 21.9356 73.2801C21.869 73.5252 21.8618 73.7826 21.9148 74.0309C21.9678 74.2793 22.0794 74.5114 22.2403 74.7079C22.5656 75.0976 22.9517 75.4322 23.3837 75.6988L23.1658 75.8799C22.8033 76.3583 22.0514 76.3791 21.529 76.0831C21.0065 75.7871 20.6632 75.2605 20.3537 74.7462C19.3871 73.14 18.5392 71.4286 18.1981 69.5857C17.857 67.7428 18.0657 65.7429 19.0841 64.1688Z" fill="#2F2E41"/>
<path opacity="0.2" d="M98.7303 79.3956C99.6503 83.2247 100.075 87.1559 99.9932 91.0928C99.9149 95.0303 99.3385 98.942 98.2778 102.735C97.6792 104.877 96.9242 106.972 96.0188 109.004C95.8558 109.369 96.396 109.688 96.5603 109.32C98.1949 105.659 99.3507 101.803 99.9993 97.8476C100.65 93.891 100.797 89.8678 100.434 85.8745C100.229 83.6357 99.8614 81.4148 99.335 79.2291C99.2405 78.8373 98.6357 79.0032 98.7303 79.3956H98.7303Z" fill="black"/>
<path opacity="0.2" d="M157.277 106.189L152.035 118.973C151.191 121.031 150.373 123.101 149.495 125.144C148.704 126.984 147.803 128.831 146.472 130.348C145.129 131.878 143.323 133.121 141.259 133.364C140.863 133.41 140.858 134.037 141.259 133.99C143.144 133.768 144.834 132.832 146.198 131.537C147.674 130.137 148.714 128.354 149.563 126.523C150.509 124.483 151.314 122.373 152.167 120.293L154.847 113.757L157.882 106.356C158.035 105.983 157.428 105.821 157.277 106.189Z" fill="black"/>
<path d="M95.1404 117.793C95.2325 118.061 95.4072 118.293 95.6394 118.455C95.8716 118.618 96.1494 118.702 96.4328 118.697L101.97 118.555C102.256 118.549 102.532 118.452 102.757 118.276C102.983 118.101 103.145 117.858 103.22 117.583L104.004 109.211C104.282 109.337 104.585 109.399 104.89 109.393C105.155 109.386 105.416 109.328 105.659 109.22C105.901 109.113 106.12 108.958 106.303 108.766C106.485 108.574 106.629 108.348 106.724 108.101C106.819 107.854 106.865 107.59 106.858 107.325C106.851 107.061 106.793 106.8 106.685 106.557C106.577 106.315 106.423 106.097 106.231 105.914C106.039 105.732 105.813 105.589 105.565 105.493C105.318 105.398 105.054 105.353 104.789 105.359C104.667 105.359 104.545 105.371 104.426 105.397C104.296 105.257 104.138 105.145 103.963 105.07C103.787 104.994 103.598 104.956 103.407 104.958L94.889 105.177C94.8183 105.18 94.748 105.189 94.6788 105.204C94.492 105.238 94.3149 105.313 94.1593 105.422C94.0036 105.531 93.8732 105.672 93.7767 105.835C93.6802 105.999 93.6198 106.181 93.5997 106.37C93.5797 106.558 93.6003 106.749 93.6602 106.929L95.1404 117.793ZM104.165 108.643L104.722 106.648C104.786 106.417 104.787 106.174 104.727 105.943C104.754 105.943 104.778 105.93 104.805 105.93C105.187 105.922 105.557 106.066 105.833 106.33C106.109 106.595 106.27 106.957 106.279 107.339C106.288 107.721 106.145 108.091 105.881 108.368C105.617 108.645 105.255 108.806 104.872 108.816C104.625 108.823 104.38 108.764 104.165 108.643Z" fill="#2F2E41"/>
<path d="M94.6787 105.204C94.8602 106.24 96.9005 106.969 99.3538 106.842C101.61 106.738 103.454 105.947 103.792 105.009C103.667 104.972 103.537 104.955 103.407 104.958L94.8888 105.177C94.8182 105.18 94.7479 105.189 94.6787 105.204Z" fill="#3F3D56"/>
<path d="M76.6961 106.512C76.756 106.332 76.7766 106.141 76.7566 105.952C76.7365 105.763 76.6761 105.581 76.5796 105.417C76.4831 105.254 76.3527 105.113 76.197 105.004C76.0414 104.895 75.8642 104.821 75.6774 104.786C75.6083 104.771 75.538 104.762 75.4673 104.76L66.9494 104.54C66.7583 104.538 66.5689 104.576 66.3935 104.652C66.218 104.728 66.0603 104.839 65.9306 104.979C65.8113 104.954 65.6897 104.941 65.5677 104.942C65.0323 104.928 64.5134 105.128 64.1253 105.496C63.7372 105.865 63.5116 106.373 63.4982 106.908C63.4848 107.443 63.6846 107.961 64.0537 108.349C64.4228 108.737 64.9309 108.962 65.4664 108.975C65.7715 108.981 66.0742 108.919 66.3522 108.794L67.1358 117.165C67.2112 117.44 67.3737 117.683 67.599 117.859C67.8244 118.034 68.1004 118.132 68.386 118.137L73.9234 118.28C74.2069 118.285 74.4847 118.2 74.7169 118.038C74.9491 117.875 75.1238 117.643 75.2159 117.375L76.6961 106.512ZM65.484 108.398C65.1017 108.388 64.739 108.227 64.4754 107.95C64.2118 107.673 64.0688 107.304 64.0777 106.922C64.0867 106.54 64.2468 106.177 64.5231 105.913C64.7995 105.649 65.1693 105.505 65.5516 105.513C65.5787 105.513 65.6026 105.525 65.6296 105.526C65.569 105.757 65.5705 106 65.6339 106.23L66.1915 108.225C65.9758 108.346 65.7312 108.406 65.484 108.398Z" fill="#2F2E41"/>
<path d="M75.6775 104.786C75.496 105.823 73.4558 106.551 71.0025 106.425C68.7465 106.321 66.9019 105.529 66.564 104.591C66.689 104.554 66.8191 104.537 66.9495 104.54L75.4674 104.76C75.5381 104.762 75.6084 104.771 75.6775 104.786Z" fill="#3F3D56"/>
<path d="M67.605 86.6011C68.0318 86.2896 68.5217 86.0754 69.0403 85.9736C69.5588 85.8717 70.0934 85.8847 70.6064 86.0116C71.1194 86.1386 71.5983 86.3763 72.0094 86.7081C72.4205 87.0399 72.7537 87.4578 72.9857 87.9322L85.7392 86.3908L82.76 92.3592L71.1058 92.9079C70.2822 93.2444 69.3637 93.2673 68.5243 92.9725C67.685 92.6776 66.983 92.0853 66.5515 91.3079C66.12 90.5305 65.9889 89.622 66.1831 88.7545C66.3772 87.887 66.8832 87.1208 67.6051 86.6011L67.605 86.6011Z" fill="#9E616A"/>
<path d="M109.197 74.445C108.821 75.1821 108.363 76.0404 107.849 76.976C106.043 80.2734 103.562 84.5293 101.651 87.7682C100.019 90.531 98.8004 92.5566 98.7669 92.613L98.7147 92.6965L87.492 92.9492L85.0841 93.0035L84.2647 93.0223L75.4709 93.2207L75.5546 92.6986L76.376 87.5239L76.4596 86.9955L84.1623 85.7175L86.9778 85.2518L93.2235 84.216L94.3084 81.0168C96.2191 75.3938 99.4121 70.2915 103.635 66.1128C103.758 65.9937 103.884 65.881 104.016 65.7745C104.131 65.6826 104.248 65.5949 104.367 65.5155C104.873 66.2318 105.324 66.8792 105.707 67.3991L106.633 68.6584C107.897 70.3789 108.772 72.3533 109.197 74.445Z" fill="#0EA5E9"/>
<path d="M62.5323 93.5689C62.6244 93.8368 62.7991 94.0686 63.0313 94.2311C63.2635 94.3936 63.5412 94.4784 63.8247 94.4734L69.3622 94.331C69.6477 94.3254 69.9238 94.2277 70.1491 94.0524C70.3745 93.8771 70.537 93.6337 70.6123 93.3585L71.3959 84.9872C71.674 85.113 71.9766 85.1751 72.2818 85.169C72.8172 85.1556 73.3254 84.9302 73.6945 84.5425C74.0636 84.1547 74.2634 83.6364 74.25 83.1015C74.2365 82.5665 74.0109 82.0589 73.6228 81.6901C73.2347 81.3214 72.7159 81.1217 72.1804 81.1352C72.0585 81.1348 71.9368 81.1474 71.8175 81.1729C71.6878 81.0327 71.5301 80.9212 71.3547 80.8455C71.1792 80.7699 70.9898 80.7318 70.7987 80.7337L62.2808 80.9535C62.2101 80.9561 62.1398 80.9648 62.0707 80.9795C61.8839 81.0143 61.7067 81.0887 61.5511 81.1976C61.3955 81.3065 61.265 81.4475 61.1685 81.611C61.072 81.7746 61.0117 81.9568 60.9916 82.1456C60.9715 82.3344 60.9921 82.5253 61.0521 82.7054L62.5323 93.5689ZM71.5566 84.4188L72.1143 82.4239C72.1777 82.1934 72.1791 81.9504 72.1185 81.7192C72.1456 81.7191 72.1694 81.7063 72.1965 81.7062C72.5788 81.6983 72.9487 81.8422 73.225 82.1064C73.5013 82.3705 73.6615 82.7333 73.6704 83.1152C73.6794 83.4972 73.5364 83.8671 73.2728 84.1439C73.0091 84.4206 72.6464 84.5816 72.2641 84.5916C72.017 84.5994 71.7723 84.5396 71.5566 84.4188Z" fill="#CCCCCC"/>
<path d="M62.0706 80.9795C62.252 82.0162 64.2923 82.7449 66.7456 82.6183C69.0016 82.5144 70.8462 81.723 71.1841 80.7851C71.059 80.7481 70.929 80.7308 70.7986 80.7337L62.2807 80.9535C62.21 80.9561 62.1397 80.9648 62.0706 80.9795Z" fill="#3F3D56"/>
</g>
<defs>
<clipPath id="clip0_27_1011">
<rect width="176" height="176" fill="white"/>
</clipPath>
</defs>
</svg>
