<svg width="252" height="186" viewBox="0 0 252 186" fill="none" xmlns="http://www.w3.org/2000/svg">
<g clip-path="url(#clip0_32_4763)">
<path opacity="0.1" d="M2.7124 89.1753C6.69164 104.564 15.1083 117.866 28.4091 124.314C56.0598 137.715 118.42 130.804 164.961 122.87C189.036 118.767 210.196 107.443 225.568 91.5066L2.7124 89.1753Z" fill="#0EA5E9"/>
<path opacity="0.1" d="M246.772 16.7407H221.236C220.024 16.7407 219.03 15.8421 219.03 14.7441C219.03 13.6461 220.024 12.7452 221.236 12.7452H225.653C224.439 12.7452 223.447 11.8466 223.447 10.7463C223.447 9.64602 224.439 8.74973 225.653 8.74973H222.5C221.286 8.74973 220.292 7.85114 220.292 6.75083C220.292 5.65053 221.286 4.75424 222.5 4.75424H235.829C232.871 3.50951 229.414 2.62468 225.43 2.15935C189.086 -2.06538 176.11 0.728946 171.533 3.60121C165.828 7.22591 159.491 9.741 152.854 11.0145C130.43 15.2026 88.4962 20.2411 50.4884 9.40991C31.5979 4.01611 17.5572 13.1189 9.14282 28.3352H251.207C250.891 23.9133 249.945 19.8284 248.209 16.2547C247.797 16.5725 247.292 16.7435 246.772 16.7407V16.7407Z" fill="#0EA5E9"/>
<path opacity="0.1" d="M0.547608 57.0555C-0.433237 66.0051 -0.0998187 75.0501 1.53726 83.903L225.74 91.3278C231.912 84.9228 237.155 77.6835 241.318 69.8214L0.547608 57.0555ZM89.2225 76.2078H84.808C86.0222 76.2078 87.0164 77.1086 87.0164 78.2066C87.0164 79.3047 86.0222 80.2033 84.808 80.2033H59.2717C58.0598 80.2033 57.0656 79.3047 57.0656 78.2066C57.0656 77.1086 58.0598 76.2078 59.2717 76.2078H63.6885C62.4743 76.2078 61.4824 75.3092 61.4824 74.2112C61.4824 73.1131 62.4743 72.2123 63.6885 72.2123H60.534C59.3198 72.2123 58.3256 71.3137 58.3256 70.2157C58.3256 69.1177 59.3198 68.2168 60.534 68.2168H86.0703C87.2844 68.2168 88.2764 69.1154 88.2764 70.2157C88.2764 71.316 87.2844 72.2123 86.0703 72.2123H89.2225C90.4367 72.2123 91.4286 73.1109 91.4286 74.2112C91.4286 75.3115 90.4367 76.2078 89.2225 76.2078Z" fill="#0EA5E9"/>
<path opacity="0.1" d="M251.217 28.4728L6.44192 33.8597C3.46379 40.7893 1.48906 48.6244 0.57959 56.7438H246.928C248.531 51.9935 249.721 47.1133 250.483 42.1578C251.219 37.3876 251.512 32.7731 251.217 28.4728ZM50.2777 46.135H45.8632C47.0773 46.135 48.0716 47.0359 48.0716 48.1339C48.0716 49.2319 47.0773 50.1328 45.8632 50.1328H20.3269C19.115 50.1328 18.1208 49.2319 18.1208 48.1339C18.1208 47.0359 19.115 46.135 20.3269 46.135H24.7437C23.5295 46.135 22.5376 45.2364 22.5376 44.1384C22.5376 43.0404 23.5295 42.1395 24.7437 42.1395H21.5891C20.375 42.1395 19.3807 41.2409 19.3807 40.1429C19.3807 39.0449 20.375 38.144 21.5891 38.144H47.1254C48.3396 38.144 49.3315 39.0426 49.3315 40.1429C49.3315 41.2432 48.3396 42.1395 47.1254 42.1395H50.2777C51.4918 42.1395 52.4838 43.0404 52.4838 44.1384C52.4838 45.2364 51.4918 46.135 50.2777 46.135Z" fill="#0EA5E9"/>
<path opacity="0.1" d="M124.871 179.047C181.423 179.047 227.268 174.827 227.268 169.622C227.268 164.416 181.423 160.196 124.871 160.196C68.3182 160.196 22.4734 164.416 22.4734 169.622C22.4734 174.827 68.3182 179.047 124.871 179.047Z" fill="#0EA5E9"/>
<path d="M229.233 91.7656C229.232 91.7496 229.232 91.7335 229.233 91.7175C229.233 91.6922 229.233 91.6693 229.233 91.6464C229.187 91.3839 229.088 91.1335 228.942 90.9106C228.418 90.071 227.688 89.3796 226.821 88.9025C225.309 88.0727 223.231 87.7174 222.626 86.1334C222.441 85.6428 222.436 85.1087 222.345 84.5953C222.184 83.7952 221.817 83.0515 221.278 82.4387C220.74 81.8259 220.05 81.3656 219.277 81.1041C218.558 80.8634 217.781 80.7969 217.083 80.4989C215.52 79.8341 214.696 78.1951 213.997 76.6799C213.093 74.7238 212.189 72.767 211.284 70.8093C210.597 71.1555 209.708 70.9927 209.065 70.5595C208.444 70.0974 207.95 69.4864 207.628 68.7829C206.696 66.972 206.295 64.9204 205.2 63.1966C204.105 61.4728 201.917 60.1111 199.984 60.8607C199.606 61.0495 199.216 61.2111 198.815 61.3444C197.159 61.7318 195.326 59.8384 193.908 60.7576C193.673 60.9087 193.481 61.119 193.352 61.3673C193.35 61.3521 193.35 61.3367 193.352 61.3215C193.167 61.6943 193.064 62.1022 193.049 62.5181V62.5181C193.049 62.6029 193.049 62.6854 193.049 62.7656C193.049 62.7794 193.049 62.7931 193.049 62.8069C193.049 63.137 193.07 63.4717 193.074 63.8063C193.079 64.0874 193.058 64.3683 193.01 64.6453V64.6224C192.983 64.7783 192.944 64.9316 192.891 65.0809C192.522 66.0711 191.5 66.7199 191.022 67.6505V67.6047C190.968 67.7059 190.921 67.8109 190.882 67.9187C190.797 68.1627 190.753 68.4191 190.751 68.6775C190.71 70.4265 192.563 72.0724 192.779 73.9498C192.932 75.2793 193.237 75.7057 194.366 76.4576L194.614 76.6226C194.515 76.6226 194.414 76.6364 194.302 76.6387C194.258 76.6395 194.215 76.6441 194.172 76.6524C193.972 76.5975 193.763 76.5875 193.56 76.6232C193.356 76.6589 193.163 76.7393 192.994 76.8587C192.128 77.5464 190.08 77.0169 189.171 76.8587C188.261 76.7006 185.146 77.1269 184.71 78.8553C184.275 80.5837 183.528 84.1506 183.528 84.1506C183.528 84.1506 183.528 86.4131 183.251 86.8348C183.24 86.8645 183.24 86.8969 183.251 86.9265C183.251 87.5615 183.274 91.3782 182.66 92.3616C182.509 92.5908 182.52 93.0974 182.633 93.7209C181.987 94.553 181.379 95.525 181.487 96.1622C181.684 97.4666 184.328 101.567 188.117 99.3715C188.117 99.3715 190.273 95.4264 187.56 93.3289L187.677 92.8705C188.497 93.8791 189.104 94.6035 189.104 94.6035C189.104 94.6035 189.136 94.6883 189.187 94.8327H189.104C189.458 95.7967 189.673 96.8063 189.741 97.831C189.731 98.2067 189.663 98.5786 189.54 98.9336H189.611C189.59 99.0116 189.567 99.0895 189.54 99.1629C189.406 99.55 189.158 99.8868 188.827 100.128C186.932 101.471 184.763 111.065 184.763 111.065C184.763 111.065 180.465 126.572 179.606 127.455C178.896 128.179 183.359 130.219 186.708 129.976C187.175 129.948 187.637 129.86 188.083 129.715C188.103 129.944 188.126 130.173 188.149 130.382C188.22 131.069 188.293 131.707 188.339 131.906C188.458 132.406 188.694 137.509 188.694 137.509C188.694 137.509 188.211 140.823 188.328 143.129C188.328 143.287 188.348 143.439 188.362 143.588L187.945 143.652C187.313 145.073 189.917 156.931 190.273 157.928C190.508 158.714 190.64 159.527 190.667 160.347C190.667 160.347 190.438 161.19 190.628 161.651C190.746 161.933 190.823 162.23 190.857 162.534C190.857 162.534 190.701 163.299 190.937 163.799C191.173 164.299 190.898 165.174 190.898 165.174C190.898 165.174 190.82 168.629 190.11 170.509C189.917 171.014 189.86 171.562 189.947 172.097C190.033 172.632 190.259 173.134 190.602 173.553C190.652 173.618 190.705 173.68 190.763 173.738C190.763 173.738 194.68 173.771 195.37 173.738H195.459C195.736 173.7 196.446 170.591 195.814 169.094C195.182 167.597 195.736 165.754 195.736 165.754V163.031C195.736 163.031 196.446 162.376 195.736 160.968C195.026 159.561 195.143 159.134 195.143 159.134C195.143 159.134 195.933 156.869 195.104 156.14C194.275 155.411 195.262 152.647 195.262 152.647L195.542 143.432C195.395 143.384 195.246 143.346 195.095 143.317C195.079 143.166 195.063 143.01 195.047 142.845C194.884 141.176 194.744 138.907 195.106 138.26C195.468 137.614 195.642 131.97 195.7 128.048L199.31 128.186C199.386 130.02 199.466 131.693 199.516 131.906C199.635 132.406 199.874 137.509 199.874 137.509C199.874 137.509 199.388 140.823 199.505 143.129C199.505 143.287 199.525 143.439 199.539 143.588L199.122 143.652C198.49 145.073 201.095 156.931 201.45 157.928C201.685 158.714 201.818 159.527 201.846 160.347C201.846 160.347 201.617 161.19 201.805 161.651C201.923 161.933 202 162.23 202.034 162.534C202.034 162.534 201.878 163.299 202.114 163.799C202.35 164.299 202.075 165.174 202.075 165.174C202.075 165.174 201.997 168.629 201.287 170.509C201.097 171.015 201.044 171.563 201.133 172.097C201.222 172.631 201.451 173.131 201.796 173.548C201.845 173.614 201.899 173.676 201.956 173.734C201.956 173.734 205.873 173.766 206.563 173.734H206.652C206.929 173.695 207.64 170.587 207.007 169.09C206.375 167.593 206.929 165.75 206.929 165.75V163.031C206.929 163.031 207.64 162.376 206.929 160.968C206.219 159.561 206.336 159.134 206.336 159.134C206.336 159.134 207.126 156.869 206.297 156.14C205.468 155.411 206.455 152.647 206.455 152.647L206.739 143.432C206.589 143.383 206.436 143.345 206.281 143.317C206.265 143.166 206.249 143.01 206.233 142.845C206.07 141.176 205.931 138.907 206.293 138.26C206.584 137.731 206.751 134.32 206.826 130.989C206.826 130.76 206.826 130.531 206.845 130.302C208.504 130.232 210.155 130.047 211.788 129.747C211.788 129.747 209.857 122.913 210.448 121.802C210.703 121.323 210.336 118.771 209.834 116.023C210.534 116.589 211.404 116.904 212.304 116.917C213.168 118.579 215.795 122.402 217.275 122.991C219.012 123.679 217.708 117.582 216.881 116.699C216.49 116.217 216.16 115.688 215.901 115.124C215.923 115.097 215.949 115.074 215.972 115.049C215.994 115.023 216.013 108.561 215.616 108.678C215.22 108.795 214.748 107.718 214.748 107.718L213.525 96.9737L213.012 92.4762C213.44 92.7925 213.949 92.9943 214.386 93.3083C215.578 94.1817 215.967 95.7152 216.489 97.0723C216.92 98.1886 217.525 99.2958 218.517 99.9973C219.509 100.699 220.963 100.884 221.953 100.174C222.869 99.5067 223.14 98.3033 223.341 97.2052C225.004 97.7898 227.023 96.2264 226.807 94.5187C226.755 94.0969 226.599 93.6361 226.819 93.2671C227.259 92.5381 228.651 92.9622 229.11 92.2424C229.187 92.1179 229.226 91.9739 229.224 91.8275C229.231 91.7954 229.233 91.7816 229.233 91.7656ZM206.987 97.6752C206.962 98.0855 207.525 101.382 207.983 103.99C207.608 102.365 206.854 100.63 205.369 99.4402C205.369 99.4402 205.369 99.3577 205.351 99.211H205.369C205.369 99.211 205.308 98.5554 205.298 97.6224C205.301 96.7954 205.362 95.9697 205.482 95.1513V95.1307H205.452C205.452 95.0619 205.47 94.9909 205.482 94.9221C205.573 94.2315 205.76 93.5571 206.038 92.9186C206.161 92.6684 206.303 92.4278 206.462 92.1988C206.707 94.4155 207.01 97.2603 206.987 97.6752V97.6752ZM208.219 105.313C208.421 106.439 208.565 107.229 208.565 107.229L209.782 115.587V115.626C209.126 112.098 208.29 108.38 208.29 108.38C208.375 107.358 208.352 106.33 208.219 105.313V105.313Z" fill="url(#paint0_linear_32_4763)"/>
<path d="M193.31 74.4082C193.081 72.2901 190.79 70.4632 191.477 68.4482C191.851 67.3502 193.019 66.6786 193.413 65.5874C193.674 64.8676 193.558 64.0768 193.56 63.3112C193.562 62.5455 193.741 61.6905 194.378 61.2664C195.752 60.3495 197.521 62.2361 199.124 61.851C199.512 61.7183 199.89 61.5574 200.254 61.3696C202.125 60.6246 204.242 61.9816 205.294 63.6963C206.345 65.4109 206.739 67.4557 207.642 69.2574C207.95 69.9532 208.427 70.5607 209.03 71.0248C209.653 71.4557 210.505 71.6185 211.179 71.2746L213.802 77.12C214.489 78.6261 215.277 80.2582 216.78 80.9207C217.454 81.2164 218.205 81.2828 218.901 81.5235C219.658 81.7907 220.332 82.2521 220.854 82.8616C221.377 83.471 221.731 84.2072 221.88 84.9964C221.969 85.5098 221.971 86.0417 222.152 86.5299C222.736 88.107 224.745 88.46 226.209 89.2807C227.056 89.7585 227.766 90.446 228.271 91.2773C228.5 91.6739 228.697 92.1942 228.452 92.5839C228.01 93.2991 226.665 92.8773 226.239 93.604C226.024 93.9708 226.175 94.4292 226.239 94.851C226.448 96.5496 224.493 98.1061 222.885 97.5238C222.691 98.6173 222.427 99.8161 221.543 100.479C220.592 101.189 219.183 101.001 218.223 100.304C217.263 99.6075 216.682 98.5049 216.265 97.3932C215.758 96.0407 215.38 94.514 214.228 93.6452C213.811 93.3335 213.312 93.1318 212.904 92.8177C211.988 92.1163 211.529 90.9587 211.202 89.8377C210.778 88.4394 210.441 87.0021 209.827 85.6818C209.213 84.3614 208.242 83.1327 206.911 82.5299C205.663 81.9682 204.224 82.0049 202.934 81.5487C200.714 80.7648 199.072 78.8965 196.863 78.0163C196.157 77.7194 195.488 77.3409 194.87 76.8885C193.759 76.1572 193.457 75.7332 193.31 74.4082Z" fill="#3F3D56"/>
<g opacity="0.1">
<path d="M193.516 65.1382C193.564 65.0485 193.605 64.9559 193.64 64.8608C193.899 64.141 193.784 63.3502 193.787 62.5845C193.787 62.3292 193.81 62.0744 193.858 61.8235C193.646 62.2764 193.544 62.7725 193.558 63.2722C193.555 63.8889 193.629 64.5353 193.516 65.1382Z" fill="black"/>
<path d="M221.758 99.7588C220.808 100.467 219.399 100.281 218.439 99.5823C217.479 98.8832 216.895 97.7851 216.489 96.6688C215.983 95.3163 215.607 93.7896 214.453 92.9209C214.038 92.6091 213.536 92.4051 213.131 92.0933C212.214 91.3919 211.756 90.2343 211.426 89.1248C211.003 87.7265 210.668 86.2892 210.052 84.9689C209.436 83.6485 208.469 82.4198 207.136 81.8169C205.889 81.2553 204.451 81.292 203.161 80.8358C200.939 80.0519 199.296 78.1836 197.09 77.3034C196.384 77.0056 195.714 76.6271 195.095 76.1756C194.009 75.426 193.72 75.0019 193.56 73.6792C193.331 71.6941 191.315 69.9634 191.629 68.0929C191.578 68.1941 191.533 68.2982 191.494 68.4047C190.806 70.4219 193.097 72.2489 193.326 74.3646C193.475 75.6873 193.784 76.1114 194.861 76.861C195.481 77.3125 196.15 77.691 196.857 77.9888C199.063 78.869 200.705 80.7396 202.927 81.5212C204.217 81.9797 205.656 81.9407 206.902 82.5023C208.235 83.1052 209.193 84.3362 209.818 85.6543C210.444 86.9723 210.778 88.405 211.193 89.8102C211.53 90.9197 211.972 92.0773 212.897 92.7787C213.312 93.0905 213.814 93.2945 214.219 93.6063C215.364 94.4751 215.749 96.0017 216.256 97.3542C216.673 98.466 217.257 99.5663 218.217 100.263C219.176 100.96 220.585 101.148 221.536 100.44C222.143 99.9812 222.452 99.282 222.656 98.5324C222.475 99.0159 222.164 99.4402 221.758 99.7588V99.7588Z" fill="black"/>
<path d="M226.466 92.8843C226.378 93.0487 226.34 93.235 226.356 93.4207C226.874 92.9095 228.042 93.2098 228.45 92.5519C228.545 92.3893 228.582 92.1995 228.555 92.0132C228.024 92.5175 226.855 92.2172 226.466 92.8843Z" fill="black"/>
<path d="M223.101 96.8041C223.057 97.0333 223.014 97.2786 222.959 97.517C224.361 97.9548 225.98 96.8293 226.209 95.4081C225.653 96.5015 224.278 97.2328 223.101 96.8041Z" fill="black"/>
</g>
<path d="M196.27 75.5108C196.27 75.5108 197.033 77.0513 194.781 77.0834C192.529 77.1155 196.231 87.087 196.231 87.087L199.974 91.855L204.632 89.3334L204.9 82.3786L205.243 78.1768C205.243 78.1768 200.891 76.7624 201.693 74.8919C202.494 73.0214 196.27 75.5108 196.27 75.5108Z" fill="#FBBEBE"/>
<path d="M209.789 116.167C209.789 116.167 212.538 118.874 215.745 115.282L213.282 112.667H210.167L209.789 116.167Z" fill="#575A89"/>
<path opacity="0.1" d="M210.086 112.667L209.708 116.167C209.708 116.167 212.457 118.874 215.665 115.282" fill="black"/>
<path d="M214.711 113.144C214.711 113.144 215.818 116.048 216.62 116.926C217.422 117.804 218.682 123.879 217.002 123.191C215.323 122.503 212.116 117.384 211.923 116.506C211.731 115.629 211.658 113.144 211.658 113.144H214.711Z" fill="#FBBEBE"/>
<path d="M190.696 128.044L205.509 128.617L203.791 122.35L196.33 122.198L190.696 128.044Z" fill="#575A89"/>
<path opacity="0.1" d="M192.756 128.044L207.571 128.617L205.853 122.35L198.389 122.198L192.756 128.044Z" fill="black"/>
<path d="M195.544 138.389C195.193 139.042 195.329 141.302 195.487 142.973C195.587 144.037 195.697 144.855 195.697 144.855C195.697 144.855 190.16 146.575 189.322 145.085C189.109 144.706 189.003 144.044 188.967 143.267C188.852 140.975 189.322 137.671 189.322 137.671C189.322 137.671 189.093 132.592 188.978 132.094C188.932 131.895 188.861 131.262 188.793 130.577C188.692 129.559 188.596 128.426 188.596 128.426L196.156 124.415C196.156 124.415 196.156 125.167 196.142 126.324C196.101 129.96 195.979 137.587 195.544 138.389Z" fill="#FBBEBE"/>
<path opacity="0.1" d="M195.697 144.855C195.697 144.855 190.16 146.575 189.322 145.085C189.109 144.706 189.003 144.044 188.967 143.267C190.112 143.093 193.599 142.611 195.487 142.973C195.587 144.037 195.697 144.855 195.697 144.855Z" fill="black"/>
<path d="M195.888 173.738H195.801C195.134 173.764 191.345 173.738 191.345 173.738C191.289 173.68 191.237 173.619 191.189 173.555C190.854 173.135 190.633 172.637 190.547 172.107C190.46 171.577 190.512 171.033 190.696 170.529C191.384 168.656 191.459 165.218 191.459 165.218C191.459 165.218 191.727 164.34 191.498 163.843C191.269 163.345 191.42 162.582 191.42 162.582C191.385 162.28 191.308 161.984 191.191 161.704C191.001 161.245 191.23 160.404 191.23 160.404C191.204 159.589 191.076 158.78 190.848 157.997C190.504 157.005 187.984 145.199 188.596 143.785C188.596 143.785 193.94 142.868 195.965 143.556L195.697 152.725C195.697 152.725 194.742 155.476 195.544 156.202C196.346 156.929 195.583 159.182 195.583 159.182C195.583 159.182 195.468 159.602 196.156 161.016C196.843 162.431 196.156 163.079 196.156 163.079V165.791C196.156 165.791 195.622 167.625 196.231 169.115C196.841 170.605 196.156 173.69 195.888 173.738Z" fill="#3F3D56"/>
<path d="M206.377 138.389C206.027 139.042 206.162 141.302 206.32 142.973C206.421 144.037 206.531 144.855 206.531 144.855C206.531 144.855 200.994 146.575 200.155 145.085C199.942 144.706 199.837 144.044 199.8 143.267C199.686 140.975 200.155 137.671 200.155 137.671C200.155 137.671 199.926 132.592 199.812 132.094C199.75 131.826 199.642 129.268 199.557 126.973C199.486 125.016 199.429 123.246 199.429 123.246L206.989 124.415C206.989 124.415 206.989 127.741 206.895 131.159C206.813 134.474 206.659 137.871 206.377 138.389Z" fill="#FBBEBE"/>
<path opacity="0.1" d="M206.531 144.855C206.531 144.855 200.994 146.575 200.155 145.085C199.942 144.706 199.837 144.044 199.8 143.267C200.946 143.093 204.432 142.611 206.32 142.973C206.421 144.037 206.531 144.855 206.531 144.855Z" fill="black"/>
<path d="M206.721 173.738H206.634C205.967 173.764 202.178 173.738 202.178 173.738C202.123 173.68 202.071 173.619 202.022 173.555C201.687 173.136 201.466 172.637 201.38 172.107C201.294 171.577 201.345 171.033 201.53 170.529C202.217 168.647 202.286 165.209 202.286 165.209C202.286 165.209 202.554 164.331 202.325 163.833C202.096 163.336 202.247 162.573 202.247 162.573C202.212 162.271 202.135 161.975 202.018 161.695C201.828 161.236 202.057 160.395 202.057 160.395C202.03 159.58 201.902 158.771 201.674 157.988C201.33 156.995 198.811 145.19 199.422 143.776C199.422 143.776 204.767 142.859 206.792 143.547L206.524 152.716C206.524 152.716 205.569 155.467 206.37 156.193C207.172 156.92 206.409 159.173 206.409 159.173C206.409 159.173 206.295 159.593 206.982 161.007C207.669 162.421 206.982 163.07 206.982 163.07V165.782C206.982 165.782 206.448 167.616 207.058 169.106C207.667 170.596 206.989 173.69 206.721 173.738Z" fill="#3F3D56"/>
<path opacity="0.1" d="M199.248 77.3127C202.222 77.3127 204.632 74.9009 204.632 71.9257C204.632 68.9506 202.222 66.5388 199.248 66.5388C196.275 66.5388 193.865 68.9506 193.865 71.9257C193.865 74.9009 196.275 77.3127 199.248 77.3127Z" fill="black"/>
<path d="M199.248 77.0834C202.222 77.0834 204.632 74.6716 204.632 71.6965C204.632 68.7214 202.222 66.3096 199.248 66.3096C196.275 66.3096 193.865 68.7214 193.865 71.6965C193.865 74.6716 196.275 77.0834 199.248 77.0834Z" fill="#FBBEBE"/>
<path opacity="0.1" d="M188.596 128.426L196.156 124.415C196.156 124.415 196.156 125.167 196.142 126.324C195.038 126.985 193.372 127.977 191.771 128.915C190.9 129.426 190.05 129.921 189.322 130.336C189.153 130.428 188.976 130.505 188.793 130.565C188.692 129.559 188.596 128.426 188.596 128.426Z" fill="black"/>
<path opacity="0.1" d="M206.989 124.406C206.989 124.406 206.989 127.732 206.895 131.15H206.868C206.303 131.17 205.737 131.152 205.175 131.097C204.187 130.992 203.397 130.73 203.113 130.212C202.538 129.204 200.927 127.92 199.567 126.964C199.496 125.006 199.438 123.237 199.438 123.237L206.989 124.406Z" fill="black"/>
<path d="M205.583 95.2728C205.391 96.7649 205.354 98.2729 205.473 99.7726C208.946 102.638 208.297 108.674 208.297 108.674C208.297 108.674 210.971 120.901 210.398 122.008C209.825 123.115 211.695 129.916 211.695 129.916C210.101 130.219 208.488 130.404 206.868 130.471C206.303 130.491 205.737 130.474 205.175 130.418C204.187 130.313 203.397 130.052 203.113 129.534C202.045 127.663 197.425 124.873 197.425 124.873C197.425 124.873 194.497 126.629 191.771 128.227C190.9 128.738 190.05 129.233 189.322 129.648C188.731 129.962 188.078 130.141 187.409 130.173C184.168 130.414 179.849 128.383 180.536 127.663C181.377 126.783 185.54 111.349 185.54 111.349C185.54 111.349 187.638 101.797 189.471 100.46C189.792 100.217 190.032 99.8824 190.158 99.4998C190.786 97.7554 189.737 94.9588 189.737 94.9588C189.737 94.9588 183.819 87.6624 184.085 87.2406C184.351 86.8188 184.353 84.5678 184.353 84.5678C184.353 84.5678 185.079 81.0147 185.499 79.2954C185.918 77.5762 188.935 77.1544 189.812 77.308C190.69 77.4616 192.674 77.9957 193.512 77.308C194.35 76.6203 195.766 77.5762 195.766 77.5762L199.244 78.5344L202.371 76.7006C202.371 76.7006 205.505 76.861 205.773 77.2805C206.041 77.7 210.164 78.5046 210.164 78.5046C212.263 79.9167 212.187 86.6423 212.187 86.6423C212.187 86.6423 207.147 91.0344 206.116 93.29C205.849 93.9236 205.67 94.5907 205.583 95.2728V95.2728Z" fill="#575A89"/>
<path d="M211.046 85.7117L212.192 86.6286L213.376 97.2878L214.558 107.986C214.558 107.986 215.016 109.057 215.399 108.942C215.781 108.827 215.743 115.282 215.743 115.282C215.743 115.282 211.358 112.584 209.786 116.167L208.563 107.528C208.563 107.528 206.996 98.7022 207.035 98.0145C207.074 97.3268 206.233 89.8768 206.233 89.8768L211.046 85.7117Z" fill="#575A89"/>
<path d="M184.93 86.209L184.09 87.2405C184.09 87.2405 184.167 91.6715 183.517 92.7421C182.866 93.8126 185.313 100.077 186.229 99.6946C187.146 99.3118 189.207 89.5328 189.207 89.4182C189.207 89.3036 184.93 86.209 184.93 86.209Z" fill="#575A89"/>
<path d="M184.855 92.5129C184.855 92.5129 182.181 95.2247 182.371 96.5245C182.562 97.8242 185.121 101.907 188.786 99.7131C188.786 99.7131 192.186 93.3152 184.855 92.5129Z" fill="#575A89"/>
<path opacity="0.1" d="M195.8 173.745C195.134 173.771 191.345 173.745 191.345 173.745C191.289 173.687 191.237 173.626 191.189 173.562C192.158 173.232 194.252 172.737 195.8 173.745Z" fill="black"/>
<path opacity="0.1" d="M206.639 173.745C205.972 173.771 202.183 173.745 202.183 173.745C202.127 173.687 202.075 173.626 202.027 173.562C202.992 173.232 205.085 172.737 206.639 173.745Z" fill="black"/>
<path opacity="0.1" d="M192.041 106.551C191.457 112.158 191.649 123.285 191.771 128.227C190.9 128.738 190.05 129.233 189.322 129.648C188.731 129.962 188.077 130.141 187.409 130.173C187.166 128.679 190.529 113.327 192.041 106.551Z" fill="black"/>
<path opacity="0.1" d="M192.756 103.369C192.74 103.449 192.463 104.669 192.041 106.551C192.206 104.944 192.435 103.791 192.756 103.369Z" fill="black"/>
<path opacity="0.1" d="M202.057 102.764C202.057 102.764 205.303 123.166 195.69 125.687C195.688 125.678 202.341 124.667 202.057 102.764Z" fill="black"/>
<path opacity="0.1" d="M206.868 130.471C206.303 130.491 205.737 130.474 205.175 130.419L202.581 102.523C204.235 103.605 206.215 123.402 206.868 130.471Z" fill="black"/>
<path opacity="0.1" d="M195.239 68.5285C195.411 68.5149 195.584 68.5327 195.75 68.5813C195.993 68.7025 196.212 68.8672 196.396 69.0672C196.695 69.3171 197.052 69.487 197.434 69.5612C197.816 69.6353 198.211 69.6113 198.582 69.4913C198.843 69.3745 199.12 69.2972 199.404 69.2621C199.842 69.2621 200.22 69.583 200.446 69.9498C200.673 70.3165 200.79 70.7521 200.985 71.1441C201.179 71.536 201.491 71.9074 201.919 72.0037C202.125 72.0117 202.327 72.0583 202.515 72.1412C202.63 72.235 202.719 72.3575 202.772 72.4965C203.129 73.269 203.413 74.1814 204.176 74.5596C204.457 74.6897 204.762 74.7563 205.072 74.7544C205.386 74.7775 205.701 74.7208 205.988 74.5894C206.27 74.4318 206.503 74.1994 206.662 73.9178C207.138 73.1292 207.193 72.1527 207.081 71.238C206.941 70.0842 206.53 68.9799 205.883 68.0151C205.2 67.0393 204.271 66.2622 203.191 65.7632C202.11 65.2642 200.916 65.0612 199.732 65.1749C199.318 65.2214 198.908 65.298 198.506 65.4041C197.049 65.7938 195.62 66.5228 194.735 67.7446C194.521 68.0496 194.286 68.3391 194.032 68.6111C194.433 68.5721 194.836 68.5377 195.239 68.5285Z" fill="black"/>
<path d="M195.239 68.2993C195.411 68.2856 195.584 68.3035 195.75 68.352C195.993 68.4733 196.212 68.638 196.396 68.838C196.695 69.0878 197.052 69.2578 197.434 69.3319C197.816 69.4061 198.211 69.382 198.582 69.2621C198.843 69.1452 199.12 69.068 199.404 69.0328C199.842 69.0328 200.22 69.3538 200.446 69.7205C200.673 70.0873 200.79 70.5228 200.985 70.9148C201.179 71.3068 201.491 71.6782 201.919 71.7744C202.125 71.7824 202.327 71.8291 202.515 71.912C202.63 72.0057 202.719 72.1283 202.772 72.2673C203.129 73.0398 203.413 73.9521 204.176 74.3304C204.457 74.4605 204.762 74.527 205.072 74.5252C205.386 74.5483 205.701 74.4915 205.988 74.3602C206.27 74.2026 206.503 73.9701 206.662 73.6885C207.138 72.9 207.193 71.9234 207.081 71.0088C206.941 69.855 206.53 68.7506 205.883 67.7858C205.2 66.81 204.271 66.033 203.191 65.534C202.11 65.035 200.916 64.832 199.732 64.9456C199.318 64.9922 198.908 65.0688 198.506 65.1749C197.049 65.5646 195.62 66.2935 194.735 67.5153C194.521 67.8203 194.286 68.1099 194.032 68.3818C194.433 68.3429 194.836 68.3085 195.239 68.2993Z" fill="#3F3D56"/>
<path opacity="0.1" d="M189.398 81.127C189.398 81.127 189.666 83.268 188.749 83.8021C187.833 84.3362 189.398 81.127 189.398 81.127Z" fill="black"/>
<path opacity="0.1" d="M208.831 97.7095C208.831 97.7095 211.007 94.5003 211.314 95.4172C211.621 96.3341 208.831 97.7095 208.831 97.7095Z" fill="black"/>
<path opacity="0.1" d="M208.984 98.7777C208.984 98.7777 211.131 96.1416 211.337 97.1731C211.543 98.2046 208.984 98.7777 208.984 98.7777Z" fill="black"/>
<path opacity="0.1" d="M202.68 95.6396C201.902 95.6506 201.142 95.4004 200.522 94.929H200.334C199.691 95.5166 198.847 95.8342 197.977 95.8161C197.524 95.8266 197.074 95.7451 196.654 95.5764C196.234 95.4078 195.852 95.1555 195.533 94.835H195.283C194.623 95.3725 193.795 95.6589 192.944 95.6434C192.094 95.6278 191.276 95.3114 190.637 94.7502L189.741 94.7341C189.741 94.7341 190.79 97.5307 190.163 99.2752L205.473 99.548C205.354 98.0483 205.391 96.5403 205.583 95.0482V95.0275L204.742 95.0115C204.137 95.4312 203.416 95.6509 202.68 95.6396Z" fill="black"/>
<path opacity="0.1" d="M202.68 96.0981C201.902 96.1091 201.142 95.8589 200.522 95.3875H200.334C199.691 95.9751 198.847 96.2927 197.977 96.2746C197.524 96.2851 197.074 96.2036 196.654 96.0349C196.234 95.8663 195.852 95.614 195.533 95.2935H195.283C194.623 95.831 193.795 96.1174 192.944 96.1019C192.094 96.0863 191.276 95.7699 190.637 95.2087L189.741 95.1926C189.741 95.1926 190.79 97.9892 190.163 99.7337L205.473 100.006C205.354 98.5068 205.391 96.9988 205.583 95.5067V95.486L204.742 95.47C204.137 95.8897 203.416 96.1094 202.68 96.0981Z" fill="black"/>
<path d="M202.68 95.8688C201.902 95.8799 201.142 95.6297 200.522 95.1582H200.334C199.691 95.7458 198.847 96.0635 197.977 96.0453C197.524 96.0559 197.074 95.9743 196.654 95.8057C196.234 95.637 195.852 95.3848 195.533 95.0642H195.283C194.623 95.6017 193.795 95.8881 192.944 95.8726C192.094 95.8571 191.276 95.5406 190.637 94.9794L189.741 94.9634C189.741 94.9634 190.79 97.76 190.163 99.5044L205.473 99.7772C205.354 98.2775 205.391 96.7696 205.583 95.2774V95.2568L204.742 95.2407C204.137 95.6605 203.416 95.8801 202.68 95.8688V95.8688Z" fill="#3F3D56"/>
<path opacity="0.1" d="M202 80.5837C202 80.5837 205.223 80.7901 205.243 81.2485C205.264 81.707 202 80.5837 202 80.5837Z" fill="black"/>
<path opacity="0.1" d="M194.169 78.6284C194.169 78.6284 190.946 78.8347 190.925 79.2932C190.905 79.7517 194.169 78.6284 194.169 78.6284Z" fill="black"/>
<path opacity="0.1" d="M206.487 88.0016C206.455 87.9787 206.423 87.9603 206.391 87.9397C207.216 88.6824 207.078 90.3054 206.066 91.6441C205.053 92.9828 203.516 93.5398 202.581 92.9392C202.611 92.9644 202.636 92.9919 202.668 93.0172C203.585 93.7186 205.188 93.1684 206.247 91.7839C207.305 90.3993 207.408 88.7053 206.487 88.0016Z" fill="black"/>
<path opacity="0.1" d="M188.781 91.4722C187.966 90.0005 188.071 88.3753 188.994 87.7587C188.96 87.7747 188.923 87.7885 188.889 87.8068C187.876 88.3707 187.743 90.0601 188.582 91.5822C189.42 93.1043 190.932 93.8745 191.945 93.3198C191.978 93.3005 192.011 93.2791 192.041 93.2556C191.031 93.7141 189.597 92.9439 188.781 91.4722Z" fill="black"/>
<path opacity="0.1" d="M189.872 79.0616L189.576 79.5201L188.823 79.1189L189.219 78.5092C189.481 78.6331 189.706 78.8236 189.872 79.0616V79.0616Z" fill="black"/>
<path d="M185.084 96.0269C185.084 96.0269 185.755 92.8681 184.855 91.8641C183.954 90.8601 184.243 85.5969 185.618 85.7116C186.992 85.8262 189.054 89.989 188.71 90.8692C188.367 91.7495 187.068 96.2562 187.068 96.2562L185.084 96.0269Z" fill="#FBBEBE"/>
<path opacity="0.1" d="M206.639 73.2369C206.48 73.5185 206.247 73.7509 205.965 73.9085C205.678 74.0399 205.363 74.0967 205.049 74.0736C204.739 74.0754 204.434 74.0089 204.153 73.8787C203.39 73.4982 203.106 72.5859 202.749 71.8156C202.703 71.6767 202.623 71.5519 202.515 71.4535C202.329 71.369 202.13 71.3201 201.926 71.309C201.498 71.2128 201.189 70.8391 200.992 70.4494C200.795 70.0597 200.678 69.6288 200.453 69.2551C200.229 68.8815 199.848 68.5537 199.411 68.5675C199.126 68.6052 198.849 68.6864 198.588 68.8081C198.218 68.9272 197.823 68.9505 197.441 68.876C197.059 68.8014 196.702 68.6314 196.403 68.3818C196.219 68.1817 196 68.0171 195.757 67.8958C195.591 67.8473 195.418 67.8294 195.246 67.8431C194.983 67.8431 194.722 67.8683 194.458 67.8889C194.328 68.0602 194.188 68.2239 194.039 68.3795C194.44 68.3451 194.843 68.3107 195.246 68.3015C195.418 68.2879 195.591 68.3057 195.757 68.3543C196 68.4755 196.219 68.6402 196.403 68.8402C196.702 69.0899 197.059 69.2599 197.441 69.3344C197.823 69.409 198.218 69.3856 198.588 69.2666C198.849 69.1449 199.126 69.0637 199.411 69.0259C199.848 69.0259 200.226 69.3468 200.453 69.7136C200.68 70.0804 200.797 70.5159 200.992 70.9079C201.186 71.2999 201.498 71.6712 201.926 71.7675C202.13 71.7785 202.329 71.8275 202.515 71.9119C202.63 72.0057 202.719 72.1282 202.772 72.2672C203.129 73.0397 203.413 73.9521 204.176 74.3303C204.457 74.4604 204.762 74.527 205.072 74.5252C205.386 74.5483 205.701 74.4915 205.988 74.3601C206.27 74.2025 206.503 73.9701 206.661 73.6885C207.017 73.0405 207.176 72.3029 207.12 71.5658C207.102 72.1544 206.937 72.7292 206.639 73.2369V73.2369Z" fill="black"/>
<path d="M186.099 98.5324C187.237 98.5324 188.16 97.9064 188.16 97.1341C188.16 96.3619 187.237 95.7358 186.099 95.7358C184.96 95.7358 184.037 96.3619 184.037 97.1341C184.037 97.9064 184.96 98.5324 186.099 98.5324Z" fill="#575A89"/>
<path d="M118.894 174.969C157.925 174.969 189.567 143.308 189.567 104.252C189.567 65.1955 157.925 33.5342 118.894 33.5342C79.862 33.5342 48.2205 65.1955 48.2205 104.252C48.2205 143.308 79.862 174.969 118.894 174.969Z" fill="#0EA5E9"/>
<path d="M155.976 139.789C155.976 150.953 138.437 140.743 119.634 140.743C100.83 140.743 81.8115 150.531 81.8115 139.368C81.8115 133.002 87.8732 124.149 96.5693 117.719C103.121 112.873 111.167 109.403 119.249 109.403C127.56 109.403 135.702 113.16 142.197 118.317C150.393 124.821 155.976 133.559 155.976 139.789Z" fill="#444053"/>
<path d="M142.194 118.313C132.199 116.807 114.122 114.971 96.5693 117.715C103.121 112.869 111.167 109.398 119.249 109.398C127.558 109.398 135.7 113.155 142.194 118.313Z" fill="#F6F8FB"/>
<path opacity="0.05" d="M81.8115 54.3323C81.8115 54.3323 60.5225 67.9509 60.6966 89.2533C60.8707 110.556 81.8115 54.3323 81.8115 54.3323Z" fill="black"/>
<path d="M189.54 15.8696C189.54 15.8696 170.251 14.7074 172.525 28.232C172.525 28.232 172.067 30.6206 174.239 31.7071C174.239 31.7071 174.273 30.7054 176.216 31.0447C176.908 31.1606 177.612 31.1944 178.312 31.1455C179.258 31.0812 180.158 30.7093 180.873 30.0865V30.0865C180.873 30.0865 186.296 27.8469 188.406 18.978C188.406 18.978 189.966 17.0433 189.904 16.5481L186.649 17.9373C186.649 17.9373 187.76 20.2869 186.878 22.2399C186.878 22.2399 186.772 18.0244 186.147 18.1138C186.021 18.1344 184.456 18.9275 184.456 18.9275C184.456 18.9275 186.369 23.0216 184.914 25.9947C184.914 25.9947 185.462 20.9516 183.847 19.2232L181.556 20.562C181.556 20.562 183.792 24.789 182.275 28.2389C182.275 28.2389 182.665 22.9482 181.075 20.8875L178.997 22.5081C178.997 22.5081 181.098 26.6755 179.817 29.5363C179.817 29.5363 179.65 23.3769 178.548 22.9116C178.548 22.9116 176.731 24.5162 176.454 25.1741C176.454 25.1741 177.893 28.1976 177.002 29.7931C177.002 29.7931 176.454 25.6898 176.005 25.6669C176.005 25.6669 174.195 28.3856 174.005 30.2515C174.005 30.2515 174.085 27.4778 175.565 25.4079C175.565 25.4079 173.815 25.7082 172.796 26.8452C172.796 26.8452 173.077 24.9219 176.003 24.7546C176.003 24.7546 177.499 22.6915 177.9 22.5677C177.9 22.5677 174.979 22.3224 173.208 23.1087C173.208 23.1087 174.766 21.2955 178.433 22.1184L180.495 20.445C180.495 20.445 176.651 19.9178 175.02 20.5001C175.02 20.5001 176.896 18.8954 181.047 20.0645L183.281 18.7281C183.281 18.7281 180.003 18.0221 178.049 18.2696C178.049 18.2696 180.11 17.1579 183.934 18.3636L185.537 17.6461C185.537 17.6461 183.134 17.1739 182.431 17.1006C181.728 17.0272 181.691 16.8301 181.691 16.8301C183.217 16.5818 184.782 16.7636 186.211 17.355C186.211 17.355 189.597 16.0828 189.54 15.8696Z" fill="#0EA5E9"/>
<path d="M169.756 9.85688C169.756 9.85688 161.05 9.32965 162.068 15.4409C162.068 15.4409 161.864 16.5206 162.842 17.0112C162.842 17.0112 162.856 16.5527 163.735 16.7132C164.048 16.7646 164.365 16.78 164.681 16.759C165.109 16.7285 165.516 16.5604 165.841 16.2799V16.2799C165.841 16.2799 168.29 15.2667 169.243 11.2598C169.243 11.2598 169.948 10.3864 169.93 10.1618L168.459 10.7898C168.459 10.7898 168.963 11.8512 168.567 12.7337C168.567 12.7337 168.519 10.8288 168.237 10.8747C168.18 10.8747 167.472 11.2414 167.472 11.2414C167.472 11.2414 168.338 13.0913 167.685 14.4346C167.685 14.4346 167.932 12.1561 167.204 11.3744L166.168 11.9796C166.168 11.9796 167.178 13.8913 166.493 15.4501C166.493 15.4501 166.668 13.0592 165.951 12.1285L165.011 12.8598C165.011 12.8598 165.96 14.7418 165.382 16.0346C165.382 16.0346 165.307 13.2518 164.807 13.0409C164.807 13.0409 163.987 13.7653 163.861 14.0633C163.861 14.0633 164.512 15.4386 164.109 16.1515C164.109 16.1515 163.861 14.2971 163.651 14.2902C163.651 14.2902 162.833 15.5166 162.748 16.3533C162.787 15.5746 163.03 14.8199 163.451 14.1641C162.98 14.2534 162.545 14.4789 162.2 14.8128C162.2 14.8128 162.326 13.9441 163.653 13.8684C163.653 13.8684 164.329 12.9377 164.51 12.8804C164.51 12.8804 163.19 12.7704 162.391 13.1257C162.391 13.1257 163.094 12.3051 164.752 12.6672L165.669 11.9131C165.669 11.9131 163.932 11.6838 163.195 11.936C163.195 11.936 164.042 11.2116 165.918 11.7412L166.926 11.136C166.926 11.136 165.447 10.8174 164.562 10.932C164.562 10.932 165.495 10.43 167.222 10.9755L167.944 10.65C167.944 10.65 166.858 10.4368 166.542 10.4047C166.225 10.3726 166.205 10.2832 166.205 10.2832C166.893 10.1688 167.599 10.2481 168.244 10.5125C168.244 10.5125 169.781 9.95315 169.756 9.85688Z" fill="#0EA5E9"/>
<path opacity="0.1" d="M245.831 167.341C249.238 167.341 252 166.874 252 166.298C252 165.722 249.238 165.255 245.831 165.255C242.423 165.255 239.661 165.722 239.661 166.298C239.661 166.874 242.423 167.341 245.831 167.341Z" fill="#0EA5E9"/>
<path opacity="0.1" d="M10.7145 184.691C14.1217 184.691 16.8838 184.224 16.8838 183.648C16.8838 183.072 14.1217 182.605 10.7145 182.605C7.30726 182.605 4.54517 183.072 4.54517 183.648C4.54517 184.224 7.30726 184.691 10.7145 184.691Z" fill="#0EA5E9"/>
<path opacity="0.1" d="M46.5275 186C49.9347 186 52.6968 185.533 52.6968 184.957C52.6968 184.381 49.9347 183.914 46.5275 183.914C43.1202 183.914 40.3582 184.381 40.3582 184.957C40.3582 185.533 43.1202 186 46.5275 186Z" fill="#0EA5E9"/>
<path d="M232.328 179.034C237.416 179.034 241.54 178.336 241.54 177.475C241.54 176.614 237.416 175.916 232.328 175.916C227.241 175.916 223.117 176.614 223.117 177.475C223.117 178.336 227.241 179.034 232.328 179.034Z" fill="#0EA5E9"/>
<path d="M236.136 174.928C236.556 174.585 236.863 174.122 237.016 173.601C237.128 173.076 236.903 172.443 236.402 172.251C235.838 172.035 235.236 172.427 234.78 172.822C234.324 173.216 233.799 173.665 233.201 173.583C233.509 173.304 233.739 172.95 233.869 172.556C233.999 172.162 234.025 171.741 233.943 171.334C233.917 171.165 233.846 171.007 233.737 170.875C233.423 170.541 232.858 170.683 232.482 170.946C231.291 171.785 230.958 173.404 230.952 174.862C230.832 174.337 230.933 173.789 230.931 173.257C230.929 172.725 230.78 172.111 230.326 171.829C230.045 171.679 229.729 171.604 229.41 171.614C228.874 171.593 228.278 171.646 227.912 172.038C227.453 172.526 227.575 173.342 227.971 173.871C228.368 174.401 228.968 174.745 229.52 175.114C229.964 175.378 230.343 175.739 230.629 176.171C230.662 176.231 230.69 176.295 230.711 176.361H234.067C234.818 175.979 235.514 175.497 236.136 174.928V174.928Z" fill="#0EA5E9"/>
<path d="M13.5941 155.707C13.5941 155.707 14.8518 157.353 13.0122 159.833C11.1726 162.314 9.65608 164.418 10.2632 165.968C10.2632 165.968 13.0374 161.351 15.3031 161.284C17.5687 161.218 16.0774 158.483 13.5941 155.707Z" fill="#0EA5E9"/>
<path opacity="0.1" d="M13.5939 155.707C13.7032 155.866 13.7895 156.04 13.8505 156.223C16.0543 158.813 17.2273 161.232 15.1105 161.291C13.1358 161.349 10.7579 164.879 10.2012 165.77C10.2206 165.84 10.2436 165.908 10.2699 165.974C10.2699 165.974 13.0441 161.358 15.3098 161.291C17.5755 161.225 16.0772 158.483 13.5939 155.707Z" fill="black"/>
<path d="M15.933 157.805C15.933 158.385 15.8666 158.855 15.7864 158.855C15.7062 158.855 15.6421 158.396 15.6421 157.805C15.6421 157.213 15.7223 157.497 15.8047 157.497C15.8872 157.497 15.933 157.225 15.933 157.805Z" fill="#FFD037"/>
<path d="M16.7255 158.497C16.217 158.774 15.7748 158.942 15.7359 158.871C15.6969 158.799 16.0795 158.52 16.5881 158.242C17.0967 157.965 16.8951 158.167 16.934 158.242C16.973 158.318 17.2433 158.22 16.7255 158.497Z" fill="#FFD037"/>
<path d="M6.94579 155.707C6.94579 155.707 5.68811 157.353 7.52538 159.833C9.36266 162.314 10.8815 164.418 10.2744 165.968C10.2744 165.968 7.49789 161.351 5.23451 161.284C2.97114 161.218 4.4602 158.483 6.94579 155.707Z" fill="#0EA5E9"/>
<path opacity="0.1" d="M6.94594 155.707C6.83572 155.866 6.74928 156.039 6.68936 156.223C4.48555 158.813 3.31033 161.232 5.42939 161.291C7.40182 161.349 9.78203 164.879 10.3364 165.77C10.3177 165.839 10.2956 165.908 10.27 165.974C10.27 165.974 7.49346 161.358 5.23008 161.291C2.9667 161.225 4.46035 158.483 6.94594 155.707Z" fill="black"/>
<path d="M4.60693 157.805C4.60693 158.385 4.67108 158.855 4.75126 158.855C4.83144 158.855 4.89558 158.396 4.89558 157.805C4.89558 157.213 4.8154 157.497 4.73522 157.497C4.65504 157.497 4.60693 157.225 4.60693 157.805Z" fill="#FFD037"/>
<path d="M3.80277 158.497C4.31134 158.774 4.75577 158.942 4.79471 158.871C4.83366 158.799 4.45108 158.52 3.94251 158.242C3.43394 157.965 3.63325 158.167 3.59659 158.242C3.55994 158.318 3.2942 158.22 3.80277 158.497Z" fill="#FFD037"/>
<path d="M5.00781 165.759C5.00781 165.759 8.52659 165.651 9.58955 164.895C10.6525 164.138 15.0029 163.237 15.2663 164.436C15.5298 165.635 20.5536 170.465 16.5813 170.497C12.6089 170.529 7.35137 169.876 6.29299 169.232C5.23461 168.588 5.00781 165.759 5.00781 165.759Z" fill="#A8A8A8"/>
<path opacity="0.2" d="M16.6477 170.087C12.6753 170.119 7.41781 169.466 6.35942 168.822C5.55304 168.331 5.23232 166.568 5.12465 165.754H5.00781C5.00781 165.754 5.2369 168.595 6.28841 169.239C7.33992 169.883 12.6043 170.536 16.5767 170.504C17.7221 170.504 18.1184 170.085 18.0978 169.482C17.9375 169.851 17.5022 170.08 16.6477 170.087Z" fill="black"/>
<path d="M93.7676 94.9794C95.1123 94.9037 101.442 94.4269 105.462 92.1323C106.108 91.7522 106.838 91.5373 107.586 91.5065C108.864 91.4699 110.335 92.004 109.394 94.9931C107.868 99.8826 99.0091 105.384 93.511 105.079C88.2237 104.786 81.9513 102.654 77.8094 95.1582C77.4126 94.437 77.2171 93.6222 77.2436 92.7994C77.2917 91.2865 77.8415 89.3907 80.6799 91.5042C84.5148 94.3582 91.7906 94.8991 93.2499 94.9794C93.4223 94.9886 93.5951 94.9886 93.7676 94.9794V94.9794Z" fill="#444053"/>
<path d="M144.625 94.9794C145.97 94.9037 152.299 94.4269 156.32 92.1323C156.965 91.7522 157.695 91.5373 158.443 91.5065C159.722 91.4699 161.192 92.004 160.251 94.9931C158.725 99.8826 149.866 105.384 144.368 105.079C139.081 104.786 132.808 102.654 128.667 95.1582C128.27 94.437 128.074 93.6222 128.101 92.7994C128.149 91.2865 128.699 89.3907 131.537 91.5042C135.372 94.3582 142.648 94.8991 144.107 94.9794C144.28 94.9886 144.452 94.9886 144.625 94.9794V94.9794Z" fill="#444053"/>
</g>
<defs>
<linearGradient id="paint0_linear_32_4763" x1="204.377" y1="173.755" x2="204.377" y2="60.5054" gradientUnits="userSpaceOnUse">
<stop stop-color="#808080" stop-opacity="0.25"/>
<stop offset="0.54" stop-color="#808080" stop-opacity="0.12"/>
<stop offset="1" stop-color="#808080" stop-opacity="0.1"/>
</linearGradient>
<clipPath id="clip0_32_4763">
<rect width="252" height="186" fill="white"/>
</clipPath>
</defs>
</svg>
