<svg width="231" height="152" viewBox="0 0 231 152" fill="none" xmlns="http://www.w3.org/2000/svg">
<g clip-path="url(#clip0_27_1174)">
<path d="M197.877 148.47L197.883 150.939V151.46H193.125V150.678L193.122 141.026L193.116 131.674V129.958L193.113 122.997L193.11 122.885L192.282 99.4482V99.4295L191.439 75.5393V75.5362L191.418 74.8873L187.311 77.0699L182.246 79.7616L179.841 81.0407L176.407 82.8632L170.617 85.943H170.614L140.587 101.898L140.525 150.939V151.46H135.932L135.913 150.939L134.388 103.761L90.1037 86.0734L85.4174 84.2013L83.4152 56.5171C82.9131 49.5783 86.6262 43.2169 92.5027 40.1184C93.9532 39.3547 95.5339 38.7896 97.2138 38.4636L103.977 37.1504L120.856 33.8688L126.317 32.8101L133.455 31.4223L136.27 30.8759L140.897 29.9755L141.315 29.8948L142.62 29.6402L143.085 29.5502L143.841 29.4043L144.375 30.3481C144.378 30.3481 144.378 30.3512 144.378 30.3543L147.514 35.9302L148.078 36.9362L148.081 36.9393L150.8 41.767C150.8 41.767 150.803 41.7701 150.803 41.7732L153.45 46.4798L158.644 47.5137L161.204 48.0228L177.073 51.1803L179.166 51.5994H179.169L184.462 52.6519L185.863 52.9313L192.406 54.2321L192.456 54.2414L195.36 54.8189L200.251 55.7938L197.805 122.997L197.852 139.38V139.383L197.877 148.47H197.877Z" fill="#3F3D56"/>
<path d="M116.684 18.9634C115.99 17.6532 113.994 14.8497 111.694 11.7016C111.266 11.1148 110.829 10.5187 110.389 9.91643C109.605 8.85154 108.809 7.76802 108.037 6.71244C107.544 6.017 106.58 5.85246 105.886 6.34298L101.261 9.62148C100.567 10.112 100.4 11.0776 100.893 11.773L102.284 13.7445L102.65 14.2629L103.189 15.0267L103.837 15.9426V15.9456L104.02 16.2002L104.665 17.1161L105.021 17.619L108.142 22.0401L109.543 24.0239C110.033 24.7194 110.997 24.8839 111.691 24.3934L115.714 21.5402L116.281 21.1397L116.315 21.1149C117.01 20.6243 117.177 19.6588 116.684 18.9634Z" fill="#3F3D56"/>
<path d="M111.688 11.6333L110.482 9.92884C110.46 9.8978 110.42 9.89158 110.392 9.91332L110.389 9.91643C110.361 9.93506 110.355 9.97231 110.377 10.0034L111.582 11.7109C111.601 11.7389 111.641 11.7451 111.672 11.7264C111.682 11.7202 111.688 11.7109 111.694 11.7016C111.703 11.6799 111.703 11.655 111.688 11.6333H111.688Z" fill="#3F3D56"/>
<path d="M107.916 6.79692L116.565 19.0482C116.992 19.6532 116.872 20.4812 116.304 20.9407L116.304 20.9408C116.296 20.9476 116.287 20.9544 116.278 20.961C116.263 20.973 116.248 20.9844 116.232 20.9957C116.232 20.9957 116.17 21.0329 116.058 21.1007C115.944 21.1693 115.778 21.2687 115.571 21.392C115.509 21.4291 115.443 21.468 115.374 21.509C115.236 21.5908 115.084 21.6805 114.921 21.776C114.857 21.8143 114.789 21.8535 114.721 21.8938C114.37 22.0994 113.976 22.3284 113.559 22.5672C113.488 22.6078 113.417 22.6486 113.346 22.6894C113.327 22.7 109.762 24.0819 109.661 23.9389L101.012 11.6877C100.567 11.0576 100.716 10.1858 101.345 9.74019L102.025 9.25857C102.134 9.18163 102.281 9.20458 102.367 9.3065C102.373 9.31314 102.379 9.31977 102.385 9.32603C102.482 9.42114 102.635 9.42642 102.746 9.34797L105.136 7.65509C105.247 7.57664 105.293 7.42993 105.235 7.30691C105.232 7.29877 105.227 7.29101 105.223 7.28324C105.156 7.16811 105.183 7.02146 105.292 6.94452L105.972 6.4629C106.601 6.01729 107.471 6.16681 107.916 6.79692H107.916Z" fill="#0EA5E9"/>
<path d="M102.647 14.2008L102.343 13.7724C102.331 13.7537 102.309 13.7413 102.284 13.7444C102.275 13.7444 102.263 13.7506 102.253 13.7568C102.225 13.7786 102.216 13.8189 102.238 13.8469L102.538 14.2753C102.56 14.3033 102.6 14.3126 102.631 14.2908C102.641 14.2846 102.647 14.2753 102.65 14.2629C102.659 14.2443 102.659 14.2194 102.647 14.2008L102.647 14.2008Z" fill="#3F3D56"/>
<path d="M103.831 15.8804L103.248 15.0515C103.233 15.0328 103.211 15.0235 103.189 15.0267C103.177 15.0267 103.164 15.0298 103.158 15.036C103.127 15.0577 103.121 15.0981 103.143 15.1291L103.725 15.9549C103.747 15.9829 103.787 15.9922 103.815 15.9705C103.825 15.9642 103.831 15.9549 103.837 15.9456V15.9425C103.846 15.9239 103.846 15.8991 103.831 15.8804V15.8804Z" fill="#3F3D56"/>
<path d="M104.658 17.054L104.076 16.2251C104.06 16.2064 104.039 16.1971 104.02 16.2002C104.008 16.2002 103.995 16.2033 103.986 16.2096C103.955 16.2313 103.949 16.2717 103.97 16.3027L104.553 17.1285C104.575 17.1565 104.615 17.1658 104.643 17.1441C104.652 17.1378 104.662 17.1285 104.665 17.1161C104.674 17.0975 104.674 17.0726 104.658 17.054V17.054Z" fill="#3F3D56"/>
<path d="M102.082 9.49853L101.177 10.1397C101.14 10.1657 101.131 10.2167 101.157 10.2535C101.183 10.2903 101.234 10.299 101.271 10.273L102.176 9.63185C102.213 9.60582 102.222 9.55486 102.196 9.51804C102.17 9.48123 102.119 9.47249 102.082 9.49853Z" fill="#E6E6E6"/>
<path d="M105.611 7.16942C105.683 7.16942 105.741 7.11093 105.741 7.03878C105.741 6.96663 105.683 6.90814 105.611 6.90814C105.539 6.90814 105.48 6.96663 105.48 7.03878C105.48 7.11093 105.539 7.16942 105.611 7.16942Z" fill="#E6E6E6"/>
<path d="M105.904 6.96196C105.976 6.96196 106.034 6.90347 106.034 6.83132C106.034 6.75917 105.976 6.70068 105.904 6.70068C105.832 6.70068 105.773 6.75917 105.773 6.83132C105.773 6.90347 105.832 6.96196 105.904 6.96196Z" fill="#E6E6E6"/>
<path d="M106.197 6.75451C106.269 6.75451 106.327 6.69602 106.327 6.62387C106.327 6.55171 106.269 6.49323 106.197 6.49323C106.125 6.49323 106.066 6.55171 106.066 6.62387C106.066 6.69602 106.125 6.75451 106.197 6.75451Z" fill="#E6E6E6"/>
<path d="M140.897 14.3468H122.92V31.4223H140.897V14.3468Z" fill="#2F2E41"/>
<path d="M110.217 19.8888C109.653 20.8052 108.93 21.5181 108.183 21.9614L103.368 31.0308L99.1265 28.6091L104.468 19.6699C104.527 18.8025 104.837 17.8346 105.4 16.9182C106.687 14.8247 108.809 13.7926 110.139 14.6129C111.469 15.4332 111.504 17.7953 110.217 19.8888Z" fill="#A0616A"/>
<path d="M191.945 141.261L195.812 140.485L194.067 122.693L188.361 123.838L191.945 141.261Z" fill="#A0616A"/>
<path d="M206.947 146.325C207.093 146.975 206.75 147.607 206.181 147.735L198.547 149.456C198.547 149.456 197.116 146.6 193.761 145.989L194.521 150.363L190.583 151.251L189.497 144.186C189.497 144.186 187.607 140.701 189.368 138.305C191.128 135.909 189.416 136.574 189.416 136.574L189.309 132.074L195.418 131.433L196.98 138.183L201.376 144.242L206.083 145.383C206.501 145.484 206.841 145.854 206.947 146.325H206.947Z" fill="#2F2E41"/>
<path d="M125.245 50.2054L125.555 52.3787C125.555 52.3787 132.064 59.5194 133.613 62.624L152.414 53.3101L149.11 45.5485L125.245 50.2054Z" fill="#A0616A"/>
<path d="M148.8 52.6892C148.8 52.6892 131.234 57.6566 132.733 62.624C134.233 67.5914 135.159 69.6315 135.159 69.6315C135.159 69.6315 131.754 77.2158 142.292 80.6309C152.83 84.0461 175.455 86.5298 175.455 86.5298L188.938 131.081L195.292 129.374L190.134 78.0696L164.917 69.1438L166.467 59.8298L161.198 62.0031L152.414 52.265L148.8 52.6892V52.6892Z" fill="#E6E6E6"/>
<path d="M175.051 96.1226L178.802 97.3404L185.97 80.9678L180.434 79.1703L175.051 96.1226Z" fill="#A0616A"/>
<path d="M185.662 107.89C185.472 108.529 184.865 108.912 184.306 108.745L176.807 106.505C176.807 106.505 176.954 103.313 174.326 101.136L172.853 105.324L168.984 104.168L171.488 97.4743C171.488 97.4743 171.541 93.5089 174.247 92.2819C176.952 91.0549 175.134 90.7951 175.134 90.7951L177.239 86.8179L182.879 89.2526L180.946 95.9052L181.821 103.343L185.369 106.645C185.684 106.939 185.8 107.428 185.662 107.89L185.662 107.89V107.89Z" fill="#2F2E41"/>
<path d="M159.677 62.624L166.467 59.8298L182.274 49.5845C182.274 49.5845 194.362 39.899 195.292 52.969C196.222 66.0391 187.543 86.2193 187.543 86.2193L176.385 83.1146L177.519 69.2794L162.903 73.6455L159.677 62.624Z" fill="#E6E6E6"/>
<path d="M142.553 28.1135L151.125 51.292L162.748 64.1763L174.216 56.7251L160.965 53.31L161.316 45.5484L142.553 28.1135Z" fill="#2F2E41"/>
<path d="M92.2114 150.794V151.46H87.5956L87.5838 150.794L85.9871 65.483H91.9657L91.9776 67.8761L92.2114 150.794Z" fill="#3F3D56"/>
<path d="M188.263 58.1363C187.299 57.6616 186.522 57.0082 186.01 56.3057L176.54 52.3651L178.544 47.9059L187.935 52.3833C188.802 52.3598 189.794 52.5769 190.758 53.0516C192.961 54.1359 194.188 56.1532 193.499 57.5573C192.81 58.9614 190.466 59.2206 188.263 58.1363V58.1363Z" fill="#A0616A"/>
<path d="M138.262 26.9206L140.453 25.9684C140.453 25.9684 149.11 28.4387 149.885 29.8529C150.66 31.2671 154.999 37.1659 154.999 37.1659L185.684 50.2054L182.894 55.7937L161.198 50.2054L149.42 37.7868L138.262 26.9206V26.9206Z" fill="#2F2E41"/>
<path d="M134.853 25.0578L124.625 24.4369L119.356 27.2311L125.245 53.3101C125.245 53.3101 142.587 45.8589 150.188 48.1874C150.188 48.1874 152.937 41.0523 148.079 36.9359L140.122 26.2997L134.853 25.0578V25.0578Z" fill="#0EA5E9"/>
<path d="M124.005 25.9892L123.907 24.9822L113.777 28.7834C113.777 28.7834 110.058 31.5775 108.818 32.8194C107.578 34.0613 103.859 36.545 103.859 36.545L106.958 25.3683L101.999 23.195C101.999 23.195 87.122 42.7543 94.2507 44.3066C101.379 45.8589 113.777 43.0647 113.777 43.0647L114.397 77.5263L140.277 78.3024L129.584 42.4438L124.005 25.9892V25.9892Z" fill="#2F2E41"/>
<path d="M131.718 23.0464C136.559 23.0464 140.483 19.1155 140.483 14.2666C140.483 9.41766 136.559 5.48682 131.718 5.48682C126.878 5.48682 122.953 9.41766 122.953 14.2666C122.953 19.1155 126.878 23.0464 131.718 23.0464Z" fill="#A0616A"/>
<path d="M127.569 0.0654167C121.967 0.933936 122.235 3.01903 120.441 4.10145C117.281 6.00843 116.034 11.5152 117.703 15.1491C118.149 16.12 119.089 17.4445 118.633 18.8747C118.282 19.9725 117.272 20.6201 117.083 20.7374C115.531 21.6974 116.544 20.5554 115.843 21.3584C115.069 22.2447 116.268 23.4967 115.533 25.0839C114.881 26.4911 113.538 26.3723 113.364 27.2572C113.063 28.7809 116.512 31.8446 120.182 31.6037C123.45 31.3892 125.878 28.6217 126.691 26.0153C127.236 24.2694 127.47 21.2663 126.071 19.8061C125.875 19.6012 125.338 19.1053 124.831 18.2537C124.43 17.5799 123.902 16.6928 124.211 16.0805C124.541 15.4281 125.476 15.7715 126.071 15.1491C126.878 14.305 125.919 12.8789 126.071 11.4235C126.328 8.95905 129.814 5.99497 133.51 6.45608C137.702 6.97916 139.24 11.5454 139.399 12.0444C139.728 13.0787 139.722 14.0793 139.709 16.0805C139.69 18.9523 139.678 20.7523 138.779 22.6002C137.486 25.258 135.838 24.9709 135.369 26.9467C134.639 30.0273 138.076 33.1213 138.469 33.4665C141.383 36.0257 145.785 36.7952 146.527 35.6397C147.196 34.5985 144.26 32.9788 144.358 29.7409C144.442 26.9349 146.709 26.0796 146.217 24.1526C145.676 22.0313 142.788 22.5152 141.568 20.1165C140.429 17.8775 142.528 16.6353 142.188 12.0444C142.116 11.0733 141.812 8.28609 140.019 5.52469C139.229 4.30815 138.425 3.07088 136.919 2.42004C135.233 1.69144 130.533 -0.393988 127.569 0.0654167Z" fill="#2F2E41"/>
<path d="M123.85 7.82701C124.077 9.74953 126.96 10.6917 128.189 10.9317C128.71 11.0333 130.47 11.3767 132.219 10.6212C132.865 10.3419 133.1 10.0894 133.768 10.0003C134.673 9.87967 135.128 10.2242 136.558 10.6212C138.147 11.0626 138.942 11.2833 139.347 10.9317C140.01 10.3568 139.501 8.47625 138.727 7.20609C137.297 4.85748 134.679 4.13021 133.458 3.79098C132.063 3.40343 129.233 2.61696 126.64 4.10144C126.293 4.29992 123.619 5.87373 123.85 7.82702V7.82701Z" fill="#2F2E41"/>
<path d="M191.635 58.1966C187.499 60.1287 185.855 57.6054 185.855 57.6054L185.857 56.8533L185.869 47.1794C188.75 45.296 193.612 48.0316 193.612 48.0316L191.741 57.6524L191.635 58.1966V58.1966Z" fill="#3F3D56"/>
<path d="M192.974 46.2627C192.974 46.2627 188.697 44.4287 186.388 45.8101C186.388 45.8101 183.979 48.2551 185.865 48.966L193.29 49.6867C193.29 49.6867 194.979 48.5525 194.243 47.6193C193.506 46.6861 192.974 46.2627 192.974 46.2627V46.2627Z" fill="#0EA5E9"/>
<path d="M40.0281 123.029L43.5939 152L70.9316 151.603L71.2685 123.029H40.0281Z" fill="#F2F2F2"/>
<path d="M62.7337 118.211C61.9151 118.263 61.4628 117.244 62.082 116.65L62.1436 116.405C62.1356 116.386 62.1275 116.366 62.1193 116.347C61.2895 114.365 59.8039 116.235 57.663 116.369C54.5143 116.564 54.5613 118.95 55.7811 121.739C56.1122 122.496 53.3014 116.387 53.3014 112.285C53.3014 111.255 53.3577 110.224 53.4729 109.196C53.5676 108.356 53.6981 107.52 53.867 106.692C54.7805 102.217 56.7586 97.9538 59.6119 94.3934C60.9835 93.6423 62.1274 92.4683 62.8183 91.0611C63.0665 90.5535 65.1992 90.1248 65.2913 89.5685C65.1352 89.5891 62.7646 87.0905 62.8823 86.9444C62.6648 86.6137 62.2754 86.4493 62.0378 86.1267C60.8562 84.522 59.2283 84.8022 58.3785 86.9828C56.563 87.9007 56.5454 89.4228 57.6594 90.8868C58.3681 91.8181 58.4655 93.0784 59.0873 94.0755C59.0233 94.1575 58.9568 94.237 58.8928 94.319C58.8682 94.3506 58.8437 94.3823 58.8193 94.414C57.8155 95.7149 55.8113 95.3817 55.2524 93.8358C55.2116 93.723 54.8656 99.8307 55.126 93.509C55.3863 87.1873 53.1165 90.4055 51.9673 88.9477C50.5947 87.2064 47.8026 87.9977 47.5607 90.2031C47.5584 90.2242 47.5561 90.2453 47.5539 90.2664C47.7238 90.3625 47.8903 90.4645 48.0529 90.5722C48.9798 91.1863 48.6591 92.6256 47.5609 92.7951L47.536 92.799C47.5974 93.4116 47.7023 94.0191 47.8559 94.6164C46.3896 100.296 49.5541 102.366 54.0735 102.46L54.309 102.796C53.881 104.029 53.5367 105.292 53.2784 106.572C53.0353 107.758 52.8664 108.958 52.7717 110.163L52.7678 110.214C52.6894 111.239 51.3948 111.675 50.7441 110.88C50.5785 110.678 50.4091 110.501 50.2383 110.36C48.2788 108.748 45.5105 108.154 43.3966 106.858C42.379 106.234 41.0751 107.04 41.2527 108.222L41.2613 108.279C41.5761 108.407 41.8832 108.556 42.18 108.722C42.3501 108.818 42.5167 108.92 42.6795 109.028C43.6064 109.643 43.2855 111.082 42.187 111.251L42.1621 111.255C42.1442 111.257 42.1288 111.26 42.1109 111.263L42.1272 111.301C42.8339 112.966 44.5231 114.045 46.327 113.946C48.4503 113.83 51.0878 115.608 53.414 118.752L53.4166 118.752C53.8772 120.762 54.5502 122.726 55.4152 124.597H62.5547C62.5803 124.517 62.6034 124.435 62.6264 124.356C61.9662 124.397 61.3008 124.358 60.6509 124.238C61.1806 123.587 61.7103 122.931 62.24 122.28C62.2528 122.267 62.263 122.254 62.2733 122.241C62.542 121.908 62.8132 121.577 63.0819 121.244L63.082 121.244C63.0989 120.221 62.9764 119.201 62.7339 118.212L62.7337 118.211Z" fill="#F2F2F2"/>
<path d="M231 151.524C231 151.708 230.851 151.857 230.667 151.857H0V151.19H230.667C230.851 151.19 231 151.34 231 151.524Z" fill="#E6E6E6"/>
</g>
<defs>
<clipPath id="clip0_27_1174">
<rect width="231" height="152" fill="white"/>
</clipPath>
</defs>
</svg>
