<svg width="559" height="438" viewBox="0 0 559 438" fill="none" xmlns="http://www.w3.org/2000/svg">
<ellipse cx="288.5" cy="197.588" rx="224.5" ry="197.314" fill="url(#paint0_radial_28_45)" fill-opacity="0.3"/>
<g clip-path="url(#clip0_28_45)">
<path d="M68.6322 362.406C67.8855 361.298 67.1514 360.161 66.4502 359.025L67.5828 358.323C68.2746 359.444 68.9988 360.566 69.7355 361.659L68.6322 362.406Z" fill="#3F3D56"/>
<path d="M62.4357 351.877C61.2007 349.449 60.0528 346.941 59.0243 344.422L60.2563 343.917C61.2716 346.402 62.4038 348.876 63.6222 351.271L62.4357 351.877ZM56.2416 336.709C55.4246 334.113 54.7065 331.449 54.1068 328.793L55.4058 328.498C55.9971 331.119 56.7054 333.747 57.5113 336.308L56.2416 336.709ZM52.6345 320.726C52.257 318.034 51.9866 315.289 51.8299 312.567L53.1595 312.49C53.3136 315.177 53.5808 317.885 53.953 320.541L52.6345 320.726ZM53.0223 304.4L51.6914 304.368C51.7555 301.642 51.9323 298.89 52.2167 296.188L53.5411 296.328C53.2602 298.994 53.0857 301.709 53.0223 304.4H53.0223ZM54.7182 288.327L53.4101 288.078C53.9172 285.403 54.5424 282.717 55.2683 280.094L56.5517 280.45C55.8352 283.038 55.2185 285.688 54.7182 288.327ZM59.0308 272.753L57.7818 272.291C58.7232 269.736 59.784 267.188 60.9345 264.718L62.1412 265.282C61.006 267.719 59.9595 270.232 59.0308 272.753ZM241.387 268.63C240.346 266.157 239.188 263.695 237.944 261.313L239.124 260.695C240.385 263.11 241.559 265.605 242.614 268.111L241.387 268.63ZM65.8572 258.096L64.7012 257.434C66.0496 255.071 67.5141 252.734 69.054 250.487L70.1515 251.242C68.6324 253.459 67.1874 255.765 65.8572 258.096ZM233.91 254.306C232.476 252.037 230.93 249.799 229.314 247.655L230.377 246.851C232.014 249.025 233.582 251.293 235.035 253.592L233.91 254.306ZM74.9936 244.765L73.9611 243.923C75.6788 241.811 77.5045 239.746 79.3884 237.784L80.348 238.708C78.4895 240.644 76.6879 242.682 74.9936 244.765ZM224.188 241.403C222.402 239.397 220.512 237.442 218.569 235.591L219.486 234.625C221.456 236.501 223.372 238.482 225.182 240.514L224.188 241.403ZM86.179 233.11L85.298 232.11C87.3353 230.309 89.4727 228.57 91.6508 226.941L92.4472 228.01C90.2981 229.617 88.1893 231.333 86.179 233.11ZM212.493 230.26C210.405 228.574 208.22 226.954 206.002 225.446L206.749 224.342C208.998 225.871 211.212 227.512 213.329 229.221L212.493 230.26ZM99.1101 223.443L98.404 222.312C100.709 220.867 103.101 219.503 105.514 218.255L106.124 219.441C103.744 220.671 101.385 222.018 99.1101 223.443V223.443ZM199.137 221.181C196.798 219.859 194.378 218.62 191.945 217.499L192.501 216.287C194.968 217.423 197.421 218.679 199.792 220.019L199.137 221.181ZM113.443 216.033L112.932 214.801C115.442 213.757 118.024 212.806 120.609 211.974L121.016 213.244C118.466 214.065 115.918 215.003 113.443 216.033L113.443 216.033ZM184.473 214.424C181.953 213.507 179.362 212.686 176.772 211.981L177.122 210.694C179.746 211.408 182.373 212.241 184.927 213.17L184.473 214.424ZM128.799 211.093L128.499 209.794C131.143 209.179 133.849 208.668 136.541 208.274L136.733 209.594C134.077 209.983 131.408 210.487 128.799 211.093L128.799 211.093ZM168.896 210.187C166.264 209.701 163.574 209.319 160.901 209.051L161.034 207.724C163.743 207.995 166.47 208.382 169.138 208.875L168.896 210.187ZM144.764 208.756L144.68 207.424C147.388 207.253 150.15 207.192 152.863 207.241L152.839 208.575C150.159 208.526 147.437 208.587 144.764 208.756V208.756Z" fill="#3F3D56"/>
<path d="M245.397 280.107C245.041 278.837 244.653 277.558 244.245 276.304L245.511 275.89C245.925 277.161 246.318 278.458 246.679 279.745L245.397 280.107Z" fill="#3F3D56"/>
<path d="M270.566 237.423H269.235C269.235 236.088 269.258 234.734 269.305 233.398L270.636 233.444C270.59 234.765 270.566 236.104 270.566 237.423Z" fill="#3F3D56"/>
<path d="M271.2 225.424L269.875 225.282C270.161 222.596 270.547 219.888 271.023 217.234L272.333 217.469C271.863 220.093 271.482 222.769 271.2 225.424ZM274.035 209.617L272.745 209.287C273.411 206.67 274.182 204.045 275.034 201.486L276.297 201.908C275.455 204.437 274.694 207.03 274.035 209.617ZM486.39 195.545C485.394 193.069 484.296 190.6 483.126 188.205L484.322 187.619C485.506 190.042 486.617 192.541 487.625 195.046L486.39 195.545ZM279.111 194.376L277.882 193.863C278.917 191.371 280.057 188.882 281.271 186.467L282.46 187.067C281.261 189.454 280.134 191.912 279.111 194.376ZM479.343 181.118C478.004 178.813 476.565 176.526 475.064 174.321L476.164 173.57C477.683 175.801 479.14 178.115 480.494 180.447L479.343 181.118ZM286.325 180.02L285.182 179.336C286.562 177.02 288.046 174.722 289.592 172.505L290.684 173.269C289.155 175.46 287.689 177.731 286.325 180.02V180.02ZM470.31 167.847C468.654 165.754 466.904 163.695 465.107 161.729L466.089 160.828C467.907 162.818 469.678 164.901 471.354 167.019L470.31 167.847ZM295.512 166.848L294.478 166.008C296.176 163.91 297.971 161.847 299.813 159.877L300.785 160.789C298.964 162.736 297.19 164.775 295.512 166.848V166.848ZM459.483 155.997C457.547 154.161 455.522 152.373 453.464 150.681L454.308 149.65C456.391 151.362 458.44 153.171 460.398 155.029L459.483 155.997ZM306.474 155.123L305.569 154.144C307.546 152.31 309.614 150.524 311.717 148.836L312.55 149.876C310.472 151.545 308.428 153.31 306.474 155.123L306.474 155.123ZM447.083 145.808C444.907 144.267 442.649 142.785 440.37 141.404L441.06 140.263C443.365 141.66 445.65 143.16 447.851 144.719L447.083 145.808ZM318.983 145.078L318.227 143.98C320.443 142.447 322.744 140.975 325.065 139.604L325.741 140.753C323.447 142.108 321.174 143.563 318.983 145.078ZM433.36 137.494C430.987 136.279 428.54 135.137 426.088 134.098L426.606 132.869C429.088 133.92 431.564 135.077 433.966 136.306L433.36 137.494ZM332.79 136.925L332.198 135.73C334.61 134.531 337.096 133.404 339.588 132.381L340.093 133.615C337.63 134.626 335.173 135.739 332.79 136.925H332.79ZM418.589 131.236C416.071 130.376 413.485 129.598 410.904 128.922L411.241 127.632C413.853 128.316 416.47 129.103 419.018 129.973L418.589 131.236ZM347.612 130.841L347.197 129.573C349.756 128.733 352.381 127.976 354.997 127.321L355.32 128.615C352.734 129.262 350.141 130.01 347.612 130.841ZM403.074 127.172C400.456 126.685 397.787 126.288 395.14 125.99L395.288 124.665C397.967 124.966 400.668 125.368 403.318 125.86L403.074 127.172ZM363.167 126.953L362.939 125.638C365.592 125.176 368.297 124.803 370.98 124.531L371.114 125.859C368.462 126.127 365.789 126.495 363.167 126.953ZM387.141 125.378C384.475 125.27 381.764 125.256 379.118 125.335L379.078 124.002C381.756 123.922 384.497 123.936 387.195 124.046L387.141 125.378Z" fill="#3F3D56"/>
<path d="M490.285 206.99C489.929 205.721 489.544 204.439 489.142 203.181L490.41 202.774C490.817 204.048 491.206 205.344 491.567 206.629L490.285 206.99Z" fill="#3F3D56"/>
<path d="M212.407 267.321L349.297 344.637L187.65 438L52.2168 357.766L212.407 267.321Z" fill="#3F3D56"/>
<path d="M422.11 152.077L559 229.393L397.354 322.756L261.92 242.522L422.11 152.077Z" fill="#3F3D56"/>
<path d="M212.407 260.028L349.297 337.344L187.65 430.706L52.2168 350.472L212.407 260.028Z" fill="#D0CDE1"/>
<path d="M422.11 144.783L559 222.099L397.354 315.461L261.92 235.228L422.11 144.783Z" fill="#D0CDE1"/>
<path d="M453.932 122.993C458.459 117.901 461.682 111.784 463.325 105.168C464.968 98.5512 464.981 91.6339 463.363 85.0114C461.745 78.3889 458.544 72.2594 454.037 67.1508C449.529 62.0422 443.85 58.1074 437.488 55.6853C443.166 52.3943 447.603 47.3189 450.109 41.2458C452.616 35.1726 453.052 28.4408 451.351 22.0938C449.651 15.7468 445.907 10.139 440.702 6.13955C435.496 2.14012 429.119 -0.0275879 422.559 -0.0275879C415.998 -0.0275879 409.621 2.14012 404.416 6.13955C399.21 10.139 395.467 15.7468 393.766 22.0938C392.065 28.4408 392.502 35.1726 395.008 41.2458C397.515 47.3189 401.951 52.3943 407.629 55.6853C401.275 58.1044 395.601 62.0328 391.096 67.1329C386.591 72.233 383.389 78.3525 381.766 84.9655C380.142 91.5786 380.146 98.4875 381.776 105.099C383.406 111.71 386.614 117.826 391.124 122.922C380.503 129.712 372.366 139.768 367.931 151.582C363.497 163.397 363.005 176.332 366.529 188.45C370.053 200.568 377.403 211.215 387.477 218.795C397.552 226.376 409.807 230.481 422.407 230.495C435.007 230.509 447.272 226.432 457.363 218.874C467.454 211.317 474.828 200.686 478.38 188.576C481.931 176.466 481.468 163.53 477.06 151.706C472.653 139.882 464.538 129.807 453.932 122.993Z" fill="#3F3D56"/>
<path d="M248.106 256.288C248.106 287.067 229.843 297.813 207.31 297.813C206.788 297.813 206.266 297.805 205.748 297.794C204.704 297.771 203.668 297.723 202.647 297.651C182.311 296.21 166.514 284.912 166.514 256.288C166.514 226.672 204.295 189.296 207.141 186.524C207.141 186.523 207.141 186.523 207.141 186.522C207.141 186.522 207.142 186.521 207.142 186.521C207.142 186.521 207.143 186.52 207.143 186.52C207.144 186.52 207.144 186.52 207.145 186.52C207.254 186.411 207.31 186.358 207.31 186.358C207.31 186.358 248.106 225.513 248.106 256.288Z" fill="#D0CDE1"/>
<path d="M205.823 293.104L220.745 272.221L205.785 295.398L205.748 297.794C204.704 297.771 203.668 297.723 202.646 297.651L204.253 266.861L204.242 266.62L204.268 266.579L204.422 263.668L189.426 240.434L204.467 261.486L204.505 262.103L205.718 238.84L192.88 214.831L205.876 234.759L207.141 186.524L207.145 186.358V186.52L206.934 224.554L219.716 209.475L206.882 227.83L206.544 248.66L218.48 228.669L206.495 251.726L206.307 263.307L223.628 235.481L206.24 267.346L205.823 293.104Z" fill="#3F3D56"/>
<path d="M122.866 311.722C122.866 342.501 104.603 353.247 82.0702 353.247C81.5483 353.247 81.0264 353.24 80.5083 353.228C79.4644 353.206 78.4281 353.157 77.4068 353.085C57.0708 351.645 41.2744 340.346 41.2744 311.722C41.2744 282.106 79.0552 244.73 81.9013 241.958C81.9013 241.957 81.9014 241.957 81.9015 241.957C81.9017 241.956 81.902 241.956 81.9024 241.955C81.9027 241.955 81.9031 241.955 81.9036 241.954C81.904 241.954 81.9045 241.954 81.905 241.954C82.0139 241.845 82.0702 241.792 82.0702 241.792C82.0702 241.792 122.866 280.947 122.866 311.722Z" fill="#D0CDE1"/>
<path d="M80.5837 348.538L95.5053 327.655L80.5461 350.832L80.5086 353.228C79.4648 353.206 78.4285 353.157 77.4071 353.085L79.0142 322.295L79.0029 322.055L79.0292 322.013L79.1831 319.102L64.1865 295.869L79.2282 316.92L79.2658 317.537L80.4786 294.274L67.6409 270.265L80.6363 290.193L81.9016 241.958L81.9054 241.792V241.954L81.6951 279.988L94.4764 264.909L81.6425 283.264L81.3046 304.094L93.2411 284.103L81.2558 307.16L81.068 318.741L98.3889 290.915L81.0005 322.781L80.5837 348.538Z" fill="#3F3D56"/>
<path d="M325.974 217.475C321.866 217.475 317.849 218.695 314.433 220.982C311.017 223.268 308.355 226.518 306.782 230.32C305.21 234.123 304.799 238.307 305.6 242.343C306.402 246.38 308.38 250.087 311.285 252.998C314.191 255.908 317.892 257.89 321.921 258.693C325.951 259.495 330.128 259.083 333.924 257.508C337.719 255.933 340.964 253.266 343.246 249.844C345.529 246.422 346.747 242.399 346.747 238.284C346.747 235.551 346.21 232.845 345.166 230.32C344.122 227.796 342.592 225.502 340.663 223.569C338.734 221.637 336.444 220.104 333.924 219.059C331.403 218.013 328.702 217.475 325.974 217.475ZM327.241 240.06C326.439 240.06 325.655 239.822 324.989 239.376C324.322 238.929 323.803 238.295 323.496 237.553C323.189 236.812 323.109 235.995 323.265 235.208C323.422 234.42 323.808 233.696 324.375 233.129C324.941 232.561 325.664 232.174 326.45 232.017C327.236 231.861 328.051 231.941 328.792 232.248C329.532 232.556 330.165 233.076 330.611 233.744C331.056 234.412 331.294 235.197 331.294 236C331.294 237.077 330.867 238.109 330.107 238.871C329.347 239.632 328.316 240.06 327.241 240.06Z" fill="#F2F2F2"/>
<path d="M347.997 202.704C347.538 203.204 339.108 211.238 339.108 211.238C339.108 211.238 339.946 216.846 348.966 217.542L363.998 218.702C363.998 218.702 366.84 229.147 370.218 232.485C373.596 235.823 372.046 236.009 373.314 237.636C374.582 239.263 372.802 239.699 374.727 239.857C376.651 240.015 380.628 237.684 380.671 235.881C380.672 235.249 380.531 234.624 380.258 234.053C379.984 233.483 379.586 232.982 379.092 232.587C378.593 232.128 377.328 227.739 376.569 226.811C375.811 225.883 372.939 214.718 372.939 214.718C372.939 214.718 370.072 209.317 366.098 208.886C362.124 208.455 357.703 206.519 357.703 206.519" fill="#2F2E41"/>
<path opacity="0.1" d="M347.997 202.704C347.538 203.204 339.108 211.238 339.108 211.238C339.108 211.238 339.946 216.846 348.966 217.542L363.998 218.702C363.998 218.702 366.84 229.147 370.218 232.485C373.596 235.823 372.046 236.009 373.314 237.636C374.582 239.263 372.802 239.699 374.727 239.857C376.651 240.015 380.628 237.684 380.671 235.881C380.672 235.249 380.531 234.624 380.258 234.053C379.984 233.483 379.586 232.982 379.092 232.587C378.593 232.128 377.328 227.739 376.569 226.811C375.811 225.883 372.939 214.718 372.939 214.718C372.939 214.718 370.072 209.317 366.098 208.886C362.124 208.455 357.703 206.519 357.703 206.519" fill="black"/>
<path d="M362.578 170.306C362.578 170.306 365.742 161.695 367.907 164.439C370.072 167.182 364.423 171.688 364.423 171.688L362.578 170.306Z" fill="#A0616A"/>
<path d="M345.914 174.801L347.715 174.038C347.715 174.038 350.985 177.475 352.284 178.114C353.582 178.754 357.13 180.301 357.601 180.556C358.073 180.81 363.413 171.346 362.136 169.988C362.136 169.988 364.526 170.851 365.614 170.524C365.614 170.524 362.898 183.716 362.484 185.504C362.071 187.292 361.106 187.503 359.307 187.568C357.508 187.634 346.582 184.423 346.582 184.423L345.914 174.801Z" fill="#575A89"/>
<path d="M373.705 238.727C373.705 238.727 374.262 240.516 374.014 240.803C373.765 241.09 373.039 245.982 376.023 245.662C379.007 245.342 380.442 244.379 381.198 244.432C381.953 244.486 393.165 240.567 392.609 238.778C392.052 236.989 386.446 238.949 386.446 238.949C386.446 238.949 380.078 237.735 378.582 236.336C377.087 234.936 373.705 238.727 373.705 238.727Z" fill="#2F2E41"/>
<path opacity="0.1" d="M373.705 238.727C373.705 238.727 374.262 240.516 374.014 240.803C373.765 241.09 373.039 245.982 376.023 245.662C379.007 245.342 380.442 244.379 381.198 244.432C381.953 244.486 393.165 240.567 392.609 238.778C392.052 236.989 386.446 238.949 386.446 238.949C386.446 238.949 380.078 237.735 378.582 236.336C377.087 234.936 373.705 238.727 373.705 238.727Z" fill="black"/>
<path d="M367.988 241.36C367.988 241.36 369.788 249.216 371.109 249.136C372.429 249.056 381.75 244.511 382.897 243.611C384.37 242.456 384.311 240.414 382.621 240.843C380.931 241.271 376.15 240.887 375.337 240.022L373.248 237.798L367.988 241.36Z" fill="#2F2E41"/>
<path d="M349.535 197.714C349.042 198.18 334.041 210.928 334.041 210.928C334.041 210.928 335.269 219.169 344.214 220.52C353.159 221.871 358.323 220.184 358.323 220.184C358.323 220.184 360.399 230.809 363.526 234.384C366.653 237.959 365.093 238.032 366.24 239.747C367.386 241.462 365.58 241.767 367.488 242.065C369.396 242.363 373.531 240.327 373.705 238.532C373.752 237.901 373.656 237.268 373.425 236.679C373.194 236.09 372.833 235.561 372.369 235.131C371.905 234.637 370.962 230.168 370.272 229.187C369.583 228.206 367.529 216.862 367.529 216.862C367.529 216.862 365.062 211.266 361.13 210.547C357.198 209.828 352.928 207.575 352.928 207.575" fill="#2F2E41"/>
<path d="M335.727 170.096C339.655 170.096 342.84 166.906 342.84 162.971C342.84 159.035 339.655 155.845 335.727 155.845C331.798 155.845 328.613 159.035 328.613 162.971C328.613 166.906 331.798 170.096 335.727 170.096Z" fill="#A0616A"/>
<path d="M331.998 167.419C331.998 167.419 333.065 171.772 331.44 174.003C329.815 176.234 342.308 175.172 342.308 175.172C342.308 175.172 338.927 168.108 340.174 166.466C341.422 164.823 331.998 167.419 331.998 167.419Z" fill="#A0616A"/>
<path d="M347.966 174.263C349.476 175.869 348.961 184.975 348.961 184.975L347.997 193.107C347.997 193.107 349.151 194.582 348.774 195.171C348.396 195.76 347.78 196.341 348.97 196.617C350.159 196.893 352.902 197.336 352.024 198.63C351.737 198.996 351.43 199.346 351.105 199.678C350.825 199.975 350.492 200.319 350.115 200.702C349.233 201.595 348.111 202.693 346.866 203.851C346.513 204.181 346.152 204.514 345.781 204.85C341.031 209.154 335.125 213.71 333.903 211.524C331.857 207.861 330.435 207.338 330.529 204.22C330.623 201.103 327.989 193.102 327.989 193.102C327.989 193.102 324.926 179.447 329.242 175.377L329.917 174.295C330.23 173.792 330.693 173.401 331.241 173.177C331.788 172.952 332.393 172.906 332.968 173.045C335.075 173.549 338.304 174.245 339.703 174.133C341.865 173.958 341.391 173.068 341.391 173.068C341.391 173.068 346.457 172.657 347.966 174.263Z" fill="#575A89"/>
<path d="M354.636 203.39C354.636 203.39 363.436 205.576 362.145 208.658C360.854 211.739 353.236 206.108 353.236 206.108L354.636 203.39Z" fill="#A0616A"/>
<path d="M331.79 165.578C331.965 165.365 331.792 165.055 331.639 164.825C330.823 163.597 330.667 161.848 331.565 160.678C331.919 160.243 332.362 159.888 332.864 159.637C333.569 159.263 334.339 159.026 335.132 158.94C335.554 158.934 335.971 158.851 336.364 158.697C336.612 158.571 337.782 158.16 338.034 158.04C338.586 157.777 339.354 157.891 339.708 157.391C340.047 156.913 339.731 156.259 339.402 155.774C338.652 154.669 336.757 153.754 335.456 153.464C334.448 153.311 333.417 153.494 332.523 153.985C331.468 154.51 330.467 155.137 329.535 155.858C328.202 156.741 327.073 157.901 326.225 159.259C325.456 160.656 325.271 162.477 326.139 163.815C326.32 164.094 326.542 164.345 326.711 164.631C327.124 165.329 327.199 166.172 327.491 166.928C327.708 167.481 328.039 167.982 328.461 168.399C328.884 168.816 329.389 169.14 329.944 169.349C330.833 169.679 331.928 169.77 332.453 170.561L332.698 168.912C332.762 168.704 332.753 168.48 332.672 168.278C332.592 168.076 332.444 167.908 332.254 167.802L330.994 166.739C330.743 166.568 330.553 166.321 330.45 166.035C330.177 164.896 331.498 165.932 331.79 165.578Z" fill="#2F2E41"/>
<path opacity="0.1" d="M344.406 196.959L350.115 200.702C348.983 201.849 347.454 203.333 345.781 204.85C344.196 203.995 342.581 203.07 341.135 202.141C335.846 198.74 331.311 190.202 329.279 186.06C327.247 181.917 328.901 178.727 328.901 178.727C330.247 178.13 331.671 177.728 333.131 177.535C335.779 177.135 344.406 196.959 344.406 196.959Z" fill="black"/>
<path opacity="0.1" d="M345.161 195.782L351.105 199.679C350.825 199.975 350.492 200.319 350.115 200.702C349.233 201.595 348.111 202.693 346.866 203.851C345.177 202.947 343.435 201.957 341.889 200.964C336.6 197.563 332.065 189.024 330.034 184.882C328.002 180.74 333.469 182.226 333.469 182.226C333.469 182.226 330.632 180.94 333.28 180.54C335.928 180.14 345.161 195.782 345.161 195.782Z" fill="black"/>
<path d="M329.162 178.015C329.162 178.015 327.509 181.205 329.54 185.347C331.572 189.489 336.107 198.028 341.396 201.429C346.685 204.829 354.252 208.179 354.252 208.179C354.252 208.179 354.97 204.24 356.181 203.796L344.668 196.247C344.668 196.247 336.04 176.422 333.392 176.822C331.933 177.016 330.508 177.417 329.162 178.015Z" fill="#575A89"/>
<path d="M327.241 259.346C322.631 259.346 318.125 257.977 314.293 255.412C310.46 252.846 307.473 249.2 305.709 244.934C303.945 240.668 303.483 235.974 304.382 231.445C305.282 226.916 307.501 222.756 310.761 219.491C314.02 216.226 318.173 214.003 322.694 213.102C327.215 212.201 331.901 212.663 336.16 214.43C340.418 216.197 344.058 219.19 346.619 223.029C349.18 226.868 350.547 231.382 350.547 236C350.54 242.189 348.082 248.124 343.713 252.5C339.344 256.877 333.42 259.339 327.241 259.346ZM327.241 213.161C322.731 213.161 318.323 214.5 314.574 217.01C310.825 219.519 307.902 223.086 306.177 227.26C304.451 231.433 304 236.025 304.879 240.455C305.759 244.886 307.93 248.955 311.119 252.149C314.308 255.343 318.37 257.519 322.793 258.4C327.215 259.281 331.8 258.829 335.966 257.1C340.132 255.371 343.693 252.444 346.198 248.688C348.703 244.932 350.04 240.517 350.04 236C350.033 229.945 347.629 224.139 343.355 219.858C339.081 215.576 333.285 213.168 327.241 213.161Z" fill="#3F3D56"/>
<path d="M327.241 240.314C326.389 240.314 325.557 240.061 324.849 239.587C324.14 239.113 323.588 238.439 323.262 237.651C322.936 236.862 322.851 235.995 323.017 235.158C323.183 234.321 323.594 233.553 324.196 232.949C324.798 232.346 325.566 231.935 326.401 231.769C327.236 231.602 328.102 231.688 328.889 232.014C329.676 232.341 330.349 232.894 330.822 233.603C331.295 234.312 331.548 235.146 331.548 236C331.546 237.143 331.092 238.24 330.285 239.049C329.478 239.858 328.383 240.312 327.241 240.314ZM327.241 232.193C326.49 232.193 325.755 232.416 325.13 232.835C324.505 233.253 324.018 233.847 323.73 234.543C323.443 235.239 323.368 236.004 323.514 236.742C323.661 237.481 324.023 238.159 324.554 238.691C325.086 239.224 325.763 239.586 326.5 239.733C327.237 239.88 328.001 239.805 328.695 239.516C329.39 239.228 329.983 238.74 330.401 238.114C330.818 237.489 331.041 236.753 331.041 236C331.04 234.991 330.639 234.023 329.927 233.309C329.214 232.596 328.249 232.194 327.241 232.193Z" fill="#3F3D56"/>
<path d="M326.734 212.907H326.228V186.769H313.055V186.262H326.734V212.907Z" fill="#3F3D56"/>
<path d="M356.88 221.281H345.598V221.789H356.88V221.281Z" fill="#3F3D56"/>
<path d="M351.814 203.771H325.974V204.279H351.814V203.771Z" fill="#3F3D56"/>
<path d="M370.181 251.306L356.65 221.64L357.111 221.429L370.433 250.637L382.616 245.158L382.824 245.621L370.181 251.306Z" fill="#3F3D56"/>
<path d="M314.321 187.53C318.239 187.53 321.414 187.076 321.414 186.515C321.414 185.955 318.239 185.5 314.321 185.5C310.404 185.5 307.228 185.955 307.228 186.515C307.228 187.076 310.404 187.53 314.321 187.53Z" fill="#3F3D56"/>
<path d="M114.384 367.144C123.241 365.987 131.756 365.003 139.931 364.193L136.786 358.912C137.879 358.607 142.612 361.664 142.612 361.664L138.615 346.392C144.077 347.006 146.617 362.583 146.617 362.583L152.811 357.395L149.76 363.271C174.774 361.082 196.358 360.408 214.501 360.576L211.809 356.056C212.902 355.752 217.635 358.809 217.635 358.809L213.638 343.536C219.1 344.15 221.64 359.727 221.64 359.727L227.834 354.539L224.603 360.763C239.808 361.187 252.198 362.196 261.756 363.295C259.072 356.27 249.688 349.513 249.688 349.513C256.905 351.401 260.659 354.471 262.601 357.316C262.987 342.773 260.333 328.309 254.808 314.854C254.808 314.854 269.358 342.348 267.162 360.671L266.883 363.926C279.555 365.592 285.913 367.249 285.913 367.249L114.384 367.144Z" fill="#3F3D56"/>
<path d="M200.227 377.639L199.311 388.184L195.192 389.1L194.277 386.35C194.277 386.35 195.879 378.785 195.879 377.41L200.227 377.639Z" fill="#A0616A"/>
<path d="M188.785 370.303C188.785 370.303 190.616 374.888 191.302 375.347C191.989 375.805 189.243 381.765 189.243 381.765L185.124 381.077C185.124 381.077 186.497 376.263 185.352 373.513L188.785 370.303Z" fill="#A0616A"/>
<path d="M190.044 372.94C190.044 372.94 191.76 373.513 192.446 376.034C192.727 376.938 192.956 377.856 193.133 378.785L191.989 381.307H191.302C191.302 381.307 190.158 385.204 190.387 386.579C190.616 387.954 188.785 393.227 185.581 392.997C182.378 392.768 183.064 388.871 183.064 388.871L184.666 380.848C184.666 380.848 184.666 378.785 185.124 378.785C185.581 378.785 189.243 379.473 189.243 379.473V380.161C189.243 380.161 191.874 376.607 190.044 372.94Z" fill="#2F2E41"/>
<path d="M195.879 387.037V385.662C195.879 385.662 200.684 386.35 200.684 387.037V388.642C200.684 388.642 204.803 397.353 200.227 397.353C195.65 397.353 194.735 395.519 194.735 395.519V392.997C194.735 392.997 192.446 391.851 192.446 391.164C192.446 390.476 194.679 384.401 194.679 384.401C194.679 384.401 194.735 387.954 195.879 387.037Z" fill="#2F2E41"/>
<path d="M201.371 273.568C205.415 273.568 208.694 270.284 208.694 266.232C208.694 262.181 205.415 258.897 201.371 258.897C197.327 258.897 194.048 262.181 194.048 266.232C194.048 270.284 197.327 273.568 201.371 273.568Z" fill="#A0616A"/>
<path d="M204.232 271.848C204.232 271.848 203.316 276.204 203.316 276.662C203.316 277.121 198.968 279.184 198.968 279.184L195.078 278.496L193.705 274.37C193.705 274.37 195.993 270.932 195.993 269.556L204.232 271.848Z" fill="#A0616A"/>
<path d="M203.619 274.87C203.619 274.87 201.257 278.725 197.824 277.579C196.87 277.289 196.031 276.704 195.428 275.908C194.825 275.112 194.488 274.146 194.466 273.146L183.179 277.121L185.238 293.855L183.408 313.339L184.781 315.861H204.918C204.918 315.861 205.605 312.422 205.833 312.422C206.062 312.422 206.52 311.735 206.291 311.506C206.062 311.276 205.605 311.047 205.833 310.359C206.062 309.672 206.291 302.107 206.291 302.107L213.156 282.164L203.619 274.87Z" fill="#3F3D56"/>
<path d="M212.355 318.497L208.236 323.999C208.236 323.999 207.55 318.268 206.634 318.039L208.923 316.434L212.355 318.497Z" fill="#A0616A"/>
<path d="M166.588 314.142C166.588 314.142 160.409 318.039 161.096 320.56C161.782 323.082 168.876 316.205 168.876 315.976C168.876 315.746 166.588 314.142 166.588 314.142Z" fill="#A0616A"/>
<path d="M205.032 314.142H205.49L206.176 317.351C207.256 318.395 208.006 319.734 208.331 321.201C208.657 322.669 208.544 324.2 208.007 325.603L204.346 349.673L203.888 377.639L199.769 378.785L195.192 377.868L194.048 340.503C194.048 340.503 192.446 337.065 193.133 335.919C193.819 334.773 192.904 335.002 192.904 335.002L188.098 348.297C188.098 348.297 189.7 352.653 188.098 354.028C188.098 354.028 188.327 354.716 188.098 354.945C187.87 355.174 186.725 356.091 187.183 356.55C187.641 357.008 187.87 356.55 187.87 357.237C187.87 357.925 190.158 363.656 189.243 370.991L186.268 375.576L183.522 373.971L178.487 359.759C178.487 359.759 179.632 357.696 178.487 357.237C177.343 356.779 177.114 356.32 177.572 355.633C178.03 354.945 178.03 352.653 177.343 351.507C176.657 350.36 177.343 348.527 177.343 348.527L179.86 325.374C179.86 325.374 178.716 319.185 182.606 315.976L183.293 313.454C183.293 313.454 189.014 317.58 205.032 314.142Z" fill="#2F2E41"/>
<path d="M207.721 260.322C207.721 260.322 205.396 255.276 200.94 256.441C196.484 257.605 193.965 259.352 193.772 261.099C193.676 262.554 193.709 264.016 193.869 265.466C193.869 265.466 194.353 261.875 197.453 262.651C200.553 263.428 205.396 262.846 205.396 262.846L206.171 269.832C206.171 269.832 207.043 268.571 208.012 269.347C208.981 270.124 210.821 261.875 207.721 260.322Z" fill="#2F2E41"/>
<path d="M209.723 282.164H213.156C214.118 283.114 214.862 284.262 215.336 285.528C215.81 286.795 216.003 288.15 215.902 289.499L217.504 303.024C217.504 303.024 217.504 309.672 214.758 314.486L211.783 320.216C211.783 320.216 210.639 317.007 207.206 317.466L209.037 312.652V311.506C209.316 311.156 209.547 310.77 209.723 310.359C209.723 310.13 208.808 310.13 209.494 309.672C210.181 309.213 210.867 304.629 210.867 304.629C210.777 304.224 210.623 303.838 210.41 303.482C210.181 303.253 210.639 302.566 210.639 302.566L210.181 301.878L207.206 290.645L209.723 282.164Z" fill="#3F3D56"/>
<path d="M187.069 276.433L183.178 277.121C181.784 278.569 180.694 280.285 179.975 282.164L178.144 290.416L175.169 296.376C175.169 296.376 171.737 299.815 169.219 307.609L165.558 314.486L169.448 316.778C169.448 316.778 180.204 304.17 181.577 299.815L187.526 288.353L187.069 276.433Z" fill="#3F3D56"/>
<path d="M220.365 37.8883C218.785 37.8883 217.24 37.419 215.926 36.5396C214.612 35.6602 213.588 34.4103 212.984 32.9479C212.379 31.4856 212.221 29.8764 212.529 28.324C212.837 26.7716 213.598 25.3455 214.715 24.2263C215.833 23.1071 217.256 22.3448 218.806 22.036C220.356 21.7272 221.962 21.8857 223.422 22.4915C224.882 23.0972 226.13 24.123 227.007 25.439C227.885 26.7551 228.354 28.3024 228.354 29.8853C228.351 32.0071 227.509 34.0413 226.011 35.5416C224.514 37.0419 222.483 37.8859 220.365 37.8883ZM220.365 23.2161C219.048 23.2161 217.761 23.6073 216.666 24.3401C215.571 25.0729 214.718 26.1145 214.214 27.3331C213.71 28.5518 213.578 29.8927 213.835 31.1864C214.092 32.4801 214.726 33.6684 215.657 34.6011C216.588 35.5338 217.774 36.169 219.066 36.4263C220.357 36.6837 221.696 36.5516 222.912 36.0468C224.129 35.542 225.169 34.6872 225.9 33.5905C226.632 32.4937 227.022 31.2043 227.022 29.8853C227.02 28.1171 226.318 26.4219 225.07 25.1716C223.822 23.9214 222.13 23.2181 220.365 23.2161Z" fill="#3F3D56"/>
<path d="M284.163 119.446H271.021V106.28H284.163V119.446ZM272.031 118.433H283.153V107.293H272.031V118.433Z" fill="#3F3D56"/>
<path d="M8.96461 237.544L0 227.916L9.61115 218.936L18.5758 228.564L8.96461 237.544ZM1.42891 227.966L9.01435 236.112L17.1469 228.514L9.56142 220.367L1.42891 227.966Z" fill="#3F3D56"/>
<path d="M164.839 312.417L165.793 313.675C165.802 313.687 165.806 313.701 165.804 313.716C165.802 313.73 165.795 313.743 165.783 313.752L165.752 313.776L170.723 320.328C170.86 320.509 170.92 320.738 170.89 320.963C170.859 321.189 170.74 321.393 170.559 321.531L166.472 324.642C166.383 324.711 166.281 324.76 166.172 324.789C166.063 324.818 165.949 324.825 165.838 324.809C165.726 324.794 165.619 324.757 165.522 324.7C165.425 324.643 165.339 324.568 165.271 324.478L160.475 318.156L160.452 318.173C160.444 318.18 160.434 318.182 160.424 318.181C160.413 318.18 160.404 318.174 160.398 318.166L159.855 317.45C159.852 317.446 159.849 317.442 159.848 317.437C159.847 317.432 159.846 317.427 159.847 317.421C159.848 317.416 159.85 317.412 159.852 317.407C159.855 317.403 159.858 317.399 159.862 317.396L159.885 317.379L159.68 317.109L159.657 317.126C159.649 317.133 159.638 317.136 159.627 317.134C159.617 317.133 159.607 317.127 159.6 317.118L159.065 316.412C159.058 316.404 159.055 316.393 159.057 316.382C159.058 316.372 159.064 316.362 159.073 316.355L159.095 316.338L158.816 315.97L158.793 315.988C158.789 315.99 158.785 315.993 158.78 315.994C158.776 315.995 158.771 315.995 158.766 315.995C158.762 315.994 158.757 315.992 158.753 315.99C158.749 315.988 158.745 315.984 158.742 315.981L158.45 315.595C158.444 315.588 158.442 315.578 158.443 315.569C158.444 315.559 158.449 315.55 158.457 315.545L158.48 315.527L157.888 314.747C157.751 314.566 157.691 314.337 157.721 314.112C157.752 313.886 157.871 313.682 158.052 313.544L162.139 310.433C162.319 310.295 162.548 310.235 162.773 310.265C162.998 310.296 163.202 310.415 163.339 310.596L164.731 312.431L164.762 312.407C164.774 312.398 164.788 312.394 164.803 312.396C164.817 312.398 164.83 312.406 164.839 312.417Z" fill="#3F3D56"/>
<path d="M160.542 312.203L159.908 312.686C159.873 312.712 159.866 312.762 159.893 312.798L159.914 312.825C159.941 312.86 159.991 312.867 160.026 312.84L160.66 312.358C160.695 312.331 160.702 312.281 160.675 312.245L160.654 312.218C160.628 312.183 160.578 312.176 160.542 312.203Z" fill="#E6E8EC"/>
<path d="M160.868 312.185C160.929 312.185 160.978 312.136 160.978 312.075C160.978 312.014 160.929 311.965 160.868 311.965C160.807 311.965 160.758 312.014 160.758 312.075C160.758 312.136 160.807 312.185 160.868 312.185Z" fill="#E6E8EC"/>
<path d="M163.115 310.98L170.439 320.633C170.487 320.696 170.52 320.768 170.537 320.845C170.554 320.922 170.554 321.002 170.537 321.079C170.51 321.205 170.438 321.318 170.335 321.396L166.423 324.375C166.354 324.428 166.272 324.463 166.186 324.478C166.166 324.482 166.146 324.484 166.125 324.485C166.036 324.49 165.947 324.473 165.867 324.436C165.786 324.399 165.715 324.342 165.661 324.271L158.337 314.618C158.294 314.561 158.263 314.496 158.244 314.427C158.226 314.358 158.222 314.286 158.232 314.215C158.241 314.144 158.265 314.076 158.301 314.014C158.337 313.952 158.384 313.898 158.441 313.855L159.027 313.409L159.084 313.484C159.12 313.531 159.164 313.571 159.215 313.6C159.266 313.63 159.322 313.649 159.38 313.657C159.438 313.665 159.497 313.662 159.554 313.647C159.611 313.632 159.665 313.606 159.711 313.57L161.701 312.055C161.748 312.02 161.787 311.975 161.817 311.924C161.846 311.873 161.866 311.817 161.874 311.759C161.882 311.7 161.878 311.641 161.863 311.584C161.848 311.527 161.822 311.474 161.787 311.427L161.729 311.351L162.353 310.876C162.41 310.833 162.475 310.801 162.544 310.783C162.613 310.765 162.685 310.761 162.756 310.77C162.827 310.78 162.895 310.803 162.957 310.839C163.018 310.876 163.072 310.923 163.115 310.98Z" fill="#0EA5E9"/>
<path d="M468.086 147.368V155.701C468.086 155.701 468.752 165.035 472.412 169.702C472.412 169.702 478.402 178.202 479.234 176.368L478.209 170.332L474.742 167.035L472.911 156.701L472.412 147.368H468.086Z" fill="#FFB8B8"/>
<path d="M504.856 222.702V228.868L499.865 230.702V223.535L504.856 222.702Z" fill="#FFB8B8"/>
<path d="M494.708 222.035L498.035 229.535L493.376 231.535L492.378 224.202L494.708 222.035Z" fill="#FFB8B8"/>
<path d="M503.026 164.535C503.026 164.535 509.681 224.702 507.186 224.868C504.69 225.035 499.865 228.202 499.865 226.035C499.865 223.868 496.038 195.702 496.038 195.702L492.378 181.202V201.202L496.204 223.868C496.204 223.868 492.544 228.702 489.882 225.868L484.225 203.702C484.225 203.702 476.738 170.035 477.071 167.368C477.071 167.368 494.208 152.701 503.026 164.535Z" fill="#2F2E41"/>
<path d="M501.695 229.202C501.695 229.202 503.026 226.368 506.021 228.202L508.517 231.202C508.517 231.202 514.951 236.54 510.386 237.683C505.68 238.862 502.86 237.608 502.86 237.608C502.403 237.333 501.892 237.163 501.363 237.108C500.697 237.108 499.2 235.941 499.2 235.608C499.2 235.274 499.699 229.368 499.699 229.368C499.887 229.276 500.099 229.243 500.307 229.273C500.514 229.303 500.708 229.394 500.863 229.535C501.363 230.035 501.695 229.202 501.695 229.202Z" fill="#2F2E41"/>
<path d="M491.879 228.202C491.879 228.202 495.04 225.702 496.537 228.535C496.537 228.535 497.48 228.868 497.591 228.535C497.702 228.202 498.534 228.035 498.534 229.868C498.534 231.702 499.437 236.274 498.606 236.441C497.774 236.608 496.942 237.108 497.108 237.774C497.274 238.441 496.205 238.535 492.378 238.369C488.551 238.202 488.385 236.702 488.385 236.702C488.385 236.702 488.385 234.535 489.383 233.368C490.381 232.202 491.879 228.202 491.879 228.202Z" fill="#2F2E41"/>
<path d="M485.723 119.035C485.723 119.035 484.891 125.201 490.215 127.368C495.539 129.535 478.402 136.701 476.738 132.535C475.074 128.368 477.071 127.035 477.071 127.035C477.071 127.035 478.735 125.368 477.237 120.868L485.723 119.035Z" fill="#FFB8B8"/>
<path d="M480.399 123.368C484.442 123.368 487.72 120.085 487.72 116.035C487.72 111.985 484.442 108.701 480.399 108.701C476.356 108.701 473.078 111.985 473.078 116.035C473.078 120.085 476.356 123.368 480.399 123.368Z" fill="#FFB8B8"/>
<path d="M488.884 129.368C488.884 129.368 483.893 132.035 479.068 130.035C474.243 128.035 474.409 136.701 474.409 136.701L476.905 143.201L494.208 141.535L493.043 131.535L488.884 129.368Z" fill="#F2F2F2"/>
<path d="M486.404 123.665C487.29 123.854 488.123 124.239 488.84 124.794C489.557 125.348 490.141 126.057 490.548 126.868L498.534 129.368L500.53 132.201L498.201 152.701C498.201 152.701 502.527 156.868 502.527 159.202C502.527 161.535 507.851 169.535 505.189 168.535C502.527 167.535 497.702 164.035 497.702 164.035C497.702 164.035 485.556 164.535 481.73 167.868C477.903 171.202 476.405 170.202 476.405 170.202C476.405 170.202 472.412 152.868 472.246 150.202C472.08 147.535 467.421 131.535 467.421 131.535L475.74 126.868L477.859 124.46L483.726 133.868L489.05 127.368C489.05 127.368 486.42 125.296 486.404 123.665Z" fill="#D0CDE1"/>
<path d="M503.026 145.035L504.024 150.368C504.024 150.368 508.517 167.035 507.851 172.702C507.851 172.702 508.35 185.368 505.522 183.868C502.693 182.368 504.191 173.202 504.191 173.202L500.198 156.702L498.035 147.035L503.026 145.035Z" fill="#FFB8B8"/>
<path d="M498.867 131.201L500.53 132.201C500.53 132.201 506.853 145.368 505.355 146.368C503.858 147.368 497.369 149.535 497.369 149.535L498.867 131.201Z" fill="#D0CDE1"/>
<path d="M471.414 131.535L467.504 131.451L466.589 133.035L467.754 149.202L473.743 150.535L471.414 131.535Z" fill="#D0CDE1"/>
<path d="M486.36 109.833L487.68 109.352C487.68 109.352 484.921 106.588 481.082 106.828L482.162 105.747C482.162 105.747 479.523 104.786 477.124 107.309C475.706 108.682 474.485 110.244 473.494 111.951H472.08L472.67 113.133L470.606 114.314L472.725 114.102C472.524 115.122 472.593 116.177 472.925 117.162L473.405 118.484C473.405 118.484 475.324 114.639 475.324 114.158V115.36C475.324 115.36 476.644 114.279 476.644 113.558L477.363 114.399L477.723 113.077L482.162 114.399L481.442 113.317L484.201 113.678L483.121 112.356C483.121 112.356 486.24 113.918 486.36 115.24C486.527 116.295 486.845 117.32 487.304 118.285L488.302 117.118C488.302 117.118 489.839 111.635 486.36 109.833Z" fill="#2F2E41"/>
<path d="M486.554 117.618C486.876 117.618 487.137 116.946 487.137 116.118C487.137 115.29 486.876 114.618 486.554 114.618C486.233 114.618 485.972 115.29 485.972 116.118C485.972 116.946 486.233 117.618 486.554 117.618Z" fill="#FFB8B8"/>
<path d="M524.818 205.306C516.182 211.33 513.433 222.332 513.433 222.332C513.433 222.332 524.688 223.568 533.325 217.545C541.962 211.521 544.71 200.518 544.71 200.518C544.71 200.518 533.455 199.282 524.818 205.306Z" fill="#3F3D56"/>
<path d="M528.236 208.376C523.868 217.968 513.555 222.649 513.555 222.649C513.555 222.649 510.323 211.779 514.691 202.187C519.059 192.596 529.372 187.915 529.372 187.915C529.372 187.915 532.603 198.785 528.236 208.376Z" fill="#0EA5E9"/>
<path d="M155.837 301.447C156.94 301.447 157.834 300.552 157.834 299.447C157.834 298.342 156.94 297.446 155.837 297.446C154.734 297.446 153.84 298.342 153.84 299.447C153.84 300.552 154.734 301.447 155.837 301.447Z" fill="#F2F2F2"/>
<path d="M147.182 290.777C150.859 290.777 153.84 287.791 153.84 284.107C153.84 280.424 150.859 277.438 147.182 277.438C143.505 277.438 140.524 280.424 140.524 284.107C140.524 287.791 143.505 290.777 147.182 290.777Z" fill="#F2F2F2"/>
<path d="M135.198 266.101C142.184 266.101 147.847 260.427 147.847 253.429C147.847 246.431 142.184 240.758 135.198 240.758C128.212 240.758 122.548 246.431 122.548 253.429C122.548 260.427 128.212 266.101 135.198 266.101Z" fill="#0EA5E9"/>
<path d="M102.994 70.9477C97.0318 71.8759 91.3101 73.9714 86.156 77.1147C81.0019 80.2579 76.5164 84.3873 72.9554 89.2671C69.3944 94.1469 66.8278 99.6815 65.4021 105.555C63.9764 111.428 63.7195 117.526 64.646 123.498C68.5429 148.618 126.808 224.452 126.808 224.452C126.808 224.452 159.351 134.482 155.454 109.362C154.528 103.39 152.436 97.6579 149.298 92.4949C146.16 87.3319 142.038 82.8386 137.167 79.2714C132.295 75.7043 126.77 73.1332 120.907 71.705C115.044 70.2769 108.957 70.0195 102.994 70.9477ZM113.755 140.309C109.04 141.043 104.214 140.36 99.887 138.346C95.5599 136.333 91.9261 133.079 89.4451 128.997C86.964 124.914 85.7472 120.187 85.9484 115.411C86.1496 110.636 87.7598 106.028 90.5754 102.17C93.3911 98.3113 97.2856 95.3759 101.767 93.7347C106.248 92.0936 111.114 91.8203 115.75 92.9496C120.386 94.0788 124.584 96.5599 127.812 100.079C131.041 103.598 133.155 107.997 133.887 112.72C134.87 119.053 133.301 125.517 129.525 130.691C125.749 135.865 120.077 139.325 113.755 140.309Z" fill="#0EA5E9"/>
</g>
<defs>
<radialGradient id="paint0_radial_28_45" cx="0" cy="0" r="1" gradientUnits="userSpaceOnUse" gradientTransform="translate(288.5 197.588) rotate(90) scale(197.314 224.5)">
<stop stop-color="#0EA5E9"/>
<stop offset="1" stop-color="#0EA5E9" stop-opacity="0"/>
</radialGradient>
<clipPath id="clip0_28_45">
<rect width="559" height="438" fill="white"/>
</clipPath>
</defs>
</svg>
