<svg width="239" height="186" viewBox="0 0 239 186" fill="none" xmlns="http://www.w3.org/2000/svg">
<g clip-path="url(#clip0_76_1058)">
<path d="M136.088 90.9484C141.466 90.9484 145.825 86.5795 145.825 81.1903C145.825 75.8011 141.466 71.4323 136.088 71.4323C130.71 71.4323 126.35 75.8011 126.35 81.1903C126.35 86.5795 130.71 90.9484 136.088 90.9484Z" fill="#E6E6E6"/>
<path d="M159.953 93.73L149.777 83.5326C150.557 82.3168 151.085 80.9565 151.331 79.5323C151.577 78.108 151.535 76.6488 151.208 75.2411C150.881 73.8334 150.275 72.5059 149.426 71.3371C148.577 70.1683 147.503 69.1822 146.268 68.437C143.94 67.0438 141.176 66.5773 138.522 67.1298C135.868 67.6823 133.517 69.2135 131.936 71.4202C130.481 73.4643 129.783 75.9523 129.96 78.4567C130.138 80.961 131.18 83.3252 132.909 85.1427C134.637 86.9602 136.943 88.1176 139.431 88.4157C141.919 88.7139 144.432 88.1343 146.54 86.7765L156.716 96.9739C157.145 97.4037 157.727 97.645 158.334 97.6448C158.941 97.6446 159.523 97.403 159.952 96.973C160.381 96.543 160.622 95.9598 160.622 95.3517C160.623 94.7435 160.382 94.1603 159.953 93.73V93.73ZM146.16 83.152C144.899 84.4155 143.24 85.2019 141.465 85.3771C139.691 85.5522 137.91 85.1054 136.428 84.1126C134.945 83.1199 133.852 81.6427 133.334 79.9327C132.817 78.2228 132.907 76.3858 133.589 74.7349C134.271 73.084 135.504 71.7213 137.076 70.879C138.649 70.0366 140.464 69.7667 142.213 70.1153C143.962 70.4639 145.537 71.4094 146.668 72.7907C147.799 74.172 148.417 75.9037 148.417 77.6906C148.419 78.7051 148.22 79.7098 147.832 80.647C147.445 81.5843 146.877 82.4356 146.16 83.152V83.152Z" fill="#3F3D56"/>
<path d="M233.718 108.772C259.742 137.612 184.303 179.174 123.346 179.174C62.3892 179.174 20.2167 146.971 12.974 108.772C-4.587 16.1519 162.598 -42.7167 123.346 38.3688C66.1316 156.56 213.223 86.0595 233.718 108.772Z" fill="#E6E6E6"/>
<path d="M222.041 115.597C248.065 144.437 172.626 186 111.669 186C50.7126 186 8.54014 153.796 1.29747 115.597C-16.2635 22.9775 150.921 -35.8911 111.669 45.1944C54.4551 163.386 201.547 92.885 222.041 115.597Z" fill="#3F3D56"/>
<path d="M36.3902 47.9801C18.1293 47.1744 3.97059 43.2271 4.1566 38.9937C4.26812 36.4556 9.43613 34.4147 18.3354 33.3944C18.3673 33.3905 18.3996 33.393 18.4305 33.4017C18.4614 33.4104 18.4902 33.4251 18.5154 33.4451C18.5406 33.465 18.5616 33.4897 18.5772 33.5178C18.5928 33.5459 18.6027 33.5768 18.6064 33.6087C18.61 33.6406 18.6073 33.673 18.5985 33.7039C18.5896 33.7348 18.5747 33.7636 18.5546 33.7887C18.5346 33.8138 18.5098 33.8347 18.4817 33.8502C18.4535 33.8656 18.4226 33.8753 18.3907 33.8788C10.0076 34.84 4.73962 36.8081 4.64264 39.0151C4.47443 42.8434 19.0228 46.7258 36.4116 47.4931C53.8004 48.2603 68.633 45.6743 68.8012 41.846C68.8985 39.6297 63.7908 37.1984 55.471 35.501C55.4397 35.4947 55.4098 35.4823 55.3833 35.4644C55.3567 35.4465 55.3339 35.4236 55.3162 35.3968C55.2985 35.3701 55.2862 35.3401 55.2801 35.3087C55.274 35.2772 55.2741 35.2448 55.2805 35.2134C55.2869 35.1819 55.2994 35.1521 55.3173 35.1255C55.3353 35.0989 55.3582 35.0762 55.385 35.0585C55.4117 35.0408 55.4416 35.0286 55.473 35.0226C55.5045 35.0166 55.5368 35.0168 55.5681 35.0233C64.3987 36.8249 69.3992 39.3195 69.2872 41.8674C69.1012 46.1009 54.6511 48.7858 36.3902 47.9801Z" fill="#0EA5E9"/>
<path d="M20.1719 48.6891C21.6995 51.5972 23.9625 54.0522 26.7343 55.8087C29.5061 57.5651 32.6897 58.5613 35.9664 58.6976C39.2431 58.8339 42.498 58.1055 45.4056 56.5853C48.3131 55.0651 50.7713 52.8064 52.5342 50.0351C41.7303 50.181 30.9265 49.7317 20.1719 48.6891V48.6891Z" fill="#0EA5E9"/>
<path d="M54.5543 44.9074C55.4737 42.144 55.7386 39.2041 55.3281 36.3203C54.9175 33.4366 53.8429 30.6882 52.1891 28.2926C50.5353 25.897 48.3478 23.92 45.7997 22.5181C43.2517 21.1162 40.4129 20.3279 37.5082 20.2155C34.6035 20.1031 31.7126 20.6697 29.0642 21.8705C26.4159 23.0713 24.0827 24.8733 22.2495 27.134C20.4163 29.3946 19.1333 32.0518 18.5021 34.8953C17.8709 37.7387 17.9088 40.6903 18.6127 43.5166C30.4828 45.5358 42.5642 46.0034 54.5543 44.9074V44.9074Z" fill="#0EA5E9"/>
<path d="M41.0704 32.3241C42.2796 32.3241 43.2598 31.3418 43.2598 30.1301C43.2598 28.9185 42.2796 27.9362 41.0704 27.9362C39.8613 27.9362 38.8811 28.9185 38.8811 30.1301C38.8811 31.3418 39.8613 32.3241 41.0704 32.3241Z" fill="white"/>
<path d="M29.8027 40.8538C31.8179 40.8538 33.4516 39.2167 33.4516 37.1972C33.4516 35.1777 31.8179 33.5406 29.8027 33.5406C27.7875 33.5406 26.1538 35.1777 26.1538 37.1972C26.1538 39.2167 27.7875 40.8538 29.8027 40.8538Z" fill="white"/>
<path d="M84.8747 37.2719C86.2181 37.2719 87.3072 36.1806 87.3072 34.8343C87.3072 33.488 86.2181 32.3967 84.8747 32.3967C83.5312 32.3967 82.4421 33.488 82.4421 34.8343C82.4421 36.1806 83.5312 37.2719 84.8747 37.2719Z" fill="#0EA5E9"/>
<path d="M29.8978 111.866C30.7039 111.866 31.3574 111.211 31.3574 110.403C31.3574 109.595 30.7039 108.94 29.8978 108.94C29.0917 108.94 28.4382 109.595 28.4382 110.403C28.4382 111.211 29.0917 111.866 29.8978 111.866Z" fill="#E6E6E6"/>
<path d="M132.067 162.082C132.873 162.082 133.527 161.427 133.527 160.62C133.527 159.812 132.873 159.157 132.067 159.157C131.261 159.157 130.607 159.812 130.607 160.62C130.607 161.427 131.261 162.082 132.067 162.082Z" fill="#E6E6E6"/>
<path d="M36.9525 83.5883C37.3555 83.5883 37.6823 83.2609 37.6823 82.857C37.6823 82.4531 37.3555 82.1257 36.9525 82.1257C36.5494 82.1257 36.2227 82.4531 36.2227 82.857C36.2227 83.2609 36.5494 83.5883 36.9525 83.5883Z" fill="#E6E6E6"/>
<path d="M97.2808 138.193C97.6839 138.193 98.0106 137.865 98.0106 137.461C98.0106 137.058 97.6839 136.73 97.2808 136.73C96.8778 136.73 96.551 137.058 96.551 137.461C96.551 137.865 96.8778 138.193 97.2808 138.193Z" fill="#E6E6E6"/>
<path d="M206.991 131.123C207.394 131.123 207.721 130.796 207.721 130.392C207.721 129.988 207.394 129.661 206.991 129.661C206.588 129.661 206.261 129.988 206.261 130.392C206.261 130.796 206.588 131.123 206.991 131.123Z" fill="#E6E6E6"/>
<path d="M172.691 152.819C173.095 152.819 173.421 152.492 173.421 152.088C173.421 151.684 173.095 151.356 172.691 151.356C172.288 151.356 171.962 151.684 171.962 152.088C171.962 152.492 172.288 152.819 172.691 152.819Z" fill="#E6E6E6"/>
<path d="M136.932 126.492C137.335 126.492 137.662 126.164 137.662 125.76C137.662 125.357 137.335 125.029 136.932 125.029C136.529 125.029 136.203 125.357 136.203 125.76C136.203 126.164 136.529 126.492 136.932 126.492Z" fill="#E6E6E6"/>
<path d="M90.7129 54.3359C91.116 54.3359 91.4427 54.0085 91.4427 53.6046C91.4427 53.2007 91.116 52.8732 90.7129 52.8732C90.3099 52.8732 89.9832 53.2007 89.9832 53.6046C89.9832 54.0085 90.3099 54.3359 90.7129 54.3359Z" fill="#E6E6E6"/>
<path d="M96.5511 18.2579C96.9541 18.2579 97.2809 17.9305 97.2809 17.5266C97.2809 17.1227 96.9541 16.7953 96.5511 16.7953C96.148 16.7953 95.8213 17.1227 95.8213 17.5266C95.8213 17.9305 96.148 18.2579 96.5511 18.2579Z" fill="#E6E6E6"/>
<path d="M93.1456 170.127C93.5486 170.127 93.8754 169.799 93.8754 169.395C93.8754 168.991 93.5486 168.664 93.1456 168.664C92.7425 168.664 92.4158 168.991 92.4158 169.395C92.4158 169.799 92.7425 170.127 93.1456 170.127Z" fill="#E6E6E6"/>
<path d="M57.1429 154.769C57.5459 154.769 57.8727 154.442 57.8727 154.038C57.8727 153.634 57.5459 153.307 57.1429 153.307C56.7398 153.307 56.4131 153.634 56.4131 154.038C56.4131 154.442 56.7398 154.769 57.1429 154.769Z" fill="#E6E6E6"/>
<path d="M171.232 128.442C171.635 128.442 171.962 128.115 171.962 127.711C171.962 127.307 171.635 126.979 171.232 126.979C170.829 126.979 170.502 127.307 170.502 127.711C170.502 128.115 170.829 128.442 171.232 128.442Z" fill="#E6E6E6"/>
<path d="M36.0934 56.9931C37.3025 56.9931 38.2827 56.0109 38.2827 54.7992C38.2827 53.5875 37.3025 52.6053 36.0934 52.6053C34.8843 52.6053 33.9041 53.5875 33.9041 54.7992C33.9041 56.0109 34.8843 56.9931 36.0934 56.9931Z" fill="white"/>
<path d="M85.6045 88.4637C85.6045 95.0164 75.4947 110.285 72.5403 114.607C72.4511 114.738 72.3315 114.845 72.1918 114.919C72.0521 114.993 71.8966 115.031 71.7386 115.031C71.5807 115.031 71.4251 114.993 71.2854 114.919C71.1457 114.845 71.0261 114.738 70.937 114.607C67.9825 110.285 57.8728 95.0164 57.8728 88.4637C57.8728 86.639 58.2315 84.8322 58.9283 83.1464C59.6251 81.4606 60.6464 79.9288 61.934 78.6386C63.2216 77.3483 64.7501 76.3248 66.4324 75.6265C68.1147 74.9282 69.9177 74.5688 71.7386 74.5688C73.5595 74.5688 75.3626 74.9282 77.0449 75.6265C78.7271 76.3248 80.2557 77.3483 81.5433 78.6386C82.8308 79.9288 83.8522 81.4606 84.549 83.1464C85.2458 84.8322 85.6045 86.639 85.6045 88.4637V88.4637Z" fill="white"/>
<path d="M71.7386 94.558C75.6347 94.558 78.7932 91.3929 78.7932 87.4886C78.7932 83.5844 75.6347 80.4193 71.7386 80.4193C67.8425 80.4193 64.6841 83.5844 64.6841 87.4886C64.6841 91.3929 67.8425 94.558 71.7386 94.558Z" fill="#0EA5E9"/>
<path d="M71.617 122.591C76.1177 122.591 79.7662 121.882 79.7662 121.007C79.7662 120.132 76.1177 119.422 71.617 119.422C67.1163 119.422 63.4678 120.132 63.4678 121.007C63.4678 121.882 67.1163 122.591 71.617 122.591Z" fill="white"/>
<path d="M198.708 77.4993C198.646 77.6192 198.594 77.7438 198.552 77.8719L186.928 81.1084L184.833 79.0542L181.327 81.8169L184.682 85.8145C184.953 86.1375 185.322 86.3636 185.732 86.4589C186.142 86.5543 186.572 86.5137 186.957 86.3432L199.514 80.789C199.94 81.0853 200.445 81.2446 200.964 81.2457C201.483 81.2469 201.989 81.0898 202.416 80.7954C202.844 80.5009 203.171 80.0831 203.356 79.5975C203.541 79.1119 203.573 78.5815 203.45 78.0769C203.326 77.5722 203.052 77.1172 202.664 76.7724C202.276 76.4277 201.793 76.2094 201.278 76.1467C200.763 76.084 200.241 76.1798 199.782 76.4214C199.323 76.6631 198.948 77.039 198.708 77.4993H198.708Z" fill="#FFB8B8"/>
<path d="M186.519 81.2981L182.156 84.701C182.032 84.7978 181.888 84.8667 181.735 84.9029C181.582 84.9392 181.423 84.9419 181.269 84.911C181.114 84.88 180.968 84.8162 180.841 84.7237C180.714 84.6312 180.608 84.5123 180.53 84.375L177.819 79.5661C177.328 78.9268 177.11 78.1186 177.213 77.3186C177.316 76.5186 177.731 75.7922 178.368 75.2986C179.005 74.805 179.811 74.5846 180.609 74.6857C181.408 74.7868 182.134 75.2011 182.628 75.8378L186.602 79.6391C186.716 79.748 186.805 79.8801 186.863 80.0266C186.921 80.1731 186.947 80.3304 186.94 80.4878C186.932 80.6452 186.89 80.7991 186.817 80.9389C186.745 81.0787 186.643 81.2013 186.519 81.2981V81.2981Z" fill="#0EA5E9"/>
<path d="M199.822 75.8897L204.247 77.8845C204.432 77.968 204.577 78.1219 204.649 78.3122C204.721 78.5026 204.714 78.7138 204.631 78.8995L204.107 80.0663C204.169 80.0943 204.217 80.1456 204.241 80.209C204.265 80.2724 204.263 80.3427 204.235 80.4046L204.026 80.8713C203.998 80.933 203.947 80.9812 203.883 81.0053C203.82 81.0293 203.75 81.0273 203.688 80.9997L203.479 81.4664C203.54 81.4944 203.588 81.5457 203.612 81.6091C203.636 81.6725 203.634 81.7428 203.607 81.8047L203.397 82.2714C203.369 82.3332 203.318 82.3813 203.255 82.4054C203.192 82.4294 203.121 82.4274 203.06 82.3998L200.231 88.7003C200.148 88.886 199.994 89.0309 199.804 89.1031C199.614 89.1753 199.403 89.1689 199.218 89.0854L194.794 87.0907C194.608 87.0071 194.464 86.8533 194.392 86.6629C194.32 86.4726 194.326 86.2613 194.409 86.0757L198.809 76.2748C198.893 76.0892 199.046 75.9443 199.236 75.8721C199.426 75.7998 199.637 75.8062 199.822 75.8897V75.8897Z" fill="#3F3D56"/>
<path d="M195.597 86.4699L199.146 88.0717C199.324 88.1514 199.526 88.1573 199.709 88.0883C199.891 88.0193 200.038 87.8809 200.119 87.7032L201.758 84.0492L202.328 82.7826L203.811 79.4766C203.891 79.2987 203.897 79.0966 203.828 78.9144C203.759 78.7323 203.621 78.5848 203.444 78.5042L202.328 78.0001L199.892 76.9024C199.714 76.8228 199.512 76.8172 199.33 76.8868C199.148 76.9563 199.001 77.0954 198.922 77.2734L197.487 80.4694L195.852 84.1081L195.229 85.4975C195.15 85.6754 195.144 85.8775 195.213 86.0598C195.282 86.242 195.42 86.3895 195.597 86.4699V86.4699Z" fill="#F2F2F2"/>
<path d="M188.18 131.744L191.163 131.744L192.582 120.216L188.18 120.216L188.18 131.744Z" fill="#FFB8B8"/>
<path d="M187.42 130.768L193.293 130.768H193.293C193.785 130.768 194.272 130.865 194.726 131.053C195.18 131.242 195.592 131.518 195.94 131.866C196.288 132.215 196.563 132.628 196.751 133.083C196.94 133.538 197.036 134.026 197.036 134.519V134.64L187.42 134.641L187.42 130.768Z" fill="#2F2E41"/>
<path d="M195.965 131.013L198.947 131.012L200.366 119.485L195.964 119.485L195.965 131.013Z" fill="#FFB8B8"/>
<path d="M195.204 130.037L201.077 130.036H201.078C201.569 130.036 202.056 130.133 202.51 130.322C202.964 130.51 203.377 130.787 203.724 131.135C204.072 131.483 204.347 131.897 204.536 132.352C204.724 132.807 204.82 133.295 204.82 133.787V133.909L195.204 133.909L195.204 130.037Z" fill="#2F2E41"/>
<path d="M174.803 104.694C175.439 106.581 176.644 108.224 178.252 109.395C179.86 110.566 181.792 111.207 183.779 111.229L183.93 111.232C185.47 111.276 187.277 110.778 189.051 110.064C192.554 108.653 195.918 106.393 196.811 105.771L195.298 120.346L194.685 126.255C194.669 126.408 194.686 126.563 194.734 126.709C194.781 126.855 194.859 126.989 194.962 127.103C195.064 127.217 195.19 127.309 195.33 127.371C195.47 127.434 195.621 127.467 195.775 127.467H199.552C199.795 127.467 200.03 127.387 200.222 127.239C200.414 127.09 200.551 126.883 200.613 126.648L206.85 102.844C207.037 102.131 207.052 101.384 206.894 100.665C206.736 99.9454 206.409 99.274 205.94 98.7063C205.472 98.1386 204.875 97.6908 204.199 97.4002C203.524 97.1095 202.789 96.9842 202.055 97.0347L189.1 97.9245L190.004 94.2972L178.44 93.5269L178.406 93.5512C178.128 93.7536 177.858 93.9656 177.601 94.1875C176.956 94.7339 176.384 95.3615 175.9 96.0547C175.034 97.2986 174.482 98.7344 174.291 100.239C174.1 101.744 174.275 103.272 174.803 104.694Z" fill="#2F2E41"/>
<path d="M174.803 104.694C175.439 106.581 176.644 108.224 178.252 109.395C179.86 110.566 181.792 111.207 183.779 111.229C185.68 110.265 187.514 109.175 189.27 107.965L189.051 110.064L187.144 128.449C187.128 128.602 187.145 128.757 187.193 128.903C187.24 129.049 187.318 129.183 187.421 129.297C187.523 129.411 187.649 129.503 187.789 129.565C187.929 129.628 188.08 129.66 188.233 129.661H192.011C192.254 129.661 192.489 129.581 192.681 129.432C192.873 129.284 193.01 129.077 193.072 128.842L195.298 120.346L199.309 105.038C199.496 104.325 199.511 103.578 199.353 102.859C199.195 102.139 198.868 101.468 198.399 100.9C197.931 100.332 197.334 99.8847 196.658 99.594C195.983 99.3034 195.248 99.1781 194.514 99.2286L181.558 100.118L182.463 96.491L175.9 96.0547C175.034 97.2986 174.482 98.7344 174.291 100.239C174.1 101.744 174.275 103.272 174.803 104.694V104.694Z" fill="#2F2E41"/>
<path d="M177.584 95.0284L177.497 95.0179L175.479 85.0757C175.462 84.9894 173.812 76.4137 178.869 71.9305L178.957 71.3169C178.98 71.1599 179.036 71.0097 179.122 70.8765C179.208 70.7434 179.322 70.6306 179.456 70.5458C179.59 70.461 179.74 70.4064 179.897 70.3856C180.054 70.3648 180.214 70.3783 180.365 70.4253L185.129 71.9061C185.399 71.9894 185.626 72.174 185.763 72.4213C185.9 72.6686 185.936 72.9593 185.864 73.2327L185.401 74.998C186.043 75.7537 193.602 84.8737 190.969 91.8999L189.79 96.5198L177.584 95.0284Z" fill="#0EA5E9"/>
<path d="M197.366 87.2689C197.252 87.3407 197.144 87.4215 197.043 87.5103L185.391 84.3759L184.63 81.5399L180.208 82.1325L181.07 87.2844C181.139 87.7006 181.342 88.083 181.647 88.3741C181.952 88.6652 182.343 88.8493 182.761 88.8988L196.391 90.5123C196.608 90.9845 196.963 91.3794 197.409 91.6445C197.855 91.9097 198.37 92.0325 198.888 91.9966C199.405 91.9608 199.899 91.7679 200.305 91.4438C200.71 91.1196 201.007 90.6794 201.157 90.1819C201.306 89.6843 201.301 89.153 201.142 88.6584C200.983 88.1639 200.677 87.7296 200.265 87.4134C199.854 87.0971 199.356 86.9139 198.838 86.8881C198.32 86.8623 197.807 86.9951 197.366 87.2689H197.366Z" fill="#FFB8B8"/>
<path d="M184.942 84.3307L179.459 85.0385C179.303 85.0586 179.144 85.0448 178.994 84.998C178.844 84.9512 178.706 84.8725 178.588 84.7673C178.471 84.6621 178.378 84.5328 178.315 84.3883C178.253 84.2437 178.222 84.0873 178.225 83.9297L178.329 78.4072C178.231 77.6067 178.453 76.7998 178.948 76.1634C179.442 75.527 180.168 75.1131 180.967 75.0124C181.766 74.9117 182.571 75.1324 183.208 75.6262C183.844 76.12 184.259 76.8466 184.362 77.6465L185.856 82.9447C185.899 83.0964 185.908 83.2555 185.884 83.4113C185.86 83.5671 185.803 83.7158 185.716 83.8473C185.629 83.9788 185.515 84.0901 185.382 84.1735C185.248 84.2569 185.098 84.3105 184.942 84.3307V84.3307Z" fill="#0EA5E9"/>
<path d="M183.399 69.0759C186.699 69.0759 189.374 66.3953 189.374 63.0886C189.374 59.782 186.699 57.1014 183.399 57.1014C180.099 57.1014 177.424 59.782 177.424 63.0886C177.424 66.3953 180.099 69.0759 183.399 69.0759Z" fill="#FFB8B8"/>
<path d="M183.085 63.5887L182.336 62.2236C180.92 68.0088 183.422 72.7967 183.422 72.7967L173.708 68.2623L173.801 66.6535L172.84 67.7465L171.459 66.9838L171.276 65.9404L170.234 66.1991L174.039 59.2791C177.732 52.6942 183.102 55.2082 183.102 55.2082C191.644 54.8013 190.601 63.2467 190.601 63.2467L183.085 63.5887Z" fill="#2F2E41"/>
<path d="M115.072 108.206C116.449 107.321 114.774 102.24 111.33 96.856C107.886 91.4723 103.977 87.8253 102.6 88.7103C101.222 89.5952 102.897 94.677 106.341 100.061C109.786 105.444 113.694 109.091 115.072 108.206Z" fill="#3F3D56"/>
</g>
<defs>
<clipPath id="clip0_76_1058">
<rect width="239" height="186" fill="white"/>
</clipPath>
</defs>
</svg>
