<svg width="159" height="172" viewBox="0 0 159 172" fill="none" xmlns="http://www.w3.org/2000/svg">
<g clip-path="url(#clip0_27_1093)">
<path d="M100.858 97.5871L32.1286 115.381C29.7972 115.981 27.324 115.628 25.2515 114.398C23.179 113.168 21.6766 111.161 21.0737 108.819L0.288013 27.6681C-0.309542 25.3242 0.0420854 22.8378 1.26576 20.7542C2.48943 18.6706 4.48521 17.1601 6.81525 16.5541L70.7572 0L87.1233 7.36585L107.386 86.473C107.983 88.8169 107.632 91.3034 106.408 93.387C105.184 95.4706 103.189 96.9811 100.858 97.5871Z" fill="#F2F2F2"/>
<path d="M7.46658 19.0984C5.8073 19.53 4.38606 20.6056 3.51466 22.0894C2.64326 23.5731 2.39286 25.3438 2.81839 27.013L23.6041 108.163C24.0334 109.831 25.1033 111.26 26.5792 112.136C28.055 113.012 29.8163 113.264 31.4765 112.836L100.206 95.0428C101.866 94.6112 103.287 93.5356 104.158 92.0518C105.03 90.5681 105.28 88.7974 104.855 87.1282L84.9062 9.24679L70.5233 2.7735L7.46658 19.0984Z" fill="white"/>
<path d="M86.9484 7.78446L76.3115 10.5383C75.535 10.7393 74.7108 10.622 74.0203 10.2121C73.3298 9.80223 72.8296 9.13338 72.6296 8.35269L70.6066 0.454328C70.5977 0.419749 70.5987 0.38336 70.6095 0.349335C70.6203 0.31531 70.6403 0.285027 70.6675 0.261956C70.6946 0.238886 70.7276 0.223963 70.7628 0.2189C70.7979 0.213837 70.8338 0.218837 70.8662 0.233328L86.9779 7.42687C87.0138 7.44287 87.0438 7.46971 87.0638 7.50364C87.0838 7.53757 87.0928 7.57692 87.0895 7.61622C87.0863 7.65553 87.071 7.69285 87.0457 7.72299C87.0204 7.75314 86.9864 7.77462 86.9484 7.78446Z" fill="#F2F2F2"/>
<path d="M81.3523 77.0852L50.0606 85.1864C49.8683 85.2361 49.6682 85.2473 49.4716 85.2194C49.2751 85.1914 49.0859 85.1247 48.915 85.0233C48.744 84.9218 48.5946 84.7875 48.4753 84.6279C48.356 84.4684 48.2691 84.2868 48.2196 84.0936C48.1701 83.9003 48.159 83.6991 48.1868 83.5015C48.2146 83.3039 48.2809 83.1137 48.3818 82.9418C48.4828 82.77 48.6164 82.6198 48.7751 82.4998C48.9337 82.3799 49.1143 82.2925 49.3066 82.2428L80.5984 74.1416C80.7906 74.0918 80.9907 74.0806 81.1873 74.1086C81.3838 74.1366 81.573 74.2032 81.744 74.3047C81.9149 74.4061 82.0643 74.5405 82.1836 74.7C82.3029 74.8595 82.3898 75.0411 82.4393 75.2344C82.4888 75.4276 82.5 75.6288 82.4721 75.8264C82.4443 76.0241 82.378 76.2142 82.2771 76.3861C82.1762 76.5579 82.0425 76.7081 81.8839 76.8281C81.7252 76.948 81.5446 77.0354 81.3523 77.0852Z" fill="#CCCCCC"/>
<path d="M88.6636 80.4891L51.333 90.1536C50.9448 90.2542 50.5327 90.1955 50.1874 89.9906C49.8422 89.7856 49.5921 89.4512 49.4921 89.0608C49.3921 88.6705 49.4505 88.2562 49.6543 87.9091C49.8582 87.562 50.1908 87.3106 50.5791 87.2101L87.9096 77.5455C88.2977 77.4454 88.7095 77.5043 89.0544 77.7093C89.3994 77.9142 89.6493 78.2485 89.7492 78.6386C89.8491 79.0287 89.7909 79.4428 89.5873 79.7898C89.3838 80.1367 89.0515 80.3883 88.6636 80.4891Z" fill="#CCCCCC"/>
<path d="M37.2893 94.9434C40.2402 94.9434 42.6324 92.5384 42.6324 89.5717C42.6324 86.605 40.2402 84.2001 37.2893 84.2001C34.3384 84.2001 31.9463 86.605 31.9463 89.5717C31.9463 92.5384 34.3384 94.9434 37.2893 94.9434Z" fill="#E6E6E6"/>
<path d="M78.0253 63.0271L36.4668 73.7823C35.2657 74.0917 33.9916 73.9095 32.9241 73.2756C31.8565 72.6418 31.0826 71.608 30.7721 70.4012L22.063 36.3869C21.7553 35.1795 21.9365 33.8986 22.567 32.8253C23.1975 31.752 24.2257 30.9739 25.426 30.6618L66.9846 19.9066C68.1857 19.5973 69.4598 19.7795 70.5273 20.4133C71.5949 21.0472 72.3688 22.0809 72.6792 23.2877L81.3884 57.302C81.6961 58.5095 81.5149 59.7904 80.8844 60.8637C80.2539 61.937 79.2257 62.715 78.0253 63.0271Z" fill="white"/>
<path d="M78.0253 63.0271L36.4668 73.7823C35.2657 74.0917 33.9916 73.9095 32.9241 73.2756C31.8565 72.6418 31.0826 71.608 30.7721 70.4012L22.063 36.3869C21.7553 35.1795 21.9365 33.8986 22.567 32.8253C23.1975 31.752 24.2257 30.9739 25.426 30.6618L66.9846 19.9066C68.1857 19.5973 69.4598 19.7795 70.5273 20.4133C71.5949 21.0472 72.3688 22.0809 72.6792 23.2877L81.3884 57.302C81.6961 58.5095 81.5149 59.7904 80.8844 60.8637C80.2539 61.937 79.2257 62.715 78.0253 63.0271ZM25.5632 31.1975C24.5041 31.4729 23.5968 32.1594 23.0405 33.1064C22.4842 34.0534 22.3243 35.1836 22.5958 36.2491L31.305 70.2634C31.5789 71.3282 32.2617 72.2403 33.2037 72.7995C34.1457 73.3588 35.2699 73.5196 36.3296 73.2466L77.8882 62.4915C78.9473 62.2161 79.8546 61.5296 80.4109 60.5825C80.9672 59.6355 81.1271 58.5053 80.8556 57.4399L72.1464 23.4256C71.8725 22.3608 71.1897 21.4487 70.2477 20.8894C69.3057 20.3301 68.1815 20.1693 67.1218 20.4423L25.5632 31.1975Z" fill="#E6E6E6"/>
<path d="M64.8762 31.3436L43.9022 36.7716C43.7188 36.823 43.5228 36.8026 43.3539 36.7144C43.1849 36.6261 43.0556 36.4767 42.992 36.2963C42.9625 36.202 42.9523 36.1027 42.9621 36.0044C42.972 35.9061 43.0017 35.8108 43.0494 35.7244C43.0971 35.6379 43.1618 35.5622 43.2396 35.5018C43.3173 35.4413 43.4065 35.3974 43.5017 35.3728L64.852 29.8474C65.7145 30.2868 65.4876 31.1854 64.876 31.3436L64.8762 31.3436Z" fill="#F2F2F2"/>
<path d="M65.8235 35.0423L44.8494 40.4703C44.666 40.5218 44.4701 40.5013 44.3011 40.4131C44.1322 40.3249 44.0029 40.1754 43.9393 39.995C43.9097 39.9008 43.8996 39.8014 43.9094 39.7031C43.9193 39.6048 43.9489 39.5095 43.9966 39.4231C44.0443 39.3367 44.109 39.2609 44.1868 39.2005C44.2646 39.14 44.3538 39.0961 44.449 39.0715L65.7993 33.5461C66.6618 33.9855 66.4348 34.8841 65.8232 35.0424L65.8235 35.0423Z" fill="#F2F2F2"/>
<path d="M40.8545 43.7496L34.4534 45.4062C34.2443 45.4601 34.0226 45.4284 33.8367 45.3181C33.6509 45.2077 33.5162 45.0278 33.4622 44.8177L31.5177 37.2234C31.4641 37.0133 31.4957 36.7903 31.6054 36.6035C31.7151 36.4166 31.8941 36.2812 32.1031 36.2269L38.5042 34.5703C38.7132 34.5165 38.935 34.5483 39.1208 34.6586C39.3066 34.7689 39.4413 34.9488 39.4954 35.1588L41.4398 42.7531C41.4934 42.9633 41.4619 43.1863 41.3521 43.3731C41.2424 43.5599 41.0634 43.6954 40.8545 43.7497V43.7496Z" fill="#E6E6E6"/>
<path d="M67.7015 42.6312L35.6912 50.9154C35.5078 50.9668 35.3119 50.9464 35.1429 50.8581C34.974 50.7699 34.8447 50.6205 34.7811 50.4401C34.7515 50.3458 34.7413 50.2465 34.7512 50.1482C34.7611 50.0498 34.7907 49.9546 34.8384 49.8682C34.8861 49.7817 34.9508 49.706 35.0286 49.6455C35.1064 49.5851 35.1956 49.5412 35.2908 49.5166L67.6776 41.135C68.54 41.5744 68.3131 42.473 67.7015 42.6312L67.7015 42.6312Z" fill="#F2F2F2"/>
<path d="M68.6488 46.331L36.6385 54.6151C36.4551 54.6666 36.2592 54.6461 36.0902 54.5579C35.9213 54.4697 35.7919 54.3203 35.7284 54.1398C35.6988 54.0456 35.6886 53.9463 35.6985 53.8479C35.7083 53.7496 35.738 53.6543 35.7857 53.5679C35.8334 53.4815 35.8981 53.4057 35.9759 53.3453C36.0537 53.2849 36.1429 53.241 36.2381 53.2163L68.6249 44.8348C69.4873 45.2741 69.2604 46.1727 68.6488 46.331V46.331Z" fill="#F2F2F2"/>
<path d="M69.5955 50.0284L37.5853 58.3125C37.4019 58.364 37.2059 58.3435 37.037 58.2553C36.868 58.1671 36.7387 58.0176 36.6752 57.8372C36.6456 57.743 36.6354 57.6437 36.6452 57.5453C36.6551 57.447 36.6848 57.3517 36.7325 57.2653C36.7802 57.1789 36.8449 57.1031 36.9227 57.0427C37.0004 56.9823 37.0896 56.9384 37.1848 56.9137L69.5716 48.5322C70.4341 48.9715 70.2071 49.8701 69.5955 50.0284Z" fill="#F2F2F2"/>
<path d="M70.5428 53.7279L38.5325 62.012C38.3492 62.0635 38.1532 62.043 37.9843 61.9548C37.8153 61.8666 37.686 61.7172 37.6224 61.5367C37.5928 61.4425 37.5827 61.3432 37.5925 61.2449C37.6024 61.1465 37.6321 61.0512 37.6797 60.9648C37.7274 60.8784 37.7922 60.8027 37.8699 60.7422C37.9477 60.6818 38.0369 60.6379 38.1321 60.6132L70.5189 52.2317C71.3813 52.671 71.1544 53.5696 70.5428 53.7279L70.5428 53.7279Z" fill="#F2F2F2"/>
<path d="M71.4891 57.4255L39.4788 65.7097C39.2954 65.7611 39.0995 65.7407 38.9305 65.6525C38.7616 65.5642 38.6323 65.4148 38.5687 65.2344C38.5391 65.1401 38.5289 65.0408 38.5388 64.9425C38.5487 64.8442 38.5783 64.7489 38.626 64.6625C38.6737 64.576 38.7384 64.5003 38.8162 64.4398C38.894 64.3794 38.9832 64.3355 39.0784 64.3109L71.4652 55.9293C72.3276 56.3687 72.1007 57.2673 71.4891 57.4255Z" fill="#F2F2F2"/>
<path d="M37.6837 91.4547C37.5673 91.485 37.4443 91.4765 37.3332 91.4304L37.3263 91.4275L35.8708 90.8071C35.8032 90.7784 35.742 90.7365 35.6905 90.684C35.6391 90.6314 35.5984 90.5691 35.5709 90.5008C35.5435 90.4324 35.5296 90.3592 35.5303 90.2855C35.531 90.2118 35.5461 90.1389 35.5748 90.071C35.6035 90.0031 35.6452 89.9416 35.6976 89.89C35.7499 89.8383 35.8119 89.7976 35.88 89.7701C35.948 89.7425 36.0208 89.7288 36.0942 89.7295C36.1675 89.7303 36.24 89.7456 36.3075 89.7746L37.2506 90.1779L38.4866 87.2549C38.5152 87.1871 38.5569 87.1257 38.6092 87.0741C38.6614 87.0225 38.7233 86.9818 38.7912 86.9542C38.8592 86.9267 38.9318 86.9128 39.0051 86.9135C39.0783 86.9142 39.1507 86.9294 39.2181 86.9582L39.2183 86.9583L39.2109 86.9774L39.2186 86.9582C39.3547 87.0166 39.4622 87.1268 39.5175 87.2647C39.5728 87.4027 39.5714 87.557 39.5136 87.6939L38.0595 91.1308C38.0258 91.21 37.9744 91.2804 37.9093 91.3364C37.8442 91.3925 37.7671 91.4327 37.684 91.4539L37.6837 91.4547Z" fill="white"/>
<path d="M127.22 128.511H56.2482C53.8415 128.509 51.5341 127.546 49.8322 125.835C48.1304 124.124 47.1731 121.805 47.1704 119.385V35.5871C47.1731 33.1675 48.1304 30.8477 49.8322 29.1367C51.5341 27.4258 53.8415 26.4634 56.2482 26.4606H122.276L136.298 37.697V119.385C136.296 121.805 135.338 124.124 133.636 125.835C131.935 127.546 129.627 128.509 127.22 128.511Z" fill="#E6E6E6"/>
<path d="M56.2482 29.088C54.5343 29.0899 52.8912 29.7752 51.6792 30.9937C50.4673 32.2121 49.7856 33.864 49.7837 35.5871V119.385C49.7856 121.108 50.4673 122.76 51.6792 123.978C52.8912 125.197 54.5343 125.882 56.2482 125.884H127.22C128.934 125.882 130.577 125.197 131.789 123.978C133.001 122.76 133.683 121.108 133.685 119.385V38.9627L121.362 29.088H56.2482Z" fill="white"/>
<path d="M113.416 53.4541H81.1035C80.7026 53.4541 80.3181 53.294 80.0346 53.009C79.7511 52.7239 79.5918 52.3374 79.5918 51.9343C79.5918 51.5312 79.7511 51.1446 80.0346 50.8596C80.3181 50.5746 80.7026 50.4145 81.1035 50.4145H113.416C113.817 50.4145 114.202 50.5746 114.485 50.8596C114.769 51.1446 114.928 51.5312 114.928 51.9343C114.928 52.3374 114.769 52.7239 114.485 53.009C114.202 53.294 113.817 53.4541 113.416 53.4541Z" fill="#0EA5E9"/>
<path d="M119.652 58.5834H81.1039C80.7033 58.5829 80.3193 58.4225 80.0363 58.1376C79.7532 57.8526 79.5942 57.4663 79.5942 57.0636C79.5942 56.6609 79.7532 56.2746 80.0363 55.9897C80.3193 55.7047 80.7033 55.5444 81.1039 55.5438H119.652C119.851 55.5436 120.048 55.5827 120.231 55.6589C120.415 55.7352 120.582 55.8471 120.723 55.9882C120.863 56.1294 120.975 56.297 121.051 56.4815C121.127 56.6661 121.166 56.8639 121.166 57.0636C121.166 57.2634 121.127 57.4612 121.051 57.6457C120.975 57.8302 120.863 57.9979 120.723 58.139C120.582 58.2802 120.415 58.3921 120.231 58.4683C120.048 58.5446 119.851 58.5837 119.652 58.5834Z" fill="#0EA5E9"/>
<path d="M113.416 73.4006H81.1049C80.704 73.4006 80.3195 73.5607 80.036 73.8457C79.7525 74.1307 79.5933 74.5173 79.5933 74.9203C79.5933 75.3234 79.7525 75.7099 80.036 75.9949C80.3195 76.2799 80.704 76.44 81.1049 76.44H113.416C113.817 76.44 114.202 76.2799 114.485 75.9949C114.769 75.7099 114.928 75.3234 114.928 74.9203C114.928 74.5173 114.769 74.1307 114.485 73.8457C114.202 73.5607 113.817 73.4006 113.416 73.4006Z" fill="#CCCCCC"/>
<path d="M119.653 78.5309H81.1049C80.704 78.5309 80.3195 78.691 80.036 78.976C79.7525 79.261 79.5933 79.6475 79.5933 80.0506C79.5933 80.4536 79.7525 80.8402 80.036 81.1252C80.3195 81.4102 80.704 81.5703 81.1049 81.5703H119.653C120.054 81.5703 120.438 81.4102 120.721 81.1252C121.005 80.8402 121.164 80.4536 121.164 80.0506C121.164 79.6475 121.005 79.261 120.721 78.976C120.438 78.691 120.054 78.5309 119.653 78.5309Z" fill="#CCCCCC"/>
<path d="M113.416 99.4282H81.1035C80.7026 99.4282 80.3181 99.2681 80.0346 98.9831C79.7511 98.6981 79.5918 98.3115 79.5918 97.9084C79.5918 97.5053 79.7511 97.1188 80.0346 96.8338C80.3181 96.5487 80.7026 96.3886 81.1035 96.3886H113.416C113.817 96.3886 114.202 96.5487 114.485 96.8338C114.769 97.1188 114.928 97.5053 114.928 97.9084C114.928 98.3115 114.769 98.6981 114.485 98.9831C114.202 99.2681 113.817 99.4282 113.416 99.4282Z" fill="#CCCCCC"/>
<path d="M119.652 104.558H81.1039C80.7033 104.557 80.3193 104.397 80.0363 104.112C79.7532 103.827 79.5942 103.44 79.5942 103.038C79.5942 102.635 79.7532 102.249 80.0363 101.964C80.3193 101.679 80.7033 101.518 81.1039 101.518H119.652C119.851 101.518 120.048 101.557 120.231 101.633C120.415 101.709 120.582 101.821 120.723 101.962C120.863 102.104 120.975 102.271 121.051 102.456C121.127 102.64 121.166 102.838 121.166 103.038C121.166 103.238 121.127 103.435 121.051 103.62C120.975 103.804 120.863 103.972 120.723 104.113C120.582 104.254 120.415 104.366 120.231 104.442C120.048 104.519 119.851 104.558 119.652 104.558Z" fill="#CCCCCC"/>
<path d="M67.6477 59.8707C70.5986 59.8707 72.9908 57.4657 72.9908 54.499C72.9908 51.5323 70.5986 49.1273 67.6477 49.1273C64.6968 49.1273 62.3047 51.5323 62.3047 54.499C62.3047 57.4657 64.6968 59.8707 67.6477 59.8707Z" fill="#0EA5E9"/>
<path d="M67.1182 56.5481C66.998 56.5483 66.881 56.5092 66.7848 56.4367L66.7789 56.4322L65.5232 55.4665C65.4648 55.4218 65.4159 55.3659 65.379 55.3021C65.3422 55.2383 65.3183 55.1678 65.3086 55.0946C65.2989 55.0215 65.3037 54.9472 65.3226 54.8759C65.3415 54.8046 65.3742 54.7378 65.4189 54.6792C65.4635 54.6207 65.5192 54.5716 65.5828 54.5347C65.6463 54.4978 65.7165 54.4739 65.7893 54.4643C65.862 54.4547 65.9359 54.4597 66.0068 54.4788C66.0777 54.498 66.144 54.5311 66.2022 54.5761L67.0155 55.2031L68.9375 52.6823C68.982 52.6238 69.0376 52.5748 69.101 52.538C69.1645 52.5011 69.2345 52.4772 69.3071 52.4675C69.3797 52.4579 69.4535 52.4627 69.5243 52.4818C69.595 52.5008 69.6614 52.5336 69.7195 52.5784L69.7197 52.5786L69.7077 52.5952L69.72 52.5786C69.8373 52.6692 69.914 52.8029 69.9333 52.9503C69.9527 53.0977 69.9131 53.2469 69.8232 53.3649L67.5625 56.3287C67.5102 56.397 67.443 56.4522 67.366 56.4902C67.2891 56.5281 67.2044 56.5477 67.1187 56.5475L67.1182 56.5481Z" fill="white"/>
<path d="M73.5399 77.4855C73.5402 78.191 73.4022 78.8896 73.1339 79.5415C72.8655 80.1934 72.4721 80.7858 71.976 81.2848C71.4799 81.7838 70.8909 82.1796 70.2427 82.4497C69.5944 82.7199 68.8995 82.8589 68.1978 82.859C68.1519 82.86 68.1059 82.8581 68.0602 82.8535C67.0097 82.8264 65.9904 82.4884 65.1299 81.8818C64.2694 81.2753 63.606 80.427 63.2227 79.4433C62.8393 78.4595 62.753 77.3839 62.9746 76.3512C63.1963 75.3184 63.7159 74.3742 64.4686 73.6369C65.2213 72.8995 66.1736 72.4017 67.2063 72.2057C68.239 72.0098 69.3062 72.1244 70.2744 72.5352C71.2427 72.9459 72.0689 73.6347 72.6498 74.5152C73.2306 75.3957 73.5402 76.4289 73.5399 77.4855Z" fill="#CCCCCC"/>
<path d="M67.6477 105.845C70.5986 105.845 72.9908 103.44 72.9908 100.473C72.9908 97.5064 70.5986 95.1014 67.6477 95.1014C64.6968 95.1014 62.3047 97.5064 62.3047 100.473C62.3047 103.44 64.6968 105.845 67.6477 105.845Z" fill="#CCCCCC"/>
<path d="M136.025 38.0586H125.041C124.24 38.0586 123.471 37.7384 122.904 37.1683C122.337 36.5983 122.018 35.8251 122.018 35.019V26.8629C122.018 26.8272 122.028 26.7923 122.047 26.762C122.066 26.7318 122.093 26.7075 122.125 26.6919C122.157 26.6764 122.192 26.6702 122.228 26.6741C122.263 26.678 122.297 26.6919 122.324 26.714L136.143 37.7197C136.173 37.7442 136.196 37.7777 136.207 37.8156C136.218 37.8535 136.217 37.8938 136.204 37.9311C136.191 37.9683 136.167 38.0006 136.135 38.0235C136.103 38.0463 136.065 38.0586 136.025 38.0586Z" fill="#CCCCCC"/>
<path d="M73.54 77.4855C73.5402 78.191 73.4022 78.8896 73.1339 79.5415C72.8656 80.1934 72.4721 80.7858 71.976 81.2848C71.48 81.7838 70.891 82.1796 70.2427 82.4497C69.5944 82.7199 68.8996 82.8589 68.1978 82.859C68.1519 82.86 68.106 82.8581 68.0603 82.8535C67.37 81.1226 67.1039 79.2502 67.2844 77.3942C67.4649 75.5382 68.0867 73.7531 69.0973 72.1893C70.3402 72.4035 71.4678 73.0525 72.2807 74.0217C73.0937 74.9908 73.5397 76.2177 73.54 77.4855Z" fill="#0EA5E9"/>
<path d="M79.5918 74.9217C79.5925 74.5185 79.7521 74.132 80.0357 73.8469C80.3193 73.5618 80.7037 73.4014 81.1048 73.4006H89.1565C89.6268 74.3623 89.9611 75.3853 90.1496 76.44H81.1048C80.704 76.4399 80.3196 76.28 80.036 75.9954C79.7524 75.7107 79.5926 75.3246 79.5918 74.9217Z" fill="#0EA5E9"/>
<path d="M90.3368 78.5309C90.3373 79.5574 90.2023 80.5795 89.9351 81.5703H81.1049C80.704 81.5703 80.3195 81.4102 80.036 81.1252C79.7525 80.8402 79.5933 80.4536 79.5933 80.0506C79.5933 79.6475 79.7525 79.261 80.036 78.976C80.3195 78.691 80.704 78.5309 81.1049 78.5309H90.3368Z" fill="#0EA5E9"/>
<path d="M110.259 97.2754C110.031 97.6511 109.664 97.9204 109.238 98.024C108.813 98.1276 108.364 98.0571 107.99 97.8279L88.7329 86.0187C88.5479 85.9053 88.3869 85.7563 88.2591 85.5802C88.1314 85.4042 88.0393 85.2046 87.9883 84.9928C87.9373 84.781 87.9282 84.5612 87.9617 84.3459C87.9951 84.1306 88.0705 83.9241 88.1833 83.738C88.2962 83.552 88.4444 83.3901 88.6195 83.2617C88.7946 83.1332 88.9931 83.0407 89.2038 82.9894C89.4144 82.9381 89.6331 82.929 89.8472 82.9626C90.0614 82.9963 90.2669 83.072 90.4519 83.1855L109.709 94.9947C110.083 95.2239 110.351 95.5929 110.454 96.0206C110.557 96.4483 110.487 96.8997 110.259 97.2754Z" fill="#3F3D56"/>
<path d="M91.0016 85.4662C89.6417 87.7077 87.6512 89.4934 85.2818 90.5975C82.9125 91.7017 80.2706 92.0746 77.6904 91.6693C75.1102 91.2639 72.7075 90.0984 70.7861 88.3202C68.8648 86.542 67.511 84.2309 66.8961 81.6792C66.2812 79.1274 66.4328 76.4497 67.3316 73.9846C68.2304 71.5195 69.8362 69.3777 71.9458 67.8301C74.0554 66.2824 76.5741 65.3985 79.1834 65.29C81.7927 65.1815 84.3754 65.8533 86.6049 67.2205C89.5915 69.0566 91.7317 72.0088 92.5559 75.4294C93.3802 78.8499 92.8212 82.4595 91.0016 85.4662ZM71.2746 73.369C70.2546 75.0501 69.7535 76.9975 69.8344 78.965C69.9153 80.9324 70.5748 82.8316 71.7293 84.4223C72.8838 86.0129 74.4816 87.2237 76.3206 87.9014C78.1596 88.5792 80.1572 88.6934 82.0607 88.2298C83.9643 87.7661 85.6884 86.7454 87.015 85.2967C88.3415 83.8479 89.211 82.0362 89.5134 80.0907C89.8158 78.1452 89.5375 76.1532 88.7139 74.3666C87.8902 72.58 86.5581 71.0792 84.8859 70.0538C82.6429 68.6818 79.9501 68.2603 77.3984 68.8818C74.8467 69.5033 72.6443 71.1171 71.2746 73.369Z" fill="#3F3D56"/>
<path d="M133.308 80.682C137.039 80.682 140.064 77.6408 140.064 73.8893C140.064 70.1379 137.039 67.0967 133.308 67.0967C129.576 67.0967 126.551 70.1379 126.551 73.8893C126.551 77.6408 129.576 80.682 133.308 80.682Z" fill="#A0616A"/>
<path d="M132.871 111.969C132.741 111.561 132.698 111.13 132.745 110.704C132.792 110.278 132.928 109.867 133.144 109.497C133.36 109.128 133.651 108.808 133.999 108.56C134.346 108.311 134.742 108.14 135.16 108.056C135.293 108.03 135.427 108.013 135.562 108.006L142.679 96.5222L136.178 90.3088C135.929 90.0714 135.73 89.7869 135.592 89.4717C135.453 89.1565 135.378 88.8168 135.371 88.4723C135.364 88.1278 135.425 87.7854 135.55 87.4646C135.676 87.1439 135.863 86.8513 136.101 86.6038C136.34 86.3562 136.624 86.1586 136.939 86.0223C137.254 85.8861 137.592 85.8138 137.935 85.8098C138.278 85.8058 138.618 85.8701 138.936 85.999C139.254 86.1278 139.543 86.3187 139.787 86.5607L148.763 95.4587L148.781 95.4808C149.059 95.9055 149.193 96.409 149.163 96.9164C149.134 97.4238 148.942 97.9081 148.617 98.2975L138.646 110.154C138.675 110.249 138.7 110.346 138.72 110.444C138.803 110.864 138.797 111.297 138.702 111.715C138.608 112.133 138.426 112.527 138.17 112.869C137.913 113.211 137.587 113.496 137.214 113.703C136.841 113.91 136.428 114.035 136.003 114.071C135.917 114.079 135.832 114.082 135.747 114.082C135.107 114.08 134.485 113.874 133.968 113.495C133.452 113.115 133.068 112.581 132.871 111.969Z" fill="#A0616A"/>
<path d="M122.179 168.426L118.807 168.425L117.203 155.347L122.18 155.348L122.179 168.426Z" fill="#A0616A"/>
<path d="M123.04 171.712L112.166 171.712V171.573C112.166 171.015 112.275 170.461 112.488 169.945C112.7 169.429 113.012 168.96 113.405 168.565C113.798 168.169 114.265 167.856 114.778 167.642C115.292 167.428 115.842 167.318 116.398 167.318H116.398L123.04 167.319L123.04 171.712Z" fill="#2F2E41"/>
<path d="M155.701 163.738L152.803 165.472L144.769 155.061L149.046 152.501L155.701 163.738Z" fill="#A0616A"/>
<path d="M158.112 166.119L148.768 171.712L148.698 171.593C148.414 171.113 148.226 170.581 148.146 170.028C148.066 169.475 148.095 168.912 148.232 168.37C148.369 167.829 148.61 167.319 148.942 166.872C149.275 166.424 149.692 166.046 150.169 165.76L150.169 165.76L155.876 162.344L158.112 166.119Z" fill="#2F2E41"/>
<path d="M116.778 162.666C114.518 135.921 113.174 111.075 121.433 100.94L121.497 100.861L135.396 106.451L135.419 106.501C135.466 106.603 140.088 116.825 139.01 123.701L142.438 139.556L153.616 158.373C153.706 158.525 153.763 158.694 153.783 158.869C153.804 159.044 153.786 159.222 153.733 159.39C153.68 159.558 153.591 159.713 153.474 159.844C153.357 159.975 153.213 160.08 153.052 160.151L148.195 162.3C147.92 162.42 147.612 162.436 147.327 162.346C147.042 162.257 146.798 162.067 146.641 161.811L134.481 141.877L127.612 126.587C127.575 126.504 127.512 126.435 127.432 126.392C127.352 126.349 127.26 126.334 127.171 126.348C127.082 126.363 126.999 126.406 126.937 126.472C126.875 126.538 126.836 126.623 126.826 126.714L123.019 162.693C122.987 162.999 122.844 163.282 122.616 163.488C122.389 163.693 122.094 163.807 121.788 163.806H118.011C117.702 163.805 117.404 163.687 117.175 163.476C116.947 163.265 116.805 162.976 116.778 162.666Z" fill="#2F2E41"/>
<path d="M121.48 101.152L121.413 101.12L121.403 101.047C120.884 97.3932 121.499 93.3339 123.23 88.9816C124.083 86.8515 125.669 85.1004 127.699 84.0474C129.729 82.9944 132.067 82.7096 134.289 83.2449C135.568 83.5618 136.768 84.1425 137.813 84.9501C138.857 85.7577 139.724 86.7746 140.357 87.9364C140.982 89.0863 141.363 90.3542 141.476 91.6598C141.588 92.9654 141.429 94.2802 141.01 95.521C138.827 101.937 135.996 107.941 135.968 108.001L135.909 108.126L121.48 101.152Z" fill="#0EA5E9"/>
<path d="M106.315 92.0518C106.65 91.7862 107.037 91.5946 107.45 91.4897C107.864 91.3848 108.294 91.3689 108.714 91.4431C109.134 91.5172 109.534 91.6797 109.887 91.92C110.24 92.1603 110.539 92.4728 110.763 92.8372C110.834 92.9529 110.897 93.0734 110.95 93.1978L124.142 95.8783L127.654 87.5805C127.788 87.2634 127.984 86.9763 128.229 86.7355C128.474 86.4948 128.764 86.3053 129.083 86.178C129.401 86.0506 129.742 85.988 130.084 85.9936C130.427 85.9993 130.765 86.0732 131.079 86.211C131.393 86.3488 131.677 86.5478 131.915 86.7965C132.152 87.0452 132.338 87.3386 132.461 87.66C132.585 87.9813 132.644 88.3241 132.636 88.6685C132.627 89.013 132.55 89.3522 132.41 89.6668L127.263 101.235L127.249 101.26C126.951 101.67 126.529 101.973 126.045 102.123C125.562 102.273 125.044 102.262 124.568 102.093L110.029 96.8542C109.95 96.9156 109.869 96.9727 109.785 97.0255C109.423 97.2512 109.017 97.3974 108.594 97.4545C108.172 97.5116 107.742 97.4782 107.333 97.3566C106.924 97.2351 106.545 97.028 106.221 96.749C105.898 96.47 105.636 96.1254 105.454 95.7377C105.417 95.6594 105.384 95.5803 105.354 95.5002C105.132 94.8968 105.106 94.2386 105.279 93.6193C105.451 93.0001 105.814 92.4515 106.315 92.0518Z" fill="#A0616A"/>
<path d="M157.716 81.1637C157.065 80.0044 156.117 78.9425 154.863 78.514C153.244 77.9606 151.491 78.5499 149.827 78.9433C148.545 79.2464 147.205 79.4319 145.913 79.1761C144.62 78.9203 143.373 78.1641 142.785 76.9791C141.92 75.2358 142.649 73.1569 142.596 71.2093C142.569 70.1492 142.303 69.109 141.818 68.1673C141.333 67.2255 140.642 66.4068 139.796 65.7727C138.951 65.1387 137.973 64.7059 136.937 64.5069C135.901 64.308 134.833 64.3481 133.815 64.6243C132.221 64.1619 130.778 64.1191 129.792 65.3508C128.552 65.3509 127.362 65.8462 126.485 66.7279C125.608 67.6096 125.116 68.8055 125.116 70.0524H129.587C129.375 71.1987 129.618 72.3829 130.262 73.352C131.052 74.518 132.424 75.3614 132.689 76.7465C132.945 78.0888 132.037 79.3624 131.085 80.3381C130.133 81.3139 129.029 82.2807 128.732 83.6144C128.549 84.6268 128.756 85.671 129.31 86.5361C129.863 87.3908 130.549 88.1504 131.342 88.7862C134.914 91.8628 139.159 94.0463 143.731 95.1582C146.951 95.9375 150.473 96.1395 153.461 94.7059C154.657 94.1324 155.723 93.3179 156.592 92.3129C157.461 91.3079 158.116 90.1339 158.515 88.8639C158.914 87.5939 159.049 86.2549 158.911 84.9303C158.774 83.6056 158.367 82.3235 157.716 81.1637Z" fill="#2F2E41"/>
<path d="M158.725 172H106.459C106.386 172 106.316 171.971 106.264 171.919C106.213 171.867 106.184 171.797 106.184 171.723C106.184 171.65 106.213 171.58 106.264 171.528C106.316 171.476 106.386 171.447 106.459 171.447H158.725C158.798 171.447 158.868 171.476 158.92 171.528C158.971 171.58 159 171.65 159 171.723C159 171.797 158.971 171.867 158.92 171.919C158.868 171.971 158.798 172 158.725 172Z" fill="#CCCCCC"/>
</g>
<defs>
<clipPath id="clip0_27_1093">
<rect width="159" height="172" fill="white"/>
</clipPath>
</defs>
</svg>
