<svg width="255" height="121" viewBox="0 0 255 121" fill="none" xmlns="http://www.w3.org/2000/svg">
<g clip-path="url(#clip0_27_1296)">
<path d="M199.192 18.179H136.662V16.9003H108.309V18.179H45.5227C44.4008 18.179 43.3249 18.6212 42.5317 19.4083C41.7384 20.1954 41.2927 21.263 41.2927 22.3761V107.332C41.2927 108.445 41.7384 109.512 42.5317 110.3C43.3249 111.087 44.4008 111.529 45.5227 111.529H199.192C200.313 111.529 201.389 111.087 202.183 110.3C202.976 109.512 203.422 108.445 203.422 107.332V22.3757C203.421 21.2626 202.976 20.1952 202.182 19.4082C201.389 18.6211 200.313 18.179 199.192 18.179Z" fill="#3F3D56"/>
<path d="M197.751 25.5957H46.9639V109.994H197.751V25.5957Z" fill="#E6E6E6"/>
<path d="M191.407 30.059H53.3584V103.011H191.407V30.059Z" fill="white"/>
<path d="M122.228 23.2942C123.082 23.2942 123.775 22.6072 123.775 21.7597C123.775 20.9121 123.082 20.2251 122.228 20.2251C121.374 20.2251 120.682 20.9121 120.682 21.7597C120.682 22.6072 121.374 23.2942 122.228 23.2942Z" fill="#0EA5E9"/>
<path d="M207.655 108.459H192.939V107.407C192.939 107.352 192.917 107.299 192.877 107.26C192.838 107.221 192.785 107.199 192.729 107.199H187.683C187.628 107.199 187.574 107.221 187.535 107.26C187.495 107.299 187.473 107.352 187.473 107.407V108.459H184.32V107.407C184.32 107.352 184.298 107.299 184.258 107.26C184.219 107.221 184.165 107.199 184.109 107.199H179.064C179.008 107.199 178.955 107.221 178.915 107.26C178.876 107.299 178.854 107.352 178.854 107.407V108.459H175.7V107.407C175.7 107.352 175.678 107.299 175.639 107.26C175.599 107.221 175.546 107.199 175.49 107.199H170.445C170.389 107.199 170.335 107.221 170.296 107.26C170.257 107.299 170.234 107.352 170.234 107.407V108.459H167.081V107.407C167.081 107.352 167.059 107.299 167.02 107.26C166.98 107.221 166.927 107.199 166.871 107.199H161.826C161.77 107.199 161.716 107.221 161.677 107.26C161.638 107.299 161.615 107.352 161.615 107.407V108.459H158.462V107.407C158.462 107.352 158.44 107.299 158.4 107.26C158.361 107.221 158.307 107.199 158.252 107.199H153.206C153.151 107.199 153.097 107.221 153.058 107.26C153.018 107.299 152.996 107.352 152.996 107.407V108.459H149.843V107.407C149.843 107.352 149.82 107.299 149.781 107.26C149.742 107.221 149.688 107.199 149.632 107.199H144.588C144.532 107.199 144.479 107.221 144.439 107.26C144.4 107.299 144.378 107.352 144.378 107.407V108.459H141.223V107.407C141.223 107.352 141.201 107.299 141.162 107.26C141.122 107.221 141.069 107.199 141.013 107.199H101.491C101.435 107.199 101.381 107.221 101.342 107.26C101.303 107.299 101.28 107.352 101.28 107.407V108.459H98.1271V107.407C98.1271 107.352 98.1049 107.299 98.0655 107.26C98.0261 107.221 97.9726 107.199 97.9168 107.199H92.8714C92.8156 107.199 92.7621 107.221 92.7227 107.26C92.6832 107.299 92.6611 107.352 92.6611 107.407V108.459H89.5078V107.407C89.5078 107.352 89.4856 107.299 89.4462 107.26C89.4068 107.221 89.3533 107.199 89.2975 107.199H84.2523C84.1965 107.199 84.143 107.221 84.1036 107.26C84.0642 107.299 84.042 107.352 84.042 107.407V108.459H80.8885V107.407C80.8885 107.352 80.8664 107.299 80.8269 107.26C80.7875 107.221 80.734 107.199 80.6782 107.199H75.633C75.5772 107.199 75.5238 107.221 75.4843 107.26C75.4449 107.299 75.4227 107.352 75.4227 107.407V108.459H72.27V107.407C72.27 107.352 72.2478 107.299 72.2084 107.26C72.1689 107.221 72.1154 107.199 72.0597 107.199H67.0137C66.958 107.199 66.9045 107.221 66.865 107.26C66.8256 107.299 66.8034 107.352 66.8034 107.407V108.459H63.6502V107.407C63.6502 107.352 63.628 107.299 63.5886 107.26C63.5491 107.221 63.4957 107.199 63.4399 107.199H58.3944C58.3387 107.199 58.2852 107.221 58.2457 107.26C58.2063 107.299 58.1841 107.352 58.1841 107.407V108.459H55.0309V107.407C55.0309 107.352 55.0087 107.299 54.9693 107.26C54.9299 107.221 54.8764 107.199 54.8206 107.199H49.7742C49.7184 107.199 49.6649 107.221 49.6255 107.26C49.5861 107.299 49.5639 107.352 49.5639 107.407V108.459H39.8946C38.5564 108.459 37.2731 108.987 36.3269 109.926C35.3807 110.865 34.8491 112.138 34.8491 113.466V115.729C34.8491 117.057 35.3807 118.33 36.3269 119.269C37.2731 120.208 38.5564 120.736 39.8946 120.736H207.655C208.993 120.736 210.276 120.208 211.222 119.269C212.169 118.331 212.7 117.057 212.7 115.73V113.466C212.7 112.138 212.169 110.865 211.222 109.926C210.276 108.987 208.993 108.46 207.655 108.46V108.459Z" fill="#3F3D56"/>
<path d="M152.906 35.1756H91.8599V98.8476H152.906V35.1756Z" fill="#E6E6E6"/>
<path d="M255 120.523H0V121H255V120.523Z" fill="#E6E6E6"/>
<path d="M230.235 103.862C233.69 107.541 233.869 112.948 233.869 112.948C233.869 112.948 228.445 112.39 224.99 108.712C221.535 105.033 221.356 99.626 221.356 99.626C221.356 99.626 226.78 100.184 230.235 103.862Z" fill="#0EA5E9"/>
<path d="M241.112 109.604C237.404 113.033 231.955 113.21 231.955 113.21C231.955 113.21 232.517 107.829 236.224 104.4C239.932 100.972 245.381 100.795 245.381 100.795C245.381 100.795 244.819 106.176 241.112 109.604Z" fill="#0EA5E9"/>
<path d="M240.19 120.523H226.554C226.292 120.523 226.036 120.45 225.814 120.312C225.592 120.175 225.414 119.978 225.299 119.744L222.33 113.689C222.227 113.478 222.179 113.244 222.191 113.01C222.204 112.775 222.276 112.548 222.402 112.349C222.527 112.15 222.702 111.986 222.909 111.872C223.116 111.759 223.348 111.699 223.585 111.699H243.159C243.396 111.699 243.629 111.759 243.836 111.872C244.043 111.986 244.217 112.15 244.343 112.349C244.468 112.548 244.54 112.775 244.553 113.01C244.565 113.244 244.517 113.478 244.414 113.689L241.445 119.744C241.331 119.978 241.152 120.175 240.93 120.312C240.709 120.45 240.452 120.523 240.191 120.523L240.19 120.523Z" fill="#E5E5E5"/>
<path d="M14.6503 103.862C18.1055 107.541 18.284 112.948 18.284 112.948C18.284 112.948 12.8608 112.39 9.40566 108.712C5.95055 105.033 5.77197 99.626 5.77197 99.626C5.77197 99.626 11.1952 100.184 14.6503 103.862Z" fill="#E5E5E5"/>
<path d="M22.4428 120.523H8.80615C8.5445 120.523 8.2881 120.45 8.06628 120.312C7.84446 120.175 7.66618 119.978 7.55182 119.744L4.58291 113.689C4.47923 113.478 4.43137 113.244 4.44383 113.01C4.45629 112.775 4.52865 112.548 4.65411 112.349C4.77958 112.15 4.95401 111.986 5.16099 111.872C5.36797 111.759 5.60069 111.699 5.83724 111.699H25.4119C25.6485 111.699 25.8812 111.759 26.0882 111.872C26.2951 111.986 26.4696 112.15 26.595 112.349C26.7205 112.548 26.7929 112.775 26.8053 113.01C26.8178 113.244 26.7699 113.478 26.6662 113.689L23.6973 119.744C23.583 119.978 23.4047 120.175 23.1829 120.312C22.9611 120.45 22.7047 120.523 22.443 120.523L22.4428 120.523Z" fill="#E5E5E5"/>
<path d="M129.749 53.2001C134.229 53.2001 137.862 49.5959 137.862 45.15C137.862 40.704 134.229 37.0999 129.749 37.0999C125.268 37.0999 121.635 40.704 121.635 45.15C121.635 49.5959 125.268 53.2001 129.749 53.2001Z" fill="#A0616A"/>
<path d="M111.082 98.9788L116.321 66.2516C116.6 64.5116 117.248 62.8504 118.224 61.3785C119.2 59.9066 120.481 58.6579 121.981 57.7153C123.481 56.7727 125.166 56.1579 126.925 55.9118C128.683 55.6657 130.474 55.794 132.178 56.288C135.158 57.1432 137.71 59.07 139.335 61.6921C140.96 64.3141 141.541 67.443 140.965 70.4676L135.486 99.6945L111.082 98.9788Z" fill="#0EA5E9"/>
<path d="M131.989 104.834C132.394 104.569 132.735 104.218 132.989 103.808C133.243 103.397 133.403 102.936 133.458 102.457C133.513 101.979 133.462 101.494 133.308 101.037C133.153 100.58 132.9 100.162 132.565 99.8132L137.981 89.4065L131.882 90.0523L127.674 99.8358C127.122 100.433 126.81 101.21 126.796 102.02C126.783 102.83 127.068 103.617 127.599 104.232C128.13 104.847 128.87 105.248 129.679 105.359C130.487 105.47 131.309 105.284 131.988 104.835L131.989 104.834Z" fill="#A0616A"/>
<path d="M133.149 97.9777C132.849 97.9357 132.569 97.8041 132.347 97.6004L130.275 95.7005C130.051 95.4943 129.896 95.2248 129.832 94.9286C129.767 94.6323 129.796 94.3236 129.914 94.0441L134.056 84.3037L133.468 65.0578C133.64 63.8092 134.304 62.6795 135.316 61.917C136.327 61.1546 137.602 60.8219 138.86 60.9922C140.118 61.1626 141.257 61.8219 142.026 62.8252C142.794 63.8285 143.129 65.0936 142.958 66.3422L143.962 78.4406C144.268 82.1125 143.218 85.7694 141.01 88.7312L134.551 97.3946C134.427 97.5611 134.269 97.6998 134.087 97.8017C133.905 97.9035 133.704 97.9662 133.496 97.9858C133.38 97.9967 133.264 97.994 133.149 97.9777Z" fill="#0EA5E9"/>
<path d="M83.0274 40.764C83.1158 41.2377 83.3079 41.6865 83.59 42.0787C83.8721 42.4709 84.2374 42.7969 84.6602 43.0338C85.0831 43.2708 85.5531 43.4128 86.0373 43.45C86.5214 43.4872 87.0079 43.4186 87.4624 43.2491L95.0091 52.2552L96.7876 46.4303L89.3486 38.7708C89.0092 38.0344 88.4099 37.4468 87.6638 37.1187C86.9177 36.7907 86.0764 36.745 85.2987 36.9902C84.5209 37.2355 83.8605 37.7547 83.4422 38.4499C83.0238 39.1452 82.8763 39.9683 83.0277 40.764H83.0274Z" fill="#A0616A"/>
<path d="M88.9389 44.497C89.0947 44.2396 89.3258 44.0355 89.6015 43.9118L92.1731 42.7592C92.4518 42.6351 92.7622 42.5989 93.0623 42.6555C93.3625 42.7121 93.6378 42.8588 93.8512 43.0757L101.276 50.6574L119.367 57.6244C119.908 57.9429 120.381 58.364 120.758 58.8638C121.135 59.3635 121.409 59.9321 121.564 60.537C121.719 61.1418 121.753 61.7712 121.663 62.389C121.574 63.0068 121.362 63.6011 121.041 64.1377C120.719 64.6744 120.295 65.1429 119.791 65.5166C119.287 65.8903 118.713 66.1618 118.104 66.3156C117.494 66.4695 116.86 66.5026 116.237 66.413C115.615 66.3235 115.016 66.1132 114.475 65.794L102.856 61.9946C99.3286 60.842 96.3438 58.4576 94.4561 55.2847L88.9341 46.0058C88.828 45.8273 88.761 45.6287 88.7374 45.4229C88.7137 45.2171 88.734 45.0086 88.7969 44.8111C88.8318 44.7012 88.8797 44.5959 88.9396 44.4972L88.9389 44.497Z" fill="#0EA5E9"/>
<path opacity="0.1" d="M136.329 73.0638L135.999 83.552L129.914 94.0448L134.995 82.3525L136.329 73.0638Z" fill="black"/>
<path d="M124.254 41.115C125.091 42.0977 126.507 42.3748 127.814 42.4886C130.467 42.7194 134.325 42.3455 136.918 41.751C137.103 43.5307 136.598 45.4494 137.654 46.9134C138.15 45.1411 138.438 43.318 138.513 41.4803C138.545 40.6933 138.532 39.8768 138.209 39.1533C137.887 38.4298 137.183 37.8157 136.372 37.8093C136.974 37.3559 137.68 37.0567 138.426 36.9379L135.859 35.658L136.519 34.9865L131.871 34.7044L133.217 33.8559C131.191 33.5799 129.142 33.516 127.103 33.6651C126.156 33.7343 125.166 33.8666 124.398 34.411C123.631 34.9555 123.188 36.0374 123.664 36.8368C123.068 36.9339 122.506 37.1806 122.033 37.5533C121.56 37.926 121.19 38.4124 120.959 38.9666C120.617 39.827 120.648 40.7828 120.754 41.6997C120.929 43.1662 121.272 44.6079 121.778 45.997" fill="#2F2E41"/>
<path d="M158.938 20.9483L85.0097 37.8833C84.6466 37.966 84.2653 37.9025 83.9494 37.7066C83.6335 37.5108 83.4088 37.1986 83.3246 36.8385L79.0909 18.6427C79.0075 18.2824 79.0715 17.9041 79.2689 17.5907C79.4663 17.2772 79.781 17.0543 80.1438 16.9707L154.072 0.0357095C154.435 -0.0470036 154.816 0.0165409 155.132 0.212402C155.448 0.408263 155.673 0.720447 155.757 1.08048L159.991 19.2764C160.074 19.6366 160.01 20.0149 159.812 20.3284C159.615 20.6418 159.3 20.8647 158.938 20.9483Z" fill="white"/>
<path d="M158.938 20.9483L85.0097 37.8833C84.6466 37.966 84.2653 37.9025 83.9494 37.7066C83.6335 37.5108 83.4088 37.1986 83.3246 36.8385L79.0909 18.6427C79.0075 18.2824 79.0715 17.9041 79.2689 17.5907C79.4663 17.2772 79.781 17.0543 80.1438 16.9707L154.072 0.0357095C154.435 -0.0470036 154.816 0.0165409 155.132 0.212402C155.448 0.408263 155.673 0.720447 155.757 1.08048L159.991 19.2764C160.074 19.6366 160.01 20.0149 159.812 20.3284C159.615 20.6418 159.3 20.8647 158.938 20.9483ZM80.2703 17.5142C80.0525 17.5643 79.8637 17.6981 79.7453 17.8862C79.6268 18.0743 79.5884 18.3013 79.6384 18.5175L83.8722 36.7134C83.9226 36.9294 84.0575 37.1168 84.247 37.2344C84.4366 37.3519 84.6655 37.39 84.8833 37.3403L158.811 20.4053C159.029 20.3552 159.218 20.2214 159.336 20.0333C159.455 19.8452 159.493 19.6182 159.443 19.402L155.209 1.20589C155.159 0.989805 155.024 0.802421 154.834 0.684877C154.645 0.567333 154.416 0.529237 154.198 0.578948L80.2703 17.5142Z" fill="#E6E6E6"/>
<path d="M105.923 17.4579C105.801 17.4856 105.685 17.537 105.583 17.6089C105.481 17.6809 105.394 17.7722 105.327 17.8775C105.261 17.9828 105.216 18.1001 105.195 18.2227C105.174 18.3453 105.178 18.4707 105.205 18.5919C105.233 18.7131 105.285 18.8276 105.358 18.929C105.43 19.0303 105.522 19.1164 105.629 19.1825C105.735 19.2485 105.853 19.2932 105.976 19.3139C106.1 19.3346 106.226 19.3309 106.349 19.3031L106.352 19.3024L150.169 9.26507C150.415 9.20828 150.628 9.05687 150.762 8.8441C150.896 8.63134 150.939 8.37459 150.882 8.13025C150.825 7.88591 150.673 7.67394 150.459 7.54089C150.245 7.40783 149.986 7.36457 149.739 7.4206L105.923 17.4579Z" fill="#E6E6E6"/>
<path d="M107.21 22.9916C107.088 23.0193 106.972 23.0706 106.87 23.1426C106.768 23.2146 106.681 23.3059 106.615 23.4112C106.548 23.5165 106.503 23.6338 106.482 23.7563C106.461 23.8789 106.465 24.0044 106.493 24.1256C106.521 24.2468 106.573 24.3613 106.645 24.4626C106.718 24.564 106.81 24.6501 106.916 24.7162C107.022 24.7822 107.14 24.8268 107.264 24.8475C107.387 24.8682 107.514 24.8646 107.636 24.8368L107.639 24.8361L126.494 20.517C126.74 20.4609 126.954 20.3099 127.089 20.0973C127.223 19.8846 127.267 19.6278 127.21 19.3831C127.154 19.1385 127.002 18.9261 126.787 18.7927C126.573 18.6593 126.314 18.6158 126.068 18.6718L126.064 18.6725L107.21 22.9916Z" fill="#E6E6E6"/>
<path d="M93.9439 29.7224C97.1049 29.7224 99.6673 27.1798 99.6673 24.0434C99.6673 20.907 97.1049 18.3644 93.9439 18.3644C90.7829 18.3644 88.2205 20.907 88.2205 24.0434C88.2205 27.1798 90.7829 29.7224 93.9439 29.7224Z" fill="#0EA5E9"/>
<path d="M93.783 27.3195C93.5957 27.3627 93.3993 27.3443 93.2235 27.267L93.2125 27.2622L90.9095 26.2249C90.8026 26.1768 90.7063 26.1083 90.6261 26.0232C90.5458 25.9382 90.4833 25.8383 90.442 25.7292C90.4008 25.6202 90.3816 25.5041 90.3855 25.3877C90.3895 25.2713 90.4165 25.1568 90.4651 25.0508C90.5137 24.9447 90.5829 24.8493 90.6688 24.7698C90.7546 24.6903 90.8554 24.6284 90.9653 24.5876C91.0753 24.5468 91.1923 24.5279 91.3096 24.532C91.4269 24.5361 91.5423 24.5631 91.649 24.6115L93.1413 25.2856L95.2348 20.7212C95.3329 20.5075 95.5124 20.3412 95.7341 20.2589C95.9557 20.1765 96.2012 20.1849 96.4165 20.2821L96.404 20.3119L96.4172 20.282C96.6325 20.3795 96.7999 20.5577 96.8828 20.7776C96.9658 20.9975 96.9574 21.241 96.8596 21.4548L94.3974 26.8241C94.3403 26.9478 94.2553 27.0568 94.1489 27.1426C94.0425 27.2285 93.9176 27.2888 93.7839 27.319L93.783 27.3195Z" fill="white"/>
</g>
<defs>
<clipPath id="clip0_27_1296">
<rect width="255" height="121" fill="white"/>
</clipPath>
</defs>
</svg>
