<svg width="375" height="389" viewBox="0 0 375 389" fill="none" xmlns="http://www.w3.org/2000/svg">
<g clip-path="url(#clip0_32_5087)">
<path d="M369.952 180.463C370.392 182.184 370.804 183.914 371.189 185.652H240.266V180.463H369.952Z" fill="#E6E6E6"/>
<path d="M365.778 166.785C363.671 160.828 361.213 155 358.418 149.334C357.558 147.586 356.665 145.857 355.739 144.144C355.587 143.851 355.424 143.557 355.262 143.263V181.88H366.575V169.083L365.778 166.785Z" fill="#E6E6E6"/>
<path d="M358.418 149.334H355.262V144.144H355.739C356.667 145.855 357.56 147.585 358.418 149.334Z" fill="#CCCCCC"/>
<path d="M365.778 166.785H355.262V171.974H366.575V169.083L365.778 166.785Z" fill="#CCCCCC"/>
<path d="M349.135 137.07H337.824V181.88H349.135V137.07Z" fill="#E6E6E6"/>
<path d="M349.135 144.145H337.824V149.334H349.135V144.145Z" fill="#CCCCCC"/>
<path d="M349.135 166.786H337.824V171.975H349.135V166.786Z" fill="#CCCCCC"/>
<path d="M297.551 136.809H256.974C256.348 136.81 255.749 137.059 255.307 137.502C254.864 137.944 254.615 138.544 254.615 139.17V179.781C254.615 180.012 254.649 180.242 254.714 180.463C254.861 180.948 255.16 181.374 255.567 181.676C255.974 181.978 256.467 182.142 256.974 182.142H297.551C298.058 182.142 298.551 181.978 298.958 181.676C299.365 181.374 299.664 180.948 299.811 180.463C299.876 180.242 299.91 180.012 299.91 179.781V139.17C299.909 138.544 299.661 137.944 299.218 137.502C298.776 137.059 298.177 136.81 297.551 136.809Z" fill="#E6E6E6"/>
<path d="M294.668 139.695H259.857C259.232 139.696 258.632 139.945 258.19 140.388C257.748 140.83 257.499 141.43 257.498 142.056V176.895C257.499 177.521 257.748 178.121 258.19 178.564C258.632 179.006 259.232 179.256 259.857 179.256H294.668C295.293 179.256 295.893 179.006 296.335 178.564C296.777 178.121 297.026 177.521 297.027 176.895V142.056C297.026 141.43 296.777 140.83 296.335 140.388C295.893 139.945 295.293 139.696 294.668 139.695Z" fill="white"/>
<path d="M288.597 145.771H265.928C265.303 145.772 264.703 146.021 264.261 146.464C263.819 146.906 263.57 147.506 263.569 148.132V170.82C263.57 171.445 263.819 172.045 264.261 172.488C264.703 172.931 265.303 173.18 265.928 173.181H288.597C289.222 173.177 289.82 172.928 290.262 172.485C290.703 172.043 290.953 171.445 290.956 170.82V148.132C290.955 147.506 290.706 146.906 290.264 146.464C289.822 146.021 289.222 145.772 288.597 145.771Z" fill="#CCCCCC"/>
<path d="M287.199 166.818L282.411 158.518C282.319 158.358 282.187 158.226 282.028 158.134C281.868 158.042 281.687 157.993 281.503 157.993C281.319 157.993 281.138 158.042 280.979 158.134C280.82 158.226 280.687 158.358 280.595 158.518L277.099 164.579L272.514 156.631C272.422 156.471 272.289 156.339 272.13 156.247C271.971 156.155 271.79 156.106 271.606 156.106C271.422 156.106 271.241 156.155 271.081 156.247C270.922 156.339 270.79 156.471 270.698 156.631L265.91 164.931L260.214 174.805H271.2L270.111 176.692H292.896L287.199 166.818Z" fill="white"/>
<path d="M285.51 154.051C287.332 154.051 288.809 152.573 288.809 150.749C288.809 148.926 287.332 147.447 285.51 147.447C283.688 147.447 282.21 148.926 282.21 150.749C282.21 152.573 283.688 154.051 285.51 154.051Z" fill="white"/>
<path d="M374.958 217.128C374.921 215.093 374.841 213.067 374.717 211.052C374.665 210.087 374.602 209.127 374.523 208.167H352.389C351.763 208.168 351.164 208.417 350.722 208.859C350.279 209.302 350.031 209.902 350.03 210.528V251.139C350.028 251.324 350.051 251.51 350.098 251.689C350.222 252.205 350.515 252.663 350.93 252.991C351.346 253.32 351.859 253.499 352.389 253.5H372.793C372.898 252.901 372.997 252.293 373.086 251.689C373.144 251.333 373.202 250.971 373.254 250.614C373.38 249.759 373.501 248.903 373.611 248.048C373.768 246.883 373.91 245.713 374.035 244.538C374.497 240.325 374.794 236.066 374.927 231.762V231.757C374.974 230.135 374.998 228.507 375 226.872V220.576C375 219.421 374.99 218.272 374.958 217.128Z" fill="#E6E6E6"/>
<path d="M374.958 217.128C374.921 215.093 374.841 213.067 374.717 211.052H355.272C354.647 211.053 354.047 211.302 353.605 211.745C353.163 212.188 352.914 212.788 352.913 213.414V248.253C352.914 248.879 353.163 249.479 353.605 249.921C354.047 250.364 354.647 250.613 355.272 250.614H373.254C373.38 249.759 373.501 248.903 373.611 248.048C373.768 246.883 373.91 245.713 374.035 244.538C374.497 240.325 374.794 236.066 374.927 231.762V231.757C374.974 230.135 374.998 228.507 375 226.872V220.576C375 219.421 374.99 218.272 374.958 217.128Z" fill="white"/>
<path d="M374.958 217.128H361.343C360.718 217.129 360.118 217.378 359.676 217.821C359.234 218.264 358.985 218.864 358.984 219.489V242.177C358.985 242.803 359.234 243.403 359.676 243.845C360.118 244.288 360.718 244.537 361.343 244.538H374.035C374.497 240.325 374.794 236.066 374.927 231.762V231.757C374.974 230.135 374.998 228.507 375 226.872V220.576C375 219.421 374.99 218.272 374.958 217.128Z" fill="#CCCCCC"/>
<path d="M374.927 231.762C374.796 236.064 374.499 240.323 374.035 244.538C373.91 245.713 373.768 246.883 373.611 248.048H365.527L366.617 246.165H355.629L358.984 240.346L361.322 236.29L366.114 227.989C366.205 227.829 366.337 227.696 366.496 227.603C366.656 227.511 366.837 227.462 367.021 227.462C367.205 227.462 367.386 227.511 367.545 227.603C367.705 227.696 367.837 227.829 367.928 227.989L372.515 235.938L374.927 231.762Z" fill="white"/>
<path d="M335.204 114.431H240.266V109.242H330.496C332.1 110.937 333.669 112.667 335.204 114.431Z" fill="#E6E6E6"/>
<path d="M290.694 78.4431C294.563 80.5734 298.334 82.8558 302.008 85.2903V110.654H290.694V78.4431Z" fill="#E6E6E6"/>
<path d="M302.005 95.5615H290.694V100.75H302.005V95.5615Z" fill="#CCCCCC"/>
<path d="M319.444 98.6174V110.654H308.131V89.556C310.768 91.4817 313.346 93.4842 315.864 95.5637C317.069 96.5606 318.263 97.5785 319.444 98.6174Z" fill="#E6E6E6"/>
<path d="M319.444 98.6174V100.748H308.131V95.5637H315.864C317.069 96.5606 318.263 97.5785 319.444 98.6174Z" fill="#CCCCCC"/>
<path d="M279.145 72.6611C282.138 74.0095 285.081 75.4472 287.973 76.974L285.645 81.6752L277.912 97.3161L275.611 101.965L272.009 109.242L271.218 110.843L267.994 109.242L261.084 105.816L265.472 96.9384H265.477L267.773 92.2896L275.512 76.6487L277.787 72.0525L277.813 72L279.145 72.6611Z" fill="#E6E6E6"/>
<path d="M287.947 77.0213L285.645 81.6752L275.511 76.6487L277.787 72.0525L277.813 72L279.145 72.6611L287.947 77.0213Z" fill="#CCCCCC"/>
<path d="M267.774 92.2911L265.473 96.941L275.61 101.964L277.911 97.3139L267.774 92.2911Z" fill="#CCCCCC"/>
<path d="M373.087 251.689C372.997 252.293 372.898 252.902 372.793 253.5C372.61 254.633 372.41 255.756 372.195 256.879H240.266V251.689H373.087Z" fill="#E6E6E6"/>
<path d="M302.005 208.295H290.694V253.105H302.005V208.295Z" fill="#E6E6E6"/>
<path d="M302.005 215.37H290.694V220.559H302.005V215.37Z" fill="#CCCCCC"/>
<path d="M302.005 238.011H290.694V243.2H302.005V238.011Z" fill="#CCCCCC"/>
<path d="M319.443 208.295H308.132V253.105H319.443V208.295Z" fill="#E6E6E6"/>
<path d="M319.443 215.37H308.132V220.559H319.443V215.37Z" fill="#CCCCCC"/>
<path d="M319.443 238.011H308.132V243.2H319.443V238.011Z" fill="#CCCCCC"/>
<path d="M280.948 208.11L261.082 248.268L271.219 253.291L291.085 213.133L280.948 208.11Z" fill="#E6E6E6"/>
<path d="M277.811 214.451L275.511 219.1L285.648 224.123L287.948 219.473L277.811 214.451Z" fill="#CCCCCC"/>
<path d="M267.774 234.741L265.473 239.391L275.61 244.414L277.911 239.764L267.774 234.741Z" fill="#CCCCCC"/>
<path d="M153.502 271.686C153.975 271.959 154.425 272.268 154.849 272.611L201.523 258.074L204.155 246.485L222.151 248.174L219.483 269.144C219.268 270.838 218.509 272.416 217.321 273.642C216.133 274.868 214.58 275.675 212.894 275.942L157.966 284.645C157.165 286.589 155.791 288.243 154.028 289.386C152.265 290.53 150.195 291.109 148.095 291.046C145.995 290.984 143.963 290.283 142.271 289.037C140.578 287.791 139.305 286.059 138.62 284.071C137.935 282.083 137.872 279.934 138.437 277.908C139.003 275.883 140.171 274.078 141.786 272.734C143.402 271.389 145.388 270.569 147.481 270.382C149.574 270.195 151.674 270.65 153.502 271.686Z" fill="#FFB8B8"/>
<path d="M230.467 255.126L230.158 249.837V249.832L230.074 248.384L229.162 232.811C229.435 229.565 228.411 226.342 226.315 223.849C224.219 221.357 221.222 219.796 217.979 219.51C217.046 219.427 216.107 219.451 215.18 219.584C212.425 219.974 209.883 221.283 207.966 223.301C206.048 225.318 204.868 227.924 204.616 230.697L202.723 238.578L199.415 252.361C199.181 253.325 199.278 254.341 199.691 255.243C200.104 256.146 200.808 256.882 201.691 257.335C202.2 257.603 202.758 257.767 203.332 257.818L208.847 258.311L214.157 258.783L220.286 259.329L220.727 259.366L221.859 259.471L225.649 259.806H225.66C226.293 259.857 226.929 259.773 227.528 259.56C228.126 259.347 228.672 259.008 229.13 258.568C229.464 258.243 229.745 257.867 229.964 257.456C230.346 256.742 230.521 255.935 230.467 255.126V255.126Z" fill="#0EA5E9"/>
<path d="M281.685 190.995C281.685 208.953 265.094 206.236 244.628 206.236C224.162 206.236 207.571 208.953 207.571 190.995C207.571 173.037 215.675 141.206 244.628 141.206C274.578 141.206 281.685 173.037 281.685 190.995Z" fill="#2F2E41"/>
<path d="M262.136 198.897C271.874 189.151 271.874 173.349 262.136 163.603C252.398 153.857 236.61 153.857 226.871 163.603C217.133 173.349 217.133 189.151 226.871 198.897C236.61 208.643 252.398 208.643 262.136 198.897Z" fill="#FFB8B8"/>
<path d="M279.606 216.698C279.126 216.235 278.616 215.804 278.081 215.407C274.69 212.844 270.43 211.715 266.216 212.264L220.265 218.083C216.056 218.606 212.216 220.749 209.559 224.058C206.902 227.367 205.637 231.581 206.032 235.807C206.163 237.276 206.31 238.824 206.472 240.435C206.682 242.455 206.918 244.575 207.19 246.768C207.641 250.456 208.192 254.35 208.847 258.311C209.418 261.721 210.069 265.179 210.813 268.595C211.028 269.581 211.252 270.564 211.484 271.544C211.483 271.546 211.484 271.549 211.485 271.552C211.486 271.555 211.487 271.557 211.489 271.559C211.515 271.68 211.541 271.801 211.573 271.916C211.572 271.925 211.573 271.935 211.578 271.942C211.903 273.307 212.244 274.655 212.601 275.988C212.737 276.481 212.868 276.969 213.004 277.452C213.371 278.763 213.759 280.049 214.158 281.313C217.151 290.721 221.109 298.733 226.336 302.993C226.404 303.056 226.473 303.109 226.546 303.166L226.756 303.329L227.06 303.235L228.349 302.852L229.45 302.516L243.794 298.198L247.364 297.122L258.835 293.664H258.84L269.331 290.506L270.61 290.117L279.622 287.405L279.91 284.036L280.298 279.566L280.529 276.88L282.353 255.693L283.417 243.331L284.571 229.91C284.785 227.476 284.45 225.025 283.591 222.738C282.732 220.452 281.37 218.387 279.606 216.698Z" fill="#2F2E41"/>
<path d="M305.3 319.217C305.179 318.865 305.064 318.514 304.943 318.167C299.554 302.427 291.606 290.522 279.91 284.036C279.905 284.036 279.905 284.031 279.899 284.031L279.7 283.921L269.509 287.452L268.251 287.888L266.94 288.344L266.924 288.349L257.383 291.655L257.367 291.66L249.881 294.252H249.875L242.95 296.65H242.945L241.335 297.211L229.23 301.404L227.825 301.892L226.567 302.327L226.373 302.395L226.336 302.993L225.471 318.167L225.413 319.217L224.333 338.153L188.469 389H213.004C221.225 389.002 229.434 388.376 237.56 387.127L260.58 362.299C260.773 362.099 261.017 361.955 261.286 361.884C261.554 361.813 261.837 361.816 262.103 361.894C262.37 361.972 262.61 362.121 262.798 362.325C262.986 362.53 263.115 362.782 263.17 363.054L266.552 379.844C283.211 373.949 298.794 365.367 312.687 354.439C311.072 341.4 308.713 329.516 305.3 319.217Z" fill="#2F2E41"/>
<path d="M215.693 178.802H225.555L229.906 166.609L230.776 178.802H235.49L238.028 171.689L238.536 178.802H273.563C273.563 175.333 272.88 171.897 271.553 168.692C270.227 165.487 268.283 162.574 265.831 160.121C263.38 157.668 260.47 155.722 257.268 154.394C254.065 153.067 250.632 152.383 247.166 152.383H242.09C235.089 152.383 228.374 155.167 223.424 160.121C218.474 165.076 215.693 171.795 215.693 178.802Z" fill="#2F2E41"/>
<path d="M155.028 311.025C153.418 311.702 151.679 312.018 149.934 311.949C148.189 311.881 146.48 311.431 144.927 310.63C143.375 309.829 142.017 308.697 140.949 307.314C139.88 305.931 139.128 304.331 138.745 302.625L96.5603 297.844L110.701 280.896L148.593 288.035C151.498 287.581 154.469 288.209 156.942 289.8C159.416 291.391 161.22 293.836 162.013 296.669C162.807 299.503 162.534 302.53 161.246 305.175C159.959 307.821 157.746 309.903 155.028 311.025L155.028 311.025Z" fill="#A0616A"/>
<path d="M132.284 279.655L114.454 276.465L113.159 276.234C112.124 276.049 111.141 275.647 110.272 275.055C109.404 274.462 108.67 273.692 108.12 272.796C107.57 271.899 107.216 270.897 107.08 269.853C106.945 268.81 107.032 267.75 107.335 266.743L116.09 237.628L116.352 236.762C117.445 233.062 117.25 229.099 115.8 225.524C114.349 221.948 111.729 218.972 108.367 217.081C106.092 215.817 103.556 215.094 100.956 214.971C98.3568 214.847 95.7636 215.325 93.3787 216.368C90.9937 217.41 88.8813 218.99 87.2055 220.982C85.5297 222.975 84.3359 225.328 83.7168 227.858L72.5502 273.469L72.136 275.159C71.3561 278.341 71.271 281.655 71.8866 284.873C72.5023 288.092 73.8041 291.139 75.7034 293.809C77.6027 296.478 80.0548 298.706 82.8925 300.341C85.7302 301.976 88.8867 302.979 92.1469 303.282C92.1835 303.287 92.215 303.287 92.2519 303.292L98.9362 303.885L107.607 304.657L118.512 305.627L128.688 306.535C130.021 306.656 131.35 306.271 132.413 305.456C133.475 304.642 134.193 303.457 134.423 302.138C134.439 302.065 134.449 301.991 134.46 301.918L136.62 285.778L136.641 285.631C136.827 284.265 136.477 282.879 135.665 281.765C134.853 280.651 133.641 279.895 132.284 279.655Z" fill="#CCCCCC"/>
<path d="M104.814 157.367C97.6961 171.373 92.0865 185.818 76.3864 185.818C68.847 185.818 61.6164 182.821 56.2852 177.485C50.954 172.149 47.959 164.913 47.959 157.367C47.959 141.654 60.6875 129.113 76.3864 128.917C92.3422 128.717 118.062 131.299 104.814 157.367Z" fill="#2F2E41"/>
<path d="M122.669 340.587L122.024 334.144L121.542 334.17L36.7747 338.258L36.9948 344.779L37.3673 355.95C50.4837 365.95 65.0496 373.885 80.5607 379.482L81.1114 375.211C81.1595 374.863 81.3263 374.542 81.5835 374.303C81.8408 374.064 82.1727 373.922 82.5231 373.899C82.8734 373.877 83.2207 373.977 83.5061 374.181C83.7915 374.386 83.9974 374.683 84.089 375.022L85.7613 381.261C99.2734 385.622 113.305 388.164 127.487 388.822L122.669 340.587Z" fill="#2F2E41"/>
<path d="M95.4177 179.063C105.156 169.316 105.156 153.515 95.4177 143.769C85.6796 134.023 69.891 134.023 60.1529 143.769C50.4148 153.515 50.4148 169.316 60.1529 179.063C69.891 188.809 85.6796 188.809 95.4177 179.063Z" fill="#A0616A"/>
<path d="M127.54 334.579L122.596 319.217L122.512 318.954L122.26 318.167L120.85 313.791C120.394 312.369 119.959 310.942 119.555 309.51C119.183 308.219 118.835 306.925 118.512 305.627C118.05 303.822 117.631 302.01 117.254 300.192C115.974 294.079 115.121 287.885 114.7 281.654C114.585 279.928 114.503 278.198 114.454 276.465C114.147 265.842 115.102 255.219 117.301 244.821C119.214 235.83 118.192 226.461 114.385 218.095C110.577 209.728 104.186 202.807 96.1522 198.35C90.8804 195.434 85.0455 193.682 79.0403 193.213C78.6262 193.182 78.212 193.155 77.7927 193.129C71.4492 192.728 65.0966 193.758 59.204 196.143C53.3114 198.527 48.0292 202.206 43.7473 206.907C41.4539 209.408 39.462 212.169 37.8125 215.135C33.236 223.387 31.518 232.923 32.9265 242.256L38.8191 281.854L37.4772 298.523L35.8939 318.167L35.81 319.217L34.1218 340.162C34.0418 341.139 34.278 342.115 34.7954 342.946C35.3128 343.778 36.0839 344.421 36.9947 344.779C37.5281 344.993 38.0978 345.102 38.6724 345.1C38.7564 345.1 38.835 345.1 38.9189 345.094L122.669 340.587L123.435 340.545C124.133 340.509 124.814 340.312 125.425 339.971C126.035 339.629 126.559 339.151 126.956 338.575C127.353 337.998 127.612 337.338 127.713 336.645C127.814 335.952 127.755 335.246 127.54 334.58L127.54 334.579Z" fill="#CCCCCC"/>
<path d="M104.246 147.312C98.5481 151.242 91.7848 153.334 84.8642 153.307C87.3329 155.02 90.1432 156.177 93.1017 156.698C83.9004 158.674 74.3907 158.727 65.1677 156.855C63.1176 156.526 61.1395 155.846 59.32 154.845C57.5491 153.769 56.0677 152.056 55.7105 150.014C55.0977 146.51 57.8258 143.327 60.661 141.181C65.0018 137.946 70.0068 135.718 75.3138 134.656C80.6209 133.595 86.0973 133.727 91.3469 135.044C94.7747 135.931 98.2086 137.429 100.435 140.184C102.661 142.939 103.321 147.187 101.2 150.024L104.246 147.312Z" fill="#2F2E41"/>
<path d="M105.521 305.833C103.926 306.545 102.195 306.898 100.448 306.868C98.702 306.837 96.9837 306.424 95.4142 305.657C93.8448 304.89 92.4625 303.788 91.3647 302.429C90.2669 301.069 89.4803 299.485 89.0603 297.789L46.782 293.922L60.5529 276.672L98.5899 282.988C101.485 282.471 104.468 283.035 106.976 284.572C109.483 286.109 111.34 288.514 112.194 291.33C113.049 294.145 112.841 297.177 111.612 299.85C110.382 302.524 108.215 304.652 105.521 305.833L105.521 305.833Z" fill="#A0616A"/>
<path d="M82.1073 274.965L72.55 273.469L62.9088 271.958C61.8705 271.796 60.8782 271.415 59.9972 270.842C59.1162 270.269 58.3664 269.515 57.797 268.631C57.2276 267.747 56.8515 266.752 56.6934 265.713C56.5354 264.673 56.5989 263.611 56.8799 262.598L65.247 232.428C66.2595 228.705 65.979 224.748 64.4513 221.205C62.9237 217.662 60.2394 214.743 56.8379 212.926C54.5401 211.699 51.9883 211.024 49.3849 210.956C46.7814 210.888 44.1978 211.427 41.839 212.532C39.4728 213.619 37.3913 215.242 35.7583 217.271C34.1252 219.301 32.9853 221.682 32.4284 224.227L21.8751 271.769C21.1642 274.976 21.154 278.299 21.845 281.51C22.5361 284.721 23.9122 287.745 25.8791 290.375C27.8461 293.005 30.3575 295.178 33.2415 296.747C36.1254 298.315 39.3139 299.241 42.5887 299.462L79.0928 301.912C80.4276 302.004 81.7479 301.59 82.7925 300.753C83.8371 299.917 84.5299 298.718 84.7337 297.395C84.7495 297.321 84.7546 297.248 84.7651 297.175L86.5739 280.993L86.5896 280.846C86.7455 279.476 86.366 278.099 85.5306 277.003C84.6951 275.907 83.4685 275.176 82.1073 274.965Z" fill="#CCCCCC"/>
<path d="M243.829 249.884L241.641 251.079L214.688 265.797L212.501 266.992C211.439 267.573 210.651 268.552 210.31 269.714C209.969 270.876 210.102 272.125 210.68 273.189L230.752 310.005C231.332 311.068 232.31 311.856 233.471 312.198C234.632 312.539 235.881 312.406 236.944 311.827L236.95 311.824L268.267 294.723L268.272 294.72C269.334 294.139 270.122 293.16 270.463 291.998C270.804 290.836 270.671 289.586 270.093 288.522L250.021 251.706C249.441 250.644 248.463 249.855 247.302 249.514C246.141 249.172 244.892 249.305 243.829 249.884Z" fill="#E6E6E6"/>
<path d="M244.458 251.039L241.867 252.454L215.721 266.731L213.13 268.146C212.374 268.56 211.813 269.257 211.57 270.084C211.327 270.912 211.422 271.802 211.834 272.559L231.905 309.376C232.318 310.132 233.015 310.694 233.842 310.937C234.668 311.18 235.558 311.085 236.315 310.673L236.32 310.67L267.637 293.569L267.643 293.565C268.399 293.152 268.96 292.454 269.203 291.627C269.446 290.8 269.351 289.91 268.939 289.152L248.868 252.336C248.454 251.579 247.758 251.018 246.931 250.775C246.105 250.532 245.215 250.626 244.458 251.039Z" fill="white"/>
<path d="M245.194 261.433C245.096 261.256 244.933 261.125 244.74 261.068C244.546 261.011 244.338 261.033 244.161 261.129L243.118 261.701L232.48 267.509C232.304 267.606 232.174 267.769 232.118 267.963C232.062 268.156 232.084 268.363 232.18 268.54C232.276 268.717 232.439 268.848 232.631 268.906C232.824 268.963 233.032 268.942 233.209 268.847L244.89 262.467C245.066 262.369 245.197 262.206 245.254 262.012C245.311 261.819 245.289 261.611 245.194 261.433Z" fill="#E6E6E6"/>
<path d="M249.173 262.183C249.125 262.096 249.061 262.018 248.984 261.956C248.906 261.893 248.817 261.847 248.721 261.819C248.626 261.791 248.526 261.783 248.427 261.794C248.328 261.805 248.232 261.836 248.145 261.884L233.712 269.765C233.625 269.813 233.548 269.877 233.485 269.955C233.423 270.033 233.376 270.122 233.348 270.218C233.32 270.314 233.311 270.414 233.322 270.513C233.333 270.612 233.363 270.708 233.411 270.796C233.459 270.883 233.523 270.961 233.601 271.023C233.679 271.086 233.768 271.132 233.863 271.16C233.959 271.188 234.059 271.197 234.158 271.186C234.258 271.176 234.354 271.146 234.441 271.098L235.112 270.73L239.311 268.437H239.317L248.869 263.217C248.957 263.17 249.035 263.105 249.099 263.027C249.162 262.95 249.209 262.86 249.237 262.764C249.266 262.668 249.274 262.567 249.263 262.467C249.252 262.367 249.222 262.271 249.173 262.183Z" fill="#E6E6E6"/>
<path d="M233.487 274.744L228.905 266.333C228.857 266.249 228.778 266.187 228.685 266.16C228.592 266.134 228.492 266.145 228.407 266.192L226.184 267.404L225.031 268.033L218.839 271.412L217.639 272.068C217.554 272.116 217.492 272.195 217.466 272.288C217.439 272.382 217.451 272.482 217.497 272.567L217.791 273.107L222.079 280.977C222.126 281.062 222.204 281.124 222.296 281.15C222.389 281.177 222.488 281.166 222.572 281.119L229.964 277.084L231.117 276.455L233.34 275.243C233.383 275.22 233.42 275.189 233.451 275.151C233.481 275.114 233.504 275.07 233.518 275.024C233.531 274.978 233.536 274.929 233.53 274.881C233.525 274.833 233.51 274.787 233.487 274.744Z" fill="#E6E6E6"/>
<path d="M250.987 272.105C250.891 271.929 250.728 271.797 250.536 271.74C250.343 271.683 250.136 271.705 249.959 271.801L234.116 280.453C233.976 280.529 233.864 280.648 233.795 280.792C233.727 280.936 233.705 281.098 233.733 281.256C233.745 281.337 233.771 281.415 233.812 281.486C233.852 281.559 233.904 281.624 233.964 281.681L233.969 281.686C234.087 281.791 234.234 281.858 234.391 281.877C234.547 281.896 234.706 281.866 234.845 281.791L250.688 273.139C250.776 273.091 250.853 273.026 250.915 272.948C250.978 272.87 251.024 272.78 251.052 272.684C251.08 272.588 251.088 272.487 251.077 272.388C251.066 272.289 251.035 272.192 250.987 272.105Z" fill="#E6E6E6"/>
<path d="M254.971 272.855C254.923 272.768 254.858 272.691 254.78 272.628C254.702 272.566 254.613 272.519 254.517 272.492C254.421 272.464 254.32 272.455 254.221 272.466C254.122 272.477 254.026 272.508 253.938 272.556L235.343 282.709C235.203 282.783 235.091 282.9 235.022 283.042C234.953 283.185 234.931 283.346 234.96 283.501V283.507C234.971 283.588 234.998 283.666 235.039 283.737C235.079 283.812 235.132 283.88 235.196 283.937C235.312 284.045 235.459 284.113 235.617 284.132C235.774 284.151 235.933 284.119 236.072 284.042L254.667 273.889C254.844 273.792 254.975 273.629 255.032 273.435C255.089 273.241 255.067 273.033 254.971 272.855Z" fill="#E6E6E6"/>
<path d="M228.81 288.875C230.59 288.875 232.034 287.43 232.034 285.648C232.034 283.865 230.59 282.42 228.81 282.42C227.029 282.42 225.585 283.865 225.585 285.648C225.585 287.43 227.029 288.875 228.81 288.875Z" fill="#E6E6E6"/>
<path d="M253.266 235.718L251.078 236.912L224.125 251.631L221.937 252.825C220.876 253.406 220.088 254.385 219.747 255.547C219.405 256.709 219.538 257.959 220.117 259.023L240.188 295.839C240.769 296.901 241.747 297.69 242.908 298.031C244.069 298.373 245.318 298.24 246.38 297.661L246.386 297.658L277.703 280.556L277.709 280.553C278.77 279.972 279.558 278.993 279.899 277.831C280.241 276.669 280.108 275.42 279.529 274.356L259.458 237.54C258.877 236.477 257.899 235.689 256.738 235.347C255.577 235.006 254.328 235.139 253.266 235.718Z" fill="#CCCCCC"/>
<path d="M253.895 236.872L251.304 238.287L225.158 252.565L222.567 253.98C221.811 254.393 221.25 255.091 221.007 255.918C220.764 256.745 220.858 257.635 221.27 258.393L241.342 295.209C241.755 295.966 242.452 296.527 243.278 296.77C244.105 297.013 244.994 296.919 245.751 296.506L245.757 296.503L277.074 279.402L277.08 279.399C277.836 278.985 278.397 278.288 278.64 277.461C278.883 276.633 278.788 275.743 278.376 274.986L258.305 238.17C257.891 237.413 257.195 236.851 256.368 236.608C255.541 236.365 254.652 236.46 253.895 236.872Z" fill="white"/>
<path d="M254.63 247.266C254.533 247.09 254.37 246.959 254.176 246.902C253.983 246.845 253.775 246.866 253.597 246.962L248.219 249.9L246.719 250.719L241.917 253.342C241.741 253.44 241.611 253.603 241.554 253.796C241.498 253.989 241.52 254.197 241.617 254.374C241.713 254.55 241.875 254.682 242.068 254.739C242.261 254.797 242.468 254.775 242.646 254.68L248.308 251.59L249.492 250.939L254.326 248.3C254.503 248.203 254.634 248.039 254.691 247.846C254.748 247.652 254.726 247.444 254.63 247.266Z" fill="#CCCCCC"/>
<path d="M258.61 248.017C258.562 247.929 258.498 247.852 258.42 247.789C258.343 247.727 258.254 247.68 258.158 247.652C258.063 247.625 257.962 247.616 257.864 247.627C257.765 247.638 257.669 247.669 257.582 247.718L250.08 251.815L248.926 252.445L243.149 255.598C243.062 255.646 242.984 255.711 242.922 255.789C242.859 255.866 242.813 255.956 242.785 256.051C242.757 256.147 242.748 256.247 242.759 256.347C242.77 256.446 242.8 256.542 242.848 256.629C242.895 256.717 242.96 256.794 243.038 256.857C243.115 256.919 243.205 256.966 243.3 256.994C243.396 257.022 243.496 257.031 243.595 257.02C243.694 257.009 243.79 256.979 243.878 256.931L249.655 253.778L250.809 253.148L258.305 249.05C258.394 249.003 258.472 248.939 258.535 248.861C258.599 248.783 258.646 248.694 258.674 248.597C258.702 248.501 258.711 248.4 258.7 248.3C258.689 248.201 258.658 248.104 258.61 248.017Z" fill="#CCCCCC"/>
<path d="M242.924 260.578L239.269 253.872L238.641 252.718L238.342 252.167C238.294 252.082 238.215 252.02 238.122 251.994C238.028 251.967 237.929 251.978 237.844 252.025L230.425 256.076L227.075 257.902C226.991 257.949 226.929 258.029 226.902 258.122C226.876 258.215 226.887 258.315 226.934 258.4L227.233 258.946L227.558 259.549L227.862 260.1V260.105L231.516 266.811C231.562 266.895 231.64 266.957 231.733 266.984C231.825 267.01 231.924 266.999 232.008 266.953L242.777 261.076C242.819 261.053 242.857 261.022 242.887 260.985C242.918 260.947 242.94 260.904 242.954 260.858C242.968 260.811 242.972 260.763 242.967 260.715C242.962 260.667 242.947 260.62 242.924 260.578Z" fill="#0EA5E9"/>
<path d="M260.423 257.939C260.327 257.762 260.165 257.631 259.972 257.574C259.78 257.517 259.573 257.538 259.396 257.634L254.662 260.221L253.508 260.851L248.937 263.343L243.553 266.286C243.465 266.334 243.387 266.399 243.325 266.477C243.262 266.555 243.215 266.644 243.187 266.74C243.159 266.836 243.149 266.937 243.16 267.036C243.171 267.136 243.201 267.232 243.249 267.32C243.296 267.408 243.361 267.485 243.439 267.548C243.517 267.611 243.606 267.658 243.702 267.686C243.798 267.714 243.898 267.723 243.998 267.713C244.097 267.702 244.194 267.672 244.281 267.624L254.237 262.188L255.39 261.559L260.125 258.972C260.212 258.924 260.289 258.859 260.352 258.781C260.414 258.703 260.461 258.613 260.489 258.517C260.516 258.421 260.525 258.321 260.514 258.221C260.502 258.122 260.472 258.026 260.423 257.939Z" fill="#CCCCCC"/>
<path d="M264.408 258.689C264.36 258.601 264.295 258.524 264.217 258.462C264.139 258.399 264.049 258.353 263.953 258.325C263.857 258.297 263.757 258.289 263.658 258.3C263.558 258.311 263.462 258.341 263.375 258.39L255.894 262.477L254.74 263.107L244.78 268.542C244.692 268.59 244.614 268.655 244.551 268.732C244.488 268.81 244.441 268.899 244.413 268.995C244.385 269.091 244.376 269.192 244.386 269.291C244.397 269.391 244.427 269.487 244.475 269.575C244.523 269.663 244.588 269.74 244.666 269.803C244.744 269.865 244.833 269.912 244.929 269.94C245.025 269.968 245.126 269.976 245.225 269.965C245.324 269.954 245.421 269.924 245.508 269.875L255.464 264.439L256.617 263.81L264.104 259.722C264.281 259.625 264.412 259.462 264.469 259.268C264.526 259.075 264.504 258.866 264.408 258.689Z" fill="#CCCCCC"/>
<path d="M238.246 274.708C240.027 274.708 241.471 273.263 241.471 271.481C241.471 269.699 240.027 268.254 238.246 268.254C236.465 268.254 235.022 269.699 235.022 271.481C235.022 273.263 236.465 274.708 238.246 274.708Z" fill="#CCCCCC"/>
<path d="M240.412 289.623C240.955 289.677 241.493 289.773 242.02 289.911L278.587 257.446L276.223 245.799L293.319 239.93L299.507 260.141C300.007 261.774 299.965 263.525 299.385 265.132C298.806 266.738 297.722 268.113 296.296 269.05L249.808 299.597C249.876 301.699 249.304 303.772 248.167 305.54C247.029 307.308 245.381 308.688 243.441 309.496C241.502 310.303 239.362 310.501 237.307 310.062C235.252 309.623 233.38 308.569 231.938 307.039C230.497 305.509 229.555 303.576 229.238 301.497C228.922 299.418 229.245 297.292 230.164 295.402C231.084 293.511 232.558 291.946 234.388 290.913C236.219 289.881 238.32 289.431 240.412 289.623Z" fill="#FFB8B8"/>
<path d="M303.759 242.838L293.399 223.036C292.333 220.025 290.139 217.545 287.281 216.122C284.423 214.699 281.124 214.442 278.08 215.407C277.965 215.439 277.855 215.476 277.74 215.518C274.656 216.597 272.125 218.856 270.704 221.8C269.283 224.744 269.086 228.133 270.159 231.221L274.316 253.106C274.435 253.733 274.688 254.326 275.057 254.846C275.426 255.365 275.903 255.799 276.455 256.118C277.059 256.471 277.738 256.673 278.437 256.705C279.011 256.742 279.587 256.662 280.13 256.469L282.353 255.693L296.623 250.719L301.289 249.092C301.891 248.882 302.44 248.544 302.9 248.102C303.36 247.66 303.719 247.124 303.953 246.53C304.188 245.937 304.291 245.3 304.258 244.663C304.224 244.026 304.054 243.403 303.759 242.838Z" fill="#0EA5E9"/>
<path d="M342.865 319.217H0.524259C0.385217 319.217 0.251869 319.161 0.153551 319.063C0.0552338 318.965 0 318.831 0 318.692C0 318.553 0.0552338 318.419 0.153551 318.321C0.251869 318.223 0.385217 318.167 0.524259 318.167H342.865C343.004 318.167 343.138 318.223 343.236 318.321C343.334 318.419 343.389 318.553 343.389 318.692C343.389 318.831 343.334 318.965 343.236 319.063C343.138 319.161 343.004 319.217 342.865 319.217Z" fill="#3F3D56"/>
<path d="M59.5012 309.51V309.772C59.503 311.551 60.0207 313.291 60.9913 314.781C61.9619 316.272 63.3438 317.448 64.9693 318.167C66.1353 318.689 67.3986 318.957 68.6757 318.954H153.343V309.51H59.5012Z" fill="#3F3D56"/>
<path d="M212.459 247.266C211.115 244.491 209.046 242.13 206.472 240.435C205.305 239.662 204.045 239.038 202.723 238.578C200.922 237.948 199.027 237.627 197.119 237.628H115.859C111.342 237.633 107.011 239.431 103.817 242.628C100.623 245.825 98.8258 250.159 98.8206 254.68V301.902C98.8191 302.565 98.8577 303.227 98.936 303.885C99.0511 304.87 99.251 305.842 99.5335 306.792C99.8137 307.728 100.175 308.637 100.614 309.51C102.025 312.348 104.2 314.736 106.893 316.404C109.586 318.073 112.691 318.956 115.859 318.954H197.119C199.357 318.955 201.573 318.515 203.64 317.658C205.708 316.801 207.587 315.545 209.169 313.962C210.751 312.378 212.006 310.498 212.862 308.429C213.718 306.359 214.158 304.142 214.157 301.902V254.68C214.161 252.112 213.58 249.576 212.459 247.266Z" fill="#3F3D56"/>
<path d="M160.945 282.489C163.262 282.489 165.139 280.609 165.139 278.291C165.139 275.973 163.262 274.094 160.945 274.094C158.629 274.094 156.751 275.973 156.751 278.291C156.751 280.609 158.629 282.489 160.945 282.489Z" fill="white"/>
</g>
<circle cx="180.5" cy="171.5" r="171.5" fill="url(#paint0_radial_32_5087)" fill-opacity="0.3"/>
<defs>
<radialGradient id="paint0_radial_32_5087" cx="0" cy="0" r="1" gradientUnits="userSpaceOnUse" gradientTransform="translate(180.5 171.5) rotate(90) scale(171.5)">
<stop stop-color="#0EA5E9"/>
<stop offset="1" stop-color="#0EA5E9" stop-opacity="0"/>
</radialGradient>
<clipPath id="clip0_32_5087">
<rect width="375" height="317" fill="white" transform="translate(0 72)"/>
</clipPath>
</defs>
</svg>
