<svg width="376" height="253" viewBox="0 0 376 253" fill="none" xmlns="http://www.w3.org/2000/svg">
<ellipse cx="144" cy="126.5" rx="144" ry="126.5" fill="url(#paint0_radial_76_1245)" fill-opacity="0.3"/>
<g clip-path="url(#clip0_76_1245)">
<path d="M118.473 172.086C118.03 171.338 116.115 172.138 115.762 171.46C115.411 170.784 117.191 169.754 118.208 167.402C118.391 166.978 119.547 164.304 118.691 163.479C117.07 161.916 109.651 168.369 107.055 166.257C106.485 165.793 106.087 164.868 104.362 163.366C103.676 162.769 103.261 162.499 102.86 162.599C102.29 162.742 102.245 163.505 101.634 165.006C100.718 167.257 100.176 167.121 99.6424 168.917C99.2462 170.25 99.3367 171.025 98.8704 171.176C98.2106 171.389 97.6033 169.975 96.7671 170.102C95.9138 170.231 95.3979 171.878 95.235 173.11C94.9292 175.423 95.7777 176.95 96.248 178.555C96.7591 180.299 97.0624 182.952 95.8822 186.707L84.2002 219.659C86.7792 212.897 94.2467 194.362 97.3845 187.474C98.2904 185.485 99.2905 183.468 101.344 182.673C103.321 181.906 106.037 182.364 109.499 181.529C109.903 181.431 111.025 181.145 111.166 180.485C111.283 179.939 110.623 179.634 110.724 179.122C110.86 178.436 112.158 178.428 113.753 177.636C114.877 177.078 115.578 176.414 116.18 175.843C116.362 175.671 119.062 173.081 118.473 172.086H118.473V172.086Z" fill="#F2F2F2"/>
<path d="M72.5121 189.433C72.0179 189.435 71.8576 190.607 71.4235 190.584C70.9909 190.562 70.9995 189.39 70.1396 188.212C69.9846 187.999 69.0073 186.66 68.3561 186.842C67.1218 187.188 68.1445 192.695 66.3602 193.362C65.9686 193.508 65.4002 193.437 64.1663 193.851C63.6754 194.015 63.4234 194.141 63.3568 194.368C63.2623 194.689 63.6234 194.931 64.183 195.664C65.0221 196.764 64.7991 196.991 65.5254 197.771C66.0647 198.351 66.4707 198.53 66.4102 198.803C66.3246 199.188 65.4562 199.079 65.277 199.526C65.0941 199.983 65.7524 200.711 66.3097 201.147C67.3554 201.965 68.3485 201.988 69.2711 202.22C70.2736 202.472 71.6616 203.089 73.1619 204.752L85.9457 220C83.375 216.782 76.4428 207.764 73.9714 204.235C73.258 203.216 72.5578 202.143 72.7601 200.904C72.9549 199.711 73.9627 198.509 74.5522 196.567C74.6211 196.34 74.8047 195.707 74.5216 195.447C74.2875 195.232 73.9476 195.468 73.7261 195.271C73.4289 195.006 73.7993 194.366 73.8713 193.354C73.9221 192.64 73.7988 192.104 73.6927 191.643C73.6607 191.504 73.1699 189.43 72.5121 189.433V189.433H72.5121Z" fill="#F2F2F2"/>
<path d="M82.3705 191.649L82.0728 188.988L82.2088 188.786C82.8382 187.853 83.1591 186.942 83.1629 186.078C83.1635 185.94 83.1571 185.803 83.1507 185.663C83.125 185.108 83.093 184.418 83.4523 183.614C83.6538 183.165 84.2197 182.127 85.0705 182.256C85.2996 182.288 85.4729 182.393 85.6044 182.516C85.6236 182.486 85.6435 182.455 85.6647 182.421C85.9297 182.017 86.1395 181.843 86.3416 181.676C86.4969 181.548 86.6573 181.415 86.9088 181.102C87.0192 180.964 87.1052 180.844 87.1777 180.742C87.3978 180.435 87.6852 180.069 88.1921 180.075C88.7337 180.101 89.0173 180.549 89.2053 180.846C89.5409 181.375 89.693 181.757 89.7937 182.01C89.8303 182.103 89.872 182.207 89.8932 182.239C90.0677 182.496 91.4864 182.256 92.0209 182.168C93.2214 181.968 94.2602 181.794 94.6882 182.552C94.9949 183.094 94.7671 183.811 93.9907 184.74C93.7488 185.029 93.4915 185.249 93.2631 185.421C93.4524 185.534 93.6217 185.708 93.6904 185.98C93.8521 186.625 93.2984 187.271 92.0452 187.903C91.734 188.061 91.315 188.272 90.7279 188.374C90.4514 188.421 90.2024 188.433 89.9894 188.439C89.9849 188.563 89.956 188.696 89.881 188.834C89.6609 189.238 89.2028 189.431 88.5123 189.385C87.7526 189.345 87.127 189.2 86.5752 189.073C86.0933 188.962 85.6782 188.868 85.3522 188.89C84.7478 188.939 84.282 189.423 83.7353 190.052L82.3705 191.649H82.3705H82.3705Z" fill="#F2F2F2"/>
<path d="M83.7515 175.806L81.2562 176.769L81.0268 176.689C79.9659 176.316 79.0045 176.236 78.1681 176.452C78.0351 176.486 77.9039 176.527 77.7702 176.569C77.2405 176.735 76.582 176.941 75.7138 176.797C75.2295 176.715 74.083 176.43 73.9913 175.574C73.9642 175.344 74.0221 175.149 74.1079 174.991C74.0732 174.98 74.0383 174.969 74.0007 174.957C73.5425 174.803 73.3217 174.643 73.109 174.49C72.9455 174.372 72.777 174.25 72.4103 174.086C72.2495 174.014 72.111 173.962 71.9945 173.917C71.642 173.782 71.2153 173.596 71.093 173.104C70.9804 172.573 71.3417 172.185 71.5808 171.927C72.0071 171.468 72.3372 171.224 72.5562 171.062C72.6363 171.003 72.7262 170.937 72.7519 170.908C72.9559 170.674 72.3639 169.361 72.1439 168.865C71.6458 167.754 71.2147 166.792 71.8385 166.185C72.2846 165.75 73.035 165.789 74.1294 166.305C74.4701 166.466 74.7476 166.66 74.9719 166.837C75.0331 166.625 75.1577 166.417 75.4035 166.282C75.9856 165.961 76.7505 166.334 77.6791 167.387C77.9107 167.648 78.2205 168.001 78.4675 168.543C78.5836 168.799 78.6579 169.037 78.7182 169.242C78.8385 169.215 78.9749 169.209 79.1268 169.247C79.5736 169.357 79.876 169.752 80.0064 170.433C80.1607 171.178 80.1791 171.821 80.1961 172.388C80.2116 172.882 80.2263 173.308 80.3301 173.618C80.5306 174.191 81.1167 174.52 81.8624 174.89L83.7515 175.806L83.7515 175.806V175.806Z" fill="#F2F2F2"/>
<path d="M82.3705 167.967L82.0728 165.307L82.2088 165.105C82.8382 164.172 83.1591 163.261 83.1629 162.397C83.1635 162.259 83.1571 162.122 83.1507 161.982C83.125 161.427 83.093 160.737 83.4523 159.932C83.6538 159.484 84.2197 158.446 85.0705 158.574C85.2996 158.607 85.4729 158.712 85.6044 158.835C85.6236 158.804 85.6435 158.774 85.6647 158.74C85.9297 158.335 86.1395 158.162 86.3416 157.995C86.4969 157.866 86.6573 157.734 86.9088 157.421C87.0192 157.283 87.1052 157.162 87.1777 157.061C87.3978 156.754 87.6852 156.388 88.1921 156.394C88.7337 156.42 89.0173 156.868 89.2053 157.165C89.5409 157.694 89.693 158.076 89.7937 158.329C89.8303 158.422 89.872 158.526 89.8932 158.558C90.0677 158.815 91.4864 158.574 92.0209 158.487C93.2214 158.287 94.2602 158.113 94.6882 158.871C94.9949 159.413 94.7671 160.13 93.9907 161.059C93.7488 161.348 93.4915 161.568 93.2631 161.74C93.4524 161.853 93.6217 162.027 93.6904 162.299C93.8521 162.944 93.2984 163.59 92.0452 164.222C91.734 164.38 91.315 164.591 90.7279 164.693C90.4514 164.74 90.2024 164.752 89.9894 164.758C89.9849 164.881 89.956 165.015 89.881 165.152C89.6609 165.557 89.2028 165.75 88.5123 165.704C87.7526 165.664 87.127 165.519 86.5752 165.391C86.0933 165.281 85.6782 165.187 85.3522 165.209C84.7478 165.258 84.282 165.742 83.7353 166.37L82.3705 167.967H82.3705H82.3705Z" fill="#F2F2F2"/>
<path d="M85.0899 219.616L84.5329 219.266L84.3982 218.622L84.5329 219.266L83.8836 219.341C83.8733 219.28 83.838 219.142 83.7848 218.924C83.4941 217.735 82.608 214.114 81.8688 208.412C81.3529 204.432 81.061 200.34 81.0007 196.248C80.9403 192.15 81.1341 189.047 81.2894 186.553C81.4068 184.672 81.5493 182.881 81.6892 181.136C82.0613 176.475 82.4123 172.072 82.1511 167.198C82.0934 166.11 81.9721 163.845 80.6503 161.434C79.8835 160.037 78.8274 158.795 77.5107 157.747L78.3295 156.717C79.7828 157.876 80.9512 159.25 81.8027 160.802C83.2682 163.475 83.4004 165.943 83.4639 167.129C83.7296 172.089 83.3748 176.534 82.9988 181.241C82.8601 182.979 82.7177 184.762 82.6009 186.635C82.4469 189.106 82.2551 192.182 82.3148 196.227C82.3738 200.271 82.6625 204.313 83.1714 208.243C83.9015 213.873 84.7748 217.439 85.0616 218.611C85.2144 219.237 85.2464 219.368 85.0899 219.616V219.616H85.0899Z" fill="#F2F2F2"/>
<path d="M75.1008 159.837C75.0469 159.837 74.9924 159.836 74.9372 159.832C73.8182 159.772 72.7819 159.101 71.8567 157.84C71.4229 157.246 71.2009 156.569 70.7582 155.219C70.6895 155.01 70.3558 153.954 70.1531 152.501C70.0203 151.552 70.0369 151.155 70.225 150.804C70.4335 150.414 70.771 150.141 71.1508 149.957C71.1342 149.832 71.1476 149.702 71.2022 149.569C71.4261 149.021 72.0216 149.093 72.3437 149.127C72.5067 149.148 72.7101 149.175 72.9295 149.163C73.2747 149.147 73.4602 149.044 73.7412 148.89C74.01 148.742 74.3443 148.558 74.8403 148.457C75.8182 148.253 76.6376 148.53 76.9077 148.621C78.329 149.095 79.0296 150.202 79.8407 151.482C80.0024 151.739 80.5574 152.675 80.9238 153.957C81.1881 154.882 81.1509 155.293 81.0713 155.599C80.9097 156.227 80.5279 156.587 79.5583 157.381C78.5458 158.212 78.0377 158.628 77.6013 158.881C76.5856 159.469 75.9478 159.837 75.1008 159.837V159.837H75.1008Z" fill="#F2F2F2"/>
<path d="M368.741 219.017C368.741 219.261 368.544 219.458 368.301 219.458H63V218.576H368.301C368.544 218.576 368.741 218.774 368.741 219.017V219.017Z" fill="#E6E6E6"/>
<path d="M280.605 79.6124C280.605 79.6124 264.171 81.5911 266.943 68.5826C269.715 55.574 285.432 31.5464 285.432 31.5464L294.352 36.5541L284.112 60.7868L288.52 64.2685L280.605 79.6124H280.605Z" fill="#A0616A"/>
<path d="M334.459 63.7754L332.143 82.8434L274.115 82.5589L285.77 62.2808L334.459 63.7754Z" fill="#0EA5E9"/>
<path d="M299.975 32.5595C303.526 27.5943 303.811 21.7097 300.611 19.416C297.412 17.1223 291.939 19.288 288.388 24.2532C284.837 29.2185 284.552 35.1031 287.752 37.3968C290.951 39.6905 296.424 37.5248 299.975 32.5595Z" fill="#A0616A"/>
<path d="M328.88 136.473V219.225H332.443V136.473H328.88Z" fill="#3F3D56"/>
<path d="M311.778 136.473V219.225H315.341V136.473H311.778Z" fill="#3F3D56"/>
<path d="M215.939 84.3956V219.225H219.502V84.3956H215.939Z" fill="#E6E6E6"/>
<path d="M273.3 136.473V219.225H276.863V136.473H273.3Z" fill="#3F3D56"/>
<path d="M259.666 136.473V219.225H263.229V136.473H259.666Z" fill="#3F3D56"/>
<path d="M325.673 134.689H256.872L243.674 153.431L312.135 157.517L325.673 134.689Z" fill="#3F3D56"/>
<path d="M199.691 70.5647L200.004 56.9727L158.479 60.1703L158.267 69.3805L199.691 70.5647Z" fill="#A0616A"/>
<path d="M171.588 58.5463L169.602 63.3299L166.75 63.4211C166.75 63.4211 170.089 64.4449 171.017 70.5204L168.276 71.3428C168.276 71.3428 165.645 73.8011 160.725 73.5626L147.534 72.4579L147.483 67.854L156.6 66.7992C156.6 66.7992 158.631 65.4612 148.575 59.9601C148.575 59.9601 145.244 57.9206 148.24 47.8493C148.651 46.465 149.895 45.4708 151.338 45.4396C152.134 45.4223 152.88 45.7086 153.177 46.6984C153.935 49.218 153.168 51.7297 155.251 53.3025C157.334 54.8753 171.588 58.5463 171.588 58.5463L171.588 58.5463Z" fill="#2F2E41"/>
<path d="M320.524 122.528C320.524 122.528 306.197 146.925 273.777 142.528C266.062 141.482 259.275 136.889 255.408 130.124C247.933 117.049 236.584 94.1541 240.263 81.19L185.432 70.713L181.112 57.3813L240.453 49.6638C245.702 48.9812 250.844 51.5367 253.474 56.1353L282.381 106.676L290.998 107.618L320.524 122.528V122.528Z" fill="#2F2E41"/>
<path d="M200.774 76.1287L199.993 62.5555L158.86 69.0874L159.389 78.2849L200.774 76.1287Z" fill="#A0616A"/>
<path d="M171.796 66.4129L170.2 71.3409L167.365 71.6615C167.365 71.6615 170.776 72.4131 172.189 78.3941L169.523 79.4346C169.523 79.4346 167.097 82.0969 162.174 82.2555L148.937 82.2168L148.517 77.6319L157.519 75.8462C157.519 75.8462 159.437 74.3489 148.971 69.6757C148.971 69.6757 145.486 67.9111 147.663 57.6311C147.963 56.2181 149.123 55.127 150.558 54.9796C151.35 54.8983 152.116 55.1236 152.493 56.0862C153.45 58.5366 152.888 61.102 155.09 62.5019C157.293 63.9018 171.796 66.4129 171.796 66.4129H171.796Z" fill="#2F2E41"/>
<path d="M325.391 118.191C325.391 118.191 313.07 143.663 280.402 141.891C272.628 141.47 265.494 137.439 261.095 131.008C252.595 118.577 239.442 96.6701 242.068 83.4517L186.572 77.425L181.195 64.4845L239.724 52.0124C244.901 50.9092 250.231 53.0423 253.223 57.4141L286.097 105.463L294.762 105.708L325.391 118.191V118.191Z" fill="#2F2E41"/>
<path d="M287.835 10.6333L284.984 12.7735L299.948 33.4616L302.798 32.7482L287.835 10.6333Z" fill="#3F3D56"/>
<path d="M326.742 56.5737L343.131 55.8604L350.257 87.9626C350.257 87.9626 335.293 144.32 317.479 142.18C317.479 142.18 306.434 133.976 306.434 131.122C306.434 128.269 291.471 121.135 291.471 121.135L287.908 109.007L298.596 92.5996C298.596 92.5996 302.871 79.7587 317.123 72.6249L326.742 56.5737V56.5737Z" fill="#0EA5E9"/>
<path d="M233.041 81.5422H87.3223V85.1091H158.578V219.225H162.141V85.1091H233.041V81.5422Z" fill="#E6E6E6"/>
<path d="M335.293 53.7202C345.918 53.7202 354.532 45.0966 354.532 34.4589C354.532 23.8211 345.918 15.1975 335.293 15.1975C324.667 15.1975 316.054 23.8211 316.054 34.4589C316.054 45.0966 324.667 53.7202 335.293 53.7202Z" fill="#A0616A"/>
<path d="M268.211 59.0706L254.773 64.4209L281.138 99.3767L290.401 92.2429L268.211 59.0706Z" fill="#E6E6E6"/>
<path d="M320.686 126.129C320.686 126.129 315.698 141.93 305.009 134.029C294.321 126.129 278.956 101.874 278.956 101.874L287.195 95.8098L305.009 115.155L309.997 112.574L320.686 126.129V126.129Z" fill="#A0616A"/>
<path d="M328.524 70.4847L344.913 80.4721L320.686 133.262L305.009 111.861L328.524 70.4847Z" fill="#0EA5E9"/>
<path d="M285.236 102.176C288.644 100.206 288.934 94.3213 285.884 89.0326C282.834 83.744 277.599 81.0536 274.191 83.0235C270.783 84.9935 270.492 90.8778 273.542 96.1665C276.592 101.455 281.828 104.146 285.236 102.176Z" fill="#A0616A"/>
<path d="M337.397 92.7765C342.334 76.5706 347.633 71.442 353.204 74.653C357.445 77.097 358.721 82.6601 356.236 86.8798C349.901 97.6356 336.849 122.279 339.568 138.613C339.568 138.613 343.844 161.441 309.641 161.441C275.438 161.441 242.66 153.594 242.66 153.594L260.474 150.74L300.985 153.637C310.241 154.299 318.042 146.37 316.805 137.163C316.765 136.859 316.716 136.552 316.66 136.241C314.629 125.059 337.397 92.7765 337.397 92.7765V92.7765Z" fill="#3F3D56"/>
<path d="M328.082 26.4743C326.511 30.88 329.964 35.4547 334.627 35.1435L334.738 35.1361V35.1361C337.872 39.0584 337.958 44.6068 334.948 48.6252C334.701 53.8045 335.511 58.9798 337.33 63.8348L342.439 77.4757L350.305 73.8007L354.038 83.7757L376 72.4486L362.69 42.4654L358.628 26.1986C355.738 14.6255 343.946 7.65952 332.43 10.722L323.595 13.0716C316.615 14.9279 312.597 22.2445 314.772 29.1394V29.1394L328.082 26.4743" fill="#2F2E41"/>
</g>
<defs>
<radialGradient id="paint0_radial_76_1245" cx="0" cy="0" r="1" gradientUnits="userSpaceOnUse" gradientTransform="translate(144 126.5) rotate(90) scale(126.5 144)">
<stop stop-color="#0EA5E9"/>
<stop offset="1" stop-color="#0EA5E9" stop-opacity="0"/>
</radialGradient>
<clipPath id="clip0_76_1245">
<rect width="313" height="210" fill="white" transform="translate(63 10)"/>
</clipPath>
</defs>
</svg>
