<svg width="60" height="60" viewBox="0 0 60 60" fill="none" xmlns="http://www.w3.org/2000/svg">
<path d="M59.8068 17.7093C59.7731 15.19 59.3008 12.6958 58.4107 10.3382C57.6389 8.34955 56.46 6.54351 54.9495 5.03547C53.4389 3.52743 51.6299 2.35054 49.6379 1.58C47.3068 0.706366 44.844 0.233977 42.3545 0.182947C39.1493 0.039916 38.1331 0 29.9967 0C21.8603 0 20.8174 2.23047e-07 17.6355 0.182947C15.1471 0.234352 12.6855 0.706735 10.3554 1.58C8.36314 2.35 6.55382 3.5267 5.0432 5.03481C3.53258 6.54292 2.35392 8.34924 1.58263 10.3382C0.70579 12.6637 0.23364 15.1218 0.186584 17.6062C0.0433141 20.8094 0 21.8239 0 29.9468C0 38.0696 -2.48242e-08 39.1074 0.186584 42.2874C0.236562 44.7755 0.706352 47.2303 1.58263 49.562C2.35521 51.5504 3.53475 53.356 5.04588 54.8634C6.55701 56.3709 8.36649 57.5471 10.3587 58.3169C12.6825 59.2256 15.1445 59.7318 17.6388 59.8137C20.8474 59.9568 21.8636 60 30 60C38.1364 60 39.1793 60 42.3612 59.8137C44.8506 59.7648 47.3135 59.2935 49.6446 58.42C51.636 57.6486 53.4446 56.4714 54.955 54.9634C56.4655 53.4555 57.6447 51.6499 58.4174 49.6618C59.2937 47.3334 59.7634 44.8786 59.8134 42.3872C59.9567 39.1873 60 38.1727 60 30.0466C59.9933 21.9237 59.9933 20.8926 59.8068 17.7093ZM29.9767 45.3077C21.4671 45.3077 14.5735 38.4255 14.5735 29.9301C14.5735 21.4348 21.4671 14.5526 29.9767 14.5526C34.0619 14.5526 37.9797 16.1727 40.8684 19.0566C43.757 21.9404 45.3798 25.8518 45.3798 29.9301C45.3798 34.0085 43.757 37.9199 40.8684 40.8037C37.9797 43.6876 34.0619 45.3077 29.9767 45.3077ZM45.9929 17.5696C45.5211 17.57 45.0538 17.4776 44.6179 17.2975C44.1819 17.1175 43.7858 16.8534 43.4522 16.5203C43.1186 16.1873 42.854 15.7918 42.6737 15.3565C42.4933 14.9213 42.4007 14.4548 42.4012 13.9838C42.4012 13.5131 42.494 13.0471 42.6744 12.6122C42.8549 12.1774 43.1193 11.7823 43.4527 11.4495C43.786 11.1167 44.1818 10.8527 44.6174 10.6725C45.0529 10.4924 45.5198 10.3997 45.9912 10.3997C46.4627 10.3997 46.9295 10.4924 47.3651 10.6725C47.8007 10.8527 48.1964 11.1167 48.5298 11.4495C48.8632 11.7823 49.1276 12.1774 49.308 12.6122C49.4884 13.0471 49.5813 13.5131 49.5813 13.9838C49.5813 15.9663 47.9753 17.5696 45.9929 17.5696Z" fill="white"/>
<path d="M29.9767 39.9191C35.5026 39.9191 39.9822 35.4469 39.9822 29.9301C39.9822 24.4134 35.5026 19.9412 29.9767 19.9412C24.4508 19.9412 19.9711 24.4134 19.9711 29.9301C19.9711 35.4469 24.4508 39.9191 29.9767 39.9191Z" fill="white"/>
</svg>
