<svg width="46" height="46" viewBox="0 0 46 46" fill="none" xmlns="http://www.w3.org/2000/svg">
<path d="M20.4444 35.7778H25.5556V25.5556H35.7778V20.4444H25.5556V10.2222H20.4444V20.4444H10.2222V25.5556H20.4444V35.7778ZM5.11111 46C3.70556 46 2.50189 45.5 1.50011 44.4999C0.500037 43.4981 0 42.2944 0 40.8889V5.11111C0 3.70556 0.500037 2.50189 1.50011 1.50011C2.50189 0.500037 3.70556 0 5.11111 0H40.8889C42.2944 0 43.4981 0.500037 44.4999 1.50011C45.5 2.50189 46 3.70556 46 5.11111V40.8889C46 42.2944 45.5 43.4981 44.4999 44.4999C43.4981 45.5 42.2944 46 40.8889 46H5.11111Z" fill="#0EA5E9"/>
</svg>
