<svg width="37" height="28" viewBox="0 0 37 28" fill="none" xmlns="http://www.w3.org/2000/svg">
<path d="M13.5777 14C13.5777 12.7244 14.0784 11.501 14.9697 10.5989C15.861 9.69693 17.0698 9.19018 18.3303 9.19018C19.5907 9.19018 20.7995 9.69693 21.6908 10.5989C22.5821 11.501 23.0828 12.7244 23.0828 14C23.0828 15.2756 22.5821 16.499 21.6908 17.4011C20.7995 18.3031 19.5907 18.8098 18.3303 18.8098C17.0698 18.8098 15.861 18.3031 14.9697 17.4011C14.0784 16.499 13.5777 15.2756 13.5777 14ZM36.7549 15.108C32.7322 23.684 26.6515 28 18.5 28C10.3442 28 4.26774 23.684 0.245034 15.1037C0.0836819 14.7579 0 14.3803 0 13.9979C0 13.6155 0.0836819 13.2378 0.245034 12.892C4.26774 4.31595 10.3485 0 18.5 0C26.6557 0 32.7322 4.31595 36.7549 12.8963C37.0817 13.592 37.0817 14.3994 36.7549 15.108ZM18.3303 6.44172C14.2057 6.44172 10.8619 9.82577 10.8619 14C10.8619 18.1742 14.2057 21.5583 18.3303 21.5583C22.4548 21.5583 25.7986 18.1742 25.7986 14C25.7986 9.82577 22.4548 6.44172 18.3303 6.44172Z" fill="white"/>
</svg>
