<svg width="45" height="45" viewBox="0 0 45 45" fill="none" xmlns="http://www.w3.org/2000/svg">
<circle cx="22.5" cy="22.5" r="22.5" fill="#334155"/>
<path d="M12.5 12.9412H33.5C34.3284 12.9412 35 12.2828 35 11.4706C35 10.6584 34.3284 10 33.5 10H12.5C11.6716 10 11 10.6584 11 11.4706C11 12.2828 11.6716 12.9412 12.5 12.9412Z" fill="white"/>
<path d="M35 14.4118V11.4706C35 10.6584 34.3284 10 33.5 10C32.6716 10 32 10.6584 32 11.4706V14.4118C32 15.2239 32.6716 15.8824 33.5 15.8824C34.3284 15.8824 35 15.2239 35 14.4118Z" fill="white"/>
<path d="M14 14.4118V11.4706C14 10.6584 13.3284 10 12.5 10C11.6716 10 11 10.6584 11 11.4706V14.4118C11 15.2239 11.6716 15.8824 12.5 15.8824C13.3284 15.8824 14 15.2239 14 14.4118Z" fill="white"/>
<path d="M17 24.7059C16.7671 24.7059 16.5375 24.6527 16.3292 24.5506C16.1209 24.4485 15.9397 24.3003 15.8 24.1176C15.6818 23.9632 15.5958 23.7873 15.5469 23.6003C15.498 23.4132 15.4872 23.2185 15.5151 23.0273C15.5429 22.8361 15.6089 22.6522 15.7093 22.486C15.8096 22.3199 15.9424 22.1747 16.1 22.0588L22.1 17.6471C22.3569 17.463 22.6668 17.3638 22.985 17.3638C23.3032 17.3638 23.6131 17.463 23.87 17.6471L29.87 21.7941C30.1934 22.019 30.4128 22.3603 30.4802 22.7433C30.5477 23.1264 30.4577 23.52 30.23 23.8382C30.1163 23.9973 29.9716 24.1327 29.8043 24.2366C29.6369 24.3405 29.4503 24.4109 29.255 24.4438C29.0598 24.4766 28.8598 24.4711 28.6667 24.4278C28.4736 24.3844 28.2912 24.304 28.13 24.1912L23 20.6471L17.9 24.4118C17.6404 24.6027 17.3246 24.7059 17 24.7059Z" fill="white"/>
<path d="M23 35C22.6022 35 22.2206 34.8451 21.9393 34.5693C21.658 34.2935 21.5 33.9194 21.5 33.5294V21.7647C21.5 21.3747 21.658 21.0006 21.9393 20.7248C22.2206 20.4491 22.6022 20.2941 23 20.2941C23.3978 20.2941 23.7794 20.4491 24.0607 20.7248C24.342 21.0006 24.5 21.3747 24.5 21.7647V33.5294C24.5 33.9194 24.342 34.2935 24.0607 34.5693C23.7794 34.8451 23.3978 35 23 35Z" fill="white"/>
</svg>
