<svg width="21" height="21" viewBox="0 0 21 21" fill="none" xmlns="http://www.w3.org/2000/svg">
<path d="M0 20.16C0 20.6246 0.375375 21 0.84 21H20.16C20.6246 21 21 20.6246 21 20.16V9.135H0V20.16ZM20.16 1.89H15.75V0.21C15.75 0.0945 15.6555 0 15.54 0H14.07C13.9545 0 13.86 0.0945 13.86 0.21V1.89H7.14V0.21C7.14 0.0945 7.0455 0 6.93 0H5.46C5.3445 0 5.25 0.0945 5.25 0.21V1.89H0.84C0.375375 1.89 0 2.26537 0 2.73V7.35H21V2.73C21 2.26537 20.6246 1.89 20.16 1.89Z" fill="white" fill-opacity="0.4"/>
</svg>
