<svg width="24" height="25" viewBox="0 0 24 25" fill="none" xmlns="http://www.w3.org/2000/svg">
<path d="M1.5 2.94118H22.5C23.3284 2.94118 24 2.28277 24 1.47059C24 0.658405 23.3284 0 22.5 0H1.5C0.671572 0 0 0.658405 0 1.47059C0 2.28277 0.671572 2.94118 1.5 2.94118Z" fill="white"/>
<path d="M24 4.41176V1.47059C24 0.658405 23.3284 0 22.5 0C21.6716 0 21 0.658405 21 1.47059V4.41176C21 5.22395 21.6716 5.88235 22.5 5.88235C23.3284 5.88235 24 5.22395 24 4.41176Z" fill="white"/>
<path d="M3 4.41176V1.47059C3 0.658405 2.32843 0 1.5 0C0.671572 0 0 0.658405 0 1.47059V4.41176C0 5.22395 0.671573 5.88235 1.5 5.88235C2.32843 5.88235 3 5.22395 3 4.41176Z" fill="white"/>
<path d="M6 14.7059C5.76713 14.7059 5.53746 14.6527 5.32918 14.5506C5.1209 14.4485 4.93972 14.3003 4.8 14.1176C4.68181 13.9632 4.59582 13.7873 4.54693 13.6003C4.49804 13.4132 4.48722 13.2185 4.51508 13.0273C4.54293 12.8361 4.60893 12.6522 4.70929 12.486C4.80965 12.3199 4.94241 12.1747 5.1 12.0588L11.1 7.64706C11.3569 7.46302 11.6668 7.36383 11.985 7.36383C12.3032 7.36383 12.6131 7.46302 12.87 7.64706L18.87 11.7941C19.1934 12.019 19.4128 12.3603 19.4802 12.7433C19.5477 13.1264 19.4577 13.52 19.23 13.8382C19.1163 13.9973 18.9716 14.1327 18.8043 14.2366C18.6369 14.3405 18.4503 14.4109 18.255 14.4438C18.0598 14.4766 17.8598 14.4711 17.6667 14.4278C17.4736 14.3844 17.2912 14.304 17.13 14.1912L12 10.6471L6.9 14.4118C6.64036 14.6027 6.32456 14.7059 6 14.7059Z" fill="white"/>
<path d="M12 25C11.6022 25 11.2206 24.8451 10.9393 24.5693C10.658 24.2935 10.5 23.9194 10.5 23.5294V11.7647C10.5 11.3747 10.658 11.0006 10.9393 10.7248C11.2206 10.4491 11.6022 10.2941 12 10.2941C12.3978 10.2941 12.7794 10.4491 13.0607 10.7248C13.342 11.0006 13.5 11.3747 13.5 11.7647V23.5294C13.5 23.9194 13.342 24.2935 13.0607 24.5693C12.7794 24.8451 12.3978 25 12 25Z" fill="white"/>
</svg>
