<svg width="80" height="80" viewBox="0 0 80 80" fill="none" xmlns="http://www.w3.org/2000/svg">
<circle cx="40" cy="38" r="38" fill="#111828"/>
<path d="M19.1624 58.807L18.9379 59.1374L19.2106 59.4293C24.4121 64.9971 31.7942 68.5 40 68.5C48.2057 68.5 55.5879 64.9971 60.7894 59.4293L61.0621 59.1374L60.8376 58.807C57.1633 53.4 51.0333 49.788 44 49.788H36C28.9707 49.788 22.8368 53.4 19.1624 58.807ZM0.5 40C0.5 18.5921 18.5921 0.5 40 0.5C61.4079 0.5 79.5 18.5921 79.5 40C79.5 61.4079 61.4079 79.5 40 79.5C18.5921 79.5 0.5 61.4079 0.5 40ZM52.5 32C52.5 24.8117 47.184 19.5 40 19.5C32.8201 19.5 27.5 24.8116 27.5 32C27.5 39.1884 32.8201 44.5 40 44.5C47.184 44.5 52.5 39.1883 52.5 32Z" fill="white" stroke="white"/>
</svg>
